<svg width="17" height="30" viewBox="0 0 17 30" fill="none" xmlns="http://www.w3.org/2000/svg">
<path d="M16.3499 29.3397C16.7662 28.9167 17 28.3431 17 27.7451C17 27.147 16.7662 26.5735 16.3499 26.1505L5.35937 14.9864L16.3499 3.82223C16.7544 3.39686 16.9782 2.82714 16.9731 2.23579C16.968 1.64443 16.7345 1.07875 16.3229 0.660585C15.9112 0.24242 15.3543 0.00522615 14.7722 8.77562e-05C14.19 -0.00505255 13.6292 0.222279 13.2104 0.633116L0.650078 13.3918C0.233833 13.8148 1.86167e-07 14.3883 1.79036e-07 14.9864C1.71904e-07 15.5844 0.233833 16.158 0.650078 16.5809L13.2104 29.3397C13.6268 29.7625 14.1914 30 14.7802 30C15.3689 30 15.9336 29.7625 16.3499 29.3397Z" fill="black"/>
</svg>
