<svg width="17" height="10" viewBox="0 0 17 10" fill="none" xmlns="http://www.w3.org/2000/svg">
<path d="M16.207 0.831836C15.9818 0.605066 15.6764 0.477674 15.358 0.477674C15.0396 0.477674 14.7342 0.605066 14.509 0.831836L8.56496 6.81948L2.62087 0.831835C2.39439 0.611492 2.09106 0.489568 1.77621 0.492324C1.46135 0.49508 1.16017 0.622295 0.937529 0.846569C0.714887 1.07084 0.588598 1.37423 0.585862 1.69139C0.583126 2.00855 0.704163 2.31411 0.922903 2.54224L7.71597 9.3851C7.94116 9.61186 8.24654 9.73926 8.56496 9.73926C8.88337 9.73926 9.18875 9.61187 9.41394 9.3851L16.207 2.54225C16.4321 2.31541 16.5586 2.00779 16.5586 1.68704C16.5586 1.36629 16.4321 1.05867 16.207 0.831836Z" fill="black"/>
</svg>
