<svg width="17" height="30" viewBox="0 0 17 30" fill="none" xmlns="http://www.w3.org/2000/svg">
<path d="M0.650078 0.660347C0.233833 1.08329 1.97578e-08 1.65686 2.68894e-08 2.2549C3.40211e-08 2.85295 0.233833 3.42651 0.650078 3.84946L11.6406 15.0136L0.650078 26.1778C0.245631 26.6031 0.0218357 27.1729 0.0268939 27.7642C0.0319541 28.3556 0.265461 28.9212 0.677124 29.3394C1.08879 29.7576 1.64567 29.9948 2.22783 29.9999C2.80999 30.0051 3.37085 29.7777 3.7896 29.3669L16.3499 16.6082C16.7662 16.1852 17 15.6117 17 15.0136C17 14.4156 16.7662 13.842 16.3499 13.4191L3.7896 0.660347C3.37323 0.237527 2.80859 3.20998e-07 2.21984 3.34315e-07C1.63109 3.47632e-07 1.06645 0.237527 0.650078 0.660347Z" fill="black"/>
</svg>
