<?xml version="1.0" encoding="utf-8"?>
<!-- Generator: Adobe Illustrator 27.5.0, SVG Export Plug-In . SVG Version: 6.00 Build 0)  -->
<svg version="1.1" id="Layer_1" xmlns="http://www.w3.org/2000/svg" xmlns:xlink="http://www.w3.org/1999/xlink" x="0px" y="0px"
	 viewBox="0 0 159.2 134.6" style="enable-background:new 0 0 159.2 134.6;" xml:space="preserve">
<style type="text/css">
	.st0{fill:#67A0BF;}
	.st1{fill:#C14E30;}
	.st2{fill:#161313;}
	.st3{fill:#FCFCFB;}
	.st4{fill:#FFFFFF;}
</style>
<g>
	<path class="st0" d="M155.9,109.9c-1.9-3-4.4-4.8-7.6-5.5c-1.5-0.3-2.9-0.3-4.2-0.3c-0.7,0-1.4,0-2,0c-2.1-0.1-3.9,0.8-5.6,1.6
		l-0.2,0.1c-1.8,0.8-3.2,2.1-4.3,3.2c-0.1,0.1-0.1,0.2-0.2,0.2c0.1-0.1,0.1-0.3,0.1-0.5c-0.1-0.3,0.1-0.5,0.5-0.8
		c0.2-0.2,0.5-0.4,0.7-0.7c0-0.1,0.1-0.1,0.2-0.2c0.2-0.2,0.7-0.7,0.4-1.4c-0.3-0.8-1.6-1.2-2.5-1.3c-0.5,0-1.6-0.1-2.1,0.6
		c-0.5,0.8-1.2,1.3-2.2,1.6c1.3-0.8,2.1-2,2.3-3.7c0.1-1.1-0.4-2-1.6-2.6c-0.4-0.2-0.8-0.2-1.1,0c-0.4,0.2-0.6,0.7-0.7,1.1
		c0,0.1,0,0.2-0.1,0.3c-0.1,0.2-0.2,0.4-0.4,0.6c-2,1.5-6.1,2.8-8.7,0.1c-0.4-0.4-0.8-0.5-1.1-0.4c-0.3,0-0.7,0.2-0.8,0.5
		c-0.4,0.5-1.4,1.9-0.1,3.3c0.8,0.8,1.8,1.6,3.2,2.1c0.2,0.1,0.4,0.1,0.7,0.1c0.1,0,0.1,0,0.2,0c-0.7,0.1-1.5-0.1-2.5-0.4
		c-0.3-0.2-1.1-0.5-1.6,0.3l-0.2,0.4c-0.5,0.8-0.9,1.6-1.1,2.6c-0.6,2.3-0.4,4.7,0.4,7.6c0.4,1.3,1.1,2.9,2.4,3.8
		c3.5,1.9,7.4,2.7,11.3,2.2c2.2-0.3,4.1-0.3,5.9,0.2c2.8,0.6,5.6,1.3,8.6,1.3c0.7,0,1.3,0,2-0.1c3.1-0.4,6.1-1.1,9.2-2.1
		c2-0.6,3.2-1.7,3.7-3.6C157.5,116.7,157.9,113.2,155.9,109.9z"/>
	<path class="st0" d="M111,65.8c0.5-0.4,1-0.7,1.5-1c0.3-0.2,0.7-0.4,1-0.7l0.9-0.6l-1.1-0.3c-0.2-0.1-0.4-0.1-0.6-0.1
		c-0.2,0-0.3,0-0.5-0.1c-5-1.3-9.3-1.9-13.3-2c-2.5-0.1-4.8,0-7,0.4c-2.2,0.4-4.6,1-5.1,4.2l-0.1,0.5c-0.2,1.2-0.3,2.4-0.4,3.7
		c-0.1,2.5,0.9,4.8,1.7,6.5l0.2,0.4c1.2,2.5,2.4,4.9,1.3,7.6c-0.3,0.7-0.3,1.3-0.1,1.8c0.2,0.4,0.6,0.7,1.1,0.9
		c1.8,0.6,3.6,0.9,5.5,0.9c1.6,0,3.2-0.2,5-0.5c0.5-0.1,0.8-0.3,0.9-0.6c0.2-0.5,0-1-0.2-1.3c-0.2-0.4-0.6-0.4-0.9-0.5
		c-0.1,0-0.2,0-0.3-0.1c-1.3-0.3-2.6-0.6-3.9-1.2c2.2,0.5,4.4,0.5,6.6,0.5l0.8,0c2.1,0,2.1,0,2.6,1.8c0.5,1.8,1.7,2,3,1.9
		c0.3,0,0.6-0.1,0.8-0.2c0.3-0.1,0.7-0.2,1-0.2l0.9-0.1l-0.5-0.7c-0.7-0.9-1.5-1.7-2.5-2.6c-2.6-3.6-4.2-6.8-3.2-10.8
		C107.2,69.6,108.6,67.3,111,65.8z"/>
	<path class="st0" d="M111.4,112.9c0.7-3.3-0.9-5.4-3-7.6c-0.7-0.7-1.3-0.3-1.7,0c-0.6,0.5-1.3,0.8-2,1.1c0.5-0.2,1.1-0.5,1.6-0.9
		c1.3-1,1.9-2.2,1.7-3.6c-0.2-1.6-1.7-2-2.8-2.3l-0.2,0.5l0.1-0.5l-0.8-0.2l0.1,0.8c0.3,1.6-0.1,2.2-1.6,2.5
		c-1.3,0.5-2.6,0.9-4.1,0.9c-0.3,0-0.5-0.1-0.8-0.1l-0.2-0.1c-1.4-0.4-2-1.5-2.5-2.7L95,100l-0.6,0.6c-1.4,1.4-1.6,2.5-0.7,4.1
		c0.5,1,1.4,1.5,2.3,1.9c0.1,0.1,0.3,0.1,0.4,0.2c-1.2-0.3-2.3-0.7-3-1.7c-0.9-1.2-1.9-0.6-2.3-0.3l-0.1,0.1
		c-0.1,0.1-0.5,0.3-0.6,0.7c0,0.4,0.2,0.6,0.4,0.8c0,0,0.1,0,0.1,0.1c0,0.3,0.1,0.5,0.2,0.7c0,0.1,0.1,0.2,0.1,0.3
		c-0.1,0-0.2-0.2-0.4-0.3c-0.1-0.1-0.2-0.1-0.3-0.2c-3.6-2.4-7.6-4.6-12.6-4.1c-0.1,0-0.3,0-0.5,0c-1,0.1-2.2,0.2-2.4,1
		c-0.2,0.4-0.2,0.9-0.3,1.3c-0.1,0.7-0.3,1.3-0.7,1.9l-0.3,0.3l0.5,0.5c0.2,0.2,0.5,0.4,0.7,0.5c0.6,0.5,1.2,1,2,1.3
		c0.6,0.2,1.1-0.1,1.6-0.4c0.2-0.1,0.4-0.2,0.5-0.3c0.4-0.1,0.9-0.2,1.2-0.4c0.8-0.4,1.6-0.4,2.5-0.5c0.5,0,1,0,1.4-0.1
		c3.1-0.5,5.9-0.1,8.3,1.2c2.9,1.6,4.8,4,5.7,7.1c0.3,1.1,0.3,2.2,0.3,3.4c0,0.5,0,1,0,1.5c0,0,0,0.1,0,0.1c0,0.3-0.1,0.7,0.2,1
		c0.1,0.1,0.3,0.3,0.6,0.3c0,0,0,0,0,0c0.3,0,0.6,0.1,0.9,0.2c0.5,0.1,1,0.2,1.6,0.2c0.2,0,0.5,0,0.8-0.1c0.4-0.1,0.8-0.2,1.2-0.3
		c1.7-0.4,3.6-0.8,5.2-1.6c1.7-0.8,2.9-2.8,2.8-4.7c0-0.5-0.1-0.9-0.2-1.4C111.4,114.3,111.2,113.6,111.4,112.9z M102.6,107.2
		L102.6,107.2L102.6,107.2C102.6,107.2,102.6,107.2,102.6,107.2z"/>
	<path class="st0" d="M92.7,34.6c2.2,1.3,4.7,2,7.2,2c1.1,0,2.3-0.1,3.4-0.4c3.3-0.8,5.6-2.7,6.6-5.6c1.3-3.6-1-8.7-4.8-10.7
		c-2.7-1.3-5.3-1.8-8.4-1.7c-2.4-0.3-4.8,0.2-7,1.6c-2.2,1.2-3.7,4.5-3.1,6.7C87.4,29.9,89.6,32.8,92.7,34.6z"/>
	<path class="st0" d="M136.6,14.8c0.3,0.1,0.6,0.3,0.9,0.6c0.2,0.1,0.4,0.3,0.5,0.4c1,0.7,2,1.4,2.9,2c1.6,1,3.2,2.1,4.6,3.3
		c0.2,0.2,0.4,0.4,0.8,0.4c0,0,0.1,0,0.1,0c0.2,0,0.4-0.2,0.6-0.6c0.1-0.3,0.5-0.6,0.8-0.8c0.2-0.2,0.5-0.3,0.7-0.5
		c1.1-1,1.4-2.2,0.8-3.4c0-0.1-0.1-0.3-0.1-0.5c-0.1-0.2-0.1-0.4-0.2-0.6c-1.5-3.7-4.5-6-8-6.2c-0.9-0.1-1.5,0.4-2,0.8
		c-0.6,0.5-1.2,1-1.7,1.5c-0.4,0.4-0.8,0.8-1.2,1.2c-0.2,0.2-0.9,0.7-0.9,1.3C135.4,14.3,136.1,14.6,136.6,14.8z"/>
</g>
<g>
	<path class="st1" d="M95.7,126.4c1.7-2.7,2.1-5.8,1.4-9.2c-0.9-3.5-3-6.1-6.2-7.3c-1.6-0.7-3.3-0.7-4.8-0.6c-0.6,0-1.2,0-1.7,0
		c-3-0.2-5.7,1.1-7.9,2.5c-0.5,0.3-1,0.7-1.5,1c-0.3,0.3-0.7,0.5-1,0.8c0.3-0.4,0.6-0.7,0.9-1.1c0.1-0.2,0.3-0.3,0.4-0.4l0.1-0.1
		c0.3-0.3,0.9-0.8,0.5-1.5c-0.3-0.8-1.4-1.2-1.8-1.4c-0.9-0.3-1.8-0.4-2.3-0.2c-0.2,0.1-0.4,0.2-0.7,0.3c0.7-0.4,1.4-0.8,2-1.3
		c0.9-0.8,1.4-1.6,1.4-2.4c0-0.9-0.4-1.8-1.4-2.9c-0.5-0.5-0.9-1-1.5-0.9c-0.5,0.1-0.8,0.7-1.1,1.5l-0.2,0.5
		c-0.4,1.3-0.8,2.4-2.3,2.8c-1.9,0.4-3.7,0.2-5.7,0c-0.6-0.1-1.2-0.5-1.6-0.8c-1.2-1-0.9-2.1-0.1-3.9l0.5-1.3L60,101
		c-0.9,0.5-1.5,0.8-1.9,1.3c-1.2,0.8-1.8,1.8-1.9,2.9c-0.1,1,0.3,1.9,1.1,2.8c-0.7-0.7-1.5-0.7-2.2,0c-4,3.6-5.6,8-4.7,13
		c0.2,1.2,0.6,3,1.9,4c0.3,0.2,0.6,0.4,0.8,0.6c-0.2,0-0.4,0-0.6,0.1c-0.2,0.1-0.4,0.3-0.4,0.8c0,0.1-0.1,0.3-0.2,0.5
		c-0.2,0.5-0.7,1.3,0.3,2c0.9,0.7,2.2,1.3,3.4,1.5c3.3,0.5,6.7,0.5,10.2,0.1c0.6-0.1,1.3-0.2,1.8,0c1.2,0.7,2.5,0.9,3.7,1.2
		c0.5,0.1,1.1,0.2,1.6,0.4c2.4,0.6,4.8,0.9,7.4,0.9l0.1,0c0.3,0,0.8,0,1.3,0c0.3,0,0.6,0,1,0c0.3,0,0.5,0,0.8,0
		c0.7-0.1,1.4-0.2,2-0.4c1.5-0.2,3-0.5,4.5-0.8c1.2-0.2,2.5-0.6,3.6-1c0.5-0.1,0.9-0.3,1.4-0.4c0.4-0.1,0.7-0.4,0.9-0.7
		c0.2-0.4,0-0.9-0.2-1.2c-0.1-0.1-0.1-0.3-0.1-0.4c0-0.5-0.2-0.7-0.4-0.8c-0.2-0.1-0.4-0.1-0.6-0.1
		C95.1,127.1,95.4,126.8,95.7,126.4z M68.3,127.5C68.3,127.5,68.3,127.5,68.3,127.5C68.3,127.5,68.3,127.5,68.3,127.5z M90.4,128.9
		c-0.2,0.1-0.5,0.1-0.7,0.2C89.9,129,90.1,129,90.4,128.9z M89,129.2c-0.4,0.1-0.8,0.1-1.2,0.2C88.2,129.3,88.6,129.3,89,129.2z"/>
	<path class="st1" d="M57.8,68.1c0.1,0.2,0.2,0.5,0.3,0.6c0.9,2.2,1.2,4.5,1,6.7c-0.3,2.9-1.4,5.5-3.2,7.7c-0.4,0.4-0.4,0.7-0.3,0.9
		c0,0.2,0.2,0.5,0.6,0.7c1,0.4,1.6,1.1,2.4,2c0.2,0.2,0.3,0.4,0.5,0.5l0.7,0.8l0.2-1.1c0-0.3,0.1-0.5,0.2-0.7
		c0.1-0.3,0.2-0.6,0.1-0.9c0.1-0.9,0.3-1.4,0.5-1.6c0.3-0.2,0.8-0.2,1.6,0c1.1,0.3,2,0.2,3.1,0.1c0.6-0.1,1.3-0.1,1.9-0.2
		c0.6-0.1,1.2-0.1,1.8-0.2c-1.1,0.5-2.3,0.8-3.7,1c-1.2,0.1-2.3,1.6-2.1,3c0.1,1,0.8,1.2,1.4,1.2c0.1,0,0.3,0,0.4,0
		c0.1,0,0.2,0,0.3,0c3,0,6.3-0.2,9.5-1.3c0.1-0.1,0.3-0.1,0.5-0.1c0.6-0.2,1.6-0.4,1.6-1.7c0-0.2,0-0.4,0.1-0.6
		c0.1-0.7,0.2-1.5-0.4-2.2c0,0,0,0,0,0c0,0,0.1-0.1,0.1-0.1c2.4-2.7,3.8-5.3,4.4-8.1c0.9-3.5,0.9-6.7,0.1-9.9
		c-0.2-0.4-0.5-0.8-1-0.9c-0.5-0.1-0.9-0.2-1.4-0.3c-1.1-0.3-2.2-0.5-3.4-0.6c-1.2-0.1-2.4,0-3.5,0.1c-0.9,0.1-1.8,0.2-2.7,0.2
		c-3.1,0-6,0.9-8.8,1.7c-0.7,0.2-1.4,0.4-2.1,0.6c-0.7,0.2-0.9,0.6-1,0.9c-0.1,0.2-0.1,0.6,0.1,1.1C57.6,67.7,57.7,67.9,57.8,68.1z"
		/>
	<path class="st1" d="M39,98.6c-1.4-0.5-3.1-1.1-4.9,0L34,98.7c-0.4,0.3-0.9,0.6-0.9,1.4c0,1,0.9,1.2,1.4,1.3
		c0.7,0.2,1.4,0.7,1.8,1.3c-0.3-0.1-0.5-0.2-0.8-0.4c-0.7-0.4-1.6-0.8-2.4-0.6c-0.2,0.1-0.3,0.1-0.5,0.2c0.4-2.7,0.3-5.6-0.3-8.8
		c-0.7-3.4-2.1-5.7-4.2-7.4c-3.3-2.6-7-3.5-11.3-2.7c-2.4,0.5-4.1,1.6-5.4,3.7l-0.6,0.9l1-0.1c0,0,0,0,0.1,0c-0.4,0.1-0.7,0.1-1,0.2
		c-2.9,0.7-5.3,2.8-6.6,5.6l-0.2,0.4L4.4,94c0.4,0.2,0.7,0.2,1.1-0.2l0.1-0.1c2-1.9,4.5-2.3,7.8-1.4c-1.1-0.3-2.4-0.4-3.7-0.3l0,0
		c-0.2,0-0.3,0-0.5,0.1c-0.5,0.1-0.8,0.1-1.2,0.2c-1.6,0.4-3,1.7-3.8,3.6c-1.1,2.5-1,5.6,0.2,7.6c1.4,2.4,3.1,4.7,4.5,6.7
		c1.9,2.5,3.7,4.5,5.5,6.2c0.5,0.6,1.2,0.9,1.9,1c-0.2,0.1-0.4,0.2-0.5,0.5c-0.2,0.4-0.1,0.9,0,1.3c1.2,3.8,3.1,6.5,5.9,8.1
		c1.8,1,3.7,1.5,5.5,1.5c0.9,0,1.8-0.1,2.6-0.3c1.8-0.4,3-1.2,3.6-2.4c-0.1,0.1-0.1,0.3-0.2,0.4l-0.5,0.9l1-0.1c1-0.1,2.6-1,3.3-1.8
		c0.2-0.3,0.3-0.6,0.3-0.8c0-0.2,0-0.5,0-0.7c0.1-1.6,0.2-3.3-0.6-5c-1.2-2.6-3.3-4.8-6.5-7c-1-0.7-1.3-1.1-1.2-2.1
		c0.2-0.8,0.1-1.5,0-2.1l-0.1-0.4c-0.4-2.5-0.8-5-1.6-7.5c-1.7-5.1-4-8.3-7.4-10.5c-1.7-1.1-3.6-1.8-5.4-2c1.1,0.1,2.1,0.3,3.1,0.7
		c4.2,1.6,7.3,4.8,9.1,9.3c1.6,3.8,2.4,7.9,2.7,12.6c0,0.8,0.4,1.2,0.8,1.5c1.8,1.2,3.3,2.5,4.4,3.8c2.6,3,3.6,5.6,3.1,8.4
		c-0.1,0.2-0.3,0.8,0.1,1.1c0.1,0.1,0.3,0.2,0.5,0.2c0.2,0,0.4,0,0.6-0.2c0.2-0.1,0.5-0.3,0.7-0.4c0.8-0.4,1.6-0.9,2.3-1.7
		c2.8-3.6,3.5-7.6,2.1-12.1c-0.2-0.7-0.5-1.3-0.8-2c-0.1-0.1-0.1-0.3-0.2-0.4c0.1,0.2,0.3,0.4,0.6,0.5c0.3,0.1,0.6,0,0.8-0.2
		c0.6-0.4,1-1,1.1-1.9c0.2-1.6,0-2.9-0.8-4.1C43.4,100.6,41.2,99.5,39,98.6z M33.2,120.7c-1.3-2.6-3.5-4.2-5.7-5.8l-0.4-0.3
		c-0.6-0.5-1.2-0.2-1.5,0l-0.1,0.1c0,0-0.1,0-0.1,0.1c0.2-0.1,0.3-0.3,0.5-0.4c0.3-0.3,0.4-0.6,0.4-0.9c0.1,0.4,0.4,0.8,1,1.1
		c2,1.2,3.6,2.6,5.1,4.5c0.5,0.6,0.8,1.3,1.1,2C33.4,120.9,33.3,120.8,33.2,120.7z M33.9,123c0-0.2-0.1-0.3-0.1-0.5
		c0-0.2-0.1-0.4-0.1-0.7C33.8,122.2,33.9,122.6,33.9,123z M22.3,99.4c2.5,3.7,3.8,8,3.9,12.9c0-0.1,0-0.2-0.1-0.2
		c-0.1-0.3-0.1-0.6-0.1-0.8c-0.1-4.5-1.4-8.5-4-12.1c-0.8-1.2-1.8-2.5-3.1-3.6C20.1,96.6,21.2,97.8,22.3,99.4z M34,123.7
		c0,0.9-0.2,1.7-0.5,2.4C33.8,125.5,33.9,124.6,34,123.7z"/>
	<path class="st1" d="M10.2,19.2c0.3,0.4,0.9,1.1,1.7,1.1c0.2,0,0.4,0,0.6-0.1c1.7-0.6,3.5-1.4,5-2.3c0.3-0.2,0.6-0.4,0.7-0.8
		c0-0.4-0.2-0.7-0.4-0.8c-2.4-2.7-3.6-5.8-3.6-9.4c0-0.3,0-0.8-0.4-1c-0.4-0.3-0.9-0.1-1.1-0.1c-0.6,0.2-1.2,0.4-1.8,0.6
		c-0.6,0.2-1.1,0.4-1.7,0.6c-2.4,0.8-2.5,1-2.5,3.5l0,0C6.8,13.5,7.9,16.4,10.2,19.2z"/>
	<path class="st1" d="M21.1,19.4c0.1,0.2,0.3,0.6,0.8,0.6c0,0,0,0,0,0c0.4,0,0.7-0.4,0.9-0.7c2.3-3.5,4.7-5.6,7.8-6.7
		c0.2-0.1,0.7-0.3,0.7-0.8c0.1-0.5-0.3-0.8-0.4-0.9c-0.7-0.8-1.4-1.7-2-2.5c-0.5-0.7-1.1-1-1.8-0.9c-2.9,0-6.7,3-7.8,6.2l-0.1,0.2
		c-0.2,0.6-0.5,1.4-0.1,2C19.8,17.1,20.4,18.4,21.1,19.4z"/>
	<path class="st1" d="M69.7,29.9c0.2,0,0.5,0.1,0.7,0.1c1.6,0,2.9-0.8,3.8-2.4c0.7-0.9,0.9-1.9,0.6-2.8c-0.3-0.8-1.1-1.4-2.3-1.5
		c-1.2-0.2-2.5,0-4,0.6c-1.5,0.7-2.4,2.6-2,4.1C67,29.5,68.1,30.1,69.7,29.9z"/>
	<path class="st1" d="M57.4,86.8l-0.5-0.7l-0.4,0.8c-0.1,0.3-0.3,0.5-0.5,0.8c-0.4,0.5-0.8,1.2-0.4,1.7c0.1,0.2,0.2,0.3,0.4,0.4
		c0.1,0.1,0.2,0.1,0.4,0.1c0.2,0,0.5-0.1,0.7-0.2c0.2-0.1,0.4-0.2,0.6-0.2l0.1,0c0.3,0.1,0.6-0.1,0.7-0.2l0.2-0.2l-0.1-0.3
		c-0.2-0.6-0.5-1.1-0.9-1.6C57.7,87.1,57.5,87,57.4,86.8z"/>
	<path class="st1" d="M135.4,41.8c-0.1-0.7-0.8-1.6-1.8-1.7l-0.4,0c-1.1-0.1-2.3-0.2-3.5,0.4c-1.5,0.8-2.7,1.9-3.5,3.3
		c0-0.1,0-0.2-0.1-0.2c-0.1-0.2-0.4-0.3-0.7-0.3c-0.3,0-0.5-0.1-0.8-0.1c-0.7-0.1-1.4-0.3-2,0c-2.2,0.9-5,2.3-6,5.6
		c-0.3,1.1-0.1,2.4,0.7,3.3c0.7,0.9,1.7,1.4,2.8,1.4c0,0,0.1,0,0.2,0c5.2-0.2,9.8-2.1,13.5-5.6C135.6,46.1,135.6,43.8,135.4,41.8z"
		/>
	<path class="st1" d="M52.6,51.3c1.2-0.1,2.5-0.3,3.7-0.7c0.9-0.3,1.1-0.8,0.8-1.6c-1.2-3.5-5.1-5.6-9.2-4.9l-0.5,0.1l0.1,0.5
		c0,0.1,0,0.2,0.1,0.3c0,0,0,0,0,0c-2.2-2.5-5.2-3.5-9.2-3.2c-1.2,0.1-2.5,1-3.1,2.1C35,44.5,35,45.3,35.5,46c1.7,2.5,4,4.2,6.9,4.9
		c2.1,0.5,4.1,0.7,6.1,0.7c1.1,0,2.1-0.1,3.2-0.2C52,51.4,52.3,51.3,52.6,51.3z"/>
</g>
<g>
	<g>
		<path class="st2" d="M25.6,0c0.7,0.5,1.1,1.2,1.4,2c2,4.3,4.6,8.2,8,11.6c0.3,0.3,0.4,0.4,0.9,0.1c5-2.2,10.2-3.9,15.5-5
			c2.5-0.5,5-1,7.5-1.7c1.9-0.5,3.9-0.7,5.9-0.9c3.2-0.4,6.4-0.6,9.6-0.6c2.7,0,4.7,0.8,5.6,4.2c0.8,2.9,1.6,5.8,1.9,8.9
			c0.3,3.5,0.2,6.9-0.3,10.4c-0.6,4.4-2.3,8.4-4.5,12.1c-1.1,1.9-2.5,3.6-4,5.2c-0.6,0.6-0.6,0.9,0.2,1.2c3.4,1.4,6.9,2.7,10.5,3.5
			c2.1,0.5,4.1,0.8,6.2,1.3c0.9,0.2,1.3,1.1,0.8,1.8c-0.9,1.3-1.4,2.7-1.8,4.2c-0.3,1.4-1.4,1.5-2.4,1.3c-2.2-0.4-4.4-0.8-6.5-1.4
			c-1.1-0.3-1.1-0.1-0.9,0.9c0.3,1,1.1,1.8,1.2,2.8c0,0.1,0.2,0.3,0.4,0.3c2.3,0.2,2.5,2.2,2.7,3.7c0.4,3.7-0.2,7.4-1.8,10.8
			c-0.5,1.2-1.1,2.3-2,3.3c-0.6,0.7-1.1,1.3-0.8,2.5c0.3,1.1,0.1,2.5,0.1,3.7c0,1-0.8,1.7-1.6,1.8c-2.2,0.4-2.5,2.3-3.1,3.9
			c-0.8,2.2-1.3,4.5-2,6.8c-0.3,0.8,0.1,1,0.5,1.5c1.4,1.6,2.9,1.3,4.7,1.1c3.8-0.4,7.6,0.2,11,2.3c0.9,0.6,1.6-0.1,2.4-0.4
			c0.7-0.2,1.2-0.5,1.2-1.6s0.7-2.2,1.7-2.8c0.7-0.4,0.6-0.7,0.4-1.3c-1-2.8-2-5.5-2.8-8.4c-0.1-0.4-0.4-0.8-0.9-1
			c-1.9-0.5-2.6-1.6-2.2-3.5c0.7-2.9-0.1-5.5-1.4-8.1c-1.1-2.1-2-4.4-2-6.7c0-2.9,0.5-5.8,2.1-8.3c0,0,0-0.1,0.1-0.1
			c2.8-1,2.6-3.9,3.9-5.9c0.7-1,0.9-2.3,1.8-3.3c-3.2-1.1-6.4-1.7-9.6-2.5c-0.3-0.1-0.6-0.2-0.8-0.3c-0.2-0.1-0.5-0.3-0.4-0.6
			s0.3-0.4,0.6-0.5c2.1-0.4,4.2-0.9,6.4-1.1c1.4-0.1,2.7-0.7,4.1-0.6c0.7,0,0.3-0.6,0.1-0.8c-1.7-2.4-2.7-5-3.3-7.8
			c-0.2-0.8-0.4-1.6-0.3-2.3c0.1-1.5-0.8-2.4-1.6-3.4c-1.8-2.5-3-5.3-2.7-8.4c0.3-2.7,1.8-4.6,4.1-5.9c0.7-0.4,1.5-0.8,2.3-1.1
			c0.9-0.3,1.5-0.8,1.8-1.8c1-3.6,2.6-6.9,4.9-9.9c0.5-0.7,1.1-1.1,1.9-1.3c1.2-0.3,2.5-0.3,3.7-0.1c3.9,0.5,7.8,1,11.6,1.8
			c3.7,0.7,7.2,2.1,10.8,3.3c2.3,0.8,4.4,1.9,6.5,3.1c0.9,0.5,1.3,0.3,1.8-0.3c2.6-2.8,5.3-5.6,8.7-7.4c1.7-0.9,3.3-2,5.1-2.7
			c1.5-0.6,3-0.3,3.9,0.5c2.3,1.9,4.5,3.9,5.3,6.9c0.3,1,0.3,2.2,0.4,3.2c0.1,1.3-0.6,2.2-1.6,3c-2.7,2.1-5.6,3.8-8,6.2
			c-0.5,0.6-0.6,0.9,0,1.3c2,1.4,1.9,3.3,1.3,5.3c-0.3,0.9-0.2,1.3,0.7,1.7c3.8,2,5.3,5.4,5.5,9.4c0.1,2.3,0,4.7-0.8,7
			c-0.7,2.2-2.1,3.9-3.7,5.4c-1.3,1.2-2.8,2.1-4.5,2.7c-0.5,0.2-0.6,0.3-0.4,0.8c1.3,3,0.3,5.7-1.1,8.4c-0.5,1-1.2,2-1,3.2
			c0.3,3.3-1.6,5.4-3.9,7.2c-0.9,0.6-1,1.2-1.1,2.2c-0.2,1.4,0.5,2.6,0.7,3.9c0.3,1.7-0.2,4-2.3,5c-0.5,0.2-1.1,0.5-1.3,1
			c-1.2,2.9-3.7,3.6-6.4,4c-2.9,0.5-5.7,0.6-8.7,0.5c1.3,2.4,2.5,4.6,3.7,6.9c0.4,0.9,1.3,0.9,2,1c1.8,0.3,2.8,1.4,3,3.1
			c0.1,0.6,0.4,0.9,0.8,0.9c1.3,0.1,2.2,0.8,3.2,1.5c0.3,0.2,0.7,0.5,1.2,0.2c4-2.2,8.2-2.2,12.6-1.5c2.3,0.4,4.3,1.5,6.1,2.9
			c1.7,1.3,2.9,3.2,3.7,5.2c1.4,3.5,0.9,6.9-0.3,10.3c-0.4,1,0.2,1.9,0.3,2.9c0.2,1.6-0.4,2.6-1.6,3.5c-1.9,1.4-4.1,1.7-6.3,2.1
			c-3.8,0.7-7.6,1-11.6,0.6c-3.1-0.3-6.1-1.1-9.1-1.7c-1.3-0.3-2.8-0.2-4.2-0.2c-3.1,0-6.3,0.3-9.3-0.8c-2-0.7-2.8-1.7-2.7-3.7
			c0.1-1,0.2-2-0.1-2.9c-0.1-0.3-0.2-0.9-0.7-0.8c-0.4,0.1-0.2,0.6-0.2,0.9c0,0.2,0,0.4,0,0.7c0.5,2.3,0.1,3-2.1,3.8
			c-3.5,1.3-7.1,1.5-10.8,1.5c-0.7,0-1.6-0.7-2.1-0.1c-0.4,0.5,0.2,1.3,0.3,2c0.2,1.1,0.1,1.9-1.2,2.5c-3.2,1.4-6.5,2-9.9,2.6
			c-2.6,0.4-5.2,0.5-7.8,0.5c-3.4,0-6.5-1-9.7-1.9c-0.3-0.1-0.5-0.2-0.9-0.2c-3.3,0-6.6-0.4-9.9-0.3c-2.4,0.1-4.6-0.7-6.7-1.8
			c-1.1-0.6-1.5-1.6-0.9-3c0.6-1.2,0.3-2.1-0.3-3.2c-2-3.3-1.6-6.9-0.7-10.4c0.8-3.1,2.6-5.5,5.2-7.4c0.5-0.4,0.5-0.9,0.6-1.5
			c0.4-2.3,1.5-4.3,3.9-4.8c1.9-0.4,2.3-1.8,2.9-3.1c0.8-1.9,1.4-3.9,2.2-5.9c0.2-0.5,0.3-0.6-0.3-1c-2.1-1.1-2.1-1.2-1.5-3.5
			c0.1-0.4,0.4-0.9-0.2-1.1c-0.7-0.2-0.3,0.5-0.5,0.8c-0.4,0.7-0.4,1.5-0.6,2.2c-0.2,1-0.7,2-1.9,2.2c-1.3,0.2-2.5,1.3-4,0.6
			c-0.4-0.2-0.7,0.3-0.9,0.6c-2,3.8-4.2,7.5-6.9,10.9c-0.4,0.5-0.6,1-0.4,1.8c0.4,1.9-0.1,3.7-1.4,5.2c-0.4,0.4-0.4,0.7-0.2,1.3
			c1.6,4.9,0.5,9.3-2.8,13.1c-0.9,1-2,2-3.6,2.1c-1.2,0.1-2,0.8-2.9,1.5c-2.1,1.6-4.6,2-7.2,2.2c-1.6,0.1-3.1,0.2-4.7-0.2
			c-1.8-0.4-3.4-1.2-4.8-2.4c-2.9-2.4-4.6-5.5-5.3-9.1c-0.1-0.5-0.5-0.8-0.8-1.2c-3.2-3-5.9-6.5-8.5-10.1c-1.7-2.5-2.9-5.2-3.2-8.2
			c-0.2-2.1,0.1-4.2,1.3-6.2c1.4-2.6,3.4-4.4,6-5.7c0.6-0.3,1-1.1,1.5-1.6c2.9-3.2,6.4-4.5,10.8-3.6c1.2,0.2,2.4,0.3,3.7,0.7
			c5.2,1.9,7.8,5.8,8.7,11.1c0.2,0.9,0.3,1.8,0.2,2.7c0,0.7,0.4,0.8,0.8,0.6c1-0.3,1.9-0.4,2.9,0c1.3,0.5,1.6-0.9,2.1-1.5
			c1.2-1.5,2.2-3.2,3.3-4.8c0.4-0.5,0.4-0.7-0.4-0.9c-1.5-0.4-2.9-1-4.2-1.8c-1.2-0.7-1.9-1.9-2.1-3.2c-0.1-0.7-0.4-1-1-1.2
			c-2.3-1-3.7-2.8-4.5-5.2c0-0.1-0.2-0.2-0.2-0.3c0.5-2-1-3.3-1.5-4.9c-0.5-1.7-1.6-2.6-2.9-3.4c-1.9-1.1-3.4-2.5-3.6-4.9
			c0-0.5-0.4-0.4-0.7-0.3c-1.3,0.7-2.5,0.3-3.6-0.5c-1.1-0.8-1.5-2-1.8-3.2c-0.6-2.4-0.4-4.8,0.5-7.1c0.3-0.6,0.2-1-0.4-1.5
			c-4-3.6-5.7-8.1-5.2-13.3c0.3-2.7,1.4-5.2,3.5-7c1.1-1,2-1.9,1.2-3.4c-0.6-1.2,0-1.9,0.8-2.6c1.1-0.9,2.3-1.8,3.5-2.7
			c0.5-0.4,1.1-0.7,0.2-1.4c-0.5-0.4-0.8-1-1.1-1.6c-0.6-1.2-1.3-1.2-2.3-0.6c-3.3,2-6.9,3.3-10.6,4.1c-1.3,0.3-2.4-0.7-3.1-1.7
			c-1.8-2.6-3.4-5.4-3.8-8.7c0-0.1-0.1-0.1-0.2-0.1c0-0.9,0-1.8,0-2.7c0.8-0.9,1-2.1,2.6-2.6C6.6,6.1,11.2,4.7,15.8,3
			c2.7-1,5.5-1.8,8.2-3C24.5,0,25,0,25.6,0z M111.8,67.5c-0.8-0.3-1.1,0.4-1.5,0.8c-2.6,2.8-3.2,7.8-1.6,11.2
			c0.9,1.8,2.1,3.3,3.4,4.9c1.9,2.5,4.5,3.7,7.4,4.2c2.7,0.5,5.6,0.6,8.4,0c1.6-0.3,3.3-0.3,4.9-1c1.3-0.6,2.3-1.9,2.2-3
			c-0.2-1-1.1-1.5-2.8-1.6c-2.4-0.1-4.5,0.9-6.5,2c-0.8,0.5-1.7,0.5-2.9,0.1c1.9-0.7,3.3-1.5,4.2-3c0.4-0.7,0.4-1-0.6-1
			c-0.8,0-1.6,0.1-2.4-0.1c-2.1-0.4-3.8-1.6-4.9-3.3c-1-1.6-2.1-3.4-1.3-5.5c0.1-0.2,0-0.4,0-0.7c-0.1-1.2-0.2-2.4,0.7-3.5
			c0.5-0.6,0.9-1.4,1.6-1.9c0.2-0.1,0.6-0.4,0-0.7c-1.6-0.6-3.2-1.2-4.8-0.5C114.1,65.7,112.4,65.8,111.8,67.5L111.8,67.5z
			 M91.4,34.6c0,1.1-0.1,2,0,2.8c1.4,6.6,5.2,11.4,10.9,14.7c5.4,3.1,11.2,4.7,17.5,4.2c3.7-0.3,7.3-1.2,10.6-2.9
			c4.7-2.4,8.1-6.4,11.1-10.6c3.1-4.5,4.9-9.6,6.4-14.8c0.5-1.6,0.4-2.9-1.1-4.1c-3.7-2.9-7.3-5.7-11.4-8c-0.3-0.2-0.5-0.3-0.8-0.1
			c0.1,0.1,0.1,0.2,0.2,0.3c1.5,3.7,0.8,7.4-0.2,11.1c-0.9,3.6-3.3,6.3-6.3,8.3c-1.8,1.2-3.9,2.3-6,1.9c-5.6-0.9-8.8-5.9-7.8-11.5
			c0.5-3,1.7-5.8,3.6-8.2c2.1-2.8,4.3-5.5,8.2-6.2c-5.6-2.5-11.5-4-17.7-4.8c1.2,1.7,1.5,3.6,1.2,5.5c-0.3,2.2-0.6,4.4-1.5,6.4
			c-0.7,1.5-0.5,2.6,0.6,4c1.8,2.3,2.8,5.2,1.7,8c-2.1,5.5-7.4,7.4-12.7,6.4C95.5,36.6,93.5,35.8,91.4,34.6z M60.2,101.4
			c-0.9,0.5-1.4,0.7-1.9,1c-2.1,1.4-2.3,3.5-0.5,5.2c0.4,0.3,1.2,0.7,0.9,1.1c-0.4,0.6-0.9-0.4-1.5-0.4c-0.1,0-0.3-0.2-0.4-0.3
			c-0.5-0.5-1-0.4-1.5,0c-3.8,3.4-5.4,7.6-4.5,12.6c0.2,1.4,0.6,2.9,1.7,3.7c2,1.6,4.4,2.2,6.9,2.4c2.2,0.2,4.4,0,6.6,0
			c1,0,2-0.2,2.9,0.1c5.1,1.6,10.3,2.1,15.7,2.1c3.1,0,6.1-0.7,9-1.8c0.7-0.3,1.3-0.6,1.7-1.3c1.7-2.8,2.1-5.8,1.3-8.8
			c-0.8-3.2-2.6-5.7-5.9-7c-2.1-0.8-4.3-0.5-6.4-0.6c-2.8-0.1-5.3,1-7.6,2.4c-1.3,0.8-2.4,2-4.1,2.7c0.6-1.5,1.4-2.3,2.3-3.2
			c0.3-0.3,0.7-0.6,0.5-1.1c-0.4-0.9-2.6-1.6-3.5-1.3c-1.4,0.6-2.9,1-4.4,0.5c1.9-0.4,3.7-1.1,5.2-2.4c1.7-1.5,1.6-2.9,0-4.6
			c-1-1.1-1.3-0.9-1.7,0.5c-0.5,1.5-0.8,3.2-2.8,3.6c-2,0.5-4,0.2-5.9,0c-0.6-0.1-1.2-0.4-1.8-0.9C59,104.7,59.5,103.3,60.2,101.4z
			 M119.9,108c-1.2,0.6-2.3,0.5-4.1-0.1c-0.4-0.1-0.7-0.4-1,0.1c-0.5,0.9-1.1,1.8-1.3,2.9c-0.6,2.5-0.3,4.9,0.4,7.3
			c0.4,1.3,1,2.8,2.2,3.5c3.4,2,7.1,2.6,11,2.1c2.1-0.3,4.1-0.3,6.1,0.2c3.4,0.8,6.8,1.6,10.4,1.2c3.1-0.4,6.1-1.1,9.1-2.1
			c1.7-0.6,2.9-1.4,3.4-3.2c0.9-3.3,1.3-6.6-0.7-9.7c-1.7-2.7-4.1-4.6-7.3-5.3c-2.1-0.5-4.1-0.2-6.2-0.3c-2.1-0.1-3.9,0.8-5.6,1.7
			c-1.5,0.7-2.9,1.8-4.1,3c-0.2,0.3-0.6,0.5-0.9,0.4c-0.6-0.2,0-0.6-0.1-0.9c-0.2-1,0.8-1.2,1.2-1.8c0.2-0.4,0.8-0.6,0.6-1.2
			c-0.3-0.9-3.2-1.4-3.7-0.6c-0.9,1.4-2.1,1.9-3.7,2.1c-0.4,0-1,0.6-1.3-0.2c0.4-0.2,0.8-0.3,1.2-0.5c1.7-0.7,2.7-1.9,3-3.8
			c0.2-1.1-0.5-1.7-1.3-2.1c-0.9-0.5-0.9,0.4-1.2,1c-0.1,0.3-0.4,0.6-0.6,0.8c-2.4,1.9-6.7,2.9-9.4,0.1c-0.5-0.5-0.9-0.3-1.2,0
			c-0.6,0.8-1,1.7-0.1,2.6s1.8,1.6,3,2C118.5,107.4,119.3,107.3,119.9,108z M65.7,28.2c-0.2,0.4-0.5,0.8-0.7,1.2
			c-1.5,2.7-3.6,4.7-6.2,6.1c-4.7,2.4-9.6,3.2-14.8,2.2c-4-0.8-7.4-2.6-10.1-5.5c-2.8-2.9-4.8-6.3-5.9-10.2
			c-0.4-1.3-0.9-1.5-1.9-0.7c-2.3,1.7-4.7,3.2-6.8,5.1c-0.9,0.8-1.2,1.4-0.9,2.6c1.2,3.8,2.7,7.4,5,10.7c2.3,3.4,5,6.4,8.3,8.7
			c4.4,3.1,9.3,4.8,14.6,5.2c3.5,0.3,7.1,0.1,10.6-0.7c5.6-1.3,10.6-3.6,14.7-7.8c3.7-3.8,6.3-8.2,7.6-13.3c0.4-1.4,1.1-2.8,0.9-4.4
			c-0.2,0-0.3,0-0.4,0c-1.4,1.7-3.1,2.3-5.2,1.5c-0.4-0.1-0.7,0.2-1,0.4C70.8,31.4,67.6,30.9,65.7,28.2z M66.2,20.2
			c0.2-3.8-1-7.2-2.4-10.6c-0.5-1.3-1.4-1.4-2.4-1.1c-5.2,1.2-10.4,2.1-15.5,3.6C43,13,40.1,14,37.3,15.2c-3,1.2-5.8,2.6-8.5,4.4
			c-0.5,0.3-0.5,0.5-0.3,1c0.6,1.9,1.3,3.7,2.2,5.4c2,3.8,4.7,7,8.7,9c5.2,2.6,10.5,2.7,16,0.9c4.3-1.4,7.6-4,9.5-8.2
			C65.9,25.4,66.4,22.8,66.2,20.2z M111.6,86.9c-0.8-1-1.6-1.8-2.3-2.7c-2.5-3.3-4.4-6.9-3.3-11.3c0.7-3.1,2.1-5.8,4.9-7.6
			c0.8-0.5,1.7-1.1,2.6-1.7c-0.5-0.1-0.8-0.1-1.1-0.2c-4.3-1-8.7-1.9-13.2-2c-2.3,0-4.6,0-6.9,0.4c-2.5,0.4-4.3,1.2-4.7,3.8
			c-0.2,1.4-0.4,2.7-0.5,4.1C87,72,87.9,74.1,88.8,76c1.3,2.7,2.6,5.2,1.5,8.4c-0.2,0.6-0.5,1.7,0.7,2c3.4,1.1,6.8,1,10.3,0.3
			c0.9-0.2,0.6-0.8,0.4-1.2c-0.1-0.2-0.6-0.2-0.9-0.3c-2-0.4-3.9-0.9-5.5-2.3c0.3-0.3,0.6-0.3,0.8-0.2c2.7,0.9,5.5,0.8,8.3,0.8
			c2.3,0,2.5,0,3.1,2.2c0.4,1.4,1.3,1.6,2.4,1.5C110.3,87.2,111,87,111.6,86.9z M71.4,82.9c-1.6,1.4-3.6,2-5.6,2.2
			c-0.9,0.1-1.8,1.3-1.7,2.5c0.1,1,1,0.7,1.6,0.7c3.2,0,6.3-0.2,9.3-1.3c0.8-0.3,1.8-0.2,1.8-1.4c0-0.9,0.4-1.8-0.2-2.5
			c-0.4-0.5-0.1-0.6,0.1-0.8c2-2.3,3.5-4.8,4.3-7.9c0.8-3.2,0.9-6.4,0.1-9.6c-0.1-0.3-0.2-0.6-0.6-0.6c-1.6-0.2-3.1-0.8-4.7-0.9
			c-2.1-0.1-4.1,0.3-6.2,0.3c-3.8,0-7.3,1.3-10.8,2.3c-0.6,0.2-1,0.6-0.6,1.3c0.2,0.4,0.4,0.9,0.6,1.3c0.9,2.2,1.3,4.6,1,6.9
			c-0.3,2.9-1.4,5.6-3.3,8c-0.3,0.4-0.3,0.7,0.1,0.8c1.3,0.5,2.1,1.7,3.1,2.7c0.1-0.6,0.3-1.1,0.3-1.6c0.2-2.1,0.8-2.5,2.8-2
			c1,0.2,1.9,0.1,2.9,0.1C67.4,83.3,69.4,83.2,71.4,82.9z M31.8,103.4c0.7-3.4,0.7-6.8-0.1-10.1c-0.6-2.8-1.7-5.3-4-7.1
			c-3.2-2.6-6.9-3.3-10.9-2.6c-2,0.4-3.8,1.4-5.1,3.5c2.2-0.2,4.2-0.1,6,0.6c4.6,1.8,7.6,5.2,9.4,9.6c1.7,4.1,2.6,8.4,2.7,12.8
			c0,0.5,0.2,0.8,0.6,1.1c1.7,1.1,3.2,2.4,4.5,3.9c2.2,2.5,3.9,5.3,3.2,8.9c0,0.2-0.2,1,0.5,0.6c1-0.6,2.1-0.9,2.9-2
			c2.7-3.5,3.4-7.4,2-11.6c-0.4-1.2-1-2.3-1.4-3.4c0.4-0.1,0.6,0.1,0.9,0.1c0.5,0.1,0.5,1.2,1.2,0.6c0.5-0.4,0.8-1,0.9-1.5
			c0.2-1.3,0-2.5-0.7-3.7c-1.4-2.1-3.5-3.1-5.7-4c-1.3-0.5-2.9-1-4.4-0.1c-0.4,0.2-0.9,0.5-0.8,1.1c0,0.6,0.5,0.7,1,0.8
			c1.3,0.3,2.6,1.7,2.7,2.9c-0.4-0.2-0.7-0.5-1-0.6c-1.5-0.3-3-2.3-4.3,0.2C31.9,103.5,31.9,103.4,31.8,103.4z M9.8,92.6
			c-0.7,0.1-1.2,0.1-1.6,0.2c-3.7,0.9-5.2,7.1-3.3,10.5c1.3,2.3,2.9,4.5,4.5,6.6c1.7,2.2,3.5,4.2,5.5,6.2c0.7,0.7,1.7,1,2.5,0.7
			c1.5-0.5,3.1-0.5,4.6-1.1c1.2-0.5,2.6-0.8,3.5-1.8c0.7-0.8,0-1.8,0-2.8c-0.1-4.3-1.3-8.3-3.9-11.8C18.7,95.3,15.2,92.1,9.8,92.6z
			 M38.2,84.8c0.5,0.8,0.7,1.4,1.3,1.7c2.3,1.3,4.8,1.4,7.2,1c2.9-0.5,5.3-1.9,7.3-4.3c2.6-3.1,4.2-6.4,3.7-10.5
			c-0.4-3.1-1.6-5.6-4.1-7.6c-3.3-2.7-6.8-3.6-10.9-2c1,1.3,2,2.4,1.9,4.1c-0.1,3.5-1.5,6.1-4.5,8c-2.4,1.4-4.9,1.8-7.6,1.5
			c-0.1,1.8,1.1,3,2.1,4.2c1.1,1.3,2.7,1.9,4.2,2.6c1.6,0.8,3.2,0.7,4.8,0.7s3.1-0.9,4.6-1.2C45.3,85.2,42.1,86.2,38.2,84.8z
			 M104.9,100.1c0.3,1.8-0.1,2.7-1.7,3.2c-1.4,0.4-2.8,0.9-4.3,0.9c-0.4,0-0.8-0.1-1.1-0.2c-1.5-0.4-2.3-1.6-2.8-3
			c-1.3,1.3-1.3,2.1-0.6,3.5c0.7,1.4,2.1,1.6,3.2,2.4c0.2,0.1,0.6,0.1,0.5,0.5c-0.1,0.3-0.4,0.3-0.7,0.2c-1.6-0.4-3.2-0.7-4.2-2.1
			c-0.6-0.8-1.2-0.3-1.8-0.1c-0.8,0.4,0.3,0.6,0.2,1c-0.1,0.4,0.6,1,0.1,1.4s-0.8-0.2-1.2-0.4c-3.7-2.5-7.6-4.5-12.3-4
			c-0.9,0.1-2.3,0.1-2.5,0.7c-0.4,1.1-0.3,2.3-1.1,3.3l0.1,0.1c0.8,0.6,1.6,1.3,2.5,1.8c0.6,0.3,1.2-0.4,1.8-0.7
			c0.4-0.1,0.8-0.2,1.1-0.4c1.3-0.7,2.7-0.5,4.1-0.6c3-0.4,6-0.1,8.6,1.3c2.9,1.6,4.9,4.1,5.9,7.4c0.5,1.7,0.3,3.4,0.4,5.1
			c0,0.3-0.2,0.9,0.4,0.9c1,0,2.1,0.5,3.1,0.3c2.1-0.5,4.3-0.8,6.3-1.8c1.5-0.7,2.6-2.6,2.5-4.2c-0.1-1.2-0.6-2.4-0.3-3.7
			c0.7-3.1-1.1-5.1-2.9-7.1c-0.3-0.4-0.6-0.3-1,0c-1.2,1-2.7,1.4-4.3,1.5c-0.2,0-0.5,0-0.5-0.2c-0.1-0.4,0.2-0.3,0.5-0.4
			c1.1-0.4,2.2-0.8,3.2-1.5c1.1-0.8,1.7-1.8,1.5-3.1C107.3,100.7,106,100.4,104.9,100.1z M96.6,18.7c-2.4-0.3-4.6,0.2-6.8,1.5
			c-1.9,1.2-3.4,4.1-2.9,6.1c1.8,7.5,9.8,11.1,16.2,9.4c2.9-0.8,5.2-2.4,6.2-5.3c1.2-3.4-1-8.2-4.6-10.1
			C102.3,19,99.6,18.4,96.6,18.7z M125.2,35.9c-3.2-2.3-3.6-3-3.5-6.4c0.1-2,0.9-3,2.6-3.1c0.6,0,1.1-0.2,1.6-0.3
			c1.4-0.3,1.7-0.9,1.1-2.3c-0.4-1-0.8-2.1-1.4-3.1c-0.2-0.4-0.2-0.7,0-1.1c1.6-2.9,5.8-3.7,8.5-1.6c0-0.3,0-0.5-0.1-0.7
			c-1.2-4.1-5.7-5.2-9.2-4.4c-2.3,0.5-3.9,2.3-5.3,4.1c-2.3,2.9-3.9,6.1-4.3,9.9c-0.3,2.7,0.4,4.9,2,6.8
			C119.3,36,121.9,37.1,125.2,35.9z M33.7,126.8c1,0,3.2-1.3,3.3-2.2c0.1-1.8,0.4-3.7-0.5-5.5c-1.4-2.9-3.7-5.1-6.3-6.8
			c-1-0.7-1.6-1.3-1.4-2.6c0.1-0.7,0-1.6-0.1-2.3c-0.4-2.5-0.8-5-1.6-7.4c-1.4-4.2-3.4-7.7-7.2-10.2c-2.7-1.7-5.8-2.3-8.7-1.6
			c-2.7,0.7-5,2.6-6.3,5.3c0.3,0.2,0.4,0,0.6-0.2C7.8,91,11,91.1,13.9,92c3.7,1.2,6.5,3.8,8.7,7.1c2.7,4,3.9,8.5,4,13.3
			c0,0.7,0.1,1.3,0.8,1.7c2,1.2,3.8,2.7,5.2,4.6C34.6,121.1,35,124.5,33.7,126.8z M33.5,123.3c-0.2-0.7-0.3-1.6-0.7-2.5
			c-1.3-2.6-3.6-4.2-5.9-5.9c-0.4-0.3-0.7-0.1-1.1,0.1c-0.9,0.5-1.8,1-2.7,1.3c-1.9,0.7-4,1.1-6,1.4c-1,0.2-1,0.6-0.8,1.3
			c1,3.2,2.7,6.1,5.7,7.8c2.4,1.3,5,1.8,7.8,1.1C32.4,127.4,33.6,126.2,33.5,123.3z M64.1,8.2c0.4,0.8,0.8,1.4,1,2.1
			c0.2,1.1,0.5,0.7,1,0.2c1.3-1.3,2.8-1.4,4.1-0.3c0.5,0.4,0.9,0.9,1.3,1.3c1.9,2,1.9,2.2,0,4.1c-0.1,0.1-0.1,0.1-0.2,0.2
			c-0.2,0.3-0.8,0.5-0.6,0.9c0.1,0.3,0.6,0.4,1,0.4c2.3,0.5,2.5,0.8,2.4,2.9c0,0.6,0,1.2,0,1.7c-0.1,0.9,0.1,1.6,0.7,2.3
			c0.6,0.7,0.8,1.6,0.5,2.6c-0.1,0.4-0.8,0.9-0.2,1.4c0.6,0.4,1.2,0.3,1.8,0c2.1-1.1,3.1-2.9,3.2-5.1c0.3-4.8-0.9-9.4-2.4-13.9
			c-0.4-1.1-1.2-1.7-2.3-1.7C71.7,7.3,67.9,7.5,64.1,8.2z M108.9,102.4c0,0.4-0.2,1.3,0.1,1.5c1.3,0.9,2,2.3,2.9,3.5
			c0.1,0.2,0.5,0.5,0.6,0.3c0.3-0.6,1.2-1.1,0.6-2.1c-1.5-2.3-0.6-3.4,1.1-5c0.5-0.5,0.5-0.7,0.3-1.2c-1.5-3.1-3-6.2-4.5-9.3
			c-0.3-0.6-0.6-0.8-1.3-0.8c-2.3-0.1-2.8-0.5-3.4-2.6c-0.1-0.2-0.1-0.5-0.3-0.7c-0.2-0.5-0.7-0.3-1.1-0.3c-0.5,0-0.4,0.4-0.4,0.6
			c0.2,1.5-0.6,2.3-2,2.5c-0.8,0.1-0.6,0.5-0.4,1c0.9,2.6,1.8,5.1,2.6,7.7c0.2,0.6,0.6,0.5,1.1,0.7
			C107.2,98.6,109.2,99.3,108.9,102.4z M149,31.3c-0.6,1.7-1.2,3.4-1.9,5c-0.2,0.5-0.2,0.8,0.2,1.1c1.4,1.2,1.6,3,1.3,4.4
			c-0.7,4.2-3.3,6.8-8,5.8c0.2,0.4,0.1,1,0.7,1.1c1.9,0.5,3.1,1.7,3.9,3.5c0.1,0.3,0.3,0.8,0.9,0.5c3-1.3,5.7-3,7-6.2
			c1.1-2.7,1.3-5.6,0.8-8.5C153.3,34.9,151.7,32.7,149,31.3z M80.4,132.7c0.8-0.1,2,0.1,3.1-0.1c2.2-0.3,4.4-0.7,6.5-1.2
			c1.7-0.4,3.4-0.9,5-1.4c1.2-0.4,0.2-1.2,0.2-1.8c0-0.7-0.6-0.4-1-0.2c-2.4,1-4.8,1.8-7.4,1.9c-4.9,0.3-9.8,0.2-14.6-1.1
			c-1.8-0.5-3.6-1-5.5-1c-4.5,0.1-9.1,0.3-13.4-1.7c-0.4-0.2-0.7-0.2-0.7,0.3c0,0.7-1.1,1.3-0.1,2.1c1,0.7,2.1,1.3,3.2,1.4
			c3.3,0.5,6.7,0.5,10.1,0.1c0.7-0.1,1.5-0.2,2.1,0.1c1.7,0.8,3.5,1.1,5.2,1.6C75.4,132.4,77.7,132.7,80.4,132.7z M73.2,89.7
			c-2.3,0.2-4.3,0.6-6.4,0.6c-0.3,0-0.5,0.2-0.6,0.4c-1.6,4.2-3.2,8.4-4.7,12.6c-0.3,0.7,0,1.3,0.8,1.5c1.5,0.4,3,0.2,4.5,0.1
			c1.8,0,2-1.3,2.3-2.4c0.4-1.4,0.8-2.8,1.2-4.2C71.3,95.5,71.7,92.5,73.2,89.7z M141.7,8.2c2.8,0.7,5.2,1.9,6.7,4.3
			c0.8,1.2,1.6,2.5,1.8,4c0.1,0.6,0.2,1,1.1,0.4c1.5-1.1,2.9-2.3,4.5-3.2c0.3-0.2,0.6-0.5,0.5-1c-0.2-1-0.3-2-0.5-2.9
			c-0.5-2.2-2-3.7-3.6-5.2c-1.1-1.1-2.4-1.3-3.8-0.6c-1.6,0.8-3.2,1.8-4.8,2.7C142.9,7.1,142.1,7.3,141.7,8.2z M17.3,32.1
			c-0.7,0.7-1.5,1.3-1.9,2.1c-1.4,2.5-2.2,5-1.8,8c0.4,3.4,2.1,5.9,4.2,8.2c0.5,0.6,1.1,0.8,1.8,0.1c0.9-0.9,2.1-1.3,3.3-1.1
			c0.4,0,0.8,0,1.1-0.4c0.8-0.9,1.9-1.4,3.1-1.7c-0.7-0.1-1.5-0.1-2.2-0.1c-3.5,0.3-6.8-3.8-5.7-7.4c0.2-0.8,1-1.7,0.5-2.5
			C18.8,35.7,18.1,33.9,17.3,32.1z M141.2,128.7c2.1-0.2,4.1-0.4,6.2-0.6c2.4-0.2,4.7-0.9,7-1.8c1.2-0.5,1.6-1.3,1.5-2.5
			c-0.1-0.7-0.4-0.9-0.9-0.6c-1.8,1.1-3.8,1.6-5.8,2.1c-4.1,1.2-8.2,1.2-12.4,0.6c-3-0.5-5.9-1.9-9.1-1.1c-0.7,0.2-1.4,0.3-2.1,0.2
			c-3.3-0.2-6.6-0.3-9.6-2.1c-0.3-0.2-0.7-0.5-1,0.1c-0.4,0.8,0.1,2.3,1,2.5c1.8,0.5,3.6,0.9,5.5,0.9c4.2-0.1,8.4-0.2,12.4,1.1
			C136.4,128.4,138.8,128.3,141.2,128.7z M55.3,85.9c0-0.1-0.2-0.2-0.3-0.4c-0.4-0.2-0.6-0.1-0.9,0.2c-1.9,1.8-4.1,3.1-6.7,3.5
			c-1.3,0.2-2,0.9-2.6,1.9c-1.3,1.9-2.5,3.8-3.9,5.7c-0.5,0.6-0.4,0.8,0.2,1.1c1.7,0.7,3.2,1.9,4.3,3.3c0.5,0.6,0.6,0.4,0.9,0
			c0.5-0.7,1.1-1.4,1.5-2.1c2-3,3.8-6.2,5.6-9.4C54.1,88.6,54.6,87.3,55.3,85.9z M141.1,9.3c-0.5-0.1-1.1,0.2-1.7,0.7
			c-1,0.8-1.8,1.9-2.9,2.7c-1,0.7-0.9,1.2,0.3,1.6c0.6,0.2,1.1,0.6,1.6,1c2.6,1.7,5.2,3.3,7.6,5.3c0.2,0.2,0.5,0.5,0.7,0
			c0.3-0.7,1-1.1,1.6-1.5c1-0.8,1.2-1.7,0.7-2.9c-0.1-0.3-0.2-0.7-0.3-1C147.3,11.8,144.4,9.6,141.1,9.3z M120.2,102.2
			c1.2,0.1,2.4-0.5,3.5-0.9c0.6-0.3,0.8-0.8,0.4-1.5c-1.6-2.9-3.2-5.8-4.8-8.8c-0.2-0.3-0.3-0.7-0.7-0.7c-1.8-0.1-3.4-0.9-4.9-1.7
			c-0.7-0.4-1.2-0.1-1.7,0.2c-0.6,0.4,0,1,0.1,1.4c1.6,3.4,3.3,6.7,4.8,10C117.7,101.7,118.7,102.2,120.2,102.2z M7.2,10.4
			c0.1,3.2,1.4,5.9,3.3,8.4c0.4,0.5,0.9,1.1,1.7,0.8c1.7-0.6,3.3-1.3,4.9-2.3c0.4-0.3,0.5-0.4,0.2-0.9c-2.4-2.8-3.7-6-3.7-9.7
			c0-0.6-0.2-0.8-0.8-0.6C11.7,6.6,10.5,7,9.4,7.4C7.2,8.1,7.2,8.1,7.2,10.4z M93.4,89.2c0.5,2,1.2,3.8,1.7,5.6
			c0.4,1.7,1.2,3.3,1.8,5c0.7,2.2,0.7,2.2,3,2.1c0.7,0,1.5,0,2-0.4c0.3-0.2,1.2,0,1-0.8c-0.7-2.5-1.6-5-2.5-7.5
			c-0.3-0.7-0.6-1.5-0.7-2.3c-0.1-1-0.5-2-2.1-1.7C96.2,89.4,94.8,89.2,93.4,89.2z M27.2,8c-2.8,0-6.4,3-7.5,6
			c-0.2,0.6-0.5,1.2-0.2,1.8c0.6,1.2,1.2,2.3,1.9,3.5c0.3,0.6,0.5,0.3,0.8-0.1c1.9-3.2,4.4-5.7,8-6.9c0.4-0.2,0.7-0.4,0.2-0.9
			c-0.7-0.8-1.4-1.7-2-2.6C28.1,8.1,27.7,7.8,27.2,8z M108.5,9.1c-0.3-1.4-1-2.5-2.1-2.6c-1.5-0.2-3.1-0.5-4.7-0.3
			c-1.1,0.1-1.9,0.5-2.5,1.4c-1.7,2.4-3.1,5-3.8,7.9c-0.6,2.2-0.6,2.2,1.8,2.2c0.8,0,1.5-0.1,1.7-1c0.2-1.2,1-1.3,1.9-1.4
			c0.5,0,1-0.2,1.5-0.2c1.2-0.1,0.7-0.7,0.4-1.2c-0.5-0.6-1.2-1.2-1.8-1.7c-0.3-0.2-0.4-0.3-0.2-0.6c0.9-1.4,1.8-2.7,3.5-3.3
			C105.7,7.6,107,8.3,108.5,9.1z M6.8,21.5c1-0.2,1.9-0.7,2.9-0.9c1.1-0.3,0.8-0.6,0.3-1.1c-2.8-3-4-6.5-3.8-10.4
			c0-0.8-0.2-0.6-0.6-0.5C4.8,8.8,3.9,9.1,3,9.3c-1.3,0.2-1.7,1-1.6,2.2c0.3,3.2,1.4,6.1,3.3,8.7C5.2,20.7,5.7,21.6,6.8,21.5z
			 M30.9,72.3c0.7,1,1.3,2.1,2.7,2.3c2.4,0.3,4.6-0.3,6.6-1.7c1.8-1.3,3-4.8,2.4-6.8c-0.7-2-4.4-3.3-6.7-2.3
			c0.3,0.2,0.5,0.4,0.8,0.4c2,0.5,2.3,0.9,1.8,2.9c-0.1,0.2-0.1,0.4-0.1,0.6c-0.8,2.8-2.7,4.9-5.7,4.7C32,72.4,31.6,72,30.9,72.3z
			 M130.2,60c4.8-0.1,9.2-5.1,9.5-9.6c0-0.5-0.3-0.7-0.6-0.9c-0.4-0.2-0.6,0.2-0.8,0.5c-0.5,0.5-0.8,1.1-1.4,1.5
			c-2.8,2.3-5.8,4.3-9.3,5.4c-0.7,0.2-0.7,0.5-0.5,1.1C127.6,59.3,128.6,60,130.2,60z M140.5,50.5c0,0.7,0,1.3,0,2
			c0,1.4-0.5,2.6-1.2,3.9c-1.3,2.1-3,3.8-5.4,4.7c-1,0.4-0.9,0.7-0.2,1.3c2,1.9,4.1,1.4,6.3-0.4c2.2-1.7,3.2-4.2,3.5-6.8
			C143.7,52.5,142.9,51.2,140.5,50.5z M28.2,55.7c0,0.7,0,1.3,0,1.8c0.1,1.3,0.9,2.3,2,2.6c1,0.3,1.9-0.3,2.6-1.2
			c1.4-1.6,1.5-3.5,1.7-5.4c0.1-0.9-0.2-1.6-1.1-1.9c-1.2-0.4-2.3-1.2-3.2-2c-0.5-0.4-0.8-0.2-0.9,0.3
			C28.7,51.8,28.1,53.8,28.2,55.7z M25.2,62.4c1.9,0,2.6-1.1,1.9-2.9c-0.3-0.8-0.8-1.7-0.7-2.6c0.4-2.6,0.9-5.2,2.2-7.5
			c0.3-0.5,0-0.8-0.2-1.2s-0.6-0.2-1-0.1c-1.3,0.4-2.3,1.2-2.9,2.4c-1.4,3-2.2,6.1-1.7,9.5C23.1,61.3,24.1,62.4,25.2,62.4z
			 M129.2,77.8c-1.5-0.1-3,0.3-4.2-0.4c-1.3-0.8-1.9-2.2-2.2-3.6c-0.6-3.8,1.6-5.4,5-5.8c-0.3-0.6-0.7-0.5-1-0.6
			c-3-1.7-5.8,0.1-6.8,2.4c-0.8,2.1-0.6,4.1,0.4,6c0.8,1.6,1.9,2.9,3.7,3.4C126,79.6,127.6,79.1,129.2,77.8z M27.1,6.8
			c-0.6-1.4-1.2-2.7-1.7-4C25.1,2.1,24.5,2,24,2.2c-1.3,0.5-2.6,1-3.3,2.5c-0.6,1.4-1.2,2.7-1.5,4.2c-0.2,1.2-0.6,2.4-0.1,3.7
			C21.1,9.6,23.5,7.4,27.1,6.8z M69.7,29.4c1.9,0.3,3.2-0.6,4.2-2c1.2-1.6,0.5-3.2-1.4-3.5c-1.3-0.2-2.6,0-3.7,0.6
			c-1.3,0.6-2.1,2.2-1.7,3.5C67.4,29.3,68.4,29.7,69.7,29.4z M20.1,3.7c-1.4,0.4-2.6,0.6-3.8,1.1c-0.7,0.3-1.7,0.4-1.7,1.6
			c0.1,1.3-0.1,2.5,0.3,3.8c0.7,2.1,1.4,4.1,3.2,5.7C17.6,11.6,18,7.6,20.1,3.7z M20.9,62.6c0.4,0,0.7-0.1,0.5-1
			c-0.3-1.3-0.8-2.7-0.6-4.1c0.4-2.5,0.9-4.9,2.2-7.1c0.1-0.2,0.2-0.3,0.1-0.4c-0.1-0.1-0.4-0.2-0.5-0.1c-0.9,0.6-2,0.9-2.7,1.9
			c-1.4,2.5-2.1,5.1-1.6,8C18.6,61.1,19.7,62.6,20.9,62.6z M129.5,81.2c0.2,0,0.5,0,0.7,0c2.5-0.5,4.7-0.1,6.3,2.1
			c0.3,0.4,0.5,0.2,0.7,0c1.6-1.3,1.4-3.6-0.2-4.6c-1.2-0.8-2.5-1.2-3.9-1.4c-0.4-0.1-1.1-0.3-1.2,0.1
			C131.3,78.8,129.5,79.4,129.5,81.2z M22.8,21.1c3.1-2,6-3.9,9.1-5.4c1.6-0.8,1.7-1.4,0.2-2.5c-0.6-0.4-1.3-0.3-2,0
			c-2.5,0.9-4.3,2.8-5.9,4.7C23.4,18.7,22.3,19.6,22.8,21.1z M104.4,124.9c2-0.2,3.8-0.7,5.7-1.4c0.8-0.3,0.3-0.9,0.2-1.3
			c-0.2-0.5-0.4-0.6-1-0.3c-3.2,1.4-6.5,2.1-10,1.5c-0.4-0.1-0.5,0.1-0.7,0.4c-0.5,0.8-0.1,1.5,1,1.5
			C101.1,125.2,102.8,125.4,104.4,124.9z M35.7,61.1c3.6,0.8,7,0.1,10.3-1.1c-0.6-1.3-1.3-1.8-2.8-1.4C40.6,59.2,38,59.7,35.7,61.1z
			 M124.8,64.8c1.8,0,3.4,0.5,4.6,2c0.3,0.3,0.6,0.6,1,0.2s-0.1-0.6-0.3-0.8c-1.5-1.6-3.3-2.5-5.3-3.3c-1.2-0.5-2.5-1-3.8-1
			c-0.8-0.1-0.8,0.5-1,1c-0.3,0.6,0.3,0.7,0.6,0.8C122,63.9,123.2,64.9,124.8,64.8z M141.7,45.8c3.4,0.1,5.8-2.9,4.9-5.9
			c-0.1-0.3-0.3-0.7-0.6-0.8s-0.4,0.3-0.5,0.6C144.2,41.7,143.3,43.8,141.7,45.8z M138.4,64.9c1,1,2.5,0.9,4-0.3
			c1.7-1.4,3.6-6.2,2.5-7.7C144.1,60.6,142.3,63.5,138.4,64.9z M21.1,40.2c-0.8,1.9,0.5,4.3,2.7,5c0.3,0.1,0.7,0.4,0.9,0
			c0.2-0.3-0.1-0.6-0.3-0.8C23.3,43,22.3,41.6,21.1,40.2z M57,87.1c-0.4,0.9-1.3,1.6-1,2.2s1.2-0.3,1.9-0.1c0.1,0,0.1-0.1,0.2-0.1
			C58,88.3,57.5,87.8,57,87.1z"/>
	</g>
	<g>
		<path class="st3" d="M91.4,34.6c2.1,1.2,4.1,2,6.3,2.4c5.4,0.9,10.6-1,12.7-6.4c1.1-2.8,0-5.7-1.7-8c-1.1-1.4-1.3-2.4-0.6-4
			c0.9-2,1.2-4.2,1.5-6.4c0.3-1.9,0-3.8-1.2-5.5c6.2,0.8,12.1,2.3,17.7,4.8c-3.9,0.6-6.1,3.3-8.2,6.2c-1.8,2.5-3.1,5.3-3.6,8.2
			c-1,5.6,2.2,10.6,7.8,11.5c2.2,0.3,4.3-0.7,6-1.9c3-2,5.4-4.6,6.3-8.3c1-3.7,1.7-7.4,0.2-11.1c0-0.1-0.1-0.2-0.2-0.3
			c0.3-0.2,0.6-0.1,0.8,0.1c4.1,2.3,7.8,5.1,11.4,8c1.5,1.2,1.6,2.6,1.1,4.1c-1.5,5.2-3.3,10.3-6.4,14.8c-2.9,4.3-6.3,8.2-11.1,10.6
			c-3.3,1.7-6.9,2.6-10.6,2.9c-6.3,0.5-12.1-1-17.5-4.2c-5.7-3.3-9.5-8.2-10.9-14.7C91.3,36.6,91.4,35.7,91.4,34.6z M114.3,40.1
			c-1,0-2-0.1-3.1,0c-0.8,0.1-1.6,0.3-2.4,0.5c-2.5,0.7-3.9,2.2-3.9,4.4c0,2.8,1.2,5.2,3.7,6.8c4.7,3,9.8,2.8,14.9,1.9
			c2.7-0.5,5.3-1.5,7.6-3c3-1.8,5.2-4.1,5.4-7.9c0.2-3.1-1-5-4-5.6c-1.3-0.3-2.6,0-3.9,0.4c-1.7,0.5-3.3,1.1-5,1.7
			C120.7,40.3,117.6,40.4,114.3,40.1z"/>
	</g>
	<g>
		<path class="st3" d="M65.7,28.2c1.8,2.7,5,3.2,7.6,1.2c0.3-0.3,0.6-0.6,1-0.4c2.1,0.7,3.8,0.1,5.2-1.5c0,0,0.2,0,0.4,0
			c0.2,1.6-0.5,3-0.9,4.4c-1.4,5.1-3.9,9.5-7.6,13.3c-4.1,4.2-9,6.5-14.7,7.8c-3.5,0.8-7,1-10.6,0.7c-5.3-0.4-10.2-2.1-14.6-5.2
			c-3.3-2.4-6-5.3-8.3-8.7c-2.2-3.3-3.8-6.9-5-10.7c-0.4-1.2-0.1-1.8,0.9-2.6c2.1-1.9,4.6-3.4,6.8-5.1c1-0.8,1.5-0.6,1.9,0.7
			c1.1,3.9,3.2,7.3,5.9,10.2C36.6,35.1,40,37,44,37.7c5.2,1,10.1,0.2,14.8-2.2c2.7-1.4,4.8-3.4,6.2-6.1C65.2,29,65.5,28.6,65.7,28.2
			z M48.3,52c3.7,0.2,7.2-0.3,10.6-1.8c3.1-1.4,5.9-3.2,7.1-6.6c0.8-2.1,0-3.9-2-4.5c-2.2-0.6-4.4-0.5-6.6-0.2
			c-2.8,0.5-5.6,1.3-8.5,1.4c-3.4,0.2-6.4-1.4-9.7-1.9c-2.8-0.4-5.9,2.2-5.3,5c0.6,2.3,1.8,4.3,3.8,5.7C40.9,51.4,44.4,52.2,48.3,52
			z"/>
	</g>
	<g>
		<path class="st3" d="M66.2,20.2c0.2,2.5-0.3,5.1-1.4,7.6c-1.9,4.2-5.2,6.8-9.5,8.2c-5.4,1.8-10.8,1.7-16-0.9c-3.9-2-6.6-5.2-8.7-9
			c-0.9-1.7-1.6-3.5-2.2-5.4c-0.2-0.5-0.2-0.7,0.3-1c2.7-1.7,5.6-3.2,8.5-4.4c2.8-1.2,5.7-2.2,8.6-3.1c5.1-1.5,10.4-2.4,15.5-3.6
			c1-0.2,1.8-0.2,2.4,1.1C65.2,13,66.3,16.4,66.2,20.2z M46.5,23.2c0.8-1.2,1.7-2.2,2.1-3.4c0.4-1.4-1.1-2.3-1.6-3.4
			c-0.2-0.3-0.5-0.6-0.8-0.9c-1.8-1.7-4.5-1.6-6.1,0.3c-0.9,1.1-1.4,2.3-1.3,3.7c0.2,4.3,1.8,8.2,4.6,11.4c1.1,1.3,2.7,2,4.5,1.7
			c1.4-0.2,3.1-1.3,3.3-2.5c0.3-1.4,0.2-2.8-0.2-4.2c-0.3-0.9-0.6-1.5-1.6-1.7C48.5,24.1,47.5,23.6,46.5,23.2z"/>
	</g>
	<g>
		<path class="st3" d="M38.2,84.8c3.9,1.4,7.1,0.4,10.1-1.9c-1.6,0.3-3,1.2-4.6,1.2s-3.2,0-4.8-0.7c-1.5-0.7-3.1-1.3-4.2-2.6
			c-1-1.2-2.2-2.4-2.1-4.2c2.8,0.3,5.2-0.1,7.6-1.5c3.1-1.8,4.5-4.5,4.5-8c0-1.6-1-2.8-1.9-4.1c4.1-1.5,7.6-0.7,10.9,2
			c2.4,2,3.7,4.6,4.1,7.6c0.5,4.1-1.1,7.4-3.7,10.5c-2,2.3-4.4,3.7-7.3,4.3c-2.4,0.5-4.9,0.4-7.2-1C38.9,86.2,38.7,85.5,38.2,84.8z
			 M52.3,77.5c-1-1.8-2.6-2.6-4.6-2.9c-0.5-0.1-1-0.1-1.1,0.6c-0.1,0.6,0.4,0.6,0.8,0.8C48.9,76.8,50.8,76.4,52.3,77.5z M52,66.5
			c-1.8-1-3.5-1.7-5.5-0.7c-0.4,0.2-0.9,0.4-0.7,1c0.2,0.4,0.7,0.4,1,0.3C48.6,66.9,50.2,66.3,52,66.5z M52.3,71.6
			c-1.1-1.6-2.7-2-4.4-1.8c-0.4,0-0.9,0.1-1,0.7c0,0.5,0.4,0.5,0.8,0.7C49.1,71.8,50.8,71,52.3,71.6z"/>
	</g>
	<g>
		<path class="st4" d="M90,23.8l3.1,2.3c0.3,0.3,0.8,0.3,1.2,0.1c1.5-1.5,3.3-2.6,5.5-2.9c0.6-0.3,0.7-1.2,0.2-1.6l-2.7-2.2
			c-0.4-0.3-1.3-0.6-1.7-0.4c-2.2,0.4-4.1,1.4-5.6,3C89.5,22.6,89.5,23.4,90,23.8z"/>
	</g>
	<g>
		<path class="st3" d="M111.8,67.5c0.6-1.6,2.3-1.8,3.6-2.4c1.6-0.8,3.3-0.1,4.8,0.5c0.7,0.3,0.3,0.6,0,0.7
			c-0.8,0.5-1.1,1.3-1.6,1.9c-0.9,1-0.8,2.2-0.7,3.5c0,0.2,0.1,0.5,0,0.7c-0.8,2.1,0.3,3.9,1.3,5.5c1.1,1.8,2.8,2.9,4.9,3.3
			c0.8,0.2,1.6,0.1,2.4,0.1c0.9,0,1,0.3,0.6,1c-0.9,1.5-2.4,2.3-4.2,3c1.1,0.4,2,0.4,2.9-0.1c2-1.1,4.1-2.1,6.5-2
			c1.7,0.1,2.6,0.6,2.8,1.6c0.2,1.1-0.9,2.4-2.2,3c-1.6,0.7-3.2,0.7-4.9,1c-2.8,0.5-5.6,0.5-8.4,0c-2.9-0.5-5.5-1.7-7.4-4.2
			c-1.2-1.6-2.5-3.1-3.4-4.9c-1.7-3.4-1-8.4,1.6-11.2C110.7,67.8,111.1,67.2,111.8,67.5c1.2,0.8,2.7,0.9,4.1,1.2
			c0.4,0.1,0.7-0.1,0.8-0.5c0-0.4-0.2-0.6-0.6-0.8C114.6,66.5,113.2,67.1,111.8,67.5z M109.8,72.1c0.3,0.5,0.7,0.4,1.1,0.4
			c0.9,0,1.9,0,2.8,0c0.5,0,1.3,0.3,1.4-0.6s-0.8-0.9-1.4-1C112.2,70.7,110.9,71.2,109.8,72.1z M111.1,77.9c1.3-0.5,2.6-1,3.9-1.5
			c0.4-0.1,0.7-0.4,0.6-0.9s-0.5-0.5-0.9-0.5s-0.7,0.1-1.1,0.2C112.3,75.8,111.8,77,111.1,77.9z"/>
	</g>
	<g>
		<path class="st3" d="M125.2,35.9c-3.3,1.2-5.8,0.1-7.9-2.3c-1.6-1.9-2.4-4.1-2-6.8c0.5-3.8,2-7,4.3-9.9c1.4-1.8,2.9-3.5,5.3-4.1
			c3.5-0.8,8,0.3,9.2,4.4c0.1,0.2,0,0.4,0.1,0.7c-2.7-2.1-6.9-1.3-8.5,1.6c-0.2,0.3-0.3,0.6,0,1.1c0.5,1,0.9,2,1.4,3.1
			c0.6,1.3,0.3,2-1.1,2.3c-0.5,0.1-1.1,0.3-1.6,0.3c-1.7,0.1-2.5,1.2-2.6,3.1C121.5,32.9,121.9,33.6,125.2,35.9z"/>
	</g>
	<g>
		<path class="st3" d="M64.1,8.2c3.8-0.7,7.6-0.9,11.4-0.8c1.1,0,1.9,0.6,2.3,1.7c1.6,4.5,2.7,9.1,2.4,13.9c-0.1,2.2-1.1,4-3.2,5.1
			c-0.6,0.3-1.3,0.4-1.8,0c-0.6-0.5,0.1-0.9,0.2-1.4c0.3-0.9,0.2-1.8-0.5-2.6c-0.6-0.7-0.8-1.4-0.7-2.3c0-0.6,0-1.2,0-1.7
			c0.1-2.1-0.1-2.4-2.4-2.9c-0.4-0.1-0.9-0.2-1-0.4c-0.2-0.4,0.4-0.6,0.6-0.9c0-0.1,0.1-0.1,0.2-0.2c1.9-1.9,1.9-2.1,0-4.1
			c-0.4-0.4-0.8-0.9-1.3-1.3c-1.4-1.1-2.9-1-4.1,0.3c-0.5,0.5-0.8,0.9-1-0.2C64.9,9.7,64.5,9,64.1,8.2z"/>
	</g>
	<g>
		<path class="st3" d="M149,31.3c2.8,1.4,4.4,3.6,4.9,6.7c0.5,3,0.3,5.8-0.8,8.5c-1.3,3.1-3.9,4.9-7,6.2c-0.6,0.2-0.8-0.2-0.9-0.5
			c-0.8-1.8-1.9-3-3.9-3.5c-0.6-0.1-0.5-0.7-0.7-1.1c4.7,1,7.3-1.6,8-5.8c0.2-1.4,0.1-3.2-1.3-4.4c-0.4-0.3-0.4-0.6-0.2-1.1
			C147.7,34.7,148.3,33,149,31.3z"/>
	</g>
	<g>
		<path class="st3" d="M73.2,89.7c-1.5,2.8-1.9,5.8-2.9,8.7c-0.5,1.3-0.8,2.8-1.2,4.2c-0.3,1.1-0.5,2.4-2.3,2.4
			c-1.5,0-3,0.3-4.5-0.1c-0.8-0.2-1-0.8-0.8-1.5c1.5-4.2,3.1-8.4,4.7-12.6c0.1-0.2,0.3-0.5,0.6-0.4C68.8,90.3,70.9,89.9,73.2,89.7z"
			/>
	</g>
	<g>
		<path class="st3" d="M141.7,8.2c0.4-0.8,1.2-1.1,1.9-1.5c1.6-0.9,3.2-1.9,4.8-2.7c1.4-0.7,2.7-0.5,3.8,0.6c1.5,1.5,3,3,3.6,5.2
			c0.2,1,0.3,1.9,0.5,2.9c0.1,0.5-0.2,0.8-0.5,1c-1.6,0.9-3,2.1-4.5,3.2c-0.8,0.6-1,0.2-1.1-0.4c-0.2-1.5-1-2.7-1.8-4
			C146.8,10,144.4,8.9,141.7,8.2z"/>
	</g>
	<g>
		<path class="st3" d="M17.3,32.1c0.9,1.9,1.5,3.6,2.4,5.3c0.4,0.8-0.3,1.7-0.5,2.5c-1.1,3.5,2.3,7.6,5.7,7.4c0.7-0.1,1.5,0,2.2,0.1
			c-1.2,0.3-2.3,0.8-3.1,1.7c-0.3,0.3-0.7,0.4-1.1,0.4c-1.3-0.1-2.4,0.3-3.3,1.1c-0.7,0.7-1.3,0.5-1.8-0.1c-2.1-2.4-3.8-4.9-4.2-8.2
			c-0.4-3,0.4-5.5,1.8-8C15.8,33.4,16.5,32.8,17.3,32.1z"/>
	</g>
	<g>
		<path class="st3" d="M141.2,128.7c-2.4-0.4-4.8-0.3-7.2-1.1c-4-1.3-8.2-1.2-12.4-1.1c-1.9,0-3.7-0.4-5.5-0.9
			c-0.9-0.2-1.4-1.7-1-2.5c0.3-0.6,0.7-0.2,1-0.1c3,1.7,6.3,1.9,9.6,2.1c0.7,0,1.4-0.1,2.1-0.2c3.2-0.8,6.1,0.7,9.1,1.1
			c4.2,0.6,8.3,0.6,12.4-0.6c2-0.6,4-1,5.8-2.1c0.5-0.3,0.8-0.1,0.9,0.6c0.1,1.2-0.2,2-1.5,2.5c-2.3,0.9-4.6,1.5-7,1.8
			C145.3,128.3,143.2,128.5,141.2,128.7z"/>
	</g>
	<g>
		<path class="st3" d="M55.3,85.9c-0.7,1.4-1.2,2.6-1.9,3.8c-1.7,3.2-3.6,6.3-5.6,9.4c-0.5,0.7-1,1.4-1.5,2.1
			c-0.3,0.4-0.5,0.5-0.9,0c-1.1-1.4-2.6-2.6-4.3-3.3c-0.6-0.3-0.7-0.4-0.2-1.1c1.4-1.8,2.6-3.8,3.9-5.7c0.6-0.9,1.3-1.7,2.6-1.9
			c2.6-0.4,4.8-1.7,6.7-3.5c0.3-0.3,0.6-0.4,0.9-0.2C55.2,85.7,55.3,85.9,55.3,85.9z"/>
	</g>
	<g>
		<path class="st3" d="M120.2,102.2c-1.5,0-2.5-0.5-3.1-2c-1.5-3.4-3.2-6.7-4.8-10c-0.2-0.4-0.8-1-0.1-1.4c0.5-0.3,1-0.6,1.7-0.2
			c1.5,0.8,3.1,1.6,4.9,1.7c0.4,0,0.5,0.4,0.7,0.7c1.6,2.9,3.2,5.9,4.8,8.8c0.4,0.7,0.2,1.3-0.4,1.5
			C122.6,101.7,121.5,102.3,120.2,102.2z"/>
	</g>
	<g>
		<path class="st3" d="M93.4,89.2c1.4,0,2.8,0.2,4.2,0c1.5-0.2,1.9,0.7,2.1,1.7c0.1,0.8,0.5,1.6,0.7,2.3c0.9,2.5,1.8,5,2.5,7.5
			c0.2,0.8-0.7,0.6-1,0.8c-0.5,0.4-1.3,0.3-2,0.4c-2.3,0.1-2.2,0.1-3-2.1c-0.6-1.7-1.3-3.3-1.8-5C94.6,92.9,93.9,91.2,93.4,89.2z"/>
	</g>
	<g>
		<path class="st3" d="M108.5,9.1c-1.5-0.8-2.8-1.5-4.4-0.9c-1.7,0.6-2.6,1.9-3.5,3.3c-0.2,0.3-0.1,0.4,0.2,0.6
			c0.7,0.5,1.3,1.1,1.8,1.7c0.4,0.4,0.8,1.1-0.4,1.2c-0.5,0-1,0.2-1.5,0.2c-1,0.1-1.7,0.3-1.9,1.4c-0.2,0.9-0.9,1-1.7,1
			c-2.4,0-2.4,0-1.8-2.2c0.7-2.9,2.1-5.5,3.8-7.9c0.6-0.8,1.4-1.3,2.5-1.4c1.6-0.1,3.2,0.1,4.7,0.3C107.5,6.6,108.1,7.7,108.5,9.1z"
			/>
	</g>
	<g>
		<path class="st3" d="M6.8,21.5c-1.1,0.1-1.6-0.8-2.1-1.4c-1.9-2.6-3-5.5-3.3-8.7c-0.1-1.1,0.3-2,1.6-2.2c0.9-0.1,1.7-0.5,2.6-0.7
			C6,8.4,6.3,8.3,6.2,9.1c-0.2,4,1,7.5,3.7,10.4c0.5,0.6,0.8,0.8-0.3,1.1C8.7,20.9,7.8,21.3,6.8,21.5z"/>
	</g>
	<g>
		<path class="st3" d="M30.9,72.3c0.7-0.3,1.1,0.1,1.7,0.2c3.1,0.2,5-1.9,5.7-4.7c0.1-0.2,0.1-0.4,0.1-0.6c0.5-2,0.3-2.4-1.8-2.9
			c-0.3-0.1-0.5-0.3-0.8-0.4c2.3-1.1,6,0.2,6.7,2.3c0.7,2-0.6,5.5-2.4,6.8c-2,1.5-4.2,2.1-6.6,1.7C32.2,74.4,31.6,73.3,30.9,72.3z"
			/>
	</g>
	<g>
		<path class="st3" d="M130.2,60c-1.6,0-2.6-0.7-3.1-2c-0.2-0.6-0.2-0.9,0.5-1.1c3.5-1.1,6.5-3.1,9.3-5.4c0.5-0.4,0.9-1,1.4-1.5
			c0.2-0.2,0.4-0.7,0.8-0.5c0.3,0.2,0.7,0.4,0.6,0.9C139.4,54.9,135,59.9,130.2,60z"/>
	</g>
	<g>
		<path class="st3" d="M140.5,50.5c2.3,0.6,3.2,2,2.9,4.6c-0.3,2.7-1.3,5.2-3.5,6.8c-2.2,1.7-4.3,2.3-6.3,0.4
			c-0.6-0.6-0.8-0.9,0.2-1.3c2.3-0.9,4.1-2.5,5.4-4.7c0.7-1.2,1.2-2.4,1.2-3.9C140.5,51.8,140.5,51.2,140.5,50.5z"/>
	</g>
	<g>
		<path class="st3" d="M28.2,55.7c-0.1-2,0.5-3.9,1.1-5.8c0.2-0.5,0.4-0.7,0.9-0.3c1,0.8,2,1.6,3.2,2c0.9,0.3,1.2,1,1.1,1.9
			c-0.2,1.9-0.4,3.8-1.7,5.4c-0.8,0.9-1.7,1.4-2.6,1.2c-1.1-0.3-1.9-1.3-2-2.6C28.2,57,28.2,56.4,28.2,55.7z"/>
	</g>
	<g>
		<path class="st3" d="M25.2,62.4c-1.1,0-2.1-1.1-2.3-2.4c-0.5-3.4,0.3-6.5,1.7-9.5c0.6-1.2,1.6-2,2.9-2.4c0.3-0.1,0.7-0.2,1,0.1
			c0.2,0.3,0.5,0.7,0.2,1.2c-1.3,2.3-1.8,4.9-2.2,7.5c-0.1,0.9,0.4,1.8,0.7,2.6C27.8,61.3,27.1,62.4,25.2,62.4z"/>
	</g>
	<g>
		<path class="st3" d="M129.2,77.8c-1.6,1.2-3.1,1.8-5.1,1.3c-1.9-0.5-3-1.7-3.7-3.4c-0.9-1.9-1.2-3.9-0.4-6c1-2.4,3.8-4.1,6.8-2.4
			c0.3,0.2,0.7,0,1,0.6c-3.4,0.4-5.6,2.1-5,5.8c0.2,1.4,0.9,2.8,2.2,3.6C126.2,78.1,127.6,77.7,129.2,77.8z"/>
	</g>
	<g>
		<path class="st3" d="M27.1,6.8c-3.6,0.5-5.9,2.8-7.9,5.7c-0.5-1.3-0.1-2.6,0.1-3.7c0.3-1.5,0.9-2.8,1.5-4.2c0.7-1.5,1.9-2,3.3-2.5
			c0.5-0.2,1.1-0.1,1.4,0.6C25.9,4.1,26.5,5.5,27.1,6.8z"/>
	</g>
	<g>
		<path class="st3" d="M20.1,3.7c-2.1,3.9-2.5,7.9-2,12.1c-1.8-1.5-2.5-3.6-3.2-5.7c-0.4-1.2-0.2-2.5-0.3-3.8
			c-0.1-1.2,1-1.3,1.7-1.6C17.5,4.3,18.7,4.1,20.1,3.7z"/>
	</g>
	<g>
		<path class="st3" d="M20.9,62.6c-1.2,0-2.3-1.5-2.5-2.8c-0.5-2.9,0.1-5.5,1.6-8c0.6-1.1,1.7-1.4,2.7-1.9c0.1-0.1,0.4,0,0.5,0.1
			c0.2,0.1,0,0.3-0.1,0.4c-1.3,2.2-1.8,4.6-2.2,7.1c-0.2,1.4,0.2,2.8,0.6,4.1C21.6,62.5,21.3,62.6,20.9,62.6z"/>
	</g>
	<g>
		<path class="st3" d="M129.5,81.2c0-1.8,1.8-2.4,2.3-3.8c0.1-0.4,0.8-0.2,1.2-0.1c1.4,0.3,2.8,0.7,3.9,1.4c1.6,1.1,1.8,3.3,0.2,4.6
			c-0.2,0.2-0.4,0.4-0.7,0c-1.6-2.2-3.8-2.7-6.3-2.1C130,81.3,129.7,81.2,129.5,81.2z"/>
	</g>
	<g>
		<path class="st3" d="M22.8,21.1c-0.4-1.5,0.7-2.4,1.3-3.2c1.6-1.9,3.4-3.9,5.9-4.7c0.7-0.2,1.4-0.4,2,0c1.5,1,1.5,1.7-0.2,2.5
			C28.7,17.3,25.8,19.1,22.8,21.1z"/>
	</g>
	<g>
		<path class="st3" d="M104.4,124.9c-1.6,0.5-3.2,0.3-4.8,0.3c-1,0-1.4-0.7-1-1.5c0.2-0.3,0.3-0.4,0.7-0.4c3.5,0.6,6.8,0,10-1.5
			c0.6-0.3,0.8-0.1,1,0.3c0.2,0.5,0.6,1.1-0.2,1.3C108.2,124.2,106.3,124.7,104.4,124.9z"/>
	</g>
	<g>
		<path class="st3" d="M138.4,64.9c3.9-1.3,5.7-4.3,6.5-8.1c1.2,1.5-0.8,6.3-2.5,7.7C140.9,65.8,139.4,65.9,138.4,64.9z"/>
	</g>
	<g>
		<path class="st2" d="M114.3,40.1c3.2,0.3,6.4,0.3,9.5-0.8c1.7-0.6,3.3-1.2,5-1.7c1.2-0.4,2.6-0.6,3.9-0.4c3,0.6,4.2,2.5,4,5.6
			c-0.2,3.8-2.4,6.1-5.4,7.9c-2.3,1.5-4.9,2.5-7.6,3c-5.2,0.9-10.3,1.1-14.9-1.9c-2.5-1.6-3.7-4-3.7-6.8c0-2.2,1.4-3.7,3.9-4.4
			c0.8-0.2,1.6-0.4,2.4-0.5C112.3,40,113.3,40.1,114.3,40.1z M125.6,46.5c-0.3-0.9,0-1.5,0.1-2.1c0.1-0.3,0.3-0.6-0.2-0.7
			c-0.9-0.1-1.9-0.4-2.6-0.2c-2.6,1-4.8,2.5-5.7,5.3c-0.6,2,1,4.2,3.1,4.1c5.1-0.2,9.5-2,13.2-5.5c1.6-1.5,1.7-3.5,1.5-5.5
			c-0.1-0.7-0.7-1.3-1.3-1.3c-1.2-0.1-2.5-0.3-3.6,0.3C127.8,42.1,126.4,43.9,125.6,46.5z"/>
	</g>
	<g>
		<path class="st2" d="M48.3,52c-3.9,0.2-7.4-0.6-10.7-2.8c-2-1.4-3.3-3.4-3.8-5.7c-0.7-2.8,2.4-5.4,5.3-5c3.3,0.5,6.3,2,9.7,1.9
			c2.9-0.2,5.7-1,8.5-1.4c2.2-0.4,4.5-0.4,6.6,0.2c2,0.6,2.8,2.4,2,4.5c-1.2,3.4-4,5.2-7.1,6.6C55.5,51.7,52,52.2,48.3,52z
			 M48.8,46.3c-0.7-0.1-1.1-0.6-1.5-1.1c-2.4-2.7-5.4-3.4-8.8-3c-1.6,0.1-3.6,2.1-2.6,3.5c1.6,2.4,3.8,4,6.6,4.7c3,0.8,6,1,9.1,0.5
			c1.6-0.2,3.1-0.3,4.6-0.8c0.5-0.2,0.7-0.4,0.5-1c-1.2-3.4-4.9-5.2-8.6-4.6c0.2,0.7,0.9,1,0.9,1.7C48.9,46.2,48.8,46.3,48.8,46.3z"
			/>
	</g>
	<g>
		<path class="st2" d="M46.5,23.2c1,0.4,2,0.9,3,1.1s1.3,0.8,1.6,1.7c0.4,1.4,0.6,2.8,0.2,4.2c-0.3,1.2-1.9,2.3-3.3,2.5
			c-1.9,0.3-3.5-0.5-4.5-1.7c-2.8-3.3-4.4-7.1-4.6-11.4c-0.1-1.4,0.4-2.6,1.3-3.7c1.6-1.9,4.3-2.1,6.1-0.3c0.3,0.3,0.6,0.6,0.8,0.9
			c0.6,1.1,2,2,1.6,3.4C48.2,21,47.3,22,46.5,23.2z"/>
	</g>
	<g>
		<path class="st2" d="M52.3,77.5c-1.5-1-3.4-0.7-4.9-1.5c-0.4-0.2-0.9-0.2-0.8-0.8c0.1-0.7,0.7-0.6,1.1-0.6
			C49.7,74.8,51.3,75.6,52.3,77.5z"/>
	</g>
	<g>
		<path class="st2" d="M52,66.5c-1.8-0.1-3.4,0.4-5.1,0.7c-0.4,0-0.9,0.1-1-0.3c-0.2-0.5,0.3-0.8,0.7-1C48.5,64.7,50.2,65.5,52,66.5
			z"/>
	</g>
	<g>
		<path class="st2" d="M52.3,71.6c-1.5-0.6-3.1,0.1-4.6-0.5c-0.4-0.2-0.8-0.2-0.8-0.7c0-0.6,0.5-0.6,1-0.7
			C49.6,69.7,51.1,70,52.3,71.6z"/>
	</g>
	<g>
		<path class="st2" d="M109.8,72.1c1.1-0.8,2.4-1.4,3.8-1.2c0.6,0.1,1.5,0.2,1.4,1s-0.8,0.5-1.4,0.6c-0.9,0-1.9,0-2.8,0
			C110.5,72.5,110.1,72.6,109.8,72.1z"/>
	</g>
	<g>
		<path class="st2" d="M111.1,77.9c0.7-1,1.1-2.1,2.4-2.6c0.4-0.1,0.7-0.2,1.1-0.2s0.8,0.1,0.9,0.5c0.1,0.5-0.2,0.7-0.6,0.9
			C113.7,76.9,112.4,77.4,111.1,77.9z"/>
	</g>
	<g>
		<path class="st2" d="M111.8,67.5c1.4-0.4,2.8-1,4.3-0.1c0.3,0.2,0.6,0.4,0.6,0.8s-0.4,0.6-0.8,0.5C114.5,68.4,113,68.3,111.8,67.5
			L111.8,67.5z"/>
	</g>
	<g>
		<path class="st2" d="M49,46.2c0.2,0.1,0.3,0.3,0.2,0.4c-0.2,0.1-0.2-0.1-0.3-0.2C48.8,46.3,48.9,46.2,49,46.2z"/>
	</g>
</g>
</svg>
