<?xml version="1.0" encoding="utf-8"?>
<!-- Generator: Adobe Illustrator 27.5.0, SVG Export Plug-In . SVG Version: 6.00 Build 0)  -->
<svg version="1.1" id="Layer_1" xmlns="http://www.w3.org/2000/svg" xmlns:xlink="http://www.w3.org/1999/xlink" x="0px" y="0px"
	 viewBox="0 0 32.4 32.6" style="enable-background:new 0 0 32.4 32.6;" xml:space="preserve">
<path d="M16.2,0C7.3,0,0,7.3,0,16.4c0,8.2,5.9,15,13.7,16.2V21.1H9.6v-4.7h4.1v-3.6c0-4.1,2.4-6.4,6.1-6.4c1.8,0,3.6,0.3,3.6,0.3v4
	h-2c-2,0-2.6,1.3-2.6,2.6v3.1h4.5l-0.7,4.7h-3.8v11.5c3.8-0.6,7.3-2.6,9.8-5.5c2.5-3,3.9-6.8,3.9-10.7C32.4,7.3,25.1,0,16.2,0z"/>
</svg>
