<svg width="103" height="86" viewBox="0 0 103 86" fill="none" xmlns="http://www.w3.org/2000/svg">
<g clip-path="url(#clip0_552_694)">
<path d="M88.4848 18.4661C88.4935 18.6639 88.4588 18.8617 88.7451 18.9821C89.9858 19.5068 90.5584 20.5475 90.9054 21.7688L91.3305 23.876C91.478 26.1724 90.6972 28.0302 88.6583 29.2687C88.294 29.4838 88.2593 29.8364 88.1725 30.1976C87.5652 32.6919 85.7606 34.1626 83.2012 34.2658C82.9756 34.2745 82.6633 34.111 82.5419 34.4551C82.4377 34.7561 82.7067 34.8937 82.8542 35.0915C84.0341 36.6999 85.7866 37.5772 87.435 38.5749C88.6236 39.2888 89.6214 40.1832 90.3415 41.3358C90.6625 41.8432 91.0008 41.9636 91.504 41.8088C95.0351 40.7509 98.7397 44.8449 98.6096 47.5026C98.5662 48.4401 98.705 49.412 98.5488 50.3237C98.4187 51.1063 98.7224 51.2784 99.3557 51.4934C102.011 52.4223 103.416 55.6132 102.869 58.1848C102.262 61.0403 100.64 63.0357 97.8808 64.1022C97.5771 64.2226 97.4904 64.4549 97.4557 64.7731C97.0653 68.1102 95.5296 69.71 92.2502 70.6733C89.3611 71.5248 87.0707 70.9313 85.3008 68.4887C85.2053 68.3597 85.0058 68.2478 84.8496 68.2392C82.3423 68.1016 80.7806 66.5449 79.4359 64.6957C79.0368 64.1452 78.6377 63.87 77.9263 63.8786C75.9308 63.8958 73.9267 63.956 71.9313 63.6636C71.7491 63.6378 71.5408 63.6636 71.3934 63.5948C70.6386 63.2077 69.6061 62.9669 69.5888 61.9606C69.5714 60.8855 70.5605 60.6017 71.4281 60.4211C72.5559 60.1888 73.7098 60.0684 74.855 59.8964C75.7747 60.0254 76.677 59.8878 77.5793 59.7502C77.6573 59.7072 77.7441 59.6556 77.8222 59.6126C77.8656 59.5008 77.8309 59.4234 77.7094 59.4062C75.098 57.1699 72.3998 55.0541 69.5367 53.1275C69.0075 52.7749 68.7385 52.7749 68.2267 53.0243C67.4545 53.4028 66.691 53.592 65.7801 53.1103C64.0883 52.2072 62.2837 51.4934 60.5485 50.6591C59.9238 50.3581 59.438 50.4097 58.8827 50.8225C56.7225 52.4051 54.4667 52.3965 52.1936 51.0805C51.5777 50.7279 50.9877 50.5043 50.2589 50.5903C49.4 50.6935 48.5411 50.5903 47.7689 50.1258C47.7169 50.0914 47.6562 50.057 47.6041 50.0226C47.5 49.9968 47.4046 49.971 47.3004 49.9452C46.8927 49.7302 46.4762 49.5066 46.0685 49.283C45.9644 49.1797 45.8689 49.0679 45.7648 48.9733C44.1771 47.5026 43.3356 45.877 44.6543 43.7956C44.9059 43.3914 44.6109 43.3054 44.368 43.1591C43.3442 42.5485 42.1383 42.3421 41.1145 41.7056C40.9237 41.5852 40.2903 41.4046 40.3424 42.041C40.3771 42.5141 40.4378 43.1247 40.7502 43.4086C42.4853 45.0255 43.084 47.1671 43.6739 49.3174C43.6653 49.4206 43.6913 49.4636 43.8041 49.4034C44.1858 49.5496 44.5762 49.541 44.9666 49.5066C45.1315 49.6786 45.331 49.6958 45.5479 49.6442C45.7128 49.6872 45.8776 49.7302 46.0338 49.7732C46.4502 49.9796 46.8667 50.1946 47.2831 50.4011C48.9142 52.1556 48.7667 53.2824 47.5087 55.2433C46.8493 56.2755 46.3982 57.3162 45.305 58.0214C44.7584 58.3741 45.036 59.6384 45.6173 60.034C46.1292 60.3781 46.6584 60.7049 47.205 60.9715C47.7082 61.2209 48.116 61.0317 48.3676 60.5157C49.9639 57.1871 54.0242 57.299 56.3494 59.4062C57.9457 60.8511 58.9869 62.6143 59.8458 64.5581C60.8001 66.7083 60.8261 68.9359 60.7481 71.1979C60.7307 71.628 60.7914 71.8688 61.1732 72.1698C62.57 73.288 62.4225 74.4319 60.8261 75.2059C59.412 75.8854 57.9371 76.2811 56.3494 76.3327C55.0133 76.3757 53.7293 76.8831 52.3498 76.7455C52.263 77.0809 52.4366 77.2529 52.6448 77.4594C53.5471 78.3797 53.5731 78.9473 52.6882 79.8848C51.3781 81.2523 49.5996 81.7168 47.8557 82.1726C41.4529 83.8326 34.8939 83.8584 28.335 83.8928C27.0683 83.8928 25.8103 84.0046 24.5523 83.738C23.5632 83.5316 22.713 83.9616 21.8367 84.3487C19.0778 85.5786 16.1107 85.7936 13.1435 85.9226C11.0613 86.0086 8.95307 86.0688 6.88822 85.828C4.59778 85.5614 2.2553 85.2001 0.459392 83.5058C-0.217326 82.8693 -0.0958641 82.2328 0.658937 81.6652C2.10781 80.5815 3.88636 80.4783 5.55213 80.0998C6.34164 79.9192 7.13982 79.7988 7.92064 79.4634C7.45215 78.6463 6.57588 78.2764 5.89917 77.7002C4.21605 76.2638 2.91466 74.4147 2.23795 72.5053C1.22287 69.624 0.658937 66.4159 2.58498 63.5776C3.7302 61.8918 5.2051 60.5243 7.5042 60.3609C11.1914 60.1028 13.0481 61.35 13.9677 64.8849C14.1499 65.573 14.3842 66.2438 14.6097 66.9835C16.3362 64.5151 17.8892 61.995 20.0322 59.9566C19.3381 59.2083 18.3664 58.7353 18.3317 57.5828C18.323 57.1957 17.9413 57.3506 17.7417 57.2387C16.9869 56.8087 16.2235 56.4131 15.7289 55.6562C14.8353 54.2886 15.0175 52.9211 16.3623 51.9664C17.0477 51.4848 17.6637 50.8053 18.6093 50.7795C18.7048 50.7795 18.887 50.7021 18.887 50.6763C18.8262 50.014 18.8175 49.326 18.6527 48.6895C18.5486 48.2939 18.1582 48.139 17.6897 48.1734C16.6486 48.2422 15.5294 48.4229 14.5837 48.2939C13.291 48.1132 11.9896 47.4596 11.07 46.3501C9.61244 44.6041 9.62112 43.3914 11.044 41.5852C13.1609 38.9017 16.0499 37.2676 19.0431 35.7882C19.876 35.3754 20.3185 35.1087 19.3902 34.2917C18.8609 33.8272 18.4705 33.1649 18.1061 32.5457C17.5422 31.5996 16.4577 31.5652 15.6248 31.1953C14.202 30.5503 12.7618 29.931 11.3563 29.2343C10.7056 28.9161 9.9508 28.8989 9.31746 28.6323C7.98138 28.0646 7.53891 26.8089 8.23298 25.1661C9.14394 23.0073 10.1417 22.1128 12.38 23.0073C13.0568 23.2739 13.7595 23.4718 14.4449 23.7212C14.575 23.7728 14.6271 24.0652 14.8527 23.833C14.9915 23.6868 15.0088 23.5578 14.9568 23.36C14.6531 22.3279 14.9828 21.3044 15.1476 20.3153C15.2431 19.7476 15.1997 19.3778 14.9134 18.9391C13.907 17.4168 12.944 15.8686 12.944 13.9506C12.9787 13.7786 13.0047 13.6152 12.7705 13.5636C12.9179 13.3916 12.8225 13.2195 12.7531 13.0561C12.7531 11.9896 12.7444 10.9231 12.7358 9.8566C13.0394 6.53667 14.9221 4.28325 17.8545 2.96732C18.7568 2.56308 20.0235 2.8125 21.0993 2.96732C21.4897 3.02752 22.0623 2.8469 22.4267 3.42316C22.6089 3.70699 23.1208 3.42316 23.1468 2.97592C23.1902 2.23624 23.06 1.37616 23.7454 0.91171C24.5436 0.369855 25.5413 0.31825 26.4957 0.232242C26.782 0.206439 27.077 0.180637 27.3633 0.154834C27.7797 0.154834 28.1962 0.154834 28.6126 0.154834C30.7555 0.086027 32.9245 0.361255 34.972 0.765495C37.5054 1.26434 40.0561 1.99542 42.4506 3.08773C44.099 3.8446 45.7735 4.54127 47.3438 5.45296C47.7603 5.70239 48.0119 5.55617 48.2721 5.23794C49.6343 3.56938 51.2827 2.28785 53.2608 1.36756C55.3517 0.395658 57.9718 1.33315 58.9782 3.40596C59.5074 4.49827 59.438 5.61638 59.4467 6.75169C59.4467 7.31075 59.0649 7.50857 58.6658 7.68059C57.3037 8.27405 56.1672 9.15993 55.1174 10.1834C54.6316 10.6565 54.5795 10.9747 55.074 11.5166C56.4448 13.0045 56.4361 13.0475 55.2736 14.6645C54.9439 15.1203 54.9612 15.2923 55.5252 15.4644C57.269 15.9976 58.8654 16.7545 60.2449 18.0102C64.1316 21.528 62.4746 27.0927 58.8741 29.0365C57.3298 29.8708 55.7247 30.5589 54.1023 31.2469C53.5558 31.4792 52.8443 31.6512 53.1393 32.5285C53.1393 33.0875 53.1393 33.6466 53.1393 34.2056C53.1393 34.4379 53.1393 34.6701 53.1393 34.9023C53.1046 35.0141 53.1393 35.0743 53.2608 35.0227C53.5644 35.0227 53.8768 35.0399 54.1804 35.0399L54.2585 35.0829L54.3366 35.0485C55.1174 35.47 55.7247 35.4012 56.28 34.6099C57.0435 33.509 58.2321 33.38 59.4293 33.6466C60.5138 33.8874 61.3467 35.1517 61.4074 36.3989C61.4855 37.99 61.3293 39.5468 60.8348 41.0863C60.6439 41.6798 60.7307 42.3851 60.7914 43.0215C60.8435 43.5548 61.2946 43.6322 61.7631 43.6236C62.596 43.6064 63.4202 43.4946 64.2358 43.8214C64.8257 44.0622 65.4417 44.3289 65.6933 44.8965C66.1445 45.9114 67.0467 46.3845 67.9143 46.8403C69.0422 47.4252 70.0659 48.0186 70.5518 49.2744C70.6386 49.5066 70.9162 49.6958 71.2459 49.7302C72.3737 49.8678 73.4409 50.2979 74.5948 50.4097C75.7834 50.5215 76.9546 50.8913 78.1258 51.1923C78.7245 51.3472 79.0108 51.2009 79.2537 50.6161C79.6007 49.7646 79.7656 49.0593 79.4879 48.0444C78.872 45.8082 81.0843 43.3054 83.4702 43.1677C84.6067 43.0989 85.6825 43.2882 86.9752 43.787C86.2291 42.6345 85.4136 41.955 84.4072 41.568C83.3053 41.1379 82.1775 40.7595 81.0236 40.4843C78.2733 39.8134 76.0957 38.3341 74.4473 36.072C74.2564 35.8054 74.0308 35.5388 73.9354 35.2377C73.7445 34.6099 73.3801 34.4465 72.7294 34.4465C69.9618 34.4465 68.0098 32.6661 67.0901 30.3267C66.6477 29.2085 66.3961 28.1678 67.0554 27.0583C67.2723 26.6971 66.9513 26.5509 66.6824 26.4219C64.7043 25.493 64.3225 23.7126 64.5221 21.872C64.7129 20.1088 65.5632 18.5263 67.3244 17.7436C68.0792 17.4082 68.4349 17.2361 68.2961 16.204C67.9924 13.9506 69.4413 12.5401 71.2545 11.465C71.5669 11.2757 71.8966 11.2069 71.9746 10.7597C72.2262 9.31475 73.3368 8.23964 74.7509 8.08483C76.4254 7.90421 78.1432 7.93001 79.5921 6.8463C79.9911 6.54527 80.2775 6.94951 80.451 7.26775C80.8501 7.99022 81.2752 8.70409 81.5702 9.46957C81.8304 10.1404 81.6222 10.7597 80.9195 11.1037C80.3989 11.3618 79.8697 11.5854 79.3144 11.8348C79.5487 12.1702 79.7743 12.4541 79.9478 12.7551C80.208 13.2109 80.5898 13.2023 80.9802 13.0217C83.2099 11.9724 84.7889 12.3681 86.6108 14.1742C87.357 14.9139 87.9556 15.6708 88.3026 16.6341C88.5109 17.2275 88.5109 17.8382 88.4848 18.4661ZM41.8086 56.1636C41.7219 56.0518 41.6177 56.0432 41.4963 56.1206C41.1406 56.1034 40.7762 56.0948 40.4205 56.0776C40.2036 55.9142 39.978 55.9056 39.7438 56.0518C39.4661 56.0862 39.1972 56.1206 38.9195 56.155L38.8415 56.1206L38.8154 56.198C38.7027 56.2496 38.5812 56.3012 38.4684 56.3529L38.3903 56.3357V56.4131C37.4446 56.9463 37.2278 57.9612 36.7853 58.8213C36.6291 59.1309 36.0825 59.4062 36.4816 59.8362C36.8634 60.249 37.4186 60.2835 37.9131 60.0856C38.5899 59.819 39.2492 59.4836 39.3273 58.6235C39.3967 57.8666 39.8565 57.7462 40.3337 58.1762C41.2273 58.9675 42.2598 58.8901 43.3095 58.8643C44.2899 58.8385 44.5675 58.4515 44.1164 57.5656C43.7173 56.7829 44.1858 56.7743 44.6977 56.7055C44.9493 56.6711 45.2096 56.6797 45.4612 56.6711C45.8342 56.6883 46.0771 56.5335 46.1552 56.1378C45.8082 56.026 45.5045 56.0862 45.2269 56.2926C44.8105 56.3185 44.394 56.3529 43.9689 56.3787C43.8041 56.2755 43.6305 56.2582 43.457 56.3529C43.1794 56.3357 42.9105 56.3185 42.6328 56.2926C42.5634 56.1636 42.468 56.1292 42.3465 56.241C42.1643 56.2152 41.9821 56.1894 41.7913 56.1636H41.8086ZM54.432 39.9252C54.5361 40.1746 54.2325 40.5617 54.727 40.7337C54.8138 40.3553 54.8051 40.0456 54.6923 39.736C54.8832 38.7125 54.7096 37.6546 55.0306 36.6397C55.1695 36.1924 54.9612 36.0634 54.4841 35.9688C52.8877 35.6506 51.2653 36.4935 50.1114 38.205C49.0877 39.7274 49.5475 40.7853 50.4151 41.4992C51.0745 42.041 52.6882 41.5766 53.5297 40.7165C53.8074 40.4327 53.8507 39.865 54.432 39.9252ZM49.7817 42.4969C50.0333 42.7377 50.3717 42.6947 50.6754 42.7635C51.595 43.3398 52.4626 43.9934 52.6014 45.1287C52.6882 45.7824 53.0178 46.0662 53.5471 46.3071C54.6749 46.8059 55.7855 47.3306 56.8873 47.9068C59.5855 49.3088 62.3357 50.5989 65.06 51.9406C65.6846 52.2502 66.0577 52.0782 66.0317 51.3644C65.9796 50.1774 66.6737 49.369 67.3677 48.5347C67.576 48.2767 68.2874 48.0358 67.8449 47.6746C67.2897 47.2187 66.5435 46.5049 65.7887 46.9693C65.1728 47.3564 64.6175 47.5284 63.9147 47.6058C62.2837 47.7864 60.722 46.4705 60.9997 44.9223C61.1385 44.1654 60.6873 44.088 60.2882 43.8214C59.8631 43.5376 59.5942 43.572 59.1864 43.9676C58.4576 44.6815 57.5987 44.9395 56.5142 44.4837C55.1001 43.8988 54.1544 43.0473 54.085 41.4218C53.3909 41.7572 52.9137 42.2474 52.2717 42.4109C51.7512 42.4367 51.2219 42.4797 50.7014 42.5227C50.4758 42.4195 50.2416 42.3163 50.016 42.213C49.2525 41.4992 48.6712 40.7079 48.8447 39.5812C48.8795 39.3318 48.8447 39.0995 48.6279 38.9017C47.8904 38.2308 46.5109 38.0502 45.5826 38.5319C43.7086 39.5038 41.0018 38.119 40.7415 36.0376C40.7155 35.8312 40.7849 35.5646 40.4812 35.5388C40.2817 35.5216 40.1689 35.6764 40.0821 35.8484C39.4401 37.1127 38.4858 38.1792 37.6876 39.4178C40.2209 40.5273 42.7716 41.5164 45.1835 42.7893C45.331 42.8667 45.5653 42.9011 45.6954 42.8409C47.0315 42.2388 48.4283 42.6259 49.7991 42.5227L49.7817 42.4969ZM13.8896 68.222C13.7682 66.7169 13.3257 65.2891 12.7965 63.8786C12.2152 62.3305 11.1307 61.2898 9.45627 61.1005C7.40009 60.8683 5.50875 61.2553 4.14664 63.1647C5.63021 63.0013 7.07041 62.7089 8.1896 63.8356C9.38687 65.0397 10.0115 66.5793 10.159 68.222C10.4366 71.37 11.1741 74.3029 13.4125 76.6939C14.0632 77.382 14.6358 78.1388 14.9481 79.0505C15.3298 80.1342 15.6509 80.203 16.4317 79.2914C16.6833 78.9989 16.8828 78.6205 17.0043 78.2592C17.6029 76.4617 17.0477 74.9737 15.6595 73.7696C15.1216 73.3052 14.6618 72.4709 13.9157 72.5741C12.9006 72.7117 13.1869 72.2559 13.3431 71.7656C13.6554 70.7593 13.9157 69.7444 13.8896 68.6779C14.0198 68.5317 13.9938 68.3769 13.8983 68.2306L13.8896 68.222ZM53.816 68.1962C54.3626 68.1962 54.8832 68.3253 55.4297 68.5317C55.7334 67.1125 55.4731 65.7966 55.0567 64.5409C54.6923 63.4486 54.1631 62.3993 53.2608 61.5994C52.4279 60.8683 50.2416 60.0684 49.3566 60.8941C48.2114 61.9606 47.1703 62.0294 45.8863 61.0747C44.7931 60.2663 43.7867 59.4234 42.2771 59.7158C42.0082 59.7674 41.6611 59.5524 41.3748 59.4148C40.62 59.0621 39.8132 58.4515 39.5008 59.8792C39.4835 59.9394 39.4141 59.9996 39.3533 60.034C38.5378 60.4555 38.8068 60.9887 39.1972 61.5306C40.5419 63.3884 42.2598 64.8075 44.2726 65.9256C46.7886 67.3276 49.1224 67.2502 51.2306 65.1343C51.3521 65.0053 51.5256 64.9193 51.7165 65.1085C51.7685 65.7364 51.2566 66.0202 50.9009 66.4159C50.3457 67.0265 50.5886 67.7404 51.4041 67.964C52.211 68.0586 53.0526 67.7748 53.8247 68.1962H53.816ZM22.0363 40.6391L21.9842 40.6735L22.045 40.6993C21.8975 41.3616 22.2619 41.9034 22.5308 42.4281C23.8409 44.9997 25.845 46.6597 28.8382 46.9177C30.6428 47.0725 32.2131 46.3415 33.5579 45.3094C34.8853 44.2945 35.935 43.0215 36.204 41.2153C36.2994 40.5703 36.0045 39.7704 36.6291 39.2285C37.5227 38.4459 38.2168 37.4998 38.7721 36.4935C39.8999 34.4379 40.5506 32.2618 39.7091 29.888C39.4575 29.1741 39.041 28.8989 38.2949 28.7957C36.3602 28.5377 35.6314 29.8278 35.5013 31.376C35.4232 32.2704 35.1629 33.1391 35.241 34.0508C35.2844 34.5497 35.0154 34.9625 34.3994 35.0313C34.3127 34.025 34.677 33.0617 34.6076 32.0554C34.5209 30.8599 34.4601 30.7653 33.2629 31.1179C32.6903 31.2814 32.1697 31.5394 31.788 32.0124C31.4062 32.4941 31.0158 32.9757 30.6514 33.4746C30.5213 33.6552 30.4085 33.8874 30.1482 33.7928C29.8012 33.6638 29.94 33.3542 30.0355 33.1477C30.3044 32.5457 30.7122 32.0296 31.172 31.5566C31.3802 31.333 31.8487 31.1953 31.7012 30.8169C31.5624 30.4557 31.1113 30.4385 30.7556 30.3783C28.682 29.9998 26.2788 31.2555 25.3245 33.1649C25.0989 33.6208 24.8039 34.0078 24.3614 34.3777C23.2856 35.2808 22.0536 36.1924 22.0103 37.8352C21.8541 37.8954 21.8715 37.9986 21.9409 38.1104C21.9409 38.6007 21.9409 39.0909 21.9322 39.5812C21.8541 39.7446 21.8541 39.9166 21.9495 40.0714C21.9842 40.2606 22.0189 40.4585 22.0536 40.6477L22.0363 40.6391ZM32.4213 74.9307C34.599 74.9651 36.7766 75.0597 38.9369 74.7329C39.1885 74.7243 39.4314 74.7071 39.683 74.6985C40.1776 74.8275 40.6634 74.8275 41.1579 74.6985C41.6091 74.7759 42.0602 74.7931 42.5114 74.6899C42.5981 74.7501 42.6762 74.7329 42.6675 74.6383C42.6675 74.5523 42.5894 74.4663 42.5461 74.3803C42.0255 73.6492 42.2337 73.0385 42.8584 72.4967C43.6306 71.8172 44.6022 71.6108 45.5653 71.3872C46.4589 71.1807 47.3612 71.1807 47.6388 69.9336C47.8036 69.1853 48.6973 68.7725 49.4694 68.5059C50.0333 68.3081 50.0941 67.9124 49.9292 67.4652C49.7297 66.9233 49.348 67.3534 49.1137 67.4308C47.847 67.8694 46.5543 67.7146 45.3918 67.276C42.3205 66.1062 39.8479 64.1452 38.078 61.35C37.9652 61.1779 37.8958 60.9113 37.6442 60.8941C36.4816 60.8253 35.3364 59.819 34.1478 60.8769C33.7834 61.2037 33.2542 61.1005 32.777 61.0919C32.456 61.0833 32.1524 61.0661 31.8314 61.264C30.7035 61.9606 29.0898 61.5048 28.1875 62.7777C28.1181 62.8723 27.8231 62.7777 27.6583 62.8293C26.7993 63.1045 25.8624 62.8809 25.1076 63.7582C23.1642 66.0202 21.3335 68.3339 20.0235 71.0173C18.9217 73.2707 17.5509 75.4382 17.8372 78.1216C17.8719 78.4399 17.6376 78.7839 17.5075 79.1623C17.8198 79.1623 18.1148 79.1795 18.4011 79.1623C19.2513 79.1021 20.4313 79.5924 20.3879 77.984C20.3879 77.7948 20.7609 77.5626 21.0039 77.4164C21.6199 77.0465 22.2705 76.7455 22.9733 76.5563C25.4199 75.8682 27.9099 75.3866 30.4432 75.1457C30.877 75.2317 31.2761 75.0769 31.6839 74.9651L32.4213 74.9307ZM23.6934 6.51087C23.2683 6.69149 23.2336 7.07853 23.1555 7.46557C23.0167 8.13643 22.8258 8.7901 22.418 9.35775C21.9322 10.0286 22.1231 10.2694 22.9386 10.278C24.4482 10.3038 25.4112 11.0951 25.8537 12.5487C26.166 13.5464 25.9838 14.5699 26.0012 15.5762C26.0532 18.079 24.7605 19.8164 22.7043 21.0807C21.8541 21.6054 20.7696 21.7 19.9714 22.1472C18.9997 22.6977 19.2513 22.2934 19.1646 21.6914C18.9911 20.4959 18.4879 19.4122 17.6029 18.5521C16.8741 17.8554 16.3883 17.9844 16.1541 18.9391C15.9545 19.7304 15.7897 20.5389 15.6942 21.3474C15.3819 23.9104 15.7723 24.6071 17.6984 25.4242C20.4573 26.6025 23.1902 27.8496 25.9491 29.0451C26.9642 29.4838 27.9012 30.146 29.1852 29.6988C30.0615 29.3892 31.0766 29.673 31.9528 29.974C33.6012 30.5331 34.5209 30.3267 35.588 28.9505C36.82 27.368 39.7264 27.5056 40.3858 29.2257C40.941 30.6707 41.3141 32.1672 40.6027 33.7154C40.4639 34.0164 40.3771 34.4207 40.7068 34.7303C41.0191 35.0227 41.3488 34.8765 41.6004 34.6701C41.9561 34.3863 42.3465 34.4637 42.7369 34.4465C43.0059 34.4293 43.2054 34.4637 43.431 34.1368C44.7064 32.2963 46.4936 31.0577 48.5151 30.1374C49.0269 29.9052 49.2785 29.5956 49.4 29.0451C49.6776 27.7808 49.7123 26.4735 49.9813 25.2177C50.311 23.6868 50.1548 22.4053 49.1137 21.1151C48.4977 20.3583 48.7059 19.2315 49.1744 18.3457C49.4954 17.7522 49.9292 17.1759 50.4324 16.7201C51.0137 16.1954 50.8662 15.903 50.363 15.4472C48.8621 14.0968 47.153 13.0647 45.4525 11.9896C43.8474 10.9833 42.0602 10.3899 40.3771 9.58998C37.6268 8.28265 34.7117 7.48277 31.7099 6.94091C30.3565 6.69149 28.9596 6.97532 27.6409 6.47647C26.3222 6.23564 24.9948 6.27005 23.676 6.48507L23.6934 6.51087ZM84.7282 33.0789C84.7976 33.0359 84.8583 32.9843 84.9277 32.9413C85.1273 32.8639 85.3268 32.7951 85.5264 32.7005C87.3136 31.8662 88.025 28.9591 86.6108 27.7378C86.3592 27.5228 85.7693 27.325 86.099 26.9551C86.4807 26.5251 86.8711 27.0411 87.2095 27.2819C87.3483 27.3852 87.4611 27.5486 87.5565 27.6948C88.1551 28.5807 88.4241 28.5635 89.2917 27.8152C91.1743 26.181 90.9488 22.5343 89.7255 20.7969C88.9794 19.7304 88.7711 19.7304 88.025 20.7625C87.8949 20.9431 87.7821 21.1581 87.5218 21.0549C87.2529 20.9517 87.3223 20.7109 87.357 20.4959C87.3917 20.3153 87.383 20.1346 87.4264 19.954C88.0597 17.6146 87.3917 15.6966 85.5524 14.1398C84.2857 13.0733 82.1514 12.9701 81.1624 14.0022C80.5204 14.6731 80.1473 14.6215 79.7309 13.7872C79.1669 12.6605 78.308 11.9724 76.9286 12.2304C76.3993 12.3251 75.8614 12.3337 75.3322 12.4455C74.534 12.6089 74.0135 13.5894 74.4126 14.2C75.5664 15.9632 76.5121 17.8296 77.2409 19.7906C78.4815 23.1363 77.2843 26.009 73.4756 26.1896C72.0614 26.2584 71.2285 25.4844 70.7947 24.4093C70.387 23.3858 70.3956 22.1472 71.1765 21.2441C72.287 19.9626 73.7879 19.3778 75.4797 19.739C76.4514 19.9454 76.1738 19.6272 75.9742 19.0767C75.1066 16.6771 73.7532 14.5183 72.5733 12.2648C72.4518 12.0326 72.3651 11.8348 72.0093 11.9122C71.055 12.11 69.1984 14.157 69.0856 15.1805C68.9641 16.2814 68.9728 17.305 70.5518 17.5028C70.2915 17.6404 70.1614 17.6834 70.0312 17.7092C67.6974 18.1478 65.9015 19.1541 65.3289 21.7C64.9819 23.2567 65.6846 25.2607 67.2029 25.8026C68.2874 26.1896 68.0618 26.7487 67.7495 27.4196C67.654 27.6174 67.576 27.798 67.5499 28.013C67.3157 30.3181 69.1637 33.4058 71.9573 33.5262C73.4062 33.5864 74.1349 33.9218 74.855 35.2205C76.5468 38.2911 79.6354 39.5296 82.8542 40.3037C84.4939 40.6993 85.8127 41.4648 87.0707 42.4711C87.3136 42.6689 87.4611 43.0129 87.8602 42.9871C88.0684 42.9785 88.3373 42.8839 88.4241 43.1505C88.5282 43.4602 88.2072 43.572 88.0337 43.7354C87.6172 44.131 87.1574 44.5095 87.1314 45.1459C87.1227 45.4642 87.0707 45.791 86.7149 45.7824C86.2985 45.7738 86.2465 45.404 86.2638 45.0513C86.3159 44.3117 85.8127 44.1224 85.2314 44.0622C84.8323 44.0278 84.4245 44.0536 84.0254 44.0536C82.351 44.045 80.9542 44.8535 80.4423 46.2124C79.8957 47.6574 80.3295 48.8873 81.4574 49.8936C81.6482 50.0656 81.9866 50.2634 81.8131 50.4613C81.6743 50.6161 81.388 50.9515 80.9889 50.7021C80.4857 50.3925 80.2514 50.6247 79.9564 51.1149C79.3838 52.0524 79.6788 52.8781 80.0258 53.7296C80.156 54.0478 80.0866 54.4693 79.835 54.2715C79.3231 53.85 78.5596 53.7898 78.2473 53.1275H78.2299C78.4121 52.8523 79.0802 53.2393 78.9934 52.6115C78.9327 52.1384 78.5509 51.975 78.1345 51.9148C76.8592 51.7428 75.5925 51.5794 74.3345 51.2784C73.8486 51.1579 73.4669 50.8397 72.9203 50.8139C71.2112 50.7451 69.5367 50.3667 67.9056 49.8764C67.6193 49.7904 67.3244 49.5582 67.1422 49.8764C66.9513 50.2032 67.2029 50.4097 67.5066 50.6333C71.3586 53.42 75.2021 56.2066 78.8112 59.2944C79.0975 59.5352 79.3058 59.7158 79.6181 59.3546C79.7829 59.1567 80.0172 58.9417 80.2601 59.1653C80.5117 59.4062 80.156 59.6126 80.0866 59.8276C79.4706 61.6854 79.2884 63.5002 80.7546 65.0655C82.1341 66.5449 83.5049 68.2048 85.9341 66.9491C86.0903 66.8631 86.3592 66.9061 86.5328 67.1039C86.8451 67.4652 86.4286 67.5082 86.2898 67.663C86.0469 67.9296 85.9168 68.1532 86.2378 68.4801C87.3743 69.6412 89.1789 71.0947 91.4173 70.011C91.6429 69.8992 91.8858 69.8218 92.1287 69.7788C95.1566 69.2369 97.0219 67.0265 96.5621 64.6441C96.3799 63.7066 97.0045 63.4056 97.6552 63.2594C98.4881 63.0701 99.1128 62.6401 99.7288 62.1154C100.779 61.2209 101.386 60.0426 101.854 58.8041C102.54 56.9893 102.045 54.0564 99.8936 52.7061C98.9393 52.1126 98.0023 52.2502 97.0392 52.0524C97.716 50.5903 97.9155 49.1625 97.7507 47.5972C97.421 44.5353 95.3041 42.4969 92.2068 42.5399C91.5908 42.5485 90.9835 42.6947 90.3675 42.7377C90.1246 42.7549 89.8036 42.8925 89.7342 42.3937C89.4999 40.6907 88.1725 39.8478 86.8364 39.1081C85.3528 38.2825 83.9126 37.431 82.7414 36.1924C82.2208 35.642 81.6743 35.0829 81.4921 34.3519C81.388 33.9218 80.9976 33.1047 82.0907 33.1649L82.2816 33.2337C82.8715 33.4746 83.4615 33.4402 84.0601 33.2854C84.2336 33.337 84.3898 33.3284 84.5026 33.1735C84.572 33.1477 84.6414 33.1133 84.7108 33.0875L84.7282 33.0789ZM42.4767 49.7388C42.7283 47.795 41.7826 46.2468 40.7502 44.7417C40.3511 44.1568 39.9954 44.045 39.2666 44.5353C37.6789 45.619 35.9264 46.4533 33.9222 46.4791C33.5318 46.4791 33.2195 46.6339 32.8985 46.7801C30.8597 47.6746 28.7948 48.2853 26.6085 47.2704C26.2007 47.0811 25.8797 47.0983 25.4806 47.3048C24.6044 47.752 23.6153 47.7434 22.8258 47.2876C21.8888 46.7457 21.0906 46.9177 20.1883 47.2015C19.6678 47.365 19.4249 47.5628 19.4335 48.1562C19.4596 49.7818 20.2751 51.1063 20.9345 52.5083C21.1861 53.0329 22.0536 53.7382 21.5418 54.0306C20.9518 54.3661 20.466 53.3942 20.1103 52.8523C19.26 51.5622 19.3034 51.5622 17.7764 52.0954C16.8134 52.4309 16.2668 53.1361 16.1801 54.0564C16.0933 54.9939 16.6573 55.6046 17.4988 56.1206C18.6527 56.8173 19.8847 56.3959 20.9084 56.2496C22.5829 56.0174 24.1792 55.897 25.8016 56.2926C27.3286 56.6711 28.4825 57.6946 29.6103 58.7267C30.851 59.862 32.2478 60.6877 33.983 60.0856C34.9894 59.733 35.7095 58.9503 36.204 57.9612C37.5141 55.338 38.2428 54.9681 41.2273 55.2519C42.3812 55.3638 43.5091 55.6648 44.689 55.5788C46.3895 55.4584 47.6475 54.151 47.5347 52.5427C47.4393 51.2181 46.3895 50.9515 45.3831 50.5989C44.1858 50.1774 43.7347 50.3323 43.2401 51.4246C43.1534 51.6138 43.0666 51.8116 42.9625 51.9922C42.8324 52.233 42.6155 52.2502 42.4073 52.1384C42.2164 52.0352 42.2077 51.846 42.2945 51.6654C42.5981 51.0375 42.4073 50.3753 42.468 49.7388H42.4767ZM23.5285 5.95181C25.4806 5.65078 27.2765 6.08943 29.0811 6.10663C31.2935 6.12383 33.3757 6.70869 35.4752 7.22474C38.0867 7.86981 40.5246 9.00512 42.9625 10.1404C45.5913 11.3704 48.2114 12.6691 50.2242 14.7161C51.4562 15.9632 52.558 15.6106 53.7379 15.2493C55.1348 14.8279 55.4905 13.0819 54.5101 12.0326C50.1982 7.40536 44.7758 4.59288 38.8415 2.63188C36.5684 1.87501 34.2259 1.36756 31.84 1.11813C29.6884 0.894508 27.5281 0.799899 25.3765 1.13533C24.5697 1.26435 24.1792 1.62558 24.0057 2.52007C23.7888 3.62098 24.0404 4.74769 23.5372 5.95181H23.5285ZM5.56948 63.7582C4.19869 63.5862 2.59366 65.7106 2.52425 66.5707C2.38544 68.1876 2.57631 69.8046 2.94937 71.37C3.32243 72.9783 4.2334 74.4061 5.21377 75.6618C7.14849 78.156 9.78596 79.6956 12.9787 80.2461C13.4645 80.3321 13.8463 80.2718 14.0979 79.9536C14.4102 79.558 14.4102 79.0505 14.0285 78.6721C12.7531 77.4164 11.7988 75.937 10.8878 74.4147C10.48 73.7352 10.0115 72.7805 10.0462 72.2989C10.133 71.0259 9.28276 70.0024 9.43892 68.8069C9.53436 68.0758 9.00513 67.534 8.89234 66.9491C8.54531 65.1429 7.31333 63.7754 5.56948 63.7582ZM56.8786 70.3981C55.6033 69.2111 54.2238 69.0047 52.8617 68.8155C51.4215 68.6177 50.068 68.9187 48.8621 69.7272C48.1247 70.226 48.0205 70.9743 48.3329 71.757C48.6365 72.5225 49.1744 73.0901 49.9119 73.503C52.0982 74.7415 54.4407 74.6985 56.7572 74.1394C59.2645 73.5288 60.054 72.3419 60.1321 69.8046C60.1928 67.8006 59.4554 65.9944 58.822 64.1796C58.2234 62.4595 57.1562 60.9543 55.664 59.819C54.2672 58.7525 51.4909 58.0472 50.0854 59.7244C50.2069 59.862 50.337 59.9738 50.5452 59.9824C52.8096 60.0856 54.1457 61.393 55.1434 63.2937C56.28 65.4526 55.7247 67.9554 56.8873 70.4153L56.8786 70.3981ZM45.6347 34.4981C46.9274 34.7647 47.3785 34.1196 47.6648 33.0187C47.821 32.3995 48.3415 31.8318 48.8014 31.3416C49.7817 30.3009 51.1872 30.0772 52.4886 30.7137C52.8096 30.8685 53.0265 30.8169 53.2955 30.6879C55.0827 29.8278 56.9654 29.1827 58.6658 28.142C61.0691 26.6713 62.1275 23.4546 61.1645 20.8743C60.1234 18.0876 56.2973 15.8256 53.0612 16.4191C51.1178 16.7803 49.4954 18.0876 49.7297 20.2206C49.8338 21.1409 50.9617 22.6289 51.7078 22.7063C52.7142 22.8009 54.1023 21.8892 54.4754 20.9345C54.7357 20.2722 54.5969 19.7046 54.1284 19.2315C53.6685 18.7757 53.1133 18.6811 52.532 19.0681C52.3758 19.1713 52.1936 19.2229 52.0548 18.9907C52.237 18.5349 52.6535 18.5865 53.0439 18.5177C54.1631 18.3285 54.8832 19.309 55.9156 19.4208C56.8873 19.524 57.4339 20.2722 57.7896 21.0807C58.7092 23.1535 58.0412 25.5102 56.1845 26.8519C53.9635 28.4603 51.4215 29.4924 48.9836 30.6965C47.4132 31.4706 45.9123 32.3737 44.7324 33.7068C44.2032 34.3089 44.0557 34.7819 44.958 35.2033C45.6 35.5044 46.1726 35.9344 46.4502 36.7601C46.7683 35.7968 46.4965 35.0428 45.6347 34.4981ZM8.84029 26.2928C8.65809 27.0153 9.05718 27.4196 9.62112 27.6948C10.5668 28.1506 11.5211 28.5807 12.4755 29.0107C14.7139 29.9998 16.9522 30.9889 19.1993 31.9522C20.5527 32.5371 21.9322 33.0617 23.2769 33.6724C23.8669 33.939 24.1966 33.7154 24.4395 33.2509C24.9601 32.2274 25.6455 31.3502 26.5738 30.6621C27.0336 30.3267 26.8341 30.1718 26.435 30.0256C23.65 29.0279 21.0472 27.6346 18.3577 26.4391C17.2299 25.9316 16.0239 25.5704 14.9568 25.0027C13.8723 24.4265 12.7358 24.005 11.6513 23.4718C11.1915 23.2481 10.7316 23.317 10.3152 23.6438C9.43025 24.3233 9.03983 25.2693 8.84896 26.2928H8.84029ZM17.4121 74.7157C17.8632 73.6922 18.1842 72.8321 18.6093 72.0236C20.2317 68.9445 21.9669 65.9342 24.5002 63.483C25.1856 62.8207 25.2203 62.2702 24.7779 61.393C24.2053 60.2576 23.7368 59.5524 22.2185 59.9308C21.4724 60.12 20.8303 60.206 20.2751 60.7909C18.8783 62.2358 17.7764 63.9044 16.5358 65.4784C15.165 67.2157 14.6444 69.2369 14.1412 71.2926C14.0632 71.5936 14.254 71.7226 14.4883 71.8774C15.5988 72.5913 16.5618 73.46 17.4121 74.7243V74.7157ZM15.5034 18.4833C15.9892 17.8898 15.9979 17.1243 16.4317 16.6943C17.013 16.118 16.9349 15.5676 16.6312 15.0429C15.9545 13.8818 15.9458 12.6261 15.9372 11.3704C15.9198 9.40076 16.6139 7.7924 18.4532 6.8205C19.4249 6.30445 20.7696 6.50227 21.403 7.17314C21.6199 7.40536 21.4724 8.00742 22.0536 7.86981C22.5482 7.74939 22.4961 7.25054 22.6263 6.89791C22.7651 6.49367 22.8171 6.05502 22.9299 5.63358C23.1034 4.97132 22.8779 4.49827 22.2532 4.21444C20.6742 3.50917 19.0605 3.44036 17.4988 4.18004C15.1476 5.28955 13.8463 7.19894 13.6033 9.762C13.3084 12.8239 13.6728 15.7568 15.5034 18.4919V18.4833ZM50.0594 29.4322C52.1156 28.3313 54.0156 27.5572 55.7074 26.3531C56.8092 25.5704 57.1909 24.4437 57.4512 23.2567C57.6941 22.1472 56.8526 20.5819 55.8722 20.0314C55.4992 19.8164 55.317 19.8078 55.2562 20.3325C55.0133 22.2504 53.8681 23.2997 51.9594 23.3514C51.4215 23.3686 51.1786 23.4718 51.0224 24.091C50.5886 25.7682 50.5712 27.4884 50.068 29.4322H50.0594ZM47.9858 43.2107C45.7475 42.7291 44.342 45.1373 45.1488 46.8231C46.0945 48.8185 48.1507 49.9624 50.4498 49.713C50.632 49.6958 50.8662 49.6786 50.8055 49.4292C50.6667 48.8185 50.1461 48.3541 50.1288 47.6574C50.1288 47.4424 49.6082 47.5456 49.3219 47.5456C48.8881 47.5456 48.5064 47.2876 48.5064 46.9865C48.5064 46.6167 48.9749 46.6769 49.2872 46.6769C49.5822 46.6769 49.8945 46.7371 50.1548 46.6511C50.7881 46.4447 51.6818 46.5651 51.7251 45.5158C51.7685 44.5439 51.2913 43.9418 50.4064 43.6408C49.5996 43.3656 48.7927 43.0473 47.9685 43.2107H47.9858ZM30.7816 60.7307C29.7405 60.1458 28.951 59.2427 28.0226 58.5031C26.2961 57.1183 24.4395 56.241 22.097 56.8517C21.481 57.0151 20.8824 57.2559 20.2491 57.3678C19.8934 57.428 19.3641 57.1527 19.2427 57.729C19.1299 58.2709 19.529 58.6063 19.9281 58.8643C21.0646 59.604 22.2792 59.4406 23.4591 59.0277C24.1012 58.8041 24.3961 58.8299 24.5957 59.5438C24.8646 60.4899 25.3765 61.3156 26.14 61.9864C26.6085 62.3993 27.0423 62.4337 27.6236 62.2444C28.3437 62.0122 28.4911 61.3672 28.9076 60.9027C29.2893 60.4727 30.1656 61.5048 30.7903 60.7307H30.7816ZM60.5572 37.5428C60.5572 37.2417 60.5572 37.0267 60.5572 36.8031C60.5398 35.3926 60.1581 34.7819 59.1083 34.4981C57.9891 34.197 57.0695 34.6529 56.3841 35.7624C55.6206 37.0009 55.3777 38.3341 55.4731 39.7618C55.4905 40.0972 55.4731 40.3639 55.9763 40.3725C57.4512 40.4069 58.7526 40.8197 59.5074 42.2388C59.5681 42.3421 59.7417 42.4367 59.8718 42.4453C60.0453 42.4539 60.0887 42.2905 60.08 42.1356C60.0106 40.5531 60.696 39.0393 60.5745 37.5342L60.5572 37.5428ZM55.2562 8.15363C55.2649 6.76029 53.8681 4.72189 52.6188 4.21444C51.0224 3.56938 50.8489 3.61238 49.6082 4.92831C49.3827 5.16914 49.2005 5.45296 48.9402 5.64218C48.4543 6.00342 48.5584 6.36466 48.9922 6.56248C50.7448 7.38816 52.0722 8.73849 53.521 9.95121C53.7379 10.1318 53.9288 10.4329 54.2325 10.0544C54.7096 9.45236 55.5686 9.04812 55.2736 8.14503L55.2562 8.15363ZM58.8133 6.07223C58.7005 4.22304 58.0152 2.95011 56.627 2.13303C55.2042 1.29015 53.8941 1.8492 52.6361 2.63188C52.0028 3.01892 52.0201 3.22534 52.7055 3.54357C54.085 4.19724 55.0307 5.31535 55.5859 6.68289C56.1759 8.12783 56.1065 8.16223 57.538 7.41396C57.6681 7.34515 57.7896 7.25914 57.9284 7.21614C58.6398 7.00112 58.9348 6.54527 58.8133 6.07223ZM52.3845 33.7412C52.3845 33.3628 52.3845 33.1477 52.3845 32.9241C52.3845 32.2963 52.3845 31.5566 51.7772 31.29C51.1092 30.9889 50.337 31.1437 49.7297 31.6598C49.5128 31.849 49.2699 32.0296 49.0964 32.2532C48.0205 33.6552 47.5781 35.2549 47.5434 37.0009C47.5347 37.6288 47.8036 37.9384 48.3329 38.1104C48.8968 38.2997 49.2959 38.0846 49.6169 37.603C50.0247 37.0009 50.4671 36.3731 51.1092 36.0376C52.1589 35.4958 52.6188 34.7303 52.3758 33.7326L52.3845 33.7412ZM55.4991 51.2525C56.4708 51.3816 57.3298 50.8827 58.1973 50.3839C58.4576 50.2376 58.822 50.1344 58.796 49.842C58.77 49.5668 58.3882 49.4636 58.1193 49.3432C56.3667 48.5605 54.6229 47.7606 52.9137 46.9091C52.0201 46.4705 51.7338 47.0123 51.2133 47.2359C50.5973 47.494 50.8315 48.01 50.953 48.4401C51.4388 50.1086 53.2521 51.2439 55.4818 51.2525H55.4991ZM24.8213 11.8692C23.997 10.8801 21.9929 10.5103 21.4116 11.2843C19.9801 13.1593 18.4532 14.9655 17.2038 16.9781C17.0043 17.3049 16.7961 17.606 17.3166 17.6662C17.7591 17.7178 17.9847 18.7929 18.5659 17.9672C19.2427 17.0125 20.1103 16.6341 21.2728 16.7975C21.6546 16.8491 22.045 16.7975 22.4701 16.7975C21.3162 13.598 21.7587 12.7121 24.8299 11.8606L24.8213 11.8692ZM20.9778 7.8268C19.3034 7.08713 18.592 7.29355 17.5509 8.60088C16.2929 10.1748 16.8394 11.9724 16.8655 13.6926C16.8655 14.071 17.1257 14.6989 17.3773 14.7591C17.8632 14.8709 18.1235 14.3032 18.4098 13.942C18.7481 13.512 19.0605 13.0647 19.3988 12.6433C19.6244 12.3681 19.7198 12.0498 19.607 11.7316C19.0431 10.1318 19.4509 8.8503 20.9778 7.8268ZM20.8737 39.5382C19.7372 41.0261 19.902 43.4602 21.0906 44.9137C22.4614 46.5823 23.6934 47.0725 25.1509 46.4275C22.4788 44.9309 21.4897 42.4195 20.8737 39.5468V39.5382ZM43.0059 35.341C42.3639 35.3324 41.7739 35.2205 41.5223 35.8914C41.3054 36.4763 41.7392 36.8289 42.0429 37.2159C42.6241 37.9556 43.4484 38.162 44.3333 38.1706C44.8538 38.1706 45.3831 38.0416 45.5392 37.4998C45.6954 36.9579 45.5132 36.4247 45.01 36.0806C44.3767 35.6506 43.726 35.2549 42.9972 35.341H43.0059ZM63.8193 47.0983C64.4093 47.1241 64.9385 47.2101 65.2335 46.6339C65.4244 46.2468 65.3983 45.8512 65.1988 45.49C64.765 44.7245 63.3074 44.1052 62.4312 44.2859C61.659 44.4493 61.1732 45.1545 61.5636 45.6792C62.1362 46.4447 62.6828 47.3478 63.8193 47.0983ZM55.9676 41.2325C55.4992 41.2067 54.9526 41.2325 54.9352 42.0238C54.9179 42.9183 56.1672 44.088 57.2864 44.002C57.911 43.9504 58.8654 44.002 58.9782 43.0215C59.0823 42.1098 57.6508 41.2583 55.9676 41.2411V41.2325ZM19.0865 32.9069C19.9194 33.9648 20.7002 34.7991 21.6546 35.4442C22.3313 35.9 22.4267 35.0313 22.7651 34.7561C23.2075 34.3949 22.7824 34.2142 22.4874 34.0938C21.4637 33.681 20.492 33.0961 19.0952 32.9069H19.0865ZM21.8107 8.53207C20.4573 9.05672 19.9281 9.75339 20.0669 10.7253C20.0929 10.8973 20.0669 11.0951 20.2924 11.1639C20.5007 11.2241 20.6221 11.0865 20.7436 10.9403C21.2815 10.2608 21.6893 9.52977 21.8194 8.53207H21.8107ZM75.0893 22.4741C75.3669 22.2332 76.1391 22.9213 76.0957 22.0612C76.0436 21.1581 75.1674 21.5022 74.6295 21.3818C74.2651 21.2957 73.918 21.3216 73.9354 21.8892C73.9701 22.7837 74.6381 22.3365 75.098 22.4741H75.0893ZM67.7582 49.0249C68.5216 49.1281 68.9988 49.3174 69.6061 49.2055C69.1463 48.2078 68.6084 48.3971 67.7582 49.0249ZM66.8298 50.9859C66.8645 51.3644 66.8645 51.5708 66.8993 51.7686C66.96 52.1212 67.1682 52.3535 67.5499 52.3363C67.7148 52.3363 67.9751 52.2675 68.0098 52.1642C68.1573 51.7428 67.7235 51.6826 67.5152 51.4762C67.3677 51.33 67.1856 51.2267 66.8385 50.9687L66.8298 50.9859Z" fill="#24201C"/>
<path d="M90.698 80.7449C89.2578 80.5643 87.8089 80.7449 86.36 80.5041C85.5271 80.3665 84.7376 80.1257 83.9828 79.8332C82.9851 79.4462 82.9331 78.5947 83.8267 78.0529C84.6075 77.5798 85.4751 77.2616 86.3947 77.1842C87.7221 77.0724 89.0496 77.0036 90.3596 76.7369C91.3313 76.5391 92.2943 76.9347 93.266 76.9949C94.793 77.0896 96.3546 77.1584 97.8469 77.597C97.9857 77.64 98.1419 77.64 98.2633 77.7088C98.8967 78.0529 99.6341 78.3453 99.4606 79.2914C99.3044 80.1343 98.567 80.2461 97.9336 80.4353C96.7711 80.7965 95.5565 80.5643 94.3679 80.7191C93.1446 80.7191 91.9213 80.7191 90.698 80.7191V80.7449Z" fill="#24201C"/>
<path d="M12.7359 9.86523C12.7359 10.9317 12.7446 11.9982 12.7532 13.0648C12.3455 11.9982 12.4062 10.9317 12.7359 9.86523Z" fill="#24201C"/>
<path d="M90.6973 80.7449C91.9206 80.7449 93.1439 80.7449 94.3672 80.7449C93.1439 81.0029 91.9206 81.0029 90.6973 80.7449Z" fill="#24201C"/>
<path d="M47.2747 50.4096C46.8583 50.2032 46.4418 49.9882 46.0254 49.7818C46.0341 49.6183 46.0514 49.4549 46.0601 49.2915C46.4679 49.5151 46.8843 49.7301 47.2921 49.9538C47.2921 50.1086 47.2747 50.2634 47.266 50.4182L47.2747 50.4096Z" fill="#24201C"/>
<path d="M77.5797 59.7416C76.6774 59.8792 75.7751 60.0168 74.8555 59.8878C75.7491 59.647 76.6687 59.6986 77.5797 59.7416Z" fill="#24201C"/>
<path d="M53.1396 34.2228C53.1396 33.6638 53.1396 33.1047 53.1396 32.5457C53.3826 33.1047 53.3912 33.6638 53.1396 34.2228Z" fill="#24201C"/>
<path d="M28.6048 0.172055C28.1884 0.172055 27.7719 0.172055 27.3555 0.172055C27.7719 -0.0429661 28.1884 -0.0687687 28.6048 0.172055Z" fill="#24201C"/>
<path d="M12.7626 13.5808C12.9969 13.6324 12.9709 13.7958 12.9362 13.9678C12.6585 13.9334 12.4763 13.856 12.7626 13.5808Z" fill="#24201C"/>
<path d="M77.71 59.3976C77.8401 59.4148 77.8748 59.4922 77.8227 59.604C77.788 59.5352 77.7447 59.4664 77.71 59.3976Z" fill="#24201C"/>
<path d="M53.2702 35.0313C53.1401 35.0829 53.1141 35.0313 53.1488 34.9109C53.2268 34.9109 53.2702 34.9539 53.2702 35.0313Z" fill="#24201C"/>
<path d="M54.3368 35.0571L54.2587 35.0915L54.1807 35.0485C54.2327 34.9453 54.2848 34.9453 54.3368 35.0485V35.0571Z" fill="#24201C"/>
<path d="M47.5957 50.0226C47.6478 50.057 47.7085 50.0914 47.7605 50.1258C47.6998 50.0914 47.6478 50.057 47.5957 50.0226Z" fill="#24201C"/>
<path d="M84.0694 33.2853C83.4708 33.4402 82.8808 33.4746 82.2909 33.2337C82.2302 33.2079 82.1694 33.1907 82.1 33.1649C81.0069 33.1047 81.3886 33.9218 81.5014 34.3519C81.6836 35.0829 82.2302 35.642 82.7507 36.1924C83.9219 37.431 85.3621 38.291 86.8457 39.1081C88.1818 39.8478 89.5092 40.6907 89.7435 42.3937C89.8129 42.8925 90.1339 42.7463 90.3768 42.7377C90.9928 42.6947 91.6001 42.5485 92.2161 42.5399C95.3134 42.4969 97.4303 44.5353 97.76 47.5972C97.9335 49.1711 97.7253 50.5903 97.0485 52.0524C98.0116 52.2416 98.9486 52.1126 99.9029 52.7061C102.055 54.0478 102.549 56.9893 101.864 58.8041C101.395 60.0426 100.788 61.2295 99.7381 62.1154C99.1221 62.6401 98.4887 63.0787 97.6645 63.2593C97.0138 63.4056 96.3979 63.7066 96.5714 64.6441C97.0225 67.0265 95.1659 69.2283 92.138 69.7788C91.8951 69.8218 91.6435 69.8992 91.4266 70.011C89.1882 71.0861 87.3923 69.6412 86.2471 68.4801C85.9261 68.1532 86.0562 67.9296 86.2991 67.663C86.4293 67.5168 86.8544 67.4652 86.5421 67.1039C86.3685 66.9061 86.0996 66.8631 85.9434 66.9491C83.5142 68.2048 82.1434 66.5449 80.7639 65.0655C79.3064 63.5088 79.4799 61.6854 80.0959 59.8276C80.1653 59.6126 80.521 59.4062 80.2694 59.1653C80.0265 58.9331 79.7922 59.1567 79.6274 59.3546C79.3151 59.7244 79.1068 59.5352 78.8205 59.2944C75.2114 56.2066 71.368 53.4114 67.5159 50.6333C67.2035 50.4097 66.9606 50.2032 67.1515 49.8764C67.3337 49.5668 67.6373 49.7904 67.915 49.8764C69.5547 50.3667 71.2205 50.7451 72.9296 50.8139C73.4675 50.8311 73.8579 51.1579 74.3438 51.2783C75.5931 51.5794 76.8685 51.7514 78.1438 51.9148C78.5603 51.9664 78.942 52.1384 79.0027 52.6115C79.0895 53.2393 78.4214 52.8523 78.2392 53.1361C77.7447 52.6459 77.1374 52.5857 76.2264 52.5599C77.0073 53.1619 77.5972 53.2823 78.2566 53.1275C78.5689 53.7898 79.3411 53.85 79.8443 54.2714C80.0959 54.4779 80.1653 54.0564 80.0352 53.7296C79.6968 52.8781 79.4018 52.0438 79.9657 51.1149C80.2694 50.6247 80.495 50.3925 80.9982 50.7021C81.3973 50.9429 81.6836 50.6161 81.8224 50.4613C82.0046 50.2634 81.6662 50.0656 81.4667 49.8936C80.3388 48.8873 79.905 47.6574 80.4516 46.2124C80.9635 44.8535 82.3603 44.0364 84.0347 44.0536C84.4338 44.0536 84.8416 44.0278 85.2407 44.0622C85.8306 44.1224 86.3252 44.3117 86.2731 45.0513C86.2471 45.404 86.3078 45.7652 86.7243 45.7824C87.08 45.791 87.132 45.4642 87.1407 45.1459C87.1667 44.5095 87.6266 44.1396 88.043 43.7354C88.2165 43.572 88.5375 43.4602 88.4334 43.1505C88.3466 42.8839 88.069 42.9785 87.8695 42.9871C87.4704 43.0043 87.3229 42.6689 87.08 42.4711C85.8306 41.4648 84.5032 40.6907 82.8635 40.3037C79.6447 39.5296 76.5561 38.291 74.8643 35.2205C74.1529 33.9218 73.4155 33.5864 71.9666 33.5262C69.1643 33.4144 67.325 30.3267 67.5592 28.013C67.5853 27.798 67.6634 27.6174 67.7588 27.4196C68.0711 26.7487 68.2967 26.1982 67.2122 25.8026C65.6939 25.2521 64.9825 23.2481 65.3382 21.7C65.9108 19.1541 67.7067 18.1478 70.0405 17.7092C70.1707 17.6834 70.3008 17.649 70.5611 17.5028C68.9821 17.3136 68.9734 16.2814 69.0949 15.1805C69.2077 14.157 71.0643 12.11 72.0186 11.9122C72.3744 11.8348 72.4611 12.0326 72.5826 12.2648C73.7625 14.5097 75.1073 16.6771 75.9835 19.0767C76.1831 19.6272 76.4694 19.9454 75.489 19.739C73.7972 19.3864 72.2876 19.9712 71.1858 21.2441C70.4049 22.1472 70.3963 23.3858 70.804 24.4093C71.2291 25.4844 72.062 26.2584 73.4849 26.1896C77.2936 26.009 78.4908 23.1363 77.2502 19.7906C76.5214 17.8296 75.5758 15.9632 74.4219 14.2C74.0228 13.5894 74.5433 12.6175 75.3415 12.4455C75.8621 12.3337 76.4086 12.3251 76.9379 12.2304C78.3173 11.9724 79.1762 12.6605 79.7402 13.7872C80.1479 14.6129 80.521 14.6731 81.1717 14.0022C82.1607 12.9701 84.2863 13.0733 85.5617 14.1398C87.401 15.6966 88.069 17.6146 87.4357 19.954C87.3923 20.126 87.401 20.3153 87.3663 20.4959C87.3316 20.7109 87.2622 20.9517 87.5311 21.0549C87.7914 21.1581 87.9042 20.9431 88.0343 20.7625C88.7891 19.7304 88.9887 19.7304 89.7348 20.7969C90.9494 22.5429 91.1837 26.181 89.301 27.8152C88.4334 28.5721 88.1558 28.5807 87.5658 27.6948C87.4617 27.5486 87.3576 27.3852 87.2188 27.2819C86.8891 27.0411 86.49 26.5251 86.1083 26.9551C85.7786 27.325 86.3772 27.5228 86.6201 27.7378C88.0256 28.9591 87.3229 31.8662 85.5357 32.7005C85.3448 32.7951 85.1366 32.8639 84.937 32.9413C84.8676 32.9843 84.8069 33.0359 84.7375 33.0789C84.6681 33.1047 84.5987 33.1391 84.5293 33.1649C84.3557 33.1219 84.1996 33.1305 84.0868 33.2767L84.0694 33.2853ZM73.3027 53.1963C73.1899 52.9383 72.8429 52.9383 72.7995 53.0415C72.704 53.2909 73.0858 53.1791 73.1725 53.3426C74.5867 54.2026 75.9835 55.1143 77.6406 55.51C76.2351 54.6585 74.9424 53.6092 73.3027 53.1963ZM89.5873 58.0042C88.3293 57.4452 87.158 57.2903 85.9174 57.5656C84.5813 57.858 83.3146 59.4148 83.4101 60.7737C83.5055 62.21 84.8676 63.5002 86.3685 63.4314C88.5028 63.3368 90.5677 61.6854 90.4896 59.4234C90.3942 56.5679 90.4636 56.5593 93.2312 55.6304C93.5782 55.51 93.8992 55.3035 93.717 54.9509C93.4828 54.4951 93.5695 54.0392 93.5088 53.5834C93.422 52.9641 93.1965 52.5341 92.407 52.5427C91.5567 52.5513 90.7672 52.6287 90.0384 53.1189C89.7955 53.2823 89.3531 53.764 89.0667 53.1189C88.8412 52.6201 88.4074 52.1384 89.1188 51.6138C90.1512 50.8569 91.2184 50.2806 92.5544 50.3753C93.1965 50.4183 93.7951 50.2204 93.7604 49.4808C93.7344 48.7841 93.7083 48.1046 93.422 47.3908C93.0837 46.5221 92.5978 46.4103 91.8691 46.4275C90.2553 46.4533 88.8845 47.1241 87.5918 48.0014C87.2188 48.2594 87.158 48.6035 87.1233 49.0249C86.9151 51.3558 88.2686 53.2307 88.9713 55.2863C89.2663 56.1464 89.5352 56.9549 89.5786 58.0042H89.5873ZM75.4196 31.4534C75.2287 31.72 75.2634 31.978 75.4196 32.3393C76.5735 34.9797 78.3347 37.0611 80.9461 38.3943C81.2238 38.5405 81.4667 39.1339 81.7877 38.6953C82.0133 38.3943 81.4233 38.2566 81.2151 38.0416C81.163 37.99 81.1023 37.947 81.0416 37.9126C78.6036 36.4505 76.6949 34.5497 75.8968 31.7458C75.836 31.548 75.7406 31.4362 75.4109 31.4534H75.4196ZM81.1457 36.029C80.6425 35.2377 80.6078 34.24 79.8443 33.2337C79.905 34.5669 80.174 35.4614 81.1457 36.029Z" fill="#F8F8F7"/>
<path d="M27.6583 6.5022C28.9684 7.00105 30.3652 6.71722 31.7273 6.96664C34.7292 7.5085 37.6443 8.29978 40.3945 9.61571C42.0863 10.4242 43.8735 11.009 45.4699 12.0153C47.1704 13.0819 48.8795 14.1226 50.3804 15.4729C50.8836 15.9287 51.0311 16.2212 50.4499 16.7458C49.9467 17.2017 49.5129 17.7693 49.1919 18.3714C48.7147 19.2573 48.5151 20.384 49.1311 21.1409C50.1722 22.4224 50.3284 23.7125 49.9987 25.2435C49.7298 26.4992 49.695 27.8065 49.4174 29.0709C49.296 29.6213 49.0444 29.9309 48.5325 30.1632C46.511 31.0835 44.7238 32.322 43.4484 34.1626C43.2228 34.4894 43.0146 34.4636 42.7543 34.4722C42.3639 34.4894 41.9735 34.412 41.6178 34.6958C41.3662 34.8936 41.0365 35.0485 40.7242 34.756C40.4032 34.455 40.4813 34.0422 40.6201 33.7411C41.3315 32.2016 40.9584 30.6964 40.4032 29.2515C39.7351 27.5313 36.8287 27.3937 35.6054 28.9762C34.5383 30.3438 33.6186 30.5502 31.9702 29.9997C31.0853 29.7073 30.0789 29.4149 29.2026 29.7245C27.9186 30.1718 26.9903 29.5095 25.9665 29.0709C23.2076 27.8753 20.4747 26.6368 17.7158 25.4499C15.7897 24.6242 15.3993 23.9361 15.7116 21.3731C15.8071 20.5646 15.9719 19.7561 16.1715 18.9648C16.4057 18.0101 16.9002 17.8725 17.6203 18.5778C18.5053 19.4379 19.0085 20.513 19.182 21.7171C19.2688 22.3192 19.0172 22.7234 19.9889 22.173C20.787 21.7171 21.8802 21.6311 22.7218 21.1065C24.7693 19.8421 26.062 18.0962 26.0186 15.6019C26.0012 14.5956 26.1747 13.5721 25.8711 12.5744C25.4199 11.1209 24.4656 10.3296 22.956 10.3038C22.1405 10.2952 21.9496 10.0544 22.4354 9.38349C22.8519 8.81583 23.0428 8.15356 23.1729 7.4913C23.251 7.10426 23.2857 6.71722 23.7108 6.5366C25.0295 6.5366 26.3569 6.5366 27.6757 6.528L27.6583 6.5022ZM38 26.353C38.6073 26.5078 39.2059 26.6712 40.0561 26.8862C39.5096 26.2412 39.5269 25.8283 40.0561 25.4499C40.2383 25.3209 40.3164 25.0198 40.4205 24.7876C40.9122 23.7039 41.6756 23.3484 42.711 23.7211C42.7891 23.1879 42.3986 22.9728 42.0516 22.8696C41.2187 22.6116 41.5484 21.9923 41.6699 21.5709C41.826 21.0463 42.2859 20.7796 42.8845 21.0205C43.5265 21.2785 44.1772 21.1409 44.8366 21.0549C44.1945 20.599 43.4658 20.5044 42.711 20.513C42.3379 20.513 41.9648 20.5302 41.8607 20.0572C41.774 19.6443 41.9909 19.3691 42.3206 19.1713C43.0059 18.7498 43.7955 18.6036 44.7498 18.4402C44.0818 17.9327 43.5612 18.1736 43.084 18.3456C42.2598 18.6466 41.6612 18.6638 41.6091 17.5629C41.6091 17.3995 41.4616 17.2361 41.3749 17.0813C40.3858 15.3611 38.694 14.8708 36.4383 15.5761C32.4995 16.806 30.1483 21.6311 31.0766 25.4929C31.3109 26.4476 31.7533 27.3851 30.8597 28.2452C30.8424 28.2624 30.9118 28.3656 31.0072 28.5634C32.0917 27.2561 33.3931 26.3874 35.1109 26.3358C36.0739 26.3358 37.0456 26.3444 38.0086 26.353H38ZM25.2204 21.5795C24.1359 21.5967 23.2597 21.4333 22.8779 22.431C22.4962 23.4201 22.6957 24.2974 23.5026 24.9854C24.5437 25.8713 25.6629 26.3874 27.1378 26.0089C28.5693 25.6391 29.2026 24.306 28.335 23.1019C27.4935 21.9321 26.3049 21.5451 25.2117 21.5795H25.2204Z" fill="#F8F8F7"/>
<path d="M42.4686 49.7474C42.4078 50.3838 42.5987 51.0547 42.2951 51.674C42.2083 51.846 42.2083 52.0438 42.4078 52.147C42.6161 52.2588 42.833 52.2416 42.9631 52.0008C43.0672 51.8116 43.154 51.6223 43.2407 51.4331C43.7352 50.3408 44.1864 50.186 45.3837 50.6074C46.3901 50.9601 47.4398 51.2181 47.5353 52.5512C47.6481 54.1596 46.3901 55.4669 44.6896 55.5873C43.5097 55.6734 42.3818 55.3723 41.2279 55.2605C38.2434 54.9767 37.5146 55.3465 36.2046 57.9698C35.7101 58.9589 34.99 59.7416 33.9836 60.0942C32.2484 60.6963 30.8516 59.862 29.6109 58.7353C28.4831 57.7032 27.3292 56.6797 25.8022 56.3012C24.1885 55.9056 22.5835 56.026 20.909 56.2582C19.8853 56.4044 18.6533 56.8259 17.4994 56.1292C16.6578 55.6131 16.0939 55.0025 16.1807 54.065C16.2674 53.1447 16.814 52.4394 17.777 52.104C19.304 51.5707 19.2606 51.5707 20.1108 52.8609C20.4665 53.4027 20.9611 54.3746 21.5424 54.0392C22.0542 53.7468 21.1866 53.0415 20.935 52.5168C20.267 51.1235 19.4515 49.7904 19.4341 48.1648C19.4254 47.5713 19.6684 47.3735 20.1889 47.2101C21.0912 46.9263 21.8894 46.7543 22.8264 47.2961C23.6159 47.752 24.6049 47.7606 25.4812 47.3133C25.8803 47.1069 26.2013 47.0897 26.6091 47.2789C28.7954 48.3024 30.8516 47.6832 32.8991 46.7887C33.2201 46.6425 33.5324 46.4962 33.9228 46.4876C35.927 46.4704 37.6795 45.6362 39.2672 44.5438C39.9873 44.0536 40.3517 44.1654 40.7507 44.7503C41.7745 46.2554 42.7202 47.795 42.4772 49.7474H42.4686Z" fill="#B8D3E0"/>
<path d="M21.9148 39.564C21.9148 39.0738 21.9148 38.5835 21.9235 38.0933C22.071 38.0331 22.0797 37.9384 21.9929 37.818C22.045 36.1839 23.2682 35.2722 24.3441 34.3605C24.7865 33.9906 25.0815 33.6036 25.3071 33.1478C26.2528 31.2298 28.656 29.974 30.7382 30.3611C31.0939 30.4299 31.545 30.4385 31.6838 30.7997C31.8313 31.1696 31.3628 31.3158 31.1546 31.5394C30.6948 32.021 30.2957 32.5371 30.0181 33.1306C29.9226 33.337 29.7838 33.6466 30.1309 33.7756C30.3825 33.8702 30.4953 33.6294 30.6341 33.4574C30.9985 32.9671 31.3889 32.4769 31.7706 31.9952C32.1523 31.5222 32.6729 31.2728 33.2455 31.1008C34.4515 30.7481 34.5122 30.8427 34.5903 32.0383C34.6597 33.0446 34.2866 34.0164 34.382 35.0141C34.998 34.9453 35.267 34.5325 35.2236 34.0337C35.1455 33.122 35.4058 32.2533 35.4839 31.3588C35.614 29.8106 36.3341 28.5205 38.2775 28.7785C39.0236 28.8731 39.4401 29.1484 39.6917 29.8708C40.5332 32.2447 39.8912 34.4207 38.7547 36.4763C38.1994 37.4826 37.5054 38.4373 36.6117 39.2114C35.9871 39.7532 36.2907 40.5531 36.1866 41.1982C35.9177 43.0044 34.8679 44.2859 33.5405 45.2922C32.1957 46.3243 30.6167 47.0554 28.8208 46.9005C25.8276 46.6425 23.8235 44.9825 22.5134 42.4109C22.2445 41.8862 21.8801 41.3444 22.0276 40.6821L22.071 40.6477L22.0189 40.6219C21.9842 40.4327 21.9495 40.2349 21.9148 40.0457C22.0536 39.8736 22.0623 39.7102 21.8975 39.5554L21.9148 39.564ZM29.9747 41.3874C28.7948 41.4304 27.476 42.5571 27.3893 43.529C28.335 42.8495 29.0551 42.0152 29.9747 41.3874ZM24.292 39.3834C24.2139 39.8478 24.2573 40.2091 24.561 40.2607C24.7952 40.3037 24.8906 39.9596 24.9167 39.693C24.9861 39.005 25.2897 38.3857 25.5413 37.7492C25.5847 37.6374 25.845 37.4568 25.5847 37.3278C25.4199 37.2418 25.229 37.2676 25.1336 37.4826C24.8386 38.1621 24.5349 38.8415 24.292 39.3748V39.3834ZM27.7363 38.5233C26.5477 39.2544 25.871 40.7595 26.2441 41.8776C26.4436 40.5875 27.3112 39.7704 27.7363 38.5233Z" fill="#F8F8F7"/>
<path d="M23.5292 5.95181C24.0324 4.74769 23.7808 3.62098 23.9977 2.52007C24.1799 1.62558 24.5616 1.26435 25.3685 1.13533C27.5201 0.799899 29.6804 0.885907 31.832 1.11813C34.2179 1.36756 36.5603 1.88361 38.8334 2.63188C44.7677 4.59288 50.1988 7.40536 54.5021 12.0326C55.4824 13.0819 55.1267 14.8279 53.7299 15.2493C52.55 15.602 51.4482 15.9632 50.2162 14.7161C48.2034 12.6691 45.5833 11.3704 42.9545 10.1404C40.5165 9.00512 38.0786 7.86981 35.4672 7.22474C33.3676 6.70869 31.2854 6.12383 29.0731 6.10663C27.2685 6.08943 25.4726 5.65078 23.5205 5.95181H23.5292Z" fill="#ECCC36"/>
<path d="M5.56952 63.7582C7.31337 63.7754 8.54535 65.1429 8.89238 66.9491C9.00517 67.5339 9.5344 68.0672 9.43896 68.8069C9.2828 70.0024 10.133 71.0259 10.0463 72.2988C10.0116 72.7805 10.4714 73.7351 10.8878 74.4146C11.7988 75.937 12.7531 77.4163 14.0285 78.672C14.4102 79.0505 14.4102 79.5579 14.0979 79.9536C13.8463 80.2718 13.4646 80.3234 12.9787 80.246C9.786 79.7042 7.14853 78.156 5.21381 75.6617C4.24211 74.406 3.32247 72.9697 2.94941 71.3699C2.58502 69.8046 2.39415 68.1876 2.52429 66.5706C2.5937 65.7105 4.19873 63.5861 5.56952 63.7582ZM4.91883 70.2518C4.80605 70.1572 4.74531 70.054 4.66723 70.0454C4.51107 70.0196 4.38093 70.1142 4.43298 70.2862C4.45034 70.355 4.58915 70.4324 4.66723 70.4324C4.73664 70.4324 4.81472 70.3378 4.91883 70.2604V70.2518ZM4.59783 71.0431C4.53709 71.1893 4.50239 71.2753 4.46769 71.3613C4.55445 71.3871 4.64988 71.4387 4.73664 71.4387C4.76267 71.4387 4.84075 71.3097 4.8234 71.2753C4.78869 71.1979 4.70194 71.1463 4.59783 71.0431ZM4.24211 70.8453C4.26814 70.6646 4.19873 70.5958 4.0686 70.613C3.99919 70.613 3.94713 70.6732 3.87773 70.699C3.92111 70.7765 3.94713 70.9055 4.00787 70.9313C4.0686 70.9571 4.17271 70.8711 4.23344 70.8453H4.24211ZM5.29189 70.7334C5.29189 70.7334 5.23984 70.6818 5.21381 70.656C5.18778 70.7076 5.15308 70.7507 5.14441 70.8023C5.14441 70.8195 5.18778 70.8539 5.21381 70.8711C5.23984 70.8195 5.26587 70.7765 5.29189 70.7334Z" fill="#ECCC36"/>
<path d="M56.8792 70.398C55.7166 67.9382 56.2719 65.4268 55.1353 63.2765C54.1376 61.3757 52.8015 60.0684 50.5371 59.9652C50.3289 59.9566 50.1988 59.8448 50.0773 59.7072C51.4828 58.03 54.2591 58.7353 55.6559 59.8018C57.1481 60.9457 58.2153 62.4423 58.8139 64.1624C59.4473 65.9772 60.1847 67.792 60.124 69.7874C60.0459 72.3246 59.2564 73.5202 56.7491 74.1222C54.4326 74.6813 52.0901 74.7243 49.9038 73.4858C49.175 73.0729 48.6284 72.5053 48.3248 71.7398C48.0124 70.9485 48.1252 70.2002 48.854 69.71C50.0513 68.9015 51.4047 68.5919 52.8536 68.7983C54.2244 68.9875 55.5952 69.1939 56.8705 70.3808L56.8792 70.398Z" fill="#ECCC36"/>
<path d="M45.6353 34.4981C46.5029 35.0428 46.7748 35.7968 46.4509 36.7601C46.1732 35.9344 45.6006 35.5044 44.9586 35.2034C44.0563 34.7819 44.2038 34.3089 44.733 33.7068C45.9129 32.3737 47.4139 31.4706 48.9842 30.6965C51.4308 29.4924 53.9642 28.4517 56.1852 26.8519C58.0418 25.5102 58.7099 23.1535 57.7902 21.0807C57.4345 20.2637 56.8793 19.524 55.9162 19.4208C54.8838 19.309 54.1637 18.3285 53.0445 18.5177C52.6454 18.5865 52.2377 18.5349 52.0555 18.9907C52.203 19.223 52.3765 19.1713 52.5326 19.0681C53.1139 18.6897 53.6779 18.7843 54.129 19.2316C54.5975 19.696 54.7363 20.2723 54.476 20.9345C54.103 21.8892 52.7062 22.8009 51.7084 22.7063C50.9623 22.6375 49.8344 21.1409 49.7303 20.2207C49.4961 18.0876 51.1185 16.7803 53.0619 16.4191C56.298 15.817 60.124 18.0876 61.1651 20.8743C62.1282 23.4546 61.0697 26.6713 58.6665 28.142C56.966 29.1827 55.0747 29.8278 53.2961 30.6879C53.0185 30.8169 52.8016 30.8685 52.4893 30.7137C51.1879 30.0772 49.7824 30.3009 48.802 31.3416C48.3422 31.8318 47.8303 32.3995 47.6655 33.0187C47.3792 34.1196 46.928 34.7647 45.6353 34.4981Z" fill="#ECCC36"/>
<path d="M51.3956 67.9726C50.58 67.749 50.3371 67.0351 50.8924 66.4245C51.2481 66.0374 51.7599 65.745 51.7079 65.1171C51.517 64.9279 51.3435 65.0225 51.222 65.1429C49.1138 67.2502 46.7887 67.3362 44.264 65.9342C42.2599 64.8161 40.5334 63.397 39.1886 61.5392C38.7982 60.9973 38.5292 60.4641 39.3448 60.0426C39.4055 60.0082 39.4836 59.948 39.4923 59.8878C39.8046 58.4687 40.6114 59.0793 41.3662 59.4234C41.6526 59.561 41.9996 59.776 42.2685 59.7244C43.7781 59.432 44.7845 60.2749 45.8777 61.0833C47.1617 62.038 48.1942 61.9692 49.3481 60.9027C50.233 60.077 52.4193 60.8769 53.2522 61.608C54.1545 62.3993 54.6924 63.4572 55.0481 64.5495C55.4645 65.8052 55.7335 67.1211 55.4212 68.5403C54.8659 68.3339 54.3454 68.1963 53.8075 68.2049C53.0613 67.4652 52.2111 67.8264 51.3869 67.9726H51.3956Z" fill="#F8F8F7"/>
<path d="M8.84031 26.2929C9.03118 25.2608 9.42159 24.3233 10.3065 23.6438C10.7316 23.317 11.1828 23.2482 11.6426 23.4718C12.7358 24.0051 13.8723 24.4351 14.9481 25.0028C16.0153 25.5704 17.2212 25.9316 18.3491 26.4391C21.0386 27.6432 23.65 29.028 26.4263 30.0257C26.8254 30.1719 27.0249 30.3181 26.5651 30.6621C25.6368 31.3416 24.9514 32.2275 24.4309 33.251C24.1966 33.7154 23.8582 33.939 23.2683 33.6724C21.9235 33.0618 20.5441 32.5371 19.1906 31.9522C16.9436 30.9803 14.7052 29.9998 12.4668 29.0108C11.5125 28.5893 10.5495 28.1507 9.61246 27.6948C9.04853 27.4196 8.65811 27.024 8.83163 26.2929H8.84031Z" fill="#ECCC36"/>
<path d="M13.8729 68.6778C13.9076 69.7443 13.6386 70.7593 13.3263 71.7656C13.1701 72.2558 12.8838 72.7116 13.8989 72.574C14.645 72.4708 15.1049 73.3051 15.6428 73.7696C17.0396 74.9651 17.5948 76.4616 16.9875 78.2592C16.8661 78.629 16.6665 78.9989 16.4149 79.2913C15.6341 80.1944 15.3131 80.1342 14.9313 79.0505C14.6103 78.1388 14.0377 77.3819 13.3957 76.6938C11.1573 74.2942 10.4199 71.3699 10.1423 68.222C9.99477 66.5792 9.37011 65.0397 8.17284 63.8356C7.05365 62.7088 5.62213 63.0013 4.12988 63.1647C5.492 61.2553 7.38334 60.8683 9.43952 61.1005C11.114 61.2897 12.1898 62.3304 12.7797 63.8786C13.309 65.2891 13.7514 66.7168 13.8729 68.2134C13.7601 68.3596 13.7514 68.5144 13.8555 68.6692L13.8729 68.6778Z" fill="#ECCC36"/>
<path d="M17.4126 74.707C16.5624 73.4427 15.5907 72.574 14.4888 71.8602C14.2546 71.7054 14.0637 71.5763 14.1418 71.2753C14.645 69.2197 15.1742 67.1985 16.5363 65.4611C17.777 63.8958 18.8701 62.2272 20.2756 60.7737C20.8396 60.1888 21.4729 60.1028 22.219 59.9136C23.7373 59.5351 24.2058 60.2404 24.7784 61.3757C25.2209 62.253 25.1862 62.8035 24.5008 63.4657C21.9674 65.917 20.2323 68.9359 18.6099 72.0064C18.1847 72.8149 17.8637 73.6749 17.4126 74.6984V74.707Z" fill="#F8F8F7"/>
<path d="M50.693 42.5055C51.2136 42.4624 51.7428 42.428 52.2634 42.385V42.3936C52.914 42.2302 53.3912 41.7486 54.0766 41.4045C54.146 43.0301 55.1004 43.8816 56.5059 44.4664C57.5903 44.9137 58.4493 44.6643 59.178 43.9504C59.5858 43.5548 59.8547 43.5204 60.2799 43.8042C60.679 44.0708 61.1301 44.1482 60.9913 44.9051C60.7137 46.4618 62.2753 47.7692 63.9064 47.5886C64.6091 47.5112 65.1644 47.3391 65.7804 46.9521C66.5265 46.4877 67.2813 47.2015 67.8366 47.6574C68.279 48.0186 67.5763 48.268 67.3594 48.5175C66.6653 49.3517 65.9712 50.1602 66.0233 51.3471C66.058 52.061 65.6763 52.233 65.0516 51.9234C62.3274 50.5903 59.5771 49.2915 56.8789 47.8896C55.7771 47.3219 54.6666 46.7973 53.5387 46.2898C53.0095 46.0576 52.6798 45.7652 52.593 45.1115C52.4455 43.9762 51.578 43.3139 50.667 42.7463C50.667 42.6603 50.6843 42.5657 50.6843 42.4796L50.693 42.5055Z" fill="#ECCC36"/>
<path d="M15.5041 18.4833C13.6735 15.7568 13.3091 12.8153 13.6041 9.75342C13.847 7.18176 15.1571 5.28097 17.4996 4.17146C19.0612 3.43179 20.6749 3.50059 22.254 4.20586C22.8786 4.48109 23.1042 4.95414 22.9307 5.62501C22.8179 6.04645 22.7658 6.48509 22.627 6.88933C22.5056 7.24197 22.5576 7.74082 22.0544 7.86123C21.4731 8.00745 21.6206 7.39678 21.4037 7.16456C20.7704 6.50229 19.4256 6.30447 18.4539 6.81193C16.6146 7.78382 15.9119 9.40078 15.9379 11.3618C15.9466 12.6175 15.9553 13.8818 16.632 15.0343C16.9356 15.559 17.0137 16.1095 16.4324 16.6857C15.9986 17.1158 15.9813 17.8812 15.5041 18.4747V18.4833Z" fill="#ECCC36"/>
<path d="M49.7824 42.5054C48.4203 42.6086 47.0148 42.213 45.6787 42.8236C45.5399 42.8838 45.3057 42.8494 45.1669 42.772C42.755 41.4991 40.2043 40.51 37.6709 39.4005C38.4691 38.162 39.4234 37.0955 40.0654 35.8311C40.1522 35.6591 40.265 35.4957 40.4645 35.5215C40.7682 35.5559 40.6988 35.8139 40.7248 36.0203C40.9851 38.1018 43.692 39.4865 45.5659 38.5146C46.4943 38.0329 47.8737 38.2136 48.6112 38.8844C48.8368 39.0909 48.8715 39.3145 48.8281 39.5639C48.6546 40.6906 49.2358 41.4819 49.9993 42.1958C49.8779 42.2646 49.739 42.3248 49.7737 42.5054H49.7824Z" fill="#ECCC36"/>
<path d="M47.9859 43.2021C48.8101 43.0387 49.6083 43.3655 50.4238 43.6322C51.3174 43.9332 51.7859 44.5267 51.7426 45.5072C51.6992 46.5651 50.8056 46.4447 50.1722 46.6425C49.9033 46.7285 49.5909 46.6683 49.3046 46.6683C48.9836 46.6683 48.5151 46.6081 48.5238 46.9779C48.5238 47.2789 48.9055 47.5456 49.3393 47.537C49.617 47.537 50.1375 47.4338 50.1462 47.6488C50.1549 48.3454 50.6754 48.8099 50.8229 49.4205C50.8836 49.6614 50.6494 49.6786 50.4672 49.7044C48.1681 49.9538 46.1119 48.8099 45.1662 46.8145C44.3681 45.1287 45.7736 42.7205 48.0033 43.2021H47.9859Z" fill="#F8F8F7"/>
<path d="M30.7818 60.7221C30.1572 61.4961 29.2809 60.464 28.8992 60.8941C28.4914 61.3585 28.3439 62.0036 27.6151 62.2358C27.0338 62.425 26.6001 62.3906 26.1316 61.9778C25.3681 61.3069 24.8475 60.4812 24.5872 59.5351C24.3877 58.8213 24.0927 58.7955 23.4507 59.0191C22.2795 59.4233 21.0562 59.5953 19.9196 58.8557C19.5205 58.589 19.1214 58.2622 19.2342 57.7204C19.3557 57.1441 19.8849 57.4193 20.2406 57.3591C20.874 57.2473 21.4726 57.0065 22.0886 56.8431C24.4311 56.2324 26.2877 57.1097 28.0142 58.4944C28.9425 59.2341 29.732 60.1372 30.7731 60.7221H30.7818Z" fill="#F8F8F7"/>
<path d="M60.558 37.5342C60.6881 39.0393 59.994 40.5445 60.0635 42.1357C60.0635 42.2905 60.0287 42.4539 59.8552 42.4453C59.7251 42.4453 59.5516 42.3421 59.4908 42.2389C58.736 40.8197 57.4347 40.4155 55.9598 40.3725C55.4566 40.3553 55.4739 40.0973 55.4566 39.7618C55.3698 38.3427 55.604 37.0009 56.3675 35.7624C57.0529 34.6529 57.9726 34.1971 59.0918 34.4981C60.1415 34.7819 60.5319 35.3926 60.5406 36.8031C60.5406 37.0181 60.5406 37.2332 60.5406 37.5428L60.558 37.5342Z" fill="#F8F8F7"/>
<path d="M55.2562 8.14507C55.5512 9.04816 54.701 9.4524 54.2151 10.0545C53.9202 10.4243 53.7206 10.1319 53.5037 9.95125C52.0635 8.73853 50.7274 7.3882 48.9749 6.56251C48.5498 6.36469 48.437 5.99486 48.9228 5.64222C49.1831 5.453 49.3653 5.16918 49.5909 4.92835C50.8315 3.61242 51.0051 3.56942 52.6014 4.21448C53.8507 4.72193 55.2562 6.76033 55.2389 8.15367L55.2562 8.14507Z" fill="#F8F8F7"/>
<path d="M58.8137 6.06366C58.9265 6.54531 58.6315 6.99255 57.9288 7.20757C57.7899 7.25058 57.6685 7.33658 57.5383 7.40539C56.1068 8.15367 56.1762 8.12786 55.5863 6.67432C55.031 5.30678 54.0853 4.18007 52.7059 3.535C52.0292 3.21677 52.0118 3.01035 52.6365 2.62331C53.9032 1.84064 55.2045 1.28158 56.6274 2.12446C58.0068 2.94155 58.7009 4.22307 58.8137 6.06366Z" fill="#ECCC36"/>
<path d="M52.3854 33.7326C52.6283 34.7303 52.1685 35.4958 51.1187 36.0376C50.468 36.373 50.0256 36.9923 49.6265 37.603C49.3055 38.0846 48.8977 38.2996 48.3424 38.1104C47.8132 37.9384 47.5443 37.6202 47.5529 37.0009C47.5876 35.2549 48.0301 33.6552 49.1059 32.2532C49.2794 32.0296 49.5224 31.849 49.7393 31.6598C50.3466 31.1437 51.1187 30.9803 51.7868 31.2899C52.3854 31.5566 52.3941 32.3048 52.3941 32.9241C52.3941 33.1391 52.3941 33.3627 52.3941 33.7412L52.3854 33.7326Z" fill="#F8F8F7"/>
<path d="M54.4323 39.9252C53.851 39.865 53.8076 40.4327 53.53 40.7165C52.6971 41.5766 51.0834 42.0411 50.4153 41.4992C49.5477 40.7853 49.0879 39.7274 50.1117 38.2051C51.2656 36.4849 52.8879 35.642 54.4843 35.9688C54.9528 36.0635 55.1697 36.1925 55.0309 36.6397C54.7099 37.6546 54.8834 38.7125 54.6925 39.736C54.5364 39.7102 54.4583 39.779 54.4323 39.9252Z" fill="#F8F8F7"/>
<path d="M55.4995 51.2439C53.2698 51.2439 51.4566 50.1 50.9707 48.4314C50.8492 48.0014 50.615 47.4939 51.231 47.2273C51.7602 47.0037 52.0465 46.4618 52.9315 46.9005C54.6406 47.7433 56.3845 48.5518 58.137 49.3345C58.4059 49.4549 58.7877 49.5495 58.8137 49.8333C58.8397 50.1172 58.4667 50.2204 58.2151 50.3752C57.3475 50.8741 56.4886 51.3729 55.5169 51.2439H55.4995Z" fill="#F8F8F7"/>
<path d="M24.8215 11.8692C21.7502 12.7207 21.3078 13.6066 22.4616 16.8061C22.0365 16.8061 21.6374 16.8491 21.2644 16.8061C20.1105 16.6427 19.2342 17.0211 18.5575 17.9758C17.9762 18.8015 17.7506 17.7264 17.3082 17.6748C16.7876 17.606 16.9872 17.3136 17.1954 16.9867C18.4447 14.9741 19.9803 13.1765 21.4032 11.2929C21.9931 10.5189 23.9886 10.8887 24.8128 11.8778L24.8215 11.8692Z" fill="#F8F8F7"/>
<path d="M40.4209 56.0776C40.7767 56.0948 41.141 56.1034 41.4967 56.1206C41.5835 56.2668 41.6876 56.2668 41.8091 56.1636C41.9913 56.1894 42.1735 56.2152 42.3643 56.241C42.4337 56.3872 42.5205 56.4302 42.6506 56.2926C42.9283 56.3098 43.1972 56.327 43.4748 56.3528C43.6397 56.5162 43.8045 56.5162 43.9867 56.3786C44.4032 56.3528 44.8196 56.3184 45.2361 56.2926C45.3141 56.4216 45.4009 56.542 45.479 56.671C45.2274 56.6796 44.9671 56.671 44.7155 56.7054C44.2123 56.7742 43.7351 56.7828 44.1342 57.5655C44.5854 58.46 44.3077 58.8384 43.3274 58.8642C42.2776 58.8986 41.2451 58.9675 40.3515 58.1762C39.8744 57.7547 39.4059 57.8751 39.3451 58.6234C39.267 59.4835 38.6077 59.8189 37.931 60.0856C37.4364 60.2834 36.8812 60.249 36.4994 59.8361C36.1004 59.4061 36.6469 59.1309 36.8031 58.8212C37.2456 57.9611 37.4625 56.9462 38.3995 56.413L38.4775 56.4302V56.3528C38.599 56.3012 38.7205 56.2496 38.8333 56.198L38.9027 56.2324L38.9374 56.155C39.215 56.1206 39.4839 56.0862 39.7616 56.0518C39.9785 56.2324 40.204 56.241 40.4383 56.0776H40.4209Z" fill="#F8F8F7"/>
<path d="M20.8738 39.5381C21.4898 42.4194 22.4789 44.9223 25.151 46.4188C23.6935 47.0639 22.4615 46.5736 21.0907 44.9051C19.9021 43.4515 19.7373 41.0175 20.8738 39.5295V39.5381Z" fill="#ECCC36"/>
<path d="M43.0061 35.3409C43.7262 35.2463 44.3855 35.6505 45.0189 36.0806C45.5221 36.4246 45.7043 36.9579 45.5481 37.4997C45.3919 38.0416 44.8627 38.1706 44.3422 38.1706C43.4572 38.1706 42.633 37.9556 42.0517 37.2159C41.7481 36.8289 41.3143 36.4762 41.5312 35.8914C41.7828 35.2205 42.3727 35.3323 43.0148 35.3409H43.0061Z" fill="#ECCC36"/>
<path d="M63.8194 47.0984C62.6828 47.3478 62.1276 46.4447 61.5636 45.6792C61.1732 45.1546 61.6591 44.4493 62.4312 44.2859C63.3075 44.1053 64.765 44.7245 65.1988 45.49C65.407 45.8512 65.4331 46.2469 65.2335 46.6339C64.9472 47.2016 64.4093 47.1242 63.8194 47.0984Z" fill="#ECCC36"/>
<path d="M55.9594 41.2325C57.6425 41.2583 59.074 42.1098 58.9699 43.0129C58.8571 44.002 57.9028 43.9504 57.2781 43.9934C56.1589 44.0794 54.9096 42.9097 54.9269 42.0152C54.9443 41.2239 55.4995 41.1981 55.9594 41.2239V41.2325Z" fill="#ECCC36"/>
<path d="M19.078 32.9069C20.4748 33.0961 21.4465 33.6809 22.4703 34.0938C22.7653 34.2142 23.1904 34.3948 22.7479 34.756C22.4182 35.0313 22.3228 35.9 21.6374 35.4441C20.6917 34.8077 19.9022 33.9648 19.0693 32.9069H19.078Z" fill="#F8F8F7"/>
<path d="M21.8023 8.5321C21.6722 9.5298 21.2644 10.2609 20.7265 10.9403C20.6137 11.0866 20.4836 11.2156 20.2754 11.164C20.0498 11.1038 20.0758 10.9059 20.0498 10.7253C19.911 9.76203 20.4402 9.05676 21.7936 8.5321H21.8023Z" fill="#ECCC36"/>
<path d="M75.0812 22.474C74.6213 22.3364 73.9533 22.7836 73.9186 21.8892C73.9012 21.3215 74.2483 21.2957 74.6127 21.3817C75.1506 21.5021 76.0355 21.1581 76.0789 22.0612C76.1223 22.9213 75.3501 22.2332 75.0725 22.474H75.0812Z" fill="#F8F8F7"/>
<path d="M32.4131 74.9307C34.5821 74.707 36.7597 74.7328 38.9287 74.7328C36.7684 75.0597 34.5907 74.9737 32.4131 74.9307Z" fill="#24201C"/>
<path d="M67.75 49.0249C68.6002 48.397 69.1381 48.2078 69.598 49.2055C68.9907 49.3173 68.5135 49.1281 67.75 49.0249Z" fill="#ECCC36"/>
<path d="M66.83 50.9858C67.177 51.2439 67.3592 51.3471 67.5067 51.4933C67.7149 51.6911 68.1574 51.7599 68.0012 52.1814C67.9665 52.2846 67.6976 52.3448 67.5414 52.3534C67.1596 52.3706 66.9514 52.1384 66.8907 51.7857C66.856 51.5879 66.856 51.3815 66.8213 51.003L66.83 50.9858Z" fill="#ECCC36"/>
<path d="M27.6582 6.50223C26.3395 6.50223 25.0121 6.50223 23.6934 6.51083C25.0121 6.29581 26.3395 6.2614 27.6582 6.50223Z" fill="#24201C"/>
<path d="M49.7821 42.5054C49.7474 42.3248 49.8862 42.2646 50.0077 42.1958C50.2419 42.299 50.4675 42.4022 50.6931 42.514C50.6931 42.6 50.6757 42.6947 50.6671 42.7807C50.3634 42.7033 50.025 42.7549 49.7734 42.514L49.7821 42.5054Z" fill="#C34F31"/>
<path d="M51.3955 67.9726C52.2284 67.8178 53.0786 67.4566 53.8161 68.2049C53.0439 67.7834 52.2024 68.0672 51.3955 67.9726Z" fill="#24201C"/>
<path d="M45.4705 56.6624C45.3924 56.5334 45.3056 56.413 45.2275 56.284C45.5052 56.0776 45.8175 56.0173 46.1645 56.1292C46.0951 56.5248 45.8435 56.671 45.4705 56.6624Z" fill="#24201C"/>
<path d="M30.4434 75.1371C30.8338 74.9135 31.2155 74.6468 31.684 74.9565C31.2762 75.0683 30.8772 75.2145 30.4434 75.1371Z" fill="#24201C"/>
<path d="M54.4326 39.9252C54.45 39.7704 54.5367 39.7102 54.6929 39.736C54.8144 40.0456 54.8144 40.3639 54.7276 40.7337C54.2331 40.5617 54.5367 40.1746 54.4326 39.9252Z" fill="#24201C"/>
<path d="M40.4209 56.0776C40.1866 56.241 39.961 56.2324 39.7441 56.0518C39.9784 55.9056 40.204 55.9056 40.4209 56.0776Z" fill="#24201C"/>
<path d="M13.8728 68.6779C13.7686 68.5231 13.7773 68.3683 13.8901 68.222C13.9855 68.3769 14.0029 68.5317 13.8728 68.6779Z" fill="#C34F31"/>
<path d="M39.6748 74.6985C40.1693 74.5179 40.6552 74.5093 41.1497 74.6985C40.6552 74.8189 40.1693 74.8189 39.6748 74.6985Z" fill="#24201C"/>
<path d="M42.6418 56.2927C42.5203 56.4303 42.4249 56.3873 42.3555 56.2411C42.4769 56.1292 42.5637 56.1636 42.6418 56.2927Z" fill="#24201C"/>
<path d="M44.958 49.5151C45.1749 49.4635 45.3745 49.4807 45.5393 49.6527C45.3224 49.7129 45.1228 49.6957 44.958 49.5151Z" fill="#24201C"/>
<path d="M21.9156 39.564C22.0891 39.7188 22.0718 39.8908 21.9329 40.0542C21.8288 39.8908 21.8288 39.7274 21.9156 39.564Z" fill="#24201C"/>
<path d="M43.9689 56.3786C43.7867 56.5162 43.6219 56.5162 43.457 56.3528C43.6305 56.2582 43.8041 56.2754 43.9689 56.3786Z" fill="#24201C"/>
<path d="M21.9935 37.818C22.0802 37.9384 22.0716 38.033 21.9241 38.0932C21.8547 37.9814 21.8373 37.8782 21.9935 37.818Z" fill="#24201C"/>
<path d="M42.5029 74.6898C42.5116 74.5866 42.5203 74.4834 42.5376 74.3716C42.581 74.4576 42.6504 74.5436 42.6591 74.6296C42.6591 74.7242 42.5897 74.75 42.5029 74.6812V74.6898Z" fill="#24201C"/>
<path d="M41.8006 56.1636C41.6792 56.2668 41.575 56.2668 41.4883 56.1206C41.6011 56.0432 41.7139 56.0518 41.8006 56.1636Z" fill="#24201C"/>
<path d="M38.9195 56.155L38.8848 56.2324L38.8154 56.198L38.8415 56.1206L38.9195 56.155Z" fill="#24201C"/>
<path d="M22.0363 40.639L22.0884 40.6648L22.045 40.6906L21.9756 40.6734L22.0363 40.639Z" fill="#24201C"/>
<path d="M43.6653 49.3259C43.7434 49.3087 43.7868 49.3431 43.7955 49.4119C43.6914 49.4721 43.6567 49.4291 43.6653 49.3259Z" fill="#24201C"/>
<path d="M38.4686 56.3529L38.4599 56.4217L38.3818 56.4131L38.3905 56.3357L38.4686 56.3529Z" fill="#24201C"/>
<path d="M89.5867 58.0042C89.5433 56.9549 89.2744 56.1464 88.9794 55.2864C88.2766 53.2307 86.9145 51.3558 87.1314 49.0249C87.1661 48.5949 87.2269 48.2509 87.5999 48.0014C88.8926 47.1241 90.2634 46.4447 91.8771 46.4275C92.6059 46.4189 93.0918 46.5221 93.4301 47.3908C93.7077 48.1132 93.7425 48.7927 93.7685 49.4808C93.7945 50.2204 93.2045 50.4183 92.5625 50.3753C91.2264 50.2893 90.1593 50.8569 89.1269 51.6138C88.4068 52.147 88.8493 52.6287 89.0748 53.1189C89.3698 53.764 89.8036 53.2824 90.0465 53.1189C90.784 52.6287 91.5648 52.5513 92.415 52.5427C93.1959 52.5341 93.4301 52.9641 93.5169 53.5834C93.5776 54.0392 93.4908 54.4951 93.7251 54.9509C93.9073 55.3036 93.5863 55.51 93.2392 55.6304C90.4716 56.5679 90.4109 56.5679 90.4977 59.4234C90.5671 61.6854 88.5109 63.3368 86.3766 63.4314C84.8757 63.5002 83.5136 62.21 83.4182 60.7737C83.3227 59.4148 84.5894 57.858 85.9255 57.5656C87.1748 57.2904 88.3461 57.4452 89.5954 58.0042H89.5867ZM87.2876 59.5266C87.0013 59.647 86.4721 59.303 86.446 59.9136C86.4374 60.206 86.5501 60.7049 86.9492 60.5415C87.3136 60.3953 88.025 60.7049 88.025 59.9222C88.025 59.3546 87.5739 59.6126 87.2963 59.5266H87.2876Z" fill="#24201C"/>
<path d="M75.4193 31.4534C75.749 31.4362 75.8444 31.548 75.9051 31.7458C76.712 34.5497 78.612 36.4505 81.0499 37.9126C81.1107 37.947 81.1714 37.99 81.2235 38.0417C81.4317 38.2567 82.0216 38.3943 81.7961 38.6953C81.4751 39.134 81.2321 38.5319 80.9545 38.3943C78.3431 37.0612 76.5819 34.9797 75.428 32.3393C75.2631 31.9694 75.2284 31.7114 75.428 31.4534H75.4193Z" fill="#24201C"/>
<path d="M73.302 53.1963C74.9418 53.6091 76.2345 54.6584 77.64 55.5099C75.9829 55.1229 74.5947 54.2112 73.1719 53.3425C73.2153 53.2909 73.2586 53.2479 73.302 53.1963Z" fill="#24201C"/>
<path d="M81.1451 36.029C80.1648 35.4614 79.8958 34.5669 79.8438 33.2338C80.6072 34.2401 80.6506 35.2378 81.1451 36.029Z" fill="#24201C"/>
<path d="M78.2567 53.1275C77.5973 53.2823 76.9987 53.1619 76.2266 52.5598C77.1375 52.5856 77.7448 52.6372 78.2394 53.1361H78.2654L78.2567 53.1275Z" fill="#24201C"/>
<path d="M73.1724 53.3511C73.0857 53.1963 72.7039 53.2995 72.7994 53.05C72.8341 52.9468 73.1898 52.9382 73.3026 53.2049C73.2592 53.2565 73.2158 53.3081 73.1724 53.3511Z" fill="#24201C"/>
<path d="M35.1025 26.3359C33.3847 26.3875 32.0833 27.2561 30.9988 28.5635C30.9034 28.3657 30.8339 28.2625 30.8513 28.2452C31.7449 27.3852 31.3024 26.4477 31.0682 25.493C30.1312 21.6312 32.491 16.8147 36.4299 15.5762C38.6856 14.8709 40.3774 15.3612 41.3665 17.0813C41.4532 17.2361 41.592 17.3996 41.6007 17.563C41.6614 18.6553 42.2601 18.6467 43.0756 18.3457C43.5528 18.1736 44.082 17.9328 44.7414 18.4403C43.7957 18.6037 43.0062 18.7499 42.3121 19.1713C41.9824 19.3778 41.7656 19.6444 41.8523 20.0572C41.9564 20.5303 42.3295 20.5217 42.7025 20.5131C43.4573 20.5045 44.1774 20.5991 44.8281 21.0549C44.1688 21.1409 43.5268 21.2786 42.8761 21.0205C42.2774 20.7797 41.8176 21.0463 41.6614 21.571C41.54 21.9924 41.2103 22.6117 42.0432 22.8697C42.3902 22.9729 42.7893 23.1879 42.7025 23.7212C41.6672 23.3485 40.9037 23.704 40.4121 24.7877C40.308 25.0199 40.2299 25.3124 40.0477 25.45C39.5185 25.8284 39.5011 26.2498 40.0477 26.8863C39.1975 26.6627 38.5902 26.5079 37.9915 26.3531C37.0285 25.9832 36.0655 26.181 35.0938 26.3359H35.1025ZM40.6464 17.4598C40.0998 16.1008 39.0326 15.6364 37.3322 15.9546C32.7687 16.8147 30.6604 22.2677 31.7449 25.9488C31.8403 26.2757 32.0833 26.6799 32.5171 26.4735C33.1244 26.1896 33.7924 26.0262 33.7317 25.0027C33.6016 22.8611 34.3564 21.9236 36.4733 21.6484C37.445 21.5194 37.2454 21.1839 36.9678 20.6679C36.5253 19.8508 36.3518 19.1627 37.1934 18.3887C38.2084 17.4426 39.397 17.4426 40.6464 17.4598Z" fill="#24201C"/>
<path d="M25.2211 21.5796C26.3143 21.5452 27.5115 21.9322 28.3444 23.1019C29.2033 24.3061 28.5787 25.6392 27.1472 26.009C25.6723 26.3875 24.5531 25.8714 23.512 24.9855C22.7051 24.2975 22.5056 23.4202 22.8873 22.4311C23.269 21.442 24.1366 21.6054 25.2298 21.5796H25.2211ZM24.7873 22.0182C24.475 22.0182 23.8937 21.9752 23.5727 22.5515C23.3124 23.0159 23.2343 23.4976 23.512 23.9964C23.9718 24.8135 25.5161 25.6564 26.4704 25.5188C27.0778 25.4328 27.7198 25.2522 27.954 24.6157C28.1969 23.9276 27.8933 23.3428 27.338 22.8869C26.67 22.3365 25.9065 22.0268 24.7873 22.0182Z" fill="#24201C"/>
<path d="M35.1025 26.3358C36.0656 26.181 37.0373 25.9832 38.0003 26.353C37.0373 26.353 36.0656 26.3444 35.1025 26.3358Z" fill="#24201C"/>
<path d="M29.9663 41.3873C29.0553 42.0066 28.3265 42.8409 27.3809 43.5289C27.4589 42.5656 28.7864 41.4389 29.9663 41.3873Z" fill="#24201C"/>
<path d="M24.2929 39.392C24.5272 38.8587 24.8308 38.1793 25.1345 37.4998C25.2299 37.2848 25.4294 37.259 25.5856 37.345C25.8459 37.474 25.5856 37.646 25.5422 37.7664C25.2993 38.4029 24.9957 39.0222 24.9176 39.7102C24.8915 39.9769 24.7961 40.3209 24.5619 40.2779C24.2582 40.2263 24.2235 39.8564 24.2929 39.4006V39.392Z" fill="#24201C"/>
<path d="M27.7372 38.5319C27.3034 39.779 26.4445 40.5961 26.245 41.8862C25.8806 40.7681 26.5486 39.2629 27.7372 38.5319Z" fill="#24201C"/>
<path d="M4.91938 70.2432C4.8066 70.3206 4.73719 70.4238 4.66778 70.4152C4.58102 70.4152 4.45088 70.3378 4.43353 70.269C4.38148 70.097 4.51162 70.011 4.66778 70.0282C4.74586 70.0368 4.81527 70.14 4.91938 70.2346V70.2432Z" fill="#24201C"/>
<path d="M4.6067 71.0431C4.71081 71.1463 4.79757 71.1979 4.83227 71.2753C4.84963 71.3097 4.78022 71.4387 4.74551 71.4387C4.65008 71.4387 4.56332 71.3871 4.47656 71.3613C4.51127 71.2753 4.54597 71.1893 4.6067 71.0431Z" fill="#24201C"/>
<path d="M4.25122 70.8453C4.19049 70.8711 4.08638 70.9571 4.02565 70.9313C3.96491 70.9055 3.93889 70.785 3.89551 70.699C3.95624 70.6646 4.01697 70.6216 4.08638 70.613C4.21652 70.5958 4.27725 70.6646 4.25989 70.8453H4.25122Z" fill="#24201C"/>
<path d="M5.30081 70.7249C5.27478 70.7679 5.24875 70.8195 5.22273 70.8625C5.1967 70.8367 5.15332 70.8109 5.15332 70.7937C5.162 70.7421 5.1967 70.6991 5.22273 70.6475C5.24875 70.6733 5.27478 70.6991 5.30081 70.7249Z" fill="#24201C"/>
<path d="M87.2882 59.5266C87.5658 59.6126 88.017 59.3546 88.017 59.9223C88.017 60.7049 87.3055 60.3953 86.9412 60.5415C86.5421 60.7049 86.4293 60.2061 86.438 59.9137C86.464 59.3116 86.9932 59.6556 87.2795 59.5266H87.2882Z" fill="#F8F8F7"/>
<path d="M40.6549 17.4598C39.4056 17.4426 38.2257 17.4512 37.2019 18.3887C36.3604 19.1628 36.5426 19.8422 36.9764 20.6679C37.254 21.184 37.4535 21.5194 36.4818 21.6484C34.3649 21.9236 33.6101 22.8611 33.7403 25.0027C33.801 26.0263 33.133 26.1897 32.5256 26.4735C32.0918 26.6799 31.8489 26.2757 31.7535 25.9488C30.6777 22.2677 32.7772 16.8233 37.3408 15.9546C39.0412 15.6364 40.1084 16.1009 40.6549 17.4598Z" fill="#F8F8F7"/>
<path d="M24.7869 22.0182C25.9061 22.0182 26.6696 22.3278 27.3376 22.8869C27.8929 23.3427 28.1965 23.9276 27.9536 24.6156C27.7281 25.2521 27.0774 25.4327 26.47 25.5187C25.5157 25.6563 23.9714 24.8135 23.5116 23.9964C23.2339 23.4975 23.312 23.0073 23.5723 22.5514C23.902 21.9752 24.4746 22.0182 24.7869 22.0182Z" fill="#ECCC36"/>
</g>
<defs>
<clipPath id="clip0_552_694">
<rect width="103" height="86" fill="white"/>
</clipPath>
</defs>
</svg>
