<?xml version="1.0" encoding="utf-8"?>
<!-- Generator: Adobe Illustrator 27.5.0, SVG Export Plug-In . SVG Version: 6.00 Build 0)  -->
<svg version="1.1" id="Layer_1" xmlns="http://www.w3.org/2000/svg" xmlns:xlink="http://www.w3.org/1999/xlink" x="0px" y="0px"
	 viewBox="0 0 32.4 32.3" style="enable-background:new 0 0 32.4 32.3;" xml:space="preserve">
<g>
	<g>
		<path d="M16.2,11.3c-0.6,0-1.3,0.1-1.9,0.3c-0.6,0.2-1.1,0.6-1.6,1c-0.5,0.5-0.8,1-1.1,1.6c-0.2,0.6-0.4,1.2-0.4,1.9
			c0,0.6,0.1,1.3,0.4,1.9c0.2,0.6,0.6,1.1,1.1,1.6c0.5,0.5,1,0.8,1.6,1c0.6,0.2,1.2,0.4,1.9,0.3c1.3,0,2.5-0.5,3.4-1.4
			c0.9-0.9,1.4-2.1,1.4-3.4c0-1.3-0.5-2.5-1.4-3.4C18.7,11.8,17.5,11.3,16.2,11.3z M18.9,17.3c-0.1,0.4-0.4,0.7-0.6,0.9
			c-0.3,0.3-0.6,0.5-1,0.6C17,19,16.6,19,16.2,19c-0.8,0-1.5-0.3-2-0.9c-0.5-0.5-0.8-1.3-0.8-2.1c0-0.8,0.3-1.5,0.8-2.1
			c0.5-0.5,1.3-0.9,2-0.9l0,0c0.4,0,0.8,0.1,1.1,0.2c0.4,0.1,0.7,0.4,1,0.6c0.3,0.3,0.5,0.6,0.6,0.9c0.1,0.4,0.2,0.7,0.2,1.1
			C19.1,16.5,19.1,16.9,18.9,17.3z"/>
		<path d="M16.2,0C7.2,0,0,7.2,0,16.1C0,25,7.2,32.3,16.2,32.3c8.9,0,16.2-7.2,16.2-16.1C32.4,7.2,25.1,0,16.2,0z M25.8,17.1
			c0,0.7,0,1.4,0,2.1l0,0.2c0,0.2,0,0.4,0,0.7c0,1-0.2,1.7-0.4,2.4c-0.2,0.6-0.6,1.2-1.1,1.7c-0.5,0.5-1.1,0.9-1.7,1.1
			c-0.6,0.2-1.3,0.4-2.3,0.5c-0.3,0-0.5,0-0.7,0l-0.2,0c-0.7,0-1.4,0-2.1,0l-0.7,0h-1.3c-0.7,0-1.4,0-2.1,0l-0.2,0
			c-0.2,0-0.5,0-0.7,0c-1,0-1.7-0.2-2.3-0.5c-0.6-0.2-1.2-0.6-1.7-1.1c-0.5-0.5-0.9-1.1-1.1-1.7c-0.2-0.6-0.4-1.3-0.4-2.4
			c0-0.2,0-0.5,0-0.7l0-0.2c0-0.7,0-1.4,0-2.1v-2c0-0.7,0-1.4,0-2.1l0-0.2c0-0.2,0-0.4,0-0.7c0-1,0.2-1.7,0.4-2.4
			c0.2-0.6,0.6-1.2,1.1-1.7C8.6,7.6,9.2,7.2,9.9,7c0.6-0.2,1.3-0.4,2.3-0.5l0.7,0l0.2,0c0.7,0,1.4,0,2.1,0l2,0c0.7,0,1.4,0,2.1,0
			l0.2,0c0.2,0,0.4,0,0.7,0c1,0,1.7,0.2,2.3,0.5c0.6,0.2,1.2,0.6,1.7,1.1c0.5,0.5,0.9,1.1,1.1,1.7c0.2,0.6,0.4,1.3,0.4,2.4
			c0,0.3,0,0.5,0,0.7l0,0.2c0,0.7,0,1.4,0,2.1l0,0.7V17.1z"/>
		<path d="M21.2,9.8L21.2,9.8c-0.3,0-0.6,0.1-0.8,0.4c-0.2,0.2-0.3,0.5-0.3,0.8s0.1,0.6,0.3,0.8c0.2,0.2,0.5,0.4,0.8,0.4
			c0.3,0,0.6-0.1,0.9-0.4c0.2-0.2,0.4-0.5,0.4-0.9c0-0.3-0.1-0.6-0.4-0.9C21.9,10,21.6,9.8,21.2,9.8z"/>
	</g>
</g>
</svg>
