<?xml version="1.0" encoding="utf-8"?>
<!-- Generator: Adobe Illustrator 27.5.0, SVG Export Plug-In . SVG Version: 6.00 Build 0)  -->
<svg version="1.1" id="Layer_1" xmlns="http://www.w3.org/2000/svg" xmlns:xlink="http://www.w3.org/1999/xlink" x="0px" y="0px"
	 viewBox="0 0 32.4 32.3" style="enable-background:new 0 0 32.4 32.3;" xml:space="preserve">
<path d="M16.2,0C7.2,0,0,7.2,0,16.1s7.2,16.1,16.2,16.1c8.9,0,16.2-7.2,16.2-16.1S25.1,0,16.2,0z M12.2,22.8H8.9V12.3h3.3V22.8z
	 M10.6,11c-1,0-1.7-0.7-1.7-1.6c0-0.9,0.7-1.6,1.7-1.6c1.1,0,1.7,0.7,1.7,1.6C12.3,10.3,11.7,11,10.6,11z M24.2,22.8h-3.3V17
	c0-1.4-0.5-2.3-1.7-2.3c-0.9,0-1.4,0.6-1.7,1.2c-0.1,0.2-0.1,0.5-0.1,0.8v6.1h-3.3v-7.2c0-1.3,0-2.4-0.1-3.4h2.8l0.2,1.5h0.1
	c0.4-0.7,1.5-1.7,3.3-1.7c2.2,0,3.8,1.4,3.8,4.5V22.8z"/>
</svg>
