<?xml version="1.0" encoding="utf-8"?>
<!-- Generator: Adobe Illustrator 27.5.0, SVG Export Plug-In . SVG Version: 6.00 Build 0)  -->
<svg version="1.1" id="Layer_1" xmlns="http://www.w3.org/2000/svg" xmlns:xlink="http://www.w3.org/1999/xlink" x="0px" y="0px"
	 viewBox="0 0 267 59.8" style="enable-background:new 0 0 267 59.8;" xml:space="preserve">
<style type="text/css">
	.st0{fill:#FFFFFF;}
</style>
<g>
	<g>
		<path class="st0" d="M85.4,34.9c0.3-3.2,0-6.4,0.2-9.6c0.1-1.4,0-2.9,0-4.2l0,0c0.2-1.7,0-3.3,0-4.9c0-0.6-0.4-0.9-0.9-0.9
			c-2.7,0-5.4,0-8.1,0c-0.3,0-0.5,0-0.6,0.2c0,0.1-0.1,0.1-0.1,0.3c0,1.6-0.1,3.2-0.2,4.9c-0.1,1.8,0,3.6,0.1,5.4
			c0.2,4.7,0.2,9.3-0.5,14c-0.1,0.4-0.1,0.8-0.3,1.1c-0.4,1-1,1.8-2.1,2.4c-2,1-4.2,1.3-6.4,1.3c-1.3,0-2.8-0.2-3.8-1.3
			c-1.8-1.9-2.5-4.2-2.7-6.6c-0.2-3.1-0.2-6.2-0.2-9.3c-0.1-2.3,0.2-4.6,0-6.9c-0.1-1.7,0-3.4,0.2-5.1c0.1-0.5-0.1-0.7-0.6-0.7
			c-2.5,0-5,0-7.5,0c-0.3,0-0.5,0.1-0.6,0.3c0,0.1,0,0.2,0,0.3c-0.2,3.2-0.3,6.3-0.3,9.5c0,3.7-0.2,7.3,0.1,11
			c0.3,3.3,1,6.5,2.4,9.6c1,2.2,2.2,4.3,4.4,5.6c1.8,1,3.7,1.7,5.6,2.3c0.8,0.2,1.6,0.4,2.4,0.4c2.2,0,4.3-0.2,6.4-0.5
			c3.2-0.4,6.1-1.3,8.5-3.5c1.3-1.2,2.5-2.4,3.1-4.2c0.4-1.3,0.6-2.6,0.8-3.9c0-0.1,0-0.3,0.1-0.4C85,39,85.2,36.9,85.4,34.9z"/>
		<path d="M65.9,54.9c-0.9,0-1.8-0.2-2.6-0.4c-1.7-0.5-3.8-1.3-5.8-2.4c-2.5-1.5-3.7-3.7-4.8-6c-1.3-2.9-2.1-6.2-2.5-9.9
			c-0.2-2.7-0.2-5.4-0.1-8c0-1,0-2.1,0-3.2c0-3.2,0.1-6.3,0.3-9.6l0-0.2c0-0.1,0-0.3,0.1-0.4c0.2-0.5,0.7-0.8,1.4-0.8h7.5
			c0.5,0,0.9,0.2,1.2,0.5c0.3,0.3,0.3,0.7,0.2,1.2c-0.2,1.8-0.3,3.4-0.2,4.9c0.1,1.3,0.1,2.6,0,3.9c0,1-0.1,2,0,3
			c0,3.1,0,6.2,0.2,9.3c0.2,2.6,1,4.5,2.5,6.1c0.6,0.7,1.7,1,3.2,1c2.5,0,4.4-0.4,6-1.2c0.8-0.4,1.3-1,1.7-2c0-0.1,0-0.1,0.1-0.2
			c0-0.1,0.1-0.3,0.1-0.4s0.1-0.3,0.1-0.4c0.7-4.9,0.6-9.7,0.5-13.8c-0.1-1.8-0.2-3.6-0.1-5.5l0-0.3c0.1-1.6,0.2-3.1,0.2-4.6
			c0-0.3,0.1-0.5,0.2-0.6c0,0,0-0.1,0-0.1c0.3-0.7,1-0.7,1.4-0.7h8.1c1,0,1.8,0.7,1.8,1.8c0,0.5,0,1,0,1.6c0,1.1,0.1,2.2,0,3.5
			c0,0.3,0,0.8,0,1.2c0,1,0,2,0,3c-0.1,1.4-0.1,2.9-0.1,4.3c0,1.7,0,3.5-0.1,5.3c0,0,0,0,0,0c-0.2,2-0.4,4.1-0.6,6.6
			c0,0.1,0,0.2-0.1,0.3c0,0,0,0.1,0,0.1c-0.2,1.3-0.4,2.7-0.8,4c-0.7,2-2,3.3-3.3,4.6c-2.2,2.1-5.1,3.2-9,3.7
			C70,54.7,67.9,54.9,65.9,54.9z M52.1,15.8c-0.2,3.2-0.3,6.2-0.3,9.3c0,1.1,0,2.1,0,3.2c0,2.7-0.1,5.2,0.1,7.8
			c0.3,3.5,1.1,6.6,2.3,9.3c0.9,2,2,4,4.1,5.2c1.9,1,3.9,1.7,5.4,2.2c0.7,0.2,1.4,0.4,2.2,0.4c1.9,0,3.9-0.2,6.3-0.5
			c3.6-0.4,6.1-1.5,8.1-3.3c1.3-1.2,2.3-2.3,2.9-3.9c0.4-1.2,0.6-2.4,0.8-3.7c0-0.1,0-0.4,0.1-0.6c0.2-2.4,0.4-4.5,0.6-6.4
			c0.2-1.7,0.1-3.5,0.1-5.2c0-1.4,0-2.9,0.1-4.4c0.1-0.9,0-1.9,0-2.8c0-0.5,0-0.9,0-1.3c0.1-1.2,0.1-2.2,0-3.3c0-0.5,0-1.1,0-1.6
			l-8-0.1c0,1.4-0.1,2.9-0.2,4.4l0,0.3c-0.1,1.8,0,3.6,0.1,5.3c0.2,4.2,0.3,9.1-0.5,14.2c0,0.2-0.1,0.3-0.1,0.4c0,0.3-0.1,0.6-0.3,1
			c-0.5,1.3-1.3,2.1-2.5,2.8c-1.9,1-4.1,1.4-6.8,1.4c-1.3,0-3.2-0.2-4.4-1.6c-1.7-1.8-2.7-4.1-2.9-7.1c-0.2-3.2-0.2-6.3-0.2-9.4
			c0-1,0-2.1,0-3.1c0-1.3,0.1-2.5,0-3.7c-0.1-1.5,0-3.2,0.2-5L52.1,15.8z M85.4,34.9L85.4,34.9L85.4,34.9z M75.2,15.4
			C75.2,15.4,75.2,15.4,75.2,15.4C75.2,15.4,75.2,15.4,75.2,15.4z"/>
	</g>
	<g>
		<path class="st0" d="M80.8,49.6c-2.4,2.2-5.3,3-8.5,3.5c-2.1,0.3-4.3,0.6-6.4,0.5c-0.8,0-1.6-0.2-2.4-0.4
			c-1.9-0.6-3.8-1.2-5.6-2.3c-2.2-1.3-3.4-3.4-4.4-5.6c-1.3-3.1-2.1-6.2-2.4-9.6c-0.3-3.7-0.1-7.3-0.1-11c0-3.2,0.1-6.3,0.3-9.5
			c0-0.1,0-0.2,0-0.3c0,0.1,0,0.2,0,0.3c-0.2,3.2-0.3,6.3-0.3,9.5c0,3.7-0.2,7.3,0.1,11c0.3,3.3,1,6.5,2.4,9.6
			c1,2.2,2.2,4.3,4.4,5.6c1.8,1,3.7,1.7,5.6,2.3c0.8,0.2,1.6,0.4,2.4,0.4c2.2,0,4.3-0.2,6.4-0.5C75.4,52.7,78.4,51.8,80.8,49.6
			c1.3-1.2,2.5-2.4,3.1-4.2c0.4-1.3,0.6-2.6,0.8-3.9c-0.2,1.3-0.4,2.6-0.8,3.9C83.3,47.2,82.1,48.4,80.8,49.6z"/>
		<path d="M66.7,54.5c-0.3,0-0.6,0-0.9,0c0,0-0.1,0-0.1,0c-0.8,0-1.6-0.2-2.4-0.4c0,0,0,0,0,0s0,0,0,0c-2-0.6-3.9-1.2-5.8-2.4
			c-2.4-1.4-3.7-3.7-4.7-5.9c0,0,0,0,0,0c-1.2-2.7-2-5.6-2.4-8.8c0-0.4-0.1-0.7-0.1-1.1c-0.2-2.7-0.2-5.4-0.1-8c0-1,0-2.1,0-3.2
			c0-3.2,0.1-6.3,0.3-9.6l0-0.2c0-0.5,0.4-0.9,0.9-0.9s0.9,0.4,0.9,0.9v0.3c-0.2,3.3-0.3,6.4-0.3,9.5c0,1.1,0,2.1,0,3.2
			c0,1.1,0,2.1,0,3.1c0,1.5,0,3.1,0.2,4.6c0,0.3,0.1,0.7,0.1,1c0.3,2.9,1.1,5.6,2.2,8.4c0.9,2,2,4,4.1,5.2c1.9,1,3.9,1.7,5.4,2.2
			c0.7,0.2,1.4,0.4,2.1,0.4c0,0,0,0,0,0c1.9,0,3.9-0.2,6.3-0.5c2.8-0.4,5.7-1.1,8.1-3.3c0,0,0,0,0,0c1.2-1.1,2.3-2.2,2.8-3.8
			c0,0,0-0.1,0-0.1c0.4-1.2,0.6-2.5,0.8-3.8c0.1-0.5,0.5-0.8,1-0.7c0.4,0.1,0.7,0.4,0.7,0.8c0,0,0,0.1,0,0.1c-0.2,1.3-0.4,2.7-0.8,4
			c-0.7,2-2,3.3-3.3,4.6c0,0,0,0,0,0c-0.1,0-0.1,0.1-0.2,0.1c-2.2,2-5,3.1-8.8,3.6C70.7,54.2,68.7,54.5,66.7,54.5z"/>
	</g>
	<g>
		<path class="st0" d="M75.9,25.9c-0.1-1.8-0.1-3.6-0.1-5.4c0.1-1.6,0.2-3.2,0.2-4.9c0-0.1,0-0.2,0.1-0.3c0,0.1-0.1,0.2-0.1,0.3
			c0,1.6-0.1,3.2-0.2,4.9C75.7,22.3,75.8,24.1,75.9,25.9c0.2,4.7,0.2,9.3-0.5,14c-0.1,0.4-0.1,0.8-0.3,1.1c0.1-0.3,0.2-0.7,0.3-1.1
			C76.1,35.3,76,30.6,75.9,25.9z"/>
		<path d="M75.1,41.9c-0.1,0-0.3,0-0.4-0.1c-0.4-0.2-0.6-0.6-0.4-1c0.1-0.3,0.2-0.7,0.3-1c0.7-4.6,0.6-9.3,0.5-13.8c0,0,0,0,0-0.1
			c-0.1-1.8-0.2-3.6-0.1-5.4l0-0.3c0.1-1.6,0.2-3.1,0.2-4.5c0,0,0,0,0,0c0-0.2,0-0.6,0.3-0.9c0.2-0.2,0.6-0.3,0.9-0.2
			c0.3,0.1,0.5,0.4,0.5,0.8c0,0.2-0.1,0.3-0.1,0.4c0,1.7-0.1,3.3-0.2,4.8c0,1.7,0,3.6,0.1,5.3c0,0,0,0,0,0c0,0,0,0,0,0
			c0.2,4.2,0.3,9.1-0.5,14.2c0,0.2-0.1,0.3-0.1,0.4c-0.1,0.3-0.1,0.7-0.4,1.1C75.7,41.8,75.4,41.9,75.1,41.9z"/>
	</g>
	<g>
		<path class="st0" d="M109.2,42.8c2.1-0.1,4.2-0.2,6.3-1c2.5-1,4.5-2.5,6-4.6c1.7-2.4,2.4-5.1,2.6-7.9c0.1-1.1-0.1-2.2-0.2-3.3
			c-0.2-1.9-0.6-3.7-1.4-5.5c-1.1-2.3-2.9-4-4.9-5.4c-0.6-0.4-1.2-0.7-1.9-1c-1.1-0.4-2.3-0.7-3.4-1c-1.4-0.3-2.7-0.1-4,0
			c-1.8,0.2-3.5,0.7-5.1,1.4c-1.3,0.5-2.4,1.3-3.4,2.2c-0.2,0.2-0.5,0.5-0.9,0.4l0,0l0,0c-0.5-0.2-0.3-0.6-0.3-0.9
			c0-0.1,0-0.3,0-0.4c0-0.5-0.1-0.8-0.5-0.9c-0.1,0-0.3,0-0.4,0C96.5,15,95.3,15,94.1,15c-1,0-2,0-3,0c-0.7,0-1,0.2-0.9,0.9
			c0.1,0.8,0,1.5,0,2.3c0,2.6,0.1,5.1,0,7.7c-0.2,5.7-0.2,11.5,0,17.3c0.1,2.2,0,4.5-0.3,6.7c-0.1,0.5-0.2,1.4,0.4,1.6
			c0.1,0,0.2,0.1,0.3,0.1c2.2,0.1,4.4,0,6.6,0c0.4,0,0.5-0.1,0.5-0.5c0-1.3,0.1-2.6,0.2-3.9c0.2-2.2,0.1-4.4,0.2-6.5
			c0.1-3.6,0.4-7.2,0.5-10.7c0-1-0.1-2.1,0.6-3.1c1.1-1.6,2.6-2.5,4.2-3.6c2.3-1.5,4.6-2.3,7.3-1.6c0.2,0.1,0.4,0.1,0.6,0.2
			c1.4,0.4,2.7,1.2,3.5,2.5c0.7,1,0.8,2.1,0.9,3.2c0.2,1.4,0,2.7-0.7,3.9c-1.6,2.7-5.9,3.9-9.1,2.9l0,0l0,0
			c-1.3-0.4-2.4-1.1-3.8-1.8c0.3,2.6-0.2,5-0.1,7.4c0,0.7,0.3,1.1,0.9,1.3c1.2,0.4,2.5,0.8,3.7,1.1c0.1,0,0.3,0.1,0.4,0.1
			C107.5,42.6,108.4,42.8,109.2,42.8z"/>
		<path d="M92.8,52.5c-0.7,0-1.5,0-2.2,0c0,0,0,0,0,0c-0.2,0-0.4-0.1-0.5-0.1c0,0,0,0-0.1,0c-0.4-0.1-1.3-0.7-1-2.6
			c0.3-2.1,0.4-4.3,0.3-6.5c-0.2-5.8-0.2-11.6,0-17.3c0.1-1.7,0-3.4,0-5.1c0-0.9,0-1.7,0-2.6c0-0.3,0-0.6,0-0.8c0-0.5,0-0.9,0-1.4
			c0-0.2-0.1-0.8,0.3-1.3c0.4-0.5,1-0.5,1.4-0.5h3c1.2,0,2.3,0,3.5-0.2c0,0,0.1,0,0.1,0h0.4c0.1,0,0.1,0,0.2,0
			c0.8,0.2,1.1,0.8,1.1,1.7v0.1c1.2-1,2.3-1.7,3.5-2.2c1.7-0.8,3.5-1.3,5.3-1.5l0.7-0.1c1.1-0.1,2.3-0.2,3.6,0.1l0.6,0.2
			c1,0.3,2,0.5,2.9,0.9c0.9,0.4,1.5,0.7,2.1,1.1c2.5,1.8,4.2,3.6,5.2,5.8c0.8,1.8,1.3,3.6,1.5,5.8c0,0.3,0.1,0.5,0.1,0.8
			c0.1,0.9,0.2,1.7,0.1,2.7c-0.2,3.3-1.1,6.1-2.8,8.3c-1.6,2.2-3.7,3.8-6.4,4.9c-2.2,0.9-4.5,1-6.6,1.1c-0.8,0-1.7-0.2-2.3-0.3
			l-0.1,0c-0.1,0-0.3-0.1-0.4-0.1c-0.1,0-0.1,0-0.1,0c-1.1-0.3-2.4-0.6-3.8-1.1c-1-0.3-1.5-1.1-1.5-2.1c0-1,0-2.1,0.1-3.1
			c0.1-1.4,0.2-2.8,0-4.2c0-0.3,0.1-0.6,0.4-0.8c0.3-0.2,0.6-0.2,0.9-0.1c0.4,0.2,0.8,0.4,1.1,0.6c0.9,0.5,1.7,0.9,2.5,1.2
			c3,0.9,6.8-0.2,8.1-2.5c0.6-1,0.8-2.1,0.6-3.4c-0.1-1.1-0.2-2-0.8-2.8c-0.8-1.3-2.1-1.9-3-2.2c-0.1,0-0.1,0-0.1-0.1
			c0,0-0.1,0-0.1,0c-0.1,0-0.2-0.1-0.4-0.1c-2.2-0.5-4.1-0.1-6.6,1.5l-0.6,0.4c-1.4,0.9-2.5,1.7-3.4,3c-0.5,0.7-0.5,1.5-0.5,2.3
			l0,0.3c-0.1,1.8-0.2,3.6-0.2,5.3c-0.1,1.8-0.2,3.6-0.3,5.5c0,0.9,0,1.7-0.1,2.6c0,1.3,0,2.7-0.1,4c-0.1,1.3-0.2,2.6-0.2,3.8
			c0,0.9-0.5,1.4-1.4,1.4c-0.7,0-1.5,0-2.2,0C94.3,52.5,93.5,52.5,92.8,52.5z M90.3,52.4C90.3,52.4,90.3,52.4,90.3,52.4
			C90.3,52.4,90.3,52.4,90.3,52.4z M90.7,50.8c1.4,0.1,2.9,0,4.2,0c0.6,0,1.2,0,1.9,0c0-1.2,0.1-2.4,0.2-3.6
			c0.1-1.3,0.1-2.6,0.1-3.9c0-0.9,0-1.8,0.1-2.6c0.1-1.8,0.2-3.7,0.3-5.5c0.1-1.7,0.2-3.5,0.2-5.2l0-0.3c0-1,0-2.2,0.8-3.3
			c1.1-1.5,2.4-2.5,3.9-3.4l0.6-0.4c2.9-1.9,5.4-2.4,8-1.7c0.1,0,0.1,0,0.2,0.1c0,0,0.1,0,0.1,0c0.1,0,0.2,0.1,0.4,0.1
			c1.7,0.5,3.1,1.5,3.9,2.9c0.8,1.1,0.9,2.4,1,3.6c0.2,1.6,0,3.1-0.8,4.4c-1.7,3-6.4,4.5-10.1,3.3c-0.9-0.3-1.8-0.7-2.6-1.2
			c0,1,0,2-0.1,2.9c-0.1,1-0.1,2-0.1,3c0,0.4,0.1,0.5,0.3,0.5c1.4,0.5,2.6,0.8,3.6,1.1c0.1,0,0.2,0.1,0.3,0.1l0.3,0.1
			c0.5,0.1,1.2,0.2,1.9,0.3c2.1-0.1,4.1-0.2,6-0.9c2.4-1,4.2-2.4,5.6-4.3c1.4-2,2.2-4.5,2.5-7.5c0.1-0.8,0-1.5-0.1-2.3
			c0-0.3-0.1-0.6-0.1-0.8c-0.2-2-0.6-3.7-1.3-5.2c-0.9-1.9-2.4-3.5-4.6-5.1c-0.5-0.3-1-0.6-1.8-0.9c-0.8-0.3-1.8-0.6-2.7-0.8
			l-0.6-0.2c-1-0.2-2-0.1-3.1,0l-0.7,0.1c-1.6,0.2-3.2,0.6-4.8,1.3c-1.1,0.4-2.1,1.1-3.2,2.1c-0.2,0.2-0.8,0.8-1.7,0.6
			c0,0-0.1,0-0.1,0c-0.7-0.3-1-0.8-0.8-1.6l0-0.5c0,0,0,0,0-0.1c-1.2,0.2-2.5,0.2-3.7,0.2h-3c0,0,0,0-0.1,0c0.1,0.6,0,1.1,0,1.6
			c0,0.2,0,0.5,0,0.8c0,0.9,0,1.7,0,2.6c0,1.7,0,3.4,0,5.2c-0.2,5.7-0.2,11.5,0,17.2c0.1,2.3,0,4.6-0.3,6.9
			C90.6,50.4,90.6,50.6,90.7,50.8C90.7,50.8,90.7,50.8,90.7,50.8z M90.6,50.8C90.6,50.8,90.6,50.8,90.6,50.8
			C90.6,50.8,90.6,50.8,90.6,50.8z"/>
	</g>
	<g>
		<path class="st0" d="M98.4,15.6c0,0.1,0,0.3,0,0.4c0,0.3-0.2,0.8,0.3,0.9l0,0c-0.5-0.2-0.3-0.6-0.3-0.9
			C98.4,15.9,98.4,15.7,98.4,15.6c0.1-0.5-0.1-0.8-0.5-0.9C98.3,14.8,98.5,15.1,98.4,15.6z"/>
		<path d="M98.7,17.8c-0.1,0-0.1,0-0.2,0c-0.4-0.1-1-0.3-1-1.2c0-0.1,0-0.3,0-0.4l0-0.5c0,0,0-0.1,0-0.1C97.2,15.3,97,15,97,14.7
			c0-0.1,0-0.1,0-0.2c0.1-0.5,0.6-0.7,1-0.6c0.7,0.2,1.2,0.8,1.2,1.5c0,0.1,0,0.2,0,0.3V16c0,0,0,0,0,0c0,0,0,0.1,0,0.1
			c0,0.1,0,0.1,0,0.2c0.2,0.2,0.4,0.6,0.3,0.9C99.4,17.5,99,17.8,98.7,17.8z M99.2,16.5L99.2,16.5L99.2,16.5z"/>
	</g>
	<g>
		<path class="st0" d="M101.8,32.4L101.8,32.4L101.8,32.4z"/>
		<path d="M101.8,33.2c-0.5,0-0.9-0.4-0.9-0.8s0.4-0.8,0.8-0.8h0c0.5,0,0.9,0.4,0.9,0.8S102.3,33.2,101.8,33.2z"/>
	</g>
	<g>
		<path class="st0" d="M122.6,20.4c-1.1-2.3-2.9-4-4.9-5.4c-0.6-0.4-1.2-0.7-1.9-1c0.7,0.3,1.3,0.6,1.9,1
			C119.5,16.4,121.5,18.1,122.6,20.4c0.8,1.7,1.2,3.6,1.4,5.5c0.1,1.1,0.3,2.2,0.2,3.3c-0.2,2.8-0.9,5.6-2.6,7.9
			c-1.5,2.1-3.5,3.6-6,4.6c-2.1,0.8-4.2,0.9-6.3,1c-0.8,0-1.6-0.2-2.4-0.4c-0.1,0-0.3-0.1-0.4-0.1c0.2,0,0.3,0.1,0.4,0.1
			c0.8,0.2,1.6,0.4,2.4,0.4c2.1-0.1,4.2-0.2,6.3-1c2.5-1,4.5-2.5,6-4.6c1.7-2.4,2.4-5.1,2.6-7.9c0.1-1.1-0.1-2.2-0.2-3.3
			C123.7,24,123.4,22.1,122.6,20.4z"/>
		<path d="M109.2,43.6c-0.9,0-1.8-0.2-2.6-0.4c-0.1,0-0.2-0.1-0.3-0.1c-0.5,0-0.8-0.4-0.8-0.9c0-0.3,0.2-0.5,0.4-0.7
			c0.1-0.1,0.3-0.1,0.5-0.2c0.3,0,0.4,0.1,0.5,0.1c0,0,0,0,0.1,0c0.8,0.2,1.5,0.4,2.2,0.4c2.1-0.1,4-0.2,6-0.9
			c2.4-1,4.2-2.4,5.6-4.3c1.4-2,2.2-4.5,2.5-7.5c0-0.2,0-0.4,0-0.6c0-0.6-0.1-1.1-0.1-1.8c0-0.3-0.1-0.6-0.1-0.8
			c-0.3-1.8-0.6-3.6-1.3-5.2c0,0,0,0,0,0c0,0,0,0,0-0.1c-1.1-2.2-3-3.9-4.6-5c-0.5-0.3-1-0.6-1.7-0.9c0,0,0,0,0,0
			c-0.3-0.1-0.5-0.5-0.5-0.8c0-0.1,0-0.2,0.1-0.3c0.2-0.4,0.7-0.6,1.1-0.4c0.8,0.4,1.4,0.7,2,1.1c2.5,1.8,4.2,3.6,5.2,5.8
			c0,0,0,0,0,0c0,0,0,0,0,0.1c0.7,1.6,1.2,3.5,1.5,5.7c0,0.3,0.1,0.5,0.1,0.8c0,0,0,0,0,0c0,0,0,0,0,0c0.1,0.6,0.1,1.3,0.1,1.9
			c0,0.2,0,0.5,0,0.7c-0.2,3.4-1.1,6.2-2.8,8.3c0,0,0,0,0,0.1c-1.6,2.1-3.6,3.7-6.2,4.8c0,0-0.1,0-0.1,0
			C113.6,43.4,111.4,43.5,109.2,43.6C109.3,43.6,109.3,43.6,109.2,43.6z"/>
	</g>
	<g>
		<path class="st0" d="M103,23.1c-1.6,1-3.1,2-4.2,3.6c-0.7,1-0.5,2.1-0.6,3.1c-0.1,3.6-0.4,7.2-0.5,10.7c-0.1,2.2,0,4.4-0.2,6.5
			c-0.1,1.3-0.1,2.6-0.2,3.9c0,0.4-0.2,0.5-0.5,0.5c-2.2,0-4.4,0.1-6.6,0c-0.1,0-0.2,0-0.3-0.1c0.1,0,0.2,0.1,0.3,0.1
			c2.2,0.1,4.4,0,6.6,0c0.4,0,0.5-0.1,0.5-0.5c0-1.3,0.1-2.6,0.2-3.9c0.2-2.2,0.1-4.4,0.2-6.5c0.1-3.6,0.4-7.2,0.5-10.7
			c0-1-0.1-2.1,0.6-3.1C99.9,25.1,101.5,24.1,103,23.1c2.3-1.5,4.6-2.3,7.3-1.6c0.2,0.1,0.4,0.1,0.6,0.2c-0.2-0.1-0.4-0.1-0.6-0.2
			C107.6,20.8,105.3,21.6,103,23.1z"/>
		<path d="M92.4,52.4c-0.7,0-1.5,0-2.2,0c-0.1,0-0.5,0-0.9-0.3c-0.2-0.2-0.3-0.6-0.2-0.9c0.1-0.3,0.4-0.5,0.8-0.5
			c0.2,0,0.4,0.1,0.5,0.1c0.6,0,1.1,0,1.7,0c0.8,0,1.6,0,2.5,0c0,0,0.1,0,0.1,0c0.6,0,1.2,0,1.9,0c0-1.3,0.1-2.5,0.2-3.6
			c0.1-1.3,0.1-2.6,0.1-3.9c0-0.9,0-1.8,0.1-2.6c0,0,0,0,0,0c0,0,0,0,0,0c0.1-1.8,0.2-3.7,0.3-5.5c0.1-1.7,0.2-3.5,0.2-5.2
			c0,0,0,0,0,0c0,0,0,0,0,0l0-0.3c0-1,0-2.2,0.8-3.3c0,0,0,0,0,0c1.2-1.7,2.7-2.8,4.5-3.8c2.6-1.7,4.8-2.3,7.2-1.9c0,0,0,0,0,0
			c0,0,0,0,0,0c0.2,0,0.5,0.1,0.7,0.2c0,0,0,0,0,0c0.1,0,0.1,0,0.2,0.1c0,0,0.1,0,0.1,0c0.1,0,0.3,0.1,0.5,0.2
			c0.3,0.1,0.5,0.4,0.5,0.8c0,0.1,0,0.3-0.1,0.4c-0.2,0.4-0.7,0.6-1.1,0.4c0,0-0.1,0-0.1,0c-0.1,0-0.2-0.1-0.4-0.1
			c-2.2-0.5-4.1-0.1-6.6,1.5l-0.3,0.2c-1.3,0.9-2.7,1.8-3.7,3.2c-0.4,0.5-0.4,1.2-0.4,1.9c0,0.3,0,0.5,0,0.8c0,0.3,0,0.5,0,0.8
			c-0.1,1.5-0.1,3.1-0.2,4.7c-0.1,1.7-0.2,3.5-0.2,5.2c0,0,0,0,0,0v0c0,0.9,0,1.8-0.1,2.6c0,1.3,0,2.6-0.1,4c0,0,0,0,0,0.1
			c0,0.6-0.1,1.2-0.1,1.9c0,0.7-0.1,1.3-0.1,2c0,0,0,0.1,0,0.1c0,0.1,0,0.2,0,0.3c-0.1,0.6-0.6,1-1.3,1c-0.7,0-1.5,0-2.2,0
			C93.9,52.4,93.1,52.4,92.4,52.4z M90.2,50.7C90.2,50.7,90.2,50.7,90.2,50.7C90.2,50.7,90.2,50.7,90.2,50.7z M90.1,50.7
			C90.1,50.7,90.1,50.7,90.1,50.7C90.1,50.7,90.1,50.7,90.1,50.7z"/>
	</g>
	<g>
		<path class="st0" d="M105.6,34.2c-1.3-0.4-2.4-1.1-3.8-1.8l0,0C103.2,33.2,104.3,33.8,105.6,34.2L105.6,34.2z"/>
		<path d="M105.6,35c-0.1,0-0.2,0-0.3,0c0,0,0,0,0,0c-1.4-0.4-2.6-1.1-4-1.9c-0.4-0.2-0.5-0.7-0.3-1.1c0.2-0.4,0.7-0.6,1.1-0.4
			c0.4,0.2,0.8,0.4,1.1,0.6c0.9,0.5,1.7,0.9,2.5,1.2c0,0,0,0,0,0c0.4,0.1,0.6,0.4,0.6,0.8c0,0.1,0,0.2,0,0.2
			C106.3,34.8,106,35,105.6,35z"/>
	</g>
	<g>
		<path class="st0" d="M150.7,51.7c1.5,0,3,0.4,4.5,0.2c0.7-0.1,1.6,0.1,1.5-1c-0.1-3.3,0.1-6.5,0.2-9.8c0.1-4.1,0.2-8.3,0.3-12.4
			c0-2.2-0.3-4.3-0.2-6.5c0.1-2.1,0.1-4.2,0.2-6.3c0-0.3,0-0.5-0.1-0.6c-0.1-0.1-0.3-0.2-0.6-0.2c-2.1,0-4.1-0.1-6.2-0.1
			c-0.5,0-1,0.2-1,0.9c0,2.3,0,4.6,0,7c0,1.8,0,3.7,0,5.5c0,0.8-0.3,1.3-1.3,1.3c-1.3-0.1-2.7-0.1-4,0c-2.1,0.1-4.2-0.2-6.3,0.2
			c-0.2,0-0.5,0-0.7-0.1c-0.4-0.1-0.6-0.4-0.6-0.8c0.3-1.8,0-3.6,0-5.5c-0.1-1.5,0-3.1,0-4.6c0-1-0.4-1.9-0.1-3
			c0.1-0.2,0-0.6-0.3-0.7c-0.2-0.1-0.4-0.2-0.7-0.1c-0.9,0.1-1.9,0.2-2.9,0.2c-1.5,0-3,0.2-4.5-0.2c-0.5-0.1-1.1-0.2-1.1,0.7
			c0.1,3-0.1,6,0.1,8.9l0,0c0,0.9,0,1.8,0,2.7c0,0.4,0,0.7,0,1.1l0,0c0.3,5.6-0.2,11.3,0.2,17.1c0.1,1.8,0,3.6,0.2,5.4
			c0,0.4,0.2,0.7,0.5,0.8c0.1,0,0.2,0.1,0.4,0.1c2.1,0.3,4.1,0.1,6.2,0.1c0.4,0,1.3,0.2,1.3-0.8c0-2.2,0.1-4.5,0.1-6.7
			c0-2.1,0.1-4.2-0.1-6.2c0-0.5,0.1-0.7,0.6-0.8c0.7-0.2,1.4,0.1,2.2,0c3.2-0.3,6.5-0.3,9.8-0.2c0.2,0,0.4,0,0.6,0.1
			c0.4,0.2,0.5,0.5,0.4,1.1c-0.1,3.8-0.4,7.5-0.6,11.3c-0.1,1-0.1,1.6,0.2,1.8c0,0,0.1,0.1,0.2,0.1c0,0,0.1,0,0.1,0.1
			C149.4,51.7,149.9,51.7,150.7,51.7z"/>
		<path d="M130.8,52.8c-0.9,0-1.8,0-2.8-0.2c-0.2,0-0.4-0.1-0.5-0.1c0,0-0.1,0-0.1,0c-0.7-0.2-1.1-0.9-1.1-1.6
			c-0.1-1-0.1-2.2-0.1-3.2c0-0.7,0-1.4-0.1-2.1c-0.2-3.1-0.2-6.1-0.1-9.1c0-2.6,0.1-5.3-0.1-7.9l0-3.9c-0.1-1.6-0.1-3.4-0.1-5.1
			c0-1.3,0-2.6,0-3.8c0-0.6,0.2-1,0.5-1.3c0.5-0.4,1.2-0.3,1.6-0.2c1.1,0.3,2.1,0.2,3.2,0.2c0.4,0,0.8,0,1.2,0
			c0.9,0,1.9-0.1,2.7-0.2c0.6-0.1,1,0,1.2,0.2c0.3,0.1,0.6,0.4,0.7,0.7c0.1,0.3,0.1,0.7,0,1c-0.1,0.5-0.1,1,0,1.5
			c0.1,0.4,0.1,0.8,0.1,1.2c0,0.5,0,1,0,1.5c0,1,0,2.1,0,3c0,0.7,0,1.3,0.1,1.9c0.1,1.2,0.1,2.4-0.1,3.7c0.1,0,0.1,0,0.1,0
			c0,0,0.2,0,0.2,0c1.4-0.3,2.8-0.2,4.1-0.2c0.8,0,1.5,0,2.2,0c1.3-0.1,2.8-0.1,4.1,0c0.2,0,0.3-0.1,0.3-0.1c0,0,0.1-0.1,0.1-0.4
			V15.8c0-1,0.7-1.8,1.9-1.8c1.1,0,2.1,0,3.1,0.1c1,0,2,0,3.1,0c0.5,0,0.9,0.2,1.2,0.4c0.3,0.4,0.3,0.8,0.3,1.2
			c0,1.1-0.1,2.1-0.1,3.2c0,1.1-0.1,2.1-0.1,3.2c-0.1,1.2,0,2.4,0.1,3.6c0.1,0.9,0.1,1.9,0.1,2.9l-0.3,12.5c0,0.9-0.1,1.7-0.1,2.5
			c-0.1,2.5-0.2,4.8-0.1,7.2c0,0.5-0.1,0.9-0.4,1.3c-0.4,0.5-1.1,0.5-1.5,0.6c-0.1,0-0.2,0-0.3,0c-1,0.1-2,0-2.9-0.1
			c-0.6-0.1-1.2-0.1-1.7-0.1h-1.5c-0.2,0-0.4-0.1-0.6-0.2c-0.1-0.1-0.2-0.1-0.3-0.2c-0.7-0.5-0.6-1.6-0.5-2.6
			c0.1-1.3,0.1-2.5,0.2-3.8c0.2-2.4,0.3-5,0.4-7.5c0,0,0-0.1,0-0.1c0-0.1,0-0.2,0-0.2c-0.1,0-0.1,0-0.2,0c-4-0.1-7-0.1-9.8,0.2
			c-0.4,0.1-0.8,0-1.2,0c-0.3,0-0.6-0.1-0.8,0c0.2,1.5,0.1,3.1,0.1,4.6c0,0.5,0,1,0,1.6c0,1.1,0,2.2,0,3.4c0,1.1-0.1,2.2-0.1,3.3
			c0,0.7-0.3,1-0.5,1.2c-0.5,0.5-1.2,0.4-1.5,0.4l-0.1,0c-0.6,0-1.2,0-1.8,0C132,52.8,131.4,52.8,130.8,52.8z M127.8,52.6
			C127.8,52.6,127.8,52.6,127.8,52.6C127.8,52.6,127.8,52.6,127.8,52.6z M148.4,51.7C148.4,51.7,148.4,51.7,148.4,51.7
			C148.4,51.7,148.4,51.7,148.4,51.7z M128.1,50.9c0,0,0.1,0,0.1,0c1.5,0.2,2.9,0.2,4.3,0.1c0.6,0,1.2,0,1.8,0c0.1,0,0.1,0,0.2,0
			c0.1,0,0.2,0,0.2,0c0-1.2,0-2.3,0.1-3.3c0-1.1,0.1-2.2,0.1-3.3c0-0.5,0-1.1,0-1.6c0-1.6,0-3.1-0.1-4.5c0-0.7,0.1-1.5,1.3-1.7
			c0.5-0.1,1-0.1,1.4,0c0.3,0,0.6,0.1,0.8,0c2.8-0.3,5.9-0.3,10-0.2c0.2,0,0.6,0,1,0.2c1,0.5,0.9,1.5,0.9,1.9
			c-0.1,2.5-0.2,5-0.4,7.5c-0.1,1.3-0.2,2.6-0.2,3.8c-0.1,0.6-0.1,0.9-0.1,1.1c0,0,0,0,0,0h1.2c0.6,0,1.3,0.1,1.9,0.1
			c0.9,0.1,1.7,0.2,2.5,0.1c0.1,0,0.3,0,0.5,0c0.1,0,0.2,0,0.3,0c0,0,0,0,0,0c-0.1-2.5,0-5,0.1-7.4c0-0.8,0.1-1.7,0.1-2.5l0.3-12.4
			c0-0.9-0.1-1.8-0.1-2.7c-0.1-1.2-0.1-2.5-0.1-3.8c0-1.1,0.1-2.1,0.1-3.2c0-1,0-2.1,0.1-3.1c-1,0-2,0-3,0c-1,0-2,0-3.1,0
			c-0.1,0-0.2,0-0.2,0l0,12.6c0,1.4-0.8,2.2-2.2,2.2c-1.3-0.1-2.7-0.1-3.9,0c-0.8,0-1.6,0-2.4,0c-1.3,0-2.6-0.1-3.8,0.2
			c-0.1,0-0.1,0-0.2,0c-0.2,0-0.6,0-1-0.1c-0.7-0.2-1.2-0.8-1.2-1.6c0,0,0-0.1,0-0.1c0.2-1.1,0.1-2.2,0.1-3.4c0-0.6-0.1-1.3-0.1-1.9
			c-0.1-1,0-2.1,0-3.1c0-0.5,0-1,0-1.5c0-0.3,0-0.6-0.1-0.9c-0.1-0.6-0.2-1.3,0-2c0,0,0,0,0,0c-0.9,0.1-1.9,0.2-3,0.2
			c-0.4,0-0.7,0-1.1,0c-1.2,0-2.4,0.1-3.6-0.3c0,0,0,0,0,0c0,1.2,0,2.5,0,3.8c0,1.7,0,3.4,0.1,5l0,3.9c0.1,2.6,0.1,5.4,0.1,8
			c0,3-0.1,6,0.1,9c0,0.7,0,1.5,0.1,2.2c0,1.1,0,2.1,0.1,3.2C128.1,50.8,128.1,50.9,128.1,50.9z M149.1,50.8
			C149.1,50.8,149.1,50.8,149.1,50.8C149.1,50.8,149.1,50.8,149.1,50.8z M135.5,15.4C135.5,15.4,135.5,15.4,135.5,15.4
			C135.5,15.4,135.5,15.4,135.5,15.4z"/>
	</g>
	<g>
		<path class="st0" d="M138.5,37.3c-0.7,0.1-1.4-0.2-2.2,0c-0.5,0.1-0.7,0.3-0.6,0.8c0.1,2.1,0.1,4.2,0.1,6.2c0,2.2,0,4.5-0.1,6.7
			c0,1-0.9,0.8-1.3,0.8c-2.1,0-4.1,0.2-6.2-0.1c-0.1,0-0.3,0-0.4-0.1c0.1,0,0.2,0.1,0.4,0.1c2.1,0.3,4.1,0.1,6.2,0.1
			c0.4,0,1.3,0.2,1.3-0.8c0-2.2,0.1-4.5,0.1-6.7c0-2.1,0.1-4.2-0.1-6.2c0-0.5,0.1-0.7,0.7-0.8C137.1,37.1,137.8,37.4,138.5,37.3
			c3.3-0.3,6.5-0.3,9.8-0.2c0.2,0,0.4,0,0.5,0.1c-0.1-0.1-0.3-0.1-0.6-0.1C145,37,141.7,37,138.5,37.3z"/>
		<path d="M130.8,52.7c-0.9,0-1.8,0-2.7-0.2c-0.2,0-0.6,0-0.9-0.4c-0.2-0.2-0.3-0.6-0.2-0.9c0.1-0.3,0.4-0.5,0.8-0.5
			c0.2,0,0.4,0.1,0.5,0.1c0,0,0,0,0.1,0c0.2,0,0.3,0,0.5,0.1c1.3,0.1,2.5,0.1,3.8,0.1c0.6,0,1.2,0,1.8,0c0.1,0,0.1,0,0.2,0
			c0.1,0,0.1,0,0.2,0c0-1.2,0-2.3,0.1-3.3c0-1.1,0.1-2.2,0.1-3.3c0-2,0-4.1-0.1-6.1c-0.1-0.5-0.1-1.5,1.3-1.7
			c0.2-0.1,0.4-0.1,0.6-0.1c0.3,0,0.6,0,0.9,0c0.3,0,0.5,0.1,0.7,0c0,0,0,0,0,0c1.9-0.2,3.9-0.3,6.3-0.3c1.3,0,2.6,0,3.6,0.1
			c0.3,0,0.7,0,1.1,0.3c0.2,0.2,0.3,0.4,0.3,0.6c0,0.2-0.1,0.4-0.2,0.6c-0.3,0.3-0.7,0.3-1,0.2c0,0-0.1,0-0.1,0c0,0-0.1,0-0.1,0
			c-2.2-0.1-4.1-0.1-5.9,0c-1.3,0-2.5,0.1-3.8,0.2c0,0,0,0-0.1,0c-0.3,0-0.5,0-0.8,0c-0.1,0-0.2,0-0.3,0c-0.2,0-0.4,0-0.5,0
			c-0.1,0-0.2,0-0.3,0c0,0-0.1,0-0.1,0c0.1,1.5,0.1,3.1,0.1,4.6c0,0.5,0,1,0,1.6c0,2.2,0,4.5-0.1,6.7c0,0,0,0,0,0.1
			c0,0.6-0.3,1-0.5,1.2c0,0,0,0,0,0c-0.5,0.5-1.2,0.4-1.5,0.4l-0.1,0c-0.6,0-1.2,0-1.8,0C132,52.7,131.4,52.7,130.8,52.7z
			 M148.2,37.8C148.2,37.8,148.2,37.8,148.2,37.8C148.2,37.8,148.2,37.8,148.2,37.8S148.2,37.8,148.2,37.8z"/>
	</g>
	<g>
		<path class="st0" d="M149,51.5c-0.1,0-0.1-0.1-0.2-0.1C148.9,51.4,148.9,51.5,149,51.5z"/>
		<path d="M149,52.4c-0.2,0-0.4-0.1-0.6-0.2c-0.3-0.1-0.5-0.4-0.5-0.8c0-0.5,0.4-0.8,0.8-0.8c0.2,0,0.4,0.1,0.6,0.2
			c0.3,0.1,0.5,0.4,0.5,0.8C149.9,52,149.5,52.4,149,52.4z"/>
	</g>
	<g>
		<path class="st0" d="M136.2,15.8c-0.3,1,0.1,2,0.1,3c0,1.5,0,3.1,0,4.6c0.1,1.8,0.3,3.6,0,5.5c-0.1,0.4,0.2,0.7,0.6,0.8
			c-0.4-0.1-0.6-0.4-0.6-0.8c0.3-1.8,0-3.6,0-5.5c-0.1-1.5,0-3.1,0-4.6C136.3,17.7,135.9,16.8,136.2,15.8c0.1-0.2,0-0.6-0.3-0.7
			C136.2,15.2,136.3,15.5,136.2,15.8z"/>
		<path d="M136.9,30.6c-0.1,0-0.1,0-0.2,0c0,0,0,0,0,0c0,0,0,0,0,0c0,0,0,0,0,0c0,0,0,0,0,0c-0.4-0.1-0.7-0.3-0.9-0.6
			c-0.3-0.3-0.4-0.8-0.3-1.2c0.2-1.1,0.1-2.2,0.1-3.4c0-0.6-0.1-1.3-0.1-1.9c-0.1-1,0-2.1,0-3.1c0-0.5,0-1,0-1.5c0-0.3,0-0.6-0.1-1
			c-0.1-0.4-0.1-0.9-0.1-1.5c0-0.2,0-0.4,0.1-0.7c-0.2-0.2-0.3-0.4-0.3-0.6c0-0.1,0-0.2,0-0.3c0.1-0.4,0.6-0.7,1.1-0.5
			c0.4,0.1,0.7,0.4,0.8,0.8c0.1,0.2,0.1,0.4,0.1,0.5c0,0.2,0,0.3-0.1,0.5c0,0.2-0.1,0.3-0.1,0.5c0,0.3,0,0.6,0.1,0.9
			c0.1,0.4,0.1,0.8,0.1,1.3v4.6l0.1,0.8c0.1,1.4,0.2,2.7,0,4.2c0,0.2,0,0.3-0.1,0.5c0,0,0.1,0,0.1,0c0.4,0.1,0.6,0.6,0.5,1
			C137.6,30.4,137.3,30.6,136.9,30.6z"/>
	</g>
	<g>
		<path class="st0" d="M157.2,15.8c0-0.3,0-0.5-0.1-0.6C157.2,15.4,157.2,15.6,157.2,15.8c-0.1,2.1-0.1,4.2-0.2,6.3
			c-0.1,2.2,0.2,4.3,0.2,6.5c0,4.1-0.2,8.3-0.3,12.4c-0.1,3.3-0.3,6.5-0.2,9.8c0,1.1-0.8,0.9-1.5,1c-1.5,0.1-3-0.2-4.5-0.2
			c-0.8,0-1.3,0-1.6-0.1c0.3,0.1,0.8,0.1,1.6,0.1c1.5,0,3,0.4,4.5,0.2c0.7-0.1,1.6,0.1,1.5-1c-0.1-3.3,0.1-6.5,0.2-9.8
			c0.1-4.1,0.2-8.3,0.3-12.4c0-2.2-0.3-4.3-0.2-6.5C157.1,20,157.1,17.9,157.2,15.8z"/>
		<path d="M154.3,52.8c-0.6,0-1.3-0.1-1.9-0.1c-0.6-0.1-1.2-0.1-1.7-0.1c-0.9,0-1.4,0-1.9-0.1c-0.4-0.1-0.6-0.5-0.6-0.8
			c0-0.1,0-0.2,0-0.3c0.1-0.4,0.6-0.7,1.1-0.5c0.2,0.1,0.7,0.1,1.3,0.1c0.7,0,1.4,0.1,2,0.1c0.8,0.1,1.6,0.1,2.4,0.1
			c0,0,0.1,0,0.1,0c0.1,0,0.2,0,0.3,0c0.1,0,0.2,0,0.3,0c0,0,0-0.1,0-0.1c-0.1-2.5,0-4.9,0.1-7.3c0,0,0,0,0,0c0-0.8,0.1-1.7,0.1-2.5
			l0.3-12.4c0-0.9-0.1-1.8-0.1-2.7c-0.1-0.9-0.1-1.9-0.1-2.8c0-0.3,0-0.6,0-1c0.1-1,0.1-2.1,0.1-3.1c0-1.1,0-2.1,0.1-3.2
			c0,0,0,0,0,0c0,0,0-0.1,0-0.2c-0.2-0.4-0.1-0.8,0.3-1.1c0.3-0.2,0.8-0.2,1.1,0.1c0.4,0.3,0.4,0.8,0.4,1.2c0,0,0,0,0,0
			c0,1-0.1,1.9-0.1,2.9c0,0,0,0,0,0c0,0.1,0,0.1,0,0.2c0,1.1-0.1,2.1-0.1,3.2c0,0.3,0,0.6,0,0.9c0,0.9,0.1,1.8,0.1,2.7
			c0.1,0.9,0.1,1.9,0.1,2.9c0,2.8-0.1,5.6-0.2,8.3c0,1.4-0.1,2.8-0.1,4.1c0,0.9-0.1,1.7-0.1,2.5c-0.1,1.8-0.1,3.6-0.1,5.4
			c0,0.6,0,1.2,0,1.9c0,0.5-0.1,0.9-0.4,1.3c-0.4,0.5-1.1,0.5-1.5,0.6c-0.1,0-0.2,0-0.3,0C154.9,52.8,154.6,52.8,154.3,52.8z
			 M156.3,15.5L156.3,15.5L156.3,15.5z"/>
	</g>
	<g>
		<path class="st0" d="M219.1,36.9c-1.4-3.1-2.5-6.4-3.6-9.6c-0.8-2.1-1.6-4.3-2.2-6.4c-0.5-1.5-1.2-2.9-1.7-4.4
			c-0.1-0.3-0.3-0.6-0.5-0.8l0,0c-0.1-0.1-0.2-0.1-0.3-0.2c-0.1,0-0.3-0.1-0.4-0.1c-2.4-0.1-4.8-0.3-7.2-0.2c-1,0-1.5,0.3-1.9,1.2
			c-2.3,5.3-4.6,10.6-6.9,15.9c-2.7,6.1-5.3,12.3-7.4,18.8c-0.3,0.8-0.3,1.2,0,1.3c0.2,0.1,0.6,0.1,1.1,0.1h0.1c1.7,0,3.4,0.1,5.1,0
			c0.8-0.1,1.9,0.3,2.4-0.8c1-2.3,1.9-4.5,2.8-6.8c0.2-0.6,0.5-0.7,1-0.7c3.3,0,6.5,0,9.8,0c1,0,1.2-0.2,1-1.1c-0.5-2-1.2-3.9-2-5.8
			c-0.1-0.3-0.3-0.5-0.5-0.6s-0.4-0.1-0.7-0.1c-1.4,0-2.9,0-4.3,0c-0.2,0-0.4,0-0.6-0.1c0,0,0,0-0.1,0c0,0-0.1,0-0.1-0.1
			c-0.2-0.2-0.2-0.6,0-1.1c0.6-1.5,1.4-2.9,2-4.4c0.5-1.3,1.2-2.5,1.7-3.7c0.1-0.3,0.4-0.6,0.8-0.6c0.1,0,0.2,0,0.3,0.1
			c0.2,0.1,0.2,0.4,0.3,0.6c0.3,0.6,0.5,1.1,0.7,1.7c1.6,4.1,3.1,8.2,4.8,12.3c1.4,3.3,2.7,6.6,3.8,10c0.2,0.7,0.5,1,0.9,1.2
			c0.3,0.1,0.6,0.1,1,0.1c2.6-0.1,5.3,0,8,0l0,0l0,0c-1-2.6-2.2-4.9-3.1-7.3C221.8,42.4,220.4,39.7,219.1,36.9z"/>
		<path d="M226.3,53.4c-0.9,0-1.8,0-2.7,0c-1.8,0-3.6,0-5.3,0c-0.5,0-0.9,0-1.3-0.1c0,0-0.1,0-0.1,0c-0.7-0.3-1.1-0.9-1.3-1.7
			c-1-3-2.2-6.1-3.8-9.9c-1.1-2.8-2.2-5.5-3.2-8.2c-0.5-1.4-1-2.7-1.6-4.1c-0.2-0.6-0.4-1-0.6-1.5c-0.2,0.5-0.5,1-0.7,1.4
			c-0.3,0.7-0.7,1.3-0.9,2c-0.3,0.8-0.7,1.5-1,2.3c-0.4,0.7-0.7,1.4-1,2.2c0,0.1,0,0.1,0,0.1c0,0,0,0,0.1,0h4.3c0.3,0,0.7,0,1.1,0.2
			c0.4,0.2,0.8,0.6,0.9,1.1c0.9,2.2,1.6,4.1,2,5.9c0.1,0.5,0.2,1.1-0.2,1.6c-0.4,0.6-1.2,0.6-1.6,0.6h-9.8c-0.1,0-0.1,0-0.2,0
			c0,0,0,0.1,0,0.1c-1,2.5-1.9,4.7-2.8,6.9c-0.6,1.4-1.8,1.3-2.6,1.3c-0.2,0-0.4,0-0.5,0c-1.2,0.1-2.4,0.1-3.5,0c-0.6,0-1.1,0-1.7,0
			c-0.7,0-1.2,0-1.5-0.2c-0.3-0.1-0.5-0.3-0.6-0.6c-0.3-0.5-0.1-1.2,0.2-1.8c2.2-6.8,5-13.3,7.4-18.8l6.9-15.9
			c0.5-1.2,1.3-1.7,2.7-1.7c1.8-0.1,3.7,0,5.5,0.1c0.6,0,1.2,0.1,1.8,0.1c0,0,0,0,0,0c0.2,0,0.3,0.1,0.4,0.1c0.2,0,0.3,0.1,0.5,0.2
			c0.1,0,0.2,0.1,0.4,0.2c0.3,0.3,0.6,0.7,0.7,1.1c0.2,0.7,0.5,1.4,0.8,2.2c0.3,0.7,0.6,1.5,0.9,2.3c0.6,2.2,1.5,4.5,2.2,6.4
			l0.3,0.9c1,2.9,2,5.9,3.3,8.7c1,2.1,2,4.1,3,6.2l1.1,2.1c0.5,1.3,1,2.4,1.6,3.7c0.5,1.2,1.1,2.4,1.6,3.7c0.1,0.3,0.1,0.6-0.1,0.8
			C226.8,53.2,226.6,53.4,226.3,53.4z M217.6,51.6c0.2,0,0.4,0,0.7,0c1.7-0.1,3.6,0,5.3,0c0.5,0,1,0,1.4,0c-0.4-0.8-0.7-1.7-1.1-2.5
			c-0.6-1.3-1.1-2.4-1.6-3.7l-1-2c-1-2-2.1-4.1-3.1-6.3c0,0,0,0,0,0c-1.3-2.9-2.3-5.9-3.4-8.9l-0.3-0.8c-0.7-1.9-1.6-4.2-2.2-6.5
			c-0.2-0.7-0.5-1.4-0.8-2.1c-0.3-0.7-0.6-1.5-0.9-2.3c0-0.1-0.1-0.3-0.3-0.4c0,0-0.1,0-0.1-0.1c0,0-0.1,0-0.1,0
			c-0.6,0-1.2-0.1-1.8-0.1c-1.8-0.1-3.6-0.2-5.3-0.1c-0.7,0-0.9,0.1-1.2,0.7l-6.9,15.9c-2.4,5.5-5.2,12-7.4,18.7
			c0,0.1-0.1,0.2-0.1,0.3c0.8,0,1.5,0,2.2,0c1.1,0,2.2,0,3.3,0c0.2,0,0.4,0,0.7,0c0.8,0,0.8,0,1-0.3c1-2.2,1.8-4.3,2.8-6.8
			c0.4-1.1,1.2-1.2,1.8-1.2h9.8c0.1,0,0.1,0,0.2,0c0,0,0,0,0-0.1c-0.4-1.7-1-3.5-2-5.7c-0.1-0.1-0.1-0.2-0.1-0.2c0,0-0.2,0-0.3,0
			h-4.3c-0.2,0-0.5,0-0.8-0.1c-0.4,0-0.7-0.2-0.8-0.5c-0.2-0.3-0.4-0.9,0-1.8c0.3-0.8,0.7-1.5,1-2.3c0.4-0.7,0.7-1.4,1-2.2
			c0.3-0.7,0.6-1.5,1-2.1c0.3-0.5,0.5-1.1,0.7-1.6c0.2-0.6,0.9-1.1,1.6-1.1c0.1,0,0.5,0,0.8,0.3c0.4,0.2,0.5,0.6,0.5,0.8
			c0.3,0.7,0.5,1.2,0.8,1.9c0.5,1.3,1,2.7,1.6,4.1c1,2.7,2.1,5.5,3.2,8.2c1.6,3.9,2.9,7.1,3.8,10.1
			C217.3,51.4,217.4,51.6,217.6,51.6z"/>
	</g>
	<g>
		<path class="st0" d="M201.9,36.4L201.9,36.4L201.9,36.4z"/>
		<path d="M201.9,37.2c-0.5,0-0.9-0.4-0.9-0.8s0.4-0.8,0.8-0.8h0c0.5,0,0.9,0.4,0.9,0.8S202.4,37.2,201.9,37.2z"/>
	</g>
	<g>
		<path class="st0" d="M210.6,15.4c0.1,0,0.2,0.1,0.3,0.2C210.8,15.5,210.7,15.5,210.6,15.4z"/>
		<path d="M210.9,16.5c-0.2,0-0.4-0.1-0.5-0.2c-0.1,0-0.2-0.1-0.4-0.3c-0.2-0.2-0.3-0.6-0.2-0.9c0.1-0.3,0.4-0.5,0.8-0.5
			c0.5,0,0.7,0.3,0.9,0.5c0.2,0.2,0.2,0.4,0.2,0.6c0,0.2-0.1,0.4-0.2,0.6C211.4,16.4,211.1,16.5,210.9,16.5z M210.3,16.2
			C210.3,16.2,210.3,16.2,210.3,16.2C210.3,16.2,210.3,16.2,210.3,16.2z"/>
	</g>
	<g>
		<path class="st0" d="M218,52.5c-0.4,0-0.7,0-1-0.1C217.2,52.5,217.6,52.5,218,52.5c2.6-0.1,5.3,0,8,0l0,0
			C223.3,52.5,220.7,52.5,218,52.5z"/>
		<path d="M226,53.4h-8c-0.4,0-0.8,0-1.2-0.1c0,0,0,0,0,0c0,0,0,0,0,0l0,0c0,0,0,0,0,0h0c0,0,0,0,0,0c0,0,0,0,0,0l0,0h0c0,0,0,0,0,0
			c0,0,0,0,0,0h0l0,0c0,0,0,0,0,0c0,0,0,0,0,0h0h0c0,0,0,0,0,0c0,0,0,0,0,0c0,0,0,0,0,0s0,0,0,0h0c0,0,0,0,0,0c0,0,0,0,0,0
			c-0.4-0.1-0.6-0.5-0.6-0.8c0-0.1,0-0.2,0-0.3c0.1-0.4,0.6-0.7,1.1-0.5c0.2,0.1,0.4,0.1,0.7,0.1c1.7-0.1,3.6,0,5.3,0
			c0.9,0,1.8,0,2.7,0c0.5,0,0.8,0.4,0.8,0.8S226.4,53.4,226,53.4z"/>
	</g>
	<g>
		<path class="st0" d="M208,37.2c0.8,1.9,1.4,3.9,2,5.8c0.2,0.9,0,1.1-1,1.1c-3.3,0-6.5,0-9.8,0c-0.5,0-0.8,0.1-1,0.7
			c-0.9,2.3-1.8,4.5-2.8,6.8c-0.4,1.1-1.5,0.7-2.4,0.8c-1.7,0.1-3.4,0-5.1,0h-0.1c-0.5,0-0.9,0-1.1-0.1c0.2,0.1,0.6,0.1,1.1,0.1h0.1
			c1.7,0,3.4,0.1,5.1,0c0.8-0.1,1.9,0.3,2.4-0.8c1-2.3,1.9-4.5,2.8-6.8c0.2-0.6,0.5-0.7,1-0.7c3.3,0,6.5,0,9.8,0c1,0,1.2-0.2,1-1.1
			C209.4,41.1,208.8,39.1,208,37.2c-0.1-0.3-0.3-0.5-0.5-0.6C207.8,36.7,207.9,36.9,208,37.2z"/>
		<path d="M191.2,53.3c-0.6,0-1.1,0-1.7,0c0,0,0,0,0,0c-0.6,0-1.1,0-1.7,0h-0.1c-0.6,0-1.1,0-1.5-0.2c-0.3-0.1-0.5-0.4-0.5-0.8
			c0-0.1,0-0.3,0.1-0.4c0.2-0.4,0.7-0.6,1.1-0.4c0.1,0,0.4,0,0.7,0h0.1c0.6,0,1.1,0,1.7,0c1.1,0,2.2,0,3.3,0c0.1,0,0.3,0,0.4,0
			c0.1,0,0.3,0,0.4,0c0.1,0,0.2,0,0.2,0c0.5,0,0.6-0.1,0.7-0.3c0.5-1.2,1.1-2.5,1.6-3.7c0.4-0.9,0.8-1.9,1.1-2.8c0,0,0,0,0,0
			c0,0,0,0,0,0c0,0,0,0,0-0.1c0,0,0,0,0,0c0,0,0,0,0-0.1c0.4-1.1,1.2-1.2,1.8-1.2h9.8c0.1,0,0.1,0,0.2,0c0,0,0,0,0-0.1l-0.2-0.6
			c-0.5-1.7-1.1-3.4-1.8-5.1c0,0,0,0,0-0.1c0-0.1-0.1-0.1-0.1-0.1c-0.4-0.2-0.6-0.7-0.4-1.1c0.2-0.4,0.6-0.6,1.1-0.5
			c0.7,0.2,0.9,0.8,1,1.1c0.2,0.4,0.3,0.8,0.5,1.2c0.5,1.3,0.9,2.6,1.3,3.9c0,0,0,0,0,0c0,0,0,0,0,0c0,0,0,0,0,0.1l0.2,0.7
			c0.1,0.3,0.1,0.5,0.1,0.8c0,0.3-0.1,0.6-0.3,0.9c-0.4,0.6-1.2,0.6-1.6,0.6h-9.8c-0.1,0-0.1,0-0.2,0c0,0,0,0.1,0,0.1
			c-1,2.5-1.9,4.7-2.8,6.9c-0.4,1.2-1.5,1.3-2.2,1.3c-0.1,0-0.2,0-0.3,0c-0.1,0-0.2,0-0.2,0c-0.1,0-0.2,0-0.3,0
			C192.4,53.3,191.8,53.3,191.2,53.3z"/>
	</g>
	<g>
		<path class="st0" d="M206.3,26.4c-0.4,0-0.7,0.3-0.8,0.6c-0.5,1.3-1.1,2.5-1.7,3.7c-0.6,1.5-1.4,2.9-2,4.4c-0.2,0.5-0.2,0.9,0,1.1
			c-0.2-0.2-0.2-0.6,0-1c0.6-1.5,1.4-2.9,2-4.4c0.5-1.3,1.2-2.5,1.6-3.7C205.5,26.7,205.9,26.4,206.3,26.4c0.1,0,0.2,0,0.3,0.1
			C206.5,26.4,206.4,26.4,206.3,26.4z"/>
		<path d="M201.8,37.1c-0.2,0-0.4-0.1-0.6-0.2c0,0,0,0,0,0l0,0c0,0,0,0,0,0c0,0,0,0,0,0c0,0-0.1-0.1-0.1-0.1
			c-0.2-0.3-0.4-0.9-0.1-1.9c0.3-0.8,0.7-1.5,1-2.3c0.4-0.7,0.7-1.4,1-2.2c0.1-0.2,0.2-0.3,0.2-0.5c0.2-0.4,0.4-0.8,0.5-1.2
			c0.3-0.7,0.6-1.3,0.8-1.9c0.2-0.7,0.9-1.3,1.7-1.3l0,0c0,0,0,0,0,0c0.2,0,0.6,0,0.9,0.4c0.2,0.2,0.2,0.4,0.2,0.6
			c0,0.2-0.1,0.4-0.2,0.6c-0.2,0.2-0.6,0.3-0.9,0.2c-0.5,1.2-1,2.3-1.5,3.3c-0.1,0.2-0.1,0.3-0.2,0.5c-0.3,0.8-0.7,1.5-1,2.3
			c-0.4,0.7-0.7,1.4-1,2.2c0,0.1-0.1,0.2-0.1,0.2c0.1,0.1,0.1,0.3,0.1,0.5c0,0.2-0.1,0.4-0.2,0.6C202.2,37,202,37.1,201.8,37.1z
			 M202.4,35.7C202.4,35.7,202.4,35.7,202.4,35.7L202.4,35.7C202.4,35.7,202.4,35.7,202.4,35.7z"/>
	</g>
	<g>
		<path class="st0" d="M219.1,36.9c-1.4-3.1-2.5-6.4-3.6-9.6c-0.8-2.1-1.6-4.3-2.2-6.4c-0.5-1.5-1.2-2.9-1.7-4.4
			c-0.1-0.3-0.3-0.6-0.5-0.8c0.2,0.2,0.4,0.4,0.5,0.8c0.5,1.5,1.3,2.9,1.7,4.4c0.7,2.2,1.5,4.3,2.2,6.4
			C216.5,30.5,217.8,33.7,219.1,36.9c1.2,2.8,2.7,5.5,3.8,8.3c0.9,2.4,2.2,4.7,3.1,7.3l0,0l0,0c-1-2.6-2.2-4.9-3.2-7.3
			C221.8,42.4,220.4,39.7,219.1,36.9z"/>
		<path d="M226,53.4c-0.3,0-0.7-0.2-0.8-0.5c-0.6-1.5-1.2-2.9-1.8-4.3c-0.5-1-0.9-2-1.4-3c-0.4-1-0.8-2-1.2-3
			c-0.3-0.5-0.5-1.1-0.8-1.6c-0.6-1.2-1.2-2.4-1.7-3.7c-1.3-2.9-2.3-5.9-3.4-8.9l-0.3-0.8c-0.7-1.9-1.6-4.2-2.2-6.5
			c-0.2-0.7-0.5-1.4-0.8-2.1c-0.3-0.7-0.6-1.5-0.9-2.3c-0.1-0.2-0.2-0.3-0.3-0.5c-0.3-0.3-0.3-0.9,0-1.2c0.3-0.3,0.9-0.3,1.2,0
			c0.2,0.2,0.6,0.6,0.7,1.2c0,0.1,0.1,0.3,0.1,0.4c0.2,0.5,0.4,0.9,0.6,1.5c0.4,0.8,0.7,1.7,1,2.6c0.4,1.2,0.8,2.4,1.3,3.7
			c0.3,0.9,0.6,1.8,0.9,2.7c1.1,3.2,2.3,6.4,3.6,9.6c0.3,0.7,0.6,1.4,1,2c0.5,1,1,2.1,1.5,3.2c0.5,1,1,2.1,1.4,3.1
			c0.4,1.1,0.9,2.1,1.4,3.2c0.6,1.3,1.2,2.7,1.7,4.1c0.2,0.4-0.1,0.9-0.5,1.1C226.2,53.4,226.1,53.4,226,53.4z"/>
	</g>
	<g>
		<path class="st0" d="M182.8,50.9c0.7-2.3,1.8-4.5,2.8-7c-0.7,0.3-1.2,0-1.7,0c-3.8,0.1-7.6,0.1-11.4,0.2c-0.8,0-0.9-0.2-0.9-0.8
			c-0.1-1.7,0.2-3.4,0-5.1c-0.1-0.4,0-0.6,0.2-0.8c0.2-0.2,0.5-0.2,0.9-0.2c3.1,0,6.2,0,9.3,0c0.3,0,0.5,0,0.7-0.2
			c0.1-0.1,0.2-0.3,0.2-0.7c-0.1-1.7-0.1-3.5,0-5.2c0-0.8-0.1-0.9-0.8-0.9c-2.9,0-5.8,0-8.8,0c-1,0-1.4-0.5-1.3-1.4
			c0.2-1.6,0.4-3.2,0.4-4.8c0-0.4,0.1-0.6,0.4-0.7c0.1,0,0.2,0,0.3,0c3.1,0.2,6.2-0.3,9.2-0.3c1.1,0,2.2,0,3.2,0
			c0.2,0,0.4,0,0.4-0.1c0.1-0.1,0.1-0.2,0-0.5c-0.8-2.3-1.5-4.5-2.3-6.8c-0.1-0.3-0.2-0.5-0.5-0.5c-0.9,0-1.7-0.2-2.6-0.2
			c-2,0-4.1,0.2-6.1,0.2c-3.5-0.1-6.9,0.1-10.4,0c-0.3,0-0.4,0-0.5,0.1c-0.1,0.1-0.1,0.3-0.1,0.5c0,3.6-0.1,7.2-0.2,10.8
			c0,2.5-0.1,5,0,7.5c0.1,2-0.2,4-0.2,6c0.1,2.3-0.2,4.7-0.3,7c0,1.1,0,2.2-0.3,3.4c-0.3,1.2,0,1.6,1.3,1.5c2.8-0.2,5.6,0.2,8.4,0.1
			c3-0.1,6,0,8.9,0.1c0.5,0,0.9,0,1.2-0.2C182.4,51.8,182.6,51.5,182.8,50.9z"/>
		<path d="M181,53c-2.8-0.1-5.9-0.2-8.9-0.1c-1.3,0-2.6,0-3.9-0.1c-1.5-0.1-3-0.1-4.5,0c-0.6,0.1-1.5,0-2-0.6
			c-0.5-0.6-0.4-1.4-0.2-2c0.3-1.1,0.3-2.1,0.3-3.2c0-0.8,0.1-1.6,0.1-2.4c0.1-1.5,0.2-3.1,0.2-4.6c0-0.9,0.1-1.8,0.1-2.7
			c0.1-1.2,0.1-2.2,0.1-3.3c-0.1-1.7,0-3.4,0-5.1c0-0.8,0-1.7,0-2.5c0.1-3.6,0.2-7.2,0.2-10.8c0-0.3,0-0.8,0.3-1.1
			c0.4-0.3,0.7-0.3,1.1-0.3c1.8,0,3.5,0,5.2,0c1.7,0,3.5-0.1,5.3,0c1,0,2-0.1,3-0.1c1.5-0.1,3.2-0.2,4.5,0c0.4,0,0.8,0.1,1.2,0.1
			c0.9,0,1.2,0.8,1.3,1.1c0.4,1.1,0.8,2.3,1.1,3.4c0.4,1.1,0.8,2.3,1.2,3.4c0.1,0.2,0.2,0.7,0,1.2c-0.1,0.3-0.4,0.6-1.2,0.6h-3.2
			c-1.2,0-2.4,0.1-3.7,0.2c-1.7,0.1-3.6,0.2-5.4,0.1c0,1.6-0.2,3.2-0.4,4.8c0,0.2,0,0.4,0,0.4c0,0,0.1,0.1,0.4,0.1h8.8
			c1.4,0,1.7,0.7,1.7,1.8c-0.1,1.7-0.1,3.5,0,5.2c0,0.6-0.2,1.1-0.4,1.4c-0.4,0.4-0.9,0.4-1.3,0.4h-9.3c-0.1,0-0.2,0-0.3,0
			c0,0,0,0,0,0.1c0.1,1,0.1,2,0,3c0,0.8-0.1,1.5,0,2.2c0,0,0,0,0,0c0,0,0,0,0.1,0c1.9-0.1,3.8-0.1,5.7-0.1c1.9,0,3.8,0,5.7-0.1
			c0,0,0,0,0,0c0.2,0,0.4,0,0.7,0.1c0.3,0.1,0.5,0.1,0.7,0c0.3-0.1,0.7-0.1,0.9,0.2c0.2,0.2,0.3,0.6,0.2,0.9
			c-0.3,0.9-0.7,1.7-1.1,2.5c-0.7,1.5-1.3,3-1.7,4.5c0,0,0,0,0,0c-0.3,0.8-0.6,1.2-1,1.5C182.2,53,181.6,53,181,53z M174.8,51.1
			c2.2,0,4.3,0.1,6.3,0.1c0.2,0,0.6,0,0.7-0.1c0,0,0,0,0.1,0h0c0,0,0.1-0.1,0.2-0.5c0.5-1.6,1.1-3,1.8-4.6c0.2-0.4,0.4-0.8,0.5-1.2
			c0,0-0.1,0-0.1,0c-0.1,0-0.2,0-0.3,0c-1.9,0-3.8,0.1-5.7,0.1c-1.9,0-3.8,0-5.7,0.1h0c-1.2,0-1.8-0.5-1.8-1.7c0-0.8,0-1.5,0-2.3
			c0-0.9,0.1-1.8,0-2.7c-0.1-0.6,0-1.1,0.4-1.6c0.4-0.4,1-0.4,1.5-0.4h9.3c0,0,0,0,0.1,0c0,0,0,0,0-0.1c-0.1-1.7-0.1-3.5,0-5.3
			c0,0,0,0,0,0h-8.8c-0.7,0-1.3-0.2-1.7-0.6c-0.4-0.4-0.5-1-0.5-1.7c0.2-1.6,0.4-3.2,0.4-4.7c0-1,0.5-1.4,1-1.5c0.1,0,0.2,0,0.3,0
			h0.3c1.8,0.1,3.6,0,5.4-0.1c1.3-0.1,2.6-0.2,3.8-0.2h2.6c-0.3-1-0.7-1.9-1-2.9c-0.4-1.1-0.7-2.2-1.1-3.3c-0.4,0-0.8-0.1-1.1-0.1
			c-1.4-0.2-2.8-0.1-4.2,0c-1,0-2.1,0.1-3.1,0.1c-1.8-0.1-3.5,0-5.2,0c-1.6,0-3.3,0-5,0c0,3.6-0.1,7.1-0.2,10.6c0,0.8,0,1.7,0,2.5
			c0,1.6,0,3.3,0,5c0.1,1.2,0,2.4-0.1,3.5c-0.1,0.8-0.1,1.7-0.1,2.5c0.1,1.6,0,3.2-0.2,4.8c-0.1,0.8-0.1,1.5-0.1,2.3
			c0,1.1,0,2.3-0.3,3.6c-0.1,0.2-0.1,0.4-0.1,0.5c0.1,0,0.2,0,0.5,0c1.6-0.1,3.2,0,4.7,0c1.2,0.1,2.5,0.1,3.8,0.1
			C173,51.1,173.9,51.1,174.8,51.1z M182.8,50.9L182.8,50.9L182.8,50.9z"/>
	</g>
	<g>
		<polygon class="st0" points="185.6,43.9 185.6,43.9 185.6,43.9 		"/>
		<path d="M185.6,44.7c-0.5,0-0.9-0.4-0.9-0.8s0.4-0.8,0.8-0.8h0c0.5,0,0.9,0.4,0.9,0.8S186,44.7,185.6,44.7z"/>
	</g>
	<g>
		<path class="st0" d="M172.1,23.9c0,1.6-0.2,3.2-0.4,4.8c-0.1,1,0.3,1.4,1.3,1.4c2.9,0,5.8,0,8.8,0c0.7,0,0.9,0.1,0.8,0.9
			c-0.1,1.7-0.1,3.5,0,5.2c0,0.3,0,0.5-0.2,0.7c0.1-0.1,0.2-0.3,0.2-0.7c-0.1-1.7-0.1-3.5,0-5.2c0-0.8-0.1-0.9-0.8-0.9
			c-2.9,0-5.8,0-8.8,0c-1,0-1.4-0.5-1.3-1.4C171.9,27.1,172.1,25.5,172.1,23.9c0-0.4,0.1-0.6,0.4-0.7
			C172.2,23.2,172.1,23.5,172.1,23.9z"/>
		<path d="M182.4,37.8c-0.2,0-0.4-0.1-0.6-0.2c-0.2-0.2-0.2-0.4-0.2-0.6c0-0.2,0.1-0.4,0.2-0.5c0,0,0-0.1,0-0.2
			c0-0.8-0.1-1.7-0.1-2.6c0-0.9,0-1.8,0.1-2.7c0,0,0,0,0,0H173c-0.8,0-1.3-0.2-1.7-0.6c-0.3-0.3-0.5-0.8-0.5-1.3c0-0.1,0-0.3,0-0.4
			c0.1-0.6,0.2-1.3,0.2-1.9c0,0,0,0,0,0c0,0,0,0,0,0c0.1-0.9,0.2-1.8,0.2-2.7c0,0,0-0.1,0-0.1c0,0,0,0,0,0c0-2,1.9-1.8,2.1-0.8
			c0.1,0.3-0.1,0.7-0.4,0.9c0,1.7-0.2,3.3-0.4,4.9c0,0.1,0,0.1,0,0.1c0,0.2,0,0.2,0,0.2c0,0,0.1,0.1,0.4,0.1h8.8c0.4,0,1,0,1.4,0.5
			c0.4,0.4,0.4,0.9,0.3,1.4c-0.1,1.7-0.1,3.4,0,5c0,0,0,0,0,0c0,0.4,0,0.9-0.4,1.4C182.9,37.7,182.7,37.8,182.4,37.8z"/>
	</g>
	<g>
		<path class="st0" d="M174.2,14.9c2,0.1,4.1-0.2,6.1-0.2c0.9,0,1.7,0.2,2.6,0.2c0.3,0,0.4,0.2,0.5,0.5c0.7,2.3,1.5,4.6,2.3,6.8
			c0.1,0.3,0.1,0.4,0,0.5c0.1-0.1,0.1-0.2,0-0.5c-0.8-2.3-1.5-4.6-2.3-6.8c-0.1-0.3-0.2-0.5-0.5-0.5c-0.9,0-1.7-0.2-2.6-0.2
			C178.3,14.8,176.3,15,174.2,14.9c-3.5-0.1-6.9,0.1-10.4,0c-0.3,0-0.4,0-0.5,0.1c0.1-0.1,0.2-0.2,0.5-0.1
			C167.3,15,170.8,14.8,174.2,14.9z"/>
		<path d="M185.8,23.6c-0.2,0-0.4-0.1-0.6-0.2c-0.2-0.2-0.2-0.4-0.2-0.6c0-0.1,0-0.2,0-0.2c-0.9-2.6-1.7-4.8-2.3-6.7
			c-0.4,0-0.8-0.1-1.1-0.1c-0.4,0-0.8-0.1-1.2-0.1c-0.4,0-0.9,0.1-1.4,0.1c-1.5,0.1-2.9,0.2-4.5,0.1c-0.1,0-0.1,0-0.2,0
			c-0.1,0-0.2,0-0.3,0c-0.4,0-0.9,0-1.3,0c-1.2,0-2.4,0-3.5,0c-1.1,0-2.2,0-3.4,0c-0.6,0-1.3,0-1.9,0c0,0,0,0,0,0c0,0,0,0-0.1,0
			c-0.3,0.2-0.7,0.1-1-0.1c-0.3-0.3-0.3-0.9,0-1.2v0c0,0,0,0,0,0c0,0,0,0,0,0c0,0,0,0,0,0c0.1-0.1,0.5-0.5,1.2-0.3c0.3,0,0.6,0,1,0
			c1.4,0,2.8,0,4.1,0c1,0,2.1,0,3.1,0c0.7,0,1.4,0,2.1,0c0,0,0,0,0.1,0c0,0,0.1,0,0.1,0c1,0,2.1,0,3.2-0.1c1.4-0.1,2.8-0.1,4.1,0
			c0.4,0,0.8,0.1,1.2,0.1c0.9,0,1.2,0.8,1.3,1.1c0.5,1.2,0.9,2.5,1.3,3.9c0.3,1,0.6,2,1,3c0.1,0.3,0.3,0.9-0.2,1.4
			C186.2,23.5,186,23.6,185.8,23.6z M185.2,22.1C185.2,22.1,185.2,22.1,185.2,22.1C185.2,22.1,185.2,22.1,185.2,22.1z"/>
	</g>
	<g>
		<path class="st0" d="M171.5,38.1c0.2,1.7-0.1,3.4,0,5.1c0,0.6,0.1,0.8,0.9,0.8c3.8-0.1,7.6-0.1,11.4-0.2c0.5,0,1,0.3,1.7,0l0,0
			c-0.7,0.3-1.2,0-1.7,0c-3.8,0.1-7.6,0.1-11.4,0.2c-0.8,0-0.9-0.2-0.9-0.8C171.4,41.5,171.8,39.8,171.5,38.1
			c-0.1-0.4,0-0.6,0.2-0.8C171.5,37.5,171.5,37.7,171.5,38.1z"/>
		<path d="M172.4,44.8c-1.2,0-1.8-0.5-1.8-1.7c0,0,0,0,0,0c0-0.8,0-1.5,0-2.3c0-0.9,0.1-1.8,0-2.7c-0.1-0.6,0-1.1,0.4-1.5
			c0,0,0,0,0,0c0.3-0.3,0.9-0.3,1.2,0c0.3,0.3,0.3,0.8,0.1,1.1c0,0.1,0,0.1,0,0.2c0.2,1.1,0.1,2.1,0,3.1c0,0.7-0.1,1.4,0,2v0
			c0,0,0,0,0.1,0c1.9,0,3.8-0.1,5.7-0.1c1.9,0,3.8,0,5.7-0.1c0,0,0,0,0,0c0.2,0,0.4,0,0.7,0.1c0.3,0.1,0.5,0.1,0.7,0
			c0.4-0.2,0.9,0,1.1,0.4c0,0.1,0.1,0.2,0.1,0.3c0,0.3-0.2,0.6-0.5,0.8c-0.7,0.3-1.3,0.2-1.7,0.1c-0.1,0-0.2,0-0.3,0
			c-1.9,0.1-3.8,0.1-5.7,0.1C176.2,44.8,174.3,44.8,172.4,44.8C172.4,44.8,172.4,44.8,172.4,44.8z"/>
	</g>
	<g>
		<path class="st0" d="M185.7,43.9L185.7,43.9L185.7,43.9z"/>
		<path d="M185.7,44.7c-0.5,0-0.9-0.4-0.9-0.8s0.4-0.8,0.8-0.8h0c0.5,0,0.9,0.4,0.9,0.8S186.1,44.7,185.7,44.7z"/>
	</g>
	<g>
		<path class="st0" d="M185.6,43.9L185.6,43.9c-1,2.5-2.1,4.7-2.8,7c-0.2,0.6-0.4,0.9-0.7,1.1c0.3-0.2,0.5-0.5,0.7-1.1
			C183.5,48.6,184.5,46.4,185.6,43.9C185.7,43.9,185.6,43.9,185.6,43.9L185.6,43.9z"/>
		<path d="M182,52.9c-0.3,0-0.5-0.1-0.7-0.4c-0.1-0.1-0.1-0.3-0.1-0.5c0-0.3,0.1-0.5,0.4-0.7c0.1,0,0.2-0.1,0.4-0.7
			c0.5-1.5,1.1-3,1.8-4.6c0.3-0.8,0.7-1.6,1-2.5c0.1-0.3,0.4-0.5,0.8-0.5h0c0.5,0,0.8,0.4,0.8,0.8c0,0.2-0.1,0.4-0.2,0.5
			c-0.3,0.8-0.6,1.5-0.9,2.3c-0.6,1.5-1.2,3-1.8,4.5c-0.3,0.8-0.6,1.2-1,1.5C182.4,52.8,182.2,52.9,182,52.9z"/>
	</g>
	<g>
		<path class="st0" d="M42.9,4.6c-1.1-0.5-2.3-0.7-3.4-1.2c-1.3-0.7-2.8-0.9-4.2-1.3C33.2,1.4,31,1,28,0.9l0,0
			c-0.8-0.1-2.4,0.3-4,0.3c-0.7,0-1.5,0-2.3,0.2C19,2.3,16.3,2.6,14,4.3c-1.2,0.9-2.5,1.8-3.7,2.7c-2.7,2.3-4.5,5.3-6.2,8.3
			c-0.9,1.6-1.7,3.3-2.1,5.1c-0.8,3.3-1.4,6.7-1,10.1c0.2,1.9,0.3,3.7,0.7,5.6c0.5,2.6,1.1,5.1,2.3,7.5c1.2,2.5,2.7,4.7,4.6,6.7
			c0.6,0.7,1.3,1.3,2,1.8c2.3,1.9,4.8,3.5,7.6,4.5c2.9,1,5.8,1.8,8.9,2.1c1.8,0.1,3.5-0.1,5.2-0.2c1.6-0.1,3.1-0.6,4.6-1
			c2-0.6,4.1-1.3,5.7-2.6c0.3-0.2,0.6-0.4,0.6-0.9c-0.1-3.4,0.4-6.7,0-10.1c0-0.3-0.1-0.5-0.2-0.6c-0.1-0.1-0.3,0-0.6,0.1
			c-2.7,1.6-5.6,3-8.7,3.8c-3.4,0.9-6.8,1.1-10.1,0c-2.1-0.7-4-1.7-5.6-3c-1.6-1.3-3-2.9-4-4.9c-0.9-1.7-1.5-3.5-1.9-5.3
			c-0.3-1.3-0.2-2.5-0.4-3.7c-0.3-1.4-0.1-2.7,0.2-4c0.5-2.7,1.3-5.2,2.7-7.6c1.3-2.3,3-4.2,5.3-5.6c2.8-1.6,5.9-2,9-2.2
			c1.6-0.1,3.1-0.2,4.7,0.5c1.4,0.6,3,0.5,4.4,1c1.8,0.6,3.6,1.2,4.9,2.6c0.1,0.1,0.1,0.1,0.2,0.2l0,0c0.2,0.1,0.3,0,0.3-0.3
			c0-0.2,0.2-0.5,0.2-0.7c-0.1-2.6,0-5.3,0.2-7.9c0-0.4,0-0.8-0.2-1C43.5,5,43.2,4.8,42.9,4.6z"/>
		<path d="M28.2,59.7c-0.4,0-0.7,0-1.1,0c-2.8-0.3-5.6-0.9-9.2-2.2c-2.7-1-5.2-2.5-7.9-4.7C9.3,52.3,8.5,51.7,8,51
			c-1.9-2-3.5-4.3-4.7-6.9c-1.3-2.5-1.9-5.2-2.4-7.7c-0.3-1.5-0.5-2.9-0.6-4.4c0-0.4-0.1-0.9-0.1-1.3c-0.4-3.7,0.3-7.3,1-10.4
			c0.4-1.6,1.1-3.3,2.2-5.3C5.1,11.7,7,8.7,9.8,6.3c0.6-0.5,1.3-0.9,1.9-1.4c0.6-0.4,1.2-0.9,1.8-1.3c1.8-1.3,3.7-1.8,5.6-2.4
			c0.7-0.2,1.5-0.4,2.3-0.7c1-0.2,1.9-0.2,2.6-0.2c0.7,0,1.5-0.1,2.2-0.2C26.9,0,27.6,0,28.1,0c2.9,0.1,5.2,0.5,7.5,1.2
			c0.4,0.1,0.8,0.2,1.2,0.3c1.1,0.3,2.2,0.5,3.2,1.1c0.4,0.2,1,0.4,1.5,0.5c0.6,0.2,1.2,0.4,1.8,0.6c0,0,0.1,0,0.1,0.1l-0.5,0.7
			l0.5-0.7c0.3,0.2,0.7,0.5,1,0.9c0.4,0.4,0.4,1,0.4,1.5c-0.2,2.9-0.3,5.6-0.2,7.9c0,0.3-0.1,0.5-0.2,0.7c0,0,0,0.1,0,0.1
			c0,0.5-0.3,0.8-0.5,0.9c-0.3,0.2-0.7,0.2-1,0c-0.1,0-0.2-0.1-0.2-0.2l-0.2-0.2c-1.2-1.3-2.8-1.8-4.6-2.4c-0.6-0.2-1.2-0.3-1.9-0.4
			c-0.8-0.1-1.7-0.3-2.6-0.6c-1.4-0.6-2.7-0.5-4.3-0.4c-3.4,0.2-6.2,0.7-8.7,2.1c-2,1.2-3.7,3-5,5.3c-1.3,2.1-2.1,4.5-2.6,7.4
			c-0.3,1.4-0.5,2.5-0.2,3.7c0.1,0.6,0.1,1.2,0.2,1.7c0,0.7,0.1,1.3,0.2,2c0.4,1.9,1,3.6,1.8,5.1c0.9,1.8,2.2,3.3,3.8,4.7
			c1.5,1.2,3.3,2.2,5.4,2.9c2.9,1,6,0.9,9.6,0c2.7-0.7,5.4-1.9,8.5-3.7c0.1,0,0.1-0.1,0.2-0.1l0.1,0c0.3-0.1,0.9-0.3,1.3,0.2
			c0.3,0.3,0.4,0.7,0.4,1.2c0.2,2,0.2,4.1,0.1,6.1c-0.1,1.3-0.1,2.7-0.1,4c0,1-0.6,1.4-1,1.6c-1.7,1.4-3.9,2.1-5.9,2.7
			c-0.3,0.1-0.6,0.2-0.9,0.2c-1.3,0.3-2.5,0.7-3.9,0.8c-0.4,0-0.8,0.1-1.2,0.1C30.2,59.7,29.2,59.7,28.2,59.7z M27.7,1.7
			c-0.4,0-0.8,0.1-1.3,0.1C25.6,1.9,24.8,2,23.9,2c-0.7,0-1.4,0-2.1,0.2c-0.7,0.3-1.5,0.5-2.3,0.7c-1.8,0.5-3.5,1-5,2.1
			c-0.6,0.5-1.2,0.9-1.9,1.4c-0.6,0.4-1.2,0.9-1.8,1.3c-2.5,2.2-4.3,5-6,8.1c-1,1.9-1.7,3.4-2,4.9c-0.7,3-1.4,6.4-1,9.8
			c0,0.5,0.1,0.9,0.1,1.4c0.1,1.4,0.3,2.8,0.6,4.2c0.5,2.8,1.1,5.1,2.2,7.3c1.2,2.5,2.6,4.6,4.5,6.5c0.5,0.6,1.2,1.2,1.9,1.7
			c2.5,2.1,4.9,3.5,7.4,4.4c3.4,1.2,6.1,1.8,8.7,2.1c1.3,0.1,2.6,0,3.8-0.1c0.4,0,0.8-0.1,1.3-0.1c1.2-0.1,2.4-0.4,3.6-0.7
			c0.3-0.1,0.6-0.2,0.9-0.2c1.9-0.6,3.9-1.2,5.4-2.4c0.1-0.1,0.3-0.2,0.3-0.2c0-1.4,0-2.8,0.1-4.1c0.1-1.9,0.2-3.7,0-5.5
			c-3,1.8-5.8,3-8.5,3.6c-4,1-7.4,1-10.6,0c-2.3-0.8-4.2-1.8-5.9-3.2c-1.8-1.5-3.3-3.2-4.2-5.2c-0.9-1.6-1.5-3.5-2-5.5
			c-0.2-0.8-0.2-1.6-0.3-2.3c0-0.5-0.1-1-0.1-1.5c-0.3-1.6-0.1-3,0.2-4.3c0.6-3,1.5-5.6,2.8-7.9c1.4-2.6,3.3-4.5,5.6-5.9
			c3-1.7,6.3-2.1,9.4-2.3c1.7-0.1,3.3-0.2,5.1,0.6c0.6,0.3,1.4,0.4,2.2,0.5c0.7,0.1,1.5,0.2,2.2,0.5c1.5,0.5,3.1,1,4.5,2.1
			c-0.1-2.2,0-4.8,0.2-7.5c0-0.1,0-0.3,0-0.4c0,0,0,0,0-0.1c-0.1-0.1-0.3-0.3-0.5-0.4C42,5.1,41.5,5,41,4.8
			c-0.6-0.2-1.2-0.4-1.8-0.6c-0.9-0.5-1.8-0.7-2.8-0.9c-0.4-0.1-0.9-0.2-1.3-0.3c-2.2-0.7-4.4-1.1-7.1-1.2
			C27.9,1.7,27.8,1.7,27.7,1.7z M43.1,5.9C43.1,5.9,43.1,5.9,43.1,5.9C43.1,5.9,43.1,5.9,43.1,5.9z"/>
	</g>
	<g>
		<path class="st0" d="M43.7,14.2c0,0.3-0.2,0.5-0.2,0.7c0,0.4-0.2,0.5-0.3,0.3c0.2,0.1,0.3,0,0.3-0.3
			C43.6,14.7,43.7,14.5,43.7,14.2c0-2.6,0-5.3,0.2-7.9c0-0.4,0-0.8-0.2-1c0.2,0.3,0.3,0.6,0.2,1C43.7,8.9,43.7,11.6,43.7,14.2z"/>
		<path d="M43.3,16.2c-0.4,0-0.7-0.2-0.9-0.6c-0.2-0.3-0.1-0.7,0.2-1c0,0,0.1-0.1,0.1-0.1c0-0.1,0.1-0.2,0.1-0.2c0,0,0-0.1,0-0.1
			c0-2.6,0-5.3,0.2-8c0-0.1,0-0.3,0-0.4c0,0,0,0,0-0.1c-0.2-0.4-0.2-0.9,0.2-1.1c0.3-0.3,0.8-0.3,1.1,0.1c0.2,0.2,0.3,0.3,0.3,0.5
			c0.2,0.4,0.2,0.8,0.1,1.2c-0.1,0.7-0.1,1.4-0.1,2.2c-0.1,1.8-0.1,3.7-0.1,5.5c0,0,0,0.1,0,0.1c0,0,0,0,0,0c0,0,0,0,0,0
			c0,0.4-0.1,0.7-0.2,0.9c-0.1,0.6-0.4,0.9-0.8,1C43.5,16.2,43.4,16.2,43.3,16.2z"/>
	</g>
	<g>
		<path class="st0" d="M38.1,12.6c-1.4-0.5-3-0.4-4.4-1c-1.6-0.7-3.1-0.6-4.7-0.5c-3.1,0.1-6.2,0.5-9,2.2c-2.3,1.4-4,3.3-5.3,5.6
			c-1.4,2.4-2.2,4.9-2.7,7.6c-0.2,1.3-0.5,2.6-0.2,4c0.3,1.2,0.1,2.5,0.4,3.7c0.4,1.9,1,3.7,1.9,5.3c1,1.9,2.4,3.6,4,4.9
			c-1.6-1.3-3-2.9-4-4.9c-0.9-1.7-1.5-3.5-1.9-5.3c-0.3-1.3-0.2-2.5-0.4-3.7c-0.3-1.4-0.1-2.7,0.2-4c0.5-2.7,1.3-5.2,2.7-7.6
			c1.3-2.3,3-4.2,5.3-5.6c2.8-1.6,5.9-2,9-2.2c1.6-0.1,3.1-0.2,4.7,0.5C35.1,12.1,36.7,12.1,38.1,12.6c1.8,0.6,3.6,1.2,4.9,2.6
			c0.1,0.1,0.1,0.1,0.2,0.2c-0.1,0-0.1-0.1-0.2-0.2C41.7,13.7,39.8,13.2,38.1,12.6z"/>
		<path d="M18,45.4c-0.2,0-0.4-0.1-0.5-0.2c-1.8-1.5-3.3-3.2-4.2-5.2c-0.9-1.6-1.5-3.4-2-5.5c0,0,0,0,0,0c0-0.2-0.1-0.4-0.1-0.6
			c-0.1-0.6-0.1-1.1-0.2-1.7c0-0.5-0.1-1-0.1-1.5c0,0,0,0,0,0c-0.3-1.5-0.1-3,0.2-4.3c0-0.1,0-0.1,0-0.2c0.6-2.9,1.4-5.3,2.7-7.6
			c0,0,0,0,0,0c0,0,0,0,0,0c1.4-2.6,3.3-4.5,5.6-5.9c3.1-1.9,6.5-2.2,9.4-2.3c0.3,0,0.5,0,0.8,0c1.4-0.1,2.8,0,4.3,0.6c0,0,0,0,0,0
			c0.6,0.2,1.3,0.3,2,0.4c0.8,0.1,1.6,0.3,2.4,0.5l0,0c0.5,0.2,1,0.3,1.5,0.5c1.3,0.5,2.7,1.1,3.8,2.3l0.2,0.2
			c0.2,0.2,0.3,0.6,0.2,0.9c-0.1,0.3-0.4,0.5-0.8,0.5c-0.2,0-0.6-0.1-0.8-0.5c-0.9-0.9-1.9-1.4-3.1-1.9c-0.3-0.1-0.5-0.2-0.8-0.3
			l-0.6-0.2c0,0,0,0,0,0c-0.6-0.2-1.2-0.3-1.9-0.4c-0.8-0.1-1.7-0.3-2.6-0.6c-0.1,0-0.1-0.1-0.2-0.1c-1.4-0.5-2.6-0.5-4.1-0.4
			c-3.4,0.2-6.2,0.7-8.7,2.1c-2,1.2-3.7,3-5,5.2c0,0,0,0.1-0.1,0.1c-1.3,2.1-2.1,4.5-2.6,7.4l-0.1,0.5c-0.2,1.1-0.3,2.1-0.1,3.1
			c0.2,0.7,0.2,1.3,0.2,2c0,0.4,0,0.9,0.1,1.3c0,0.1,0.1,0.3,0.1,0.4c0.4,1.9,1,3.6,1.8,5.1c0,0,0,0,0,0c1,1.8,2.3,3.4,3.8,4.6
			c0.2,0.2,0.3,0.4,0.3,0.7c0,0.2-0.1,0.4-0.2,0.5C18.5,45.2,18.3,45.4,18,45.4z"/>
	</g>
	<g>
		<path class="st0" d="M43.3,54.1c0,0.4-0.3,0.6-0.6,0.9C41,56.3,39,57,37,57.6c-1.5,0.5-3,0.9-4.6,1c-1.7,0.1-3.5,0.3-5.2,0.2
			c-3.1-0.2-6-1.1-8.9-2.1c-2.8-1-5.3-2.6-7.6-4.5c-0.7-0.6-1.4-1.2-2-1.8c0.6,0.7,1.3,1.3,2,1.9c2.3,1.9,4.8,3.5,7.6,4.5
			c2.9,1,5.8,1.8,8.9,2.1c1.8,0.1,3.5-0.1,5.2-0.2c1.6-0.1,3.1-0.6,4.6-1c2-0.6,4.1-1.3,5.7-2.6C43.1,54.8,43.4,54.6,43.3,54.1
			c-0.1-3.4,0.4-6.7,0-10.1c0-0.3-0.1-0.5-0.2-0.6c0.1,0.1,0.2,0.3,0.2,0.6C43.7,47.4,43.2,50.8,43.3,54.1z"/>
		<path d="M28.2,59.8c-0.4,0-0.7,0-1.1,0c-2.8-0.3-5.6-0.9-9.2-2.2c-2.7-1-5.2-2.5-7.9-4.7c-0.7-0.6-1.5-1.3-2.1-2
			c-0.3-0.3-0.3-0.9,0.1-1.2c0.3-0.3,0.9-0.3,1.2,0c0.6,0.6,1.3,1.2,2,1.8c2.5,2,4.9,3.5,7.4,4.4c2.7,0.9,5.6,1.9,8.7,2.1
			c1.2,0.1,2.6,0,3.9-0.1c0.4,0,0.8-0.1,1.3-0.1c1.6-0.1,3.1-0.5,4.4-1c1.8-0.5,3.8-1.2,5.4-2.4l0.1-0.1c0.1-0.1,0.1-0.1,0.2-0.2
			c0-0.3,0-0.6,0-0.9c0-1.1,0-2.2,0.1-3.2c0-0.7,0.1-1.4,0.1-2.1c0-1.3,0-2.6-0.1-3.9l0-0.2c-0.2-0.2-0.2-0.4-0.2-0.6
			c0-0.2,0.1-0.4,0.3-0.6c0.3-0.3,0.9-0.3,1.2,0c0.3,0.3,0.4,0.7,0.4,1.2c0.1,0.8,0.1,1.6,0.2,2.3c0,1.3,0,2.6-0.1,3.8
			c0,0.9-0.1,1.7-0.1,2.5c0,0.5,0,0.9,0,1.4c0.2,1-0.5,1.4-0.9,1.7c-1.8,1.4-3.9,2.2-6,2.8c-0.3,0.1-0.6,0.2-0.9,0.2
			c-1.3,0.3-2.5,0.7-3.9,0.8c-0.4,0-0.8,0.1-1.2,0.1C30.2,59.8,29.2,59.8,28.2,59.8z"/>
	</g>
	<g>
		<path class="st0" d="M241.9,52.3c4.1,1.7,8.2,1.8,12.4,0.4c2.4-0.8,4.4-2.2,6.1-4c3.6-3.7,5.5-8.1,5.6-13.2c0-1.4-0.3-2.7-0.4-4
			c0-0.7-0.1-1.5-0.3-2.2c-0.4-2.2-1.2-4.2-2.2-6.1c-1.6-2.9-4.1-5-7.2-6.4c-3.6-1.6-7.5-2-11.4-1.5c-1.9,0.2-3.8,0.7-5.2,2.1
			c-0.3,0.3-0.6,0.3-0.9,0.1c-0.1-0.1-0.2-0.2-0.2-0.3s-0.1-0.3,0-0.5c0.1-0.7,0-1.2-0.1-1.5c-0.2-0.5-0.7-0.5-1.7-0.3
			c-0.2,0-0.4,0-0.6,0c-1.7,0-3.4,0-5.2,0c-0.8,0-1,0.4-1,1.1c0,1.1,0.2,2.2,0.2,3.3c0.1,4.1,0.1,8.3,0,12.4c0,2.7-0.1,5.4-0.3,8
			c-0.1,1,0,1.9,0,2.9c-0.1,2.7-0.2,5.4-0.2,8.1c0,0.2,0,0.4,0.1,0.6c0,0,0,0.1,0.1,0.1c0,0,0,0,0,0.1c0.1,0.2,0.4,0.4,0.9,0.4
			c2.4,0.3,4.8,0.1,7.2,0.1c0.5,0,0.8-0.2,0.8-0.8c0-2,0.1-3.9,0.1-5.9c0.2-3.9,0-7.9,0.2-11.8c0-0.9,0-1.8,0-2.7l0,0c0,0,0,0,0-0.1
			c0-0.4,0-0.8,0-1.2l0,0l0,0l0,0c0-0.6-0.1-1.1-0.1-1.7c0-0.8,0.2-1.5,0.9-2c2.7-1.8,5.6-2.9,8.9-2.5c1.1,0.1,2.2,0.2,3.1,0.7
			c2.7,1.7,4.4,3.9,5.2,6.7c0.3,1.1,0.6,2.2,0.6,3.4c0.2,2.7-1,5-2.2,7.3c-2.1,3.9-6.3,4.1-9.9,3.1c-1.3-0.3-2.5-1-4-1.4
			c0.4,1.2-0.1,2.3-0.1,3.5c0.1,1.1,0.1,2.3-0.1,3.4c-0.1,0.4-0.1,0.7-0.1,0.9C240.9,51.7,241.2,52,241.9,52.3z"/>
		<path d="M248.6,54.6c-2.4,0-4.7-0.5-7-1.4c0,0,0,0,0,0c-0.8-0.3-1.5-0.8-1.5-2.2c0-0.2,0-0.6,0.1-1.1c0.2-0.9,0.2-2,0.1-3.1
			c0-0.6,0.1-1,0.1-1.5c0.1-0.7,0.2-1.3,0-1.8c-0.1-0.3,0-0.6,0.2-0.9c0.2-0.2,0.5-0.3,0.8-0.2c0.8,0.2,1.5,0.5,2.1,0.8
			c0.6,0.3,1.2,0.5,1.8,0.6c2.5,0.7,6.9,1.2,9-2.7c1.2-2.3,2.3-4.4,2.1-6.9c0-1.2-0.3-2.2-0.6-3.2c-0.7-2.6-2.3-4.6-4.8-6.2
			c-0.7-0.4-1.7-0.5-2.7-0.6c-2.8-0.3-5.4,0.4-8.4,2.4c-0.4,0.3-0.5,0.6-0.5,1.3c0,0.3,0,0.5,0,0.8c0,0.3,0.1,0.6,0.1,0.9v4
			c-0.1,2-0.1,4-0.1,5.9c0,2,0,4-0.1,6c0,1,0,2,0,2.9c0,1-0.1,1.9-0.1,2.9c0,1-0.6,1.7-1.7,1.7c-0.7,0-1.4,0-2,0
			c-1.7,0-3.5,0.1-5.2-0.1c-0.7,0-1.3-0.3-1.6-0.9c0,0,0,0,0,0c-0.1-0.1-0.1-0.2-0.2-0.3c-0.1-0.3-0.1-0.6-0.1-0.9
			c0-2.7,0.1-5.4,0.2-8.1c0-0.4,0-0.7,0-1c0-0.6,0-1.3,0-2c0.2-2.6,0.3-5.2,0.3-7.9c0.1-4.1,0.1-8.3,0-12.4c0-0.5,0-1.1-0.1-1.6
			c-0.1-0.6-0.1-1.1-0.1-1.7c0-1.7,1.2-2,1.9-2h5.7c0.8-0.2,2.1-0.4,2.6,0.8c0.2,0.5,0.2,1,0.2,1.6c1.7-1.5,3.8-1.8,5.4-2
			c4.3-0.6,8.3,0,11.9,1.6c3.4,1.5,6,3.8,7.6,6.8c1.2,2.2,1.9,4.3,2.3,6.4c0.2,0.7,0.3,1.5,0.3,2.4c0,0.4,0.1,0.9,0.2,1.4
			c0.1,0.8,0.2,1.7,0.2,2.6c-0.1,5.3-2.1,9.9-5.9,13.8c-1.9,2-4.1,3.4-6.5,4.2C252.6,54.2,250.6,54.6,248.6,54.6z M242.3,51.5
			c3.9,1.6,7.8,1.7,11.8,0.4c2.2-0.7,4-2,5.8-3.8c3.5-3.6,5.3-7.8,5.4-12.7c0-0.8-0.1-1.6-0.2-2.4c-0.1-0.5-0.1-1.1-0.2-1.6
			c0-0.7-0.1-1.4-0.3-2c-0.4-2-1-3.9-2.1-6c-1.4-2.6-3.7-4.6-6.8-6c-3.3-1.5-7-1.9-11-1.4c-2.2,0.2-3.7,0.8-4.7,1.9
			c-0.6,0.6-1.3,0.6-2,0.2c0,0-0.1-0.1-0.1-0.1c-0.1-0.1-0.4-0.4-0.4-0.8c0-0.2-0.1-0.5,0-0.8c0-0.4,0-0.7,0-0.9
			c-0.1,0-0.3,0-0.8,0.1c-0.1,0-0.1,0-0.2,0h-5.8c-0.1,0-0.1,0-0.1,0c0,0,0,0.1,0,0.2c0,0.5,0,1,0.1,1.6c0.1,0.6,0.1,1.1,0.1,1.7
			c0.1,4.1,0.1,8.3,0,12.5c0,2.7-0.1,5.5-0.3,8.1c-0.1,0.6,0,1.2,0,1.8c0,0.3,0,0.7,0,1c0,0,0,0.1,0,0.1c-0.1,2.6-0.2,5.3-0.2,8
			c0,0,0,0.1,0,0.2c0,0.1,0.1,0.1,0.1,0.2c0.1,0,0.1,0,0.2,0c1.7,0.2,3.3,0.2,5,0.1c0.7,0,1.4,0,2,0c0-1,0-2,0-2.9
			c0-1,0.1-1.9,0.1-2.9c0.1-2,0.1-4,0.1-5.9c0-2,0-4,0.1-6l0-4c0-0.3,0-0.5,0-0.8c0-0.3-0.1-0.6-0.1-0.9c0-1.2,0.4-2.1,1.3-2.7
			c3.3-2.2,6.4-3,9.5-2.7c1.1,0.1,2.4,0.2,3.4,0.8c2.9,1.8,4.8,4.2,5.6,7.2c0.3,1.2,0.6,2.3,0.6,3.6c0.2,2.9-1.1,5.3-2.3,7.7
			c-2,3.6-5.9,4.9-10.9,3.5c-0.7-0.2-1.4-0.4-2.1-0.7c-0.2-0.1-0.5-0.2-0.7-0.3c0,0.4-0.1,0.8-0.1,1.1c-0.1,0.4-0.1,0.8-0.1,1.1
			c0.1,1.3,0.1,2.5-0.1,3.6c-0.1,0.4-0.1,0.6-0.1,0.8C241.8,51.3,241.8,51.3,242.3,51.5z M229.5,51.5L229.5,51.5L229.5,51.5z
			 M229.5,50.6C229.5,50.6,229.5,50.6,229.5,50.6C229.5,50.6,229.5,50.6,229.5,50.6z"/>
	</g>
</g>
</svg>
