<?xml version="1.0" encoding="utf-8"?>
<!-- Generator: Adobe Illustrator 27.5.0, SVG Export Plug-In . SVG Version: 6.00 Build 0)  -->
<svg version="1.1" id="Layer_1" xmlns="http://www.w3.org/2000/svg" xmlns:xlink="http://www.w3.org/1999/xlink" x="0px" y="0px"
	 viewBox="0 0 264.4 57.9" style="enable-background:new 0 0 264.4 57.9;" xml:space="preserve">
<style type="text/css">
	.st0{fill:#FFFFFF;}
</style>
<g>
	<path class="st0" d="M84.3,33.9c0.3-3.2,0-6.4,0.2-9.6c0.1-1.4,0-2.9,0-4.2l0,0c0.2-1.7,0-3.3,0-4.9c0-0.6-0.4-0.9-0.9-0.9
		c-2.7,0-5.4,0-8.1,0c-0.3,0-0.5,0-0.6,0.2c0,0.1-0.1,0.1-0.1,0.3c0,1.6-0.1,3.2-0.2,4.9c-0.1,1.8,0,3.6,0.1,5.4
		c0.2,4.7,0.2,9.3-0.5,14c-0.1,0.4-0.1,0.8-0.3,1.1c-0.4,1-1,1.8-2.1,2.4c-2,1-4.2,1.3-6.4,1.3c-1.3,0-2.8-0.2-3.8-1.3
		c-1.8-1.9-2.5-4.2-2.7-6.6c-0.2-3.1-0.2-6.2-0.2-9.3c-0.1-2.3,0.2-4.6,0-6.9c-0.1-1.7,0-3.4,0.2-5.1c0.1-0.5-0.1-0.7-0.6-0.7
		c-2.5,0-5,0-7.5,0c-0.3,0-0.5,0.1-0.6,0.3c0,0.1,0,0.2,0,0.3c-0.2,3.2-0.3,6.3-0.3,9.5c0,3.7-0.2,7.3,0.1,11c0.3,3.3,1,6.5,2.4,9.6
		c1,2.2,2.2,4.3,4.4,5.6c1.8,1,3.7,1.7,5.6,2.3c0.8,0.2,1.6,0.4,2.4,0.4c2.2,0,4.3-0.2,6.4-0.5c3.2-0.4,6.1-1.3,8.5-3.5
		c1.3-1.2,2.5-2.4,3.1-4.2c0.4-1.3,0.6-2.6,0.8-3.9c0-0.1,0-0.3,0.1-0.4C83.9,38,84.1,35.9,84.3,33.9z"/>
	<path class="st0" d="M79.7,48.6c-2.4,2.2-5.3,3-8.5,3.5c-2.1,0.3-4.3,0.6-6.4,0.5c-0.8,0-1.6-0.2-2.4-0.4c-1.9-0.6-3.8-1.2-5.6-2.3
		c-2.2-1.3-3.4-3.4-4.4-5.6c-1.3-3.1-2.1-6.2-2.4-9.6c-0.3-3.7-0.1-7.3-0.1-11c0-3.2,0.1-6.3,0.3-9.5c0-0.1,0-0.2,0-0.3
		c0,0.1,0,0.2,0,0.3c-0.2,3.2-0.3,6.3-0.3,9.5c0,3.7-0.2,7.3,0.1,11c0.3,3.3,1,6.5,2.4,9.6c1,2.2,2.2,4.3,4.4,5.6
		c1.8,1,3.7,1.7,5.6,2.3c0.8,0.2,1.6,0.4,2.4,0.4c2.2,0,4.3-0.2,6.4-0.5C74.3,51.7,77.3,50.8,79.7,48.6c1.3-1.2,2.5-2.4,3.1-4.2
		c0.4-1.3,0.6-2.6,0.8-3.9c-0.2,1.3-0.4,2.6-0.8,3.9C82.2,46.2,81,47.4,79.7,48.6z"/>
	<path class="st0" d="M74.8,25c-0.1-1.8-0.1-3.6-0.1-5.4c0.1-1.6,0.2-3.2,0.2-4.9c0-0.1,0-0.2,0.1-0.3c0,0.1-0.1,0.2-0.1,0.3
		c0,1.6-0.1,3.2-0.2,4.9C74.6,21.4,74.7,23.2,74.8,25c0.2,4.7,0.2,9.3-0.5,14c-0.1,0.4-0.1,0.8-0.3,1.1c0.1-0.3,0.2-0.7,0.3-1.1
		C75,34.3,74.9,29.6,74.8,25z"/>
	<path class="st0" d="M108,41.8c2.1-0.1,4.2-0.2,6.3-1c2.5-1,4.5-2.5,6-4.6c1.7-2.4,2.4-5.1,2.6-7.9c0.1-1.1-0.1-2.2-0.2-3.3
		c-0.2-1.9-0.6-3.7-1.4-5.5c-1.1-2.3-2.9-4-4.9-5.4c-0.6-0.4-1.2-0.7-1.9-1c-1.1-0.4-2.3-0.7-3.4-1c-1.4-0.3-2.7-0.1-4,0
		c-1.8,0.2-3.5,0.7-5.1,1.4c-1.3,0.5-2.4,1.3-3.4,2.2c-0.2,0.2-0.5,0.5-0.9,0.4c0,0,0,0,0,0c0,0,0,0,0,0c-0.5-0.2-0.3-0.6-0.3-0.9
		c0-0.1,0-0.3,0-0.4c0-0.5-0.1-0.8-0.5-0.9c-0.1,0-0.3,0-0.4,0c-1.2,0.2-2.4,0.2-3.6,0.2c-1,0-2,0-3,0c-0.7,0-1,0.2-0.9,0.9
		c0.1,0.8,0,1.5,0,2.3c0,2.6,0.1,5.1,0,7.7c-0.2,5.7-0.2,11.5,0,17.2c0.1,2.2,0,4.5-0.3,6.7c-0.1,0.5-0.2,1.4,0.4,1.6
		c0.1,0,0.2,0.1,0.3,0.1c2.2,0.1,4.4,0,6.6,0c0.4,0,0.5-0.1,0.5-0.5c0-1.3,0.1-2.6,0.2-3.9c0.2-2.2,0.1-4.4,0.2-6.5
		c0.1-3.6,0.4-7.2,0.5-10.7c0-1-0.1-2.1,0.6-3.1c1.1-1.6,2.6-2.5,4.2-3.6c2.3-1.5,4.6-2.3,7.3-1.6c0.2,0.1,0.4,0.1,0.6,0.2
		c1.4,0.4,2.7,1.2,3.5,2.5c0.7,1,0.8,2.1,0.9,3.2c0.2,1.4,0,2.7-0.7,3.9c-1.6,2.7-5.9,3.9-9.1,2.9c0,0,0,0,0,0c0,0,0,0,0,0
		c-1.3-0.4-2.4-1.1-3.8-1.8c0.3,2.6-0.2,5-0.1,7.4c0,0.7,0.3,1.1,0.9,1.3c1.2,0.4,2.5,0.8,3.7,1.1c0.1,0,0.3,0.1,0.4,0.1
		C106.3,41.6,107.2,41.8,108,41.8z"/>
	<path class="st0" d="M97.2,14.7c0,0.1,0,0.3,0,0.4c0,0.3-0.2,0.8,0.3,0.9c0,0,0,0,0,0c-0.5-0.2-0.3-0.6-0.3-0.9
		C97.2,15,97.2,14.8,97.2,14.7c0.1-0.5-0.1-0.8-0.5-0.9C97.1,13.9,97.3,14.2,97.2,14.7z"/>
	<polygon class="st0" points="100.6,31.4 100.6,31.4 100.6,31.4 	"/>
	<path class="st0" d="M121.3,19.5c-1.1-2.3-2.9-4-4.9-5.4c-0.6-0.4-1.2-0.7-1.9-1c0.7,0.3,1.3,0.6,1.9,1
		C118.3,15.5,120.2,17.2,121.3,19.5c0.8,1.7,1.2,3.6,1.4,5.5c0.1,1.1,0.3,2.2,0.2,3.3c-0.2,2.8-0.9,5.6-2.6,7.9
		c-1.5,2.1-3.5,3.6-6,4.6c-2.1,0.8-4.2,0.9-6.3,1c-0.8,0-1.6-0.2-2.4-0.4c-0.1,0-0.3-0.1-0.4-0.1c0.2,0,0.3,0.1,0.4,0.1
		c0.8,0.2,1.6,0.4,2.4,0.4c2.1-0.1,4.2-0.2,6.3-1c2.5-1,4.5-2.5,6-4.6c1.7-2.4,2.4-5.1,2.6-7.9c0.1-1.1-0.1-2.2-0.2-3.3
		C122.4,23.1,122.1,21.2,121.3,19.5z"/>
	<path class="st0" d="M101.8,22.2c-1.6,1-3.1,2-4.2,3.6c-0.7,1-0.5,2.1-0.6,3.1c-0.1,3.6-0.4,7.2-0.5,10.7c-0.1,2.2,0,4.4-0.2,6.5
		c-0.1,1.3-0.1,2.6-0.2,3.9c0,0.4-0.2,0.5-0.5,0.5c-2.2,0-4.4,0.1-6.6,0c-0.1,0-0.2,0-0.3-0.1c0.1,0,0.2,0.1,0.3,0.1
		c2.2,0.1,4.4,0,6.6,0c0.4,0,0.5-0.1,0.5-0.5c0-1.3,0.1-2.6,0.2-3.9c0.2-2.2,0.1-4.4,0.2-6.5c0.1-3.6,0.4-7.2,0.5-10.7
		c0-1-0.1-2.1,0.6-3.1C98.7,24.2,100.3,23.2,101.8,22.2c2.3-1.5,4.6-2.3,7.3-1.6c0.2,0.1,0.4,0.1,0.6,0.2c-0.2-0.1-0.4-0.1-0.6-0.2
		C106.4,19.9,104.1,20.7,101.8,22.2z"/>
	<path class="st0" d="M104.4,33.2c-1.3-0.4-2.4-1.1-3.8-1.8c0,0,0,0,0,0C102,32.2,103.1,32.8,104.4,33.2
		C104.4,33.2,104.4,33.2,104.4,33.2z"/>
	<path class="st0" d="M149.4,50.7c1.5,0,3,0.4,4.5,0.2c0.7-0.1,1.6,0.1,1.5-1c-0.1-3.3,0.1-6.5,0.2-9.8c0.1-4.1,0.2-8.3,0.3-12.4
		c0-2.2-0.3-4.3-0.2-6.5c0.1-2.1,0.1-4.2,0.2-6.3c0-0.3,0-0.5-0.1-0.6c-0.1-0.1-0.3-0.2-0.6-0.2c-2.1,0-4.1-0.1-6.2-0.1
		c-0.5,0-1,0.2-1,0.9c0,2.3,0,4.6,0,7c0,1.8,0,3.7,0,5.5c0,0.8-0.3,1.3-1.3,1.3c-1.3-0.1-2.7-0.1-4,0c-2.1,0.1-4.2-0.2-6.3,0.2
		c-0.2,0-0.5,0-0.7-0.1c-0.4-0.1-0.6-0.4-0.6-0.8c0.3-1.8,0-3.6,0-5.5c-0.1-1.5,0-3.1,0-4.6c0-1-0.4-1.9-0.1-3
		c0.1-0.2,0-0.6-0.3-0.7c-0.2-0.1-0.4-0.2-0.7-0.1c-0.9,0.1-1.9,0.2-2.9,0.2c-1.5,0-3,0.2-4.5-0.2c-0.5-0.1-1.1-0.2-1.1,0.7
		c0.1,3-0.1,6,0.1,8.9l0,0c0,0.9,0,1.8,0,2.7c0,0.4,0,0.7,0,1.1v0c0.3,5.6-0.2,11.3,0.2,17c0.1,1.8,0,3.6,0.2,5.4
		c0,0.4,0.2,0.7,0.5,0.8c0.1,0,0.2,0.1,0.4,0.1c2.1,0.3,4.1,0.1,6.2,0.1c0.4,0,1.3,0.2,1.3-0.8c0-2.2,0.1-4.5,0.1-6.7
		c0-2.1,0.1-4.2-0.1-6.2c0-0.5,0.1-0.7,0.6-0.8c0.7-0.2,1.4,0.1,2.2,0c3.2-0.3,6.5-0.3,9.8-0.2c0.2,0,0.4,0,0.6,0.1
		c0.4,0.2,0.5,0.5,0.4,1.1c-0.1,3.8-0.4,7.5-0.6,11.3c-0.1,1-0.1,1.6,0.2,1.8c0,0,0.1,0.1,0.2,0.1c0,0,0.1,0,0.1,0.1
		C148.1,50.7,148.6,50.7,149.4,50.7z"/>
	<path class="st0" d="M137.2,36.3c-0.7,0.1-1.4-0.2-2.2,0c-0.5,0.1-0.7,0.3-0.6,0.8c0.1,2.1,0.1,4.2,0.1,6.2c0,2.2,0,4.5-0.1,6.7
		c0,1-0.9,0.8-1.3,0.8c-2.1,0-4.1,0.2-6.2-0.1c-0.1,0-0.3,0-0.4-0.1c0.1,0,0.2,0.1,0.4,0.1c2.1,0.3,4.1,0.1,6.2,0.1
		c0.4,0,1.3,0.2,1.3-0.8c0-2.2,0.1-4.5,0.1-6.7c0-2.1,0.1-4.2-0.1-6.2c0-0.5,0.1-0.7,0.7-0.8C135.8,36.1,136.5,36.4,137.2,36.3
		c3.3-0.3,6.5-0.3,9.8-0.2c0.2,0,0.4,0,0.5,0.1c-0.1-0.1-0.3-0.1-0.6-0.1C143.7,36,140.4,36,137.2,36.3z"/>
	<path class="st0" d="M147.7,50.5c-0.1,0-0.1-0.1-0.2-0.1C147.6,50.4,147.6,50.5,147.7,50.5z"/>
	<path class="st0" d="M134.9,14.9c-0.3,1,0.1,2,0.1,3c0,1.5,0,3.1,0,4.6c0.1,1.8,0.3,3.6,0,5.5c-0.1,0.4,0.2,0.7,0.6,0.8
		c-0.4-0.1-0.6-0.4-0.6-0.8c0.3-1.8,0-3.6,0-5.5c-0.1-1.5,0-3.1,0-4.6C135,16.8,134.6,15.9,134.9,14.9c0.1-0.2,0-0.6-0.3-0.7
		C134.9,14.3,135,14.6,134.9,14.9z"/>
	<path class="st0" d="M155.8,14.9c0-0.3,0-0.5-0.1-0.6C155.8,14.5,155.8,14.7,155.8,14.9c-0.1,2.1-0.1,4.2-0.2,6.3
		c-0.1,2.2,0.2,4.3,0.2,6.5c0,4.1-0.2,8.3-0.3,12.4c-0.1,3.3-0.3,6.5-0.2,9.8c0,1.1-0.8,0.9-1.5,1c-1.5,0.1-3-0.2-4.5-0.2
		c-0.8,0-1.3,0-1.6-0.1c0.3,0.1,0.8,0.1,1.6,0.1c1.5,0,3,0.4,4.5,0.2c0.7-0.1,1.6,0.1,1.5-1c-0.1-3.3,0.1-6.5,0.2-9.8
		c0.1-4.1,0.2-8.3,0.3-12.4c0-2.2-0.3-4.3-0.2-6.5C155.7,19.1,155.7,17,155.8,14.9z"/>
	<path class="st0" d="M240.3,51.3c4.1,1.7,8.2,1.8,12.4,0.4c2.4-0.8,4.4-2.2,6.1-4c3.6-3.7,5.5-8.1,5.6-13.2c0-1.4-0.3-2.7-0.4-4
		c0-0.7-0.1-1.5-0.3-2.2c-0.4-2.2-1.2-4.2-2.2-6.1c-1.6-2.9-4.1-5-7.2-6.4c-3.6-1.6-7.5-2-11.4-1.5c-1.9,0.2-3.8,0.7-5.2,2.1
		c-0.3,0.3-0.6,0.3-0.9,0.1c-0.1-0.1-0.2-0.2-0.2-0.3c0-0.1-0.1-0.3,0-0.5c0.1-0.7,0-1.2-0.1-1.5c-0.2-0.5-0.7-0.5-1.7-0.3
		c-0.2,0-0.4,0-0.6,0c-1.7,0-3.4,0-5.2,0c-0.8,0-1,0.4-1,1.1c0,1.1,0.2,2.2,0.2,3.3c0.1,4.1,0.1,8.3,0,12.4c0,2.7-0.1,5.4-0.3,8
		c-0.1,1,0,1.9,0,2.9c-0.1,2.7-0.2,5.4-0.2,8.1c0,0.2,0,0.4,0.1,0.6c0,0,0,0.1,0.1,0.1c0,0,0,0,0,0.1c0.1,0.2,0.4,0.4,0.9,0.4
		c2.4,0.3,4.8,0.1,7.2,0.1c0.5,0,0.8-0.2,0.8-0.8c0-2,0.1-3.9,0.1-5.9c0.2-3.9,0-7.9,0.2-11.8c0-0.9,0-1.8,0-2.7c0,0,0,0,0,0
		c0,0,0,0,0-0.1c0-0.4,0-0.8,0-1.2l0,0l0,0l0,0c0-0.6-0.1-1.1-0.1-1.7c0-0.8,0.2-1.5,0.9-2c2.7-1.8,5.6-2.9,8.9-2.5
		c1.1,0.1,2.2,0.2,3.1,0.7c2.7,1.7,4.4,3.9,5.2,6.7c0.3,1.1,0.6,2.2,0.6,3.4c0.2,2.7-1,5-2.2,7.3c-2.1,3.9-6.3,4.1-9.9,3.1
		c-1.3-0.3-2.5-1-4-1.4c0.4,1.2-0.1,2.3-0.1,3.5c0.1,1.1,0.1,2.3-0.1,3.4c-0.1,0.4-0.1,0.7-0.1,0.9C239.3,50.7,239.6,51,240.3,51.3z
		"/>
	<path class="st0" d="M249.7,23.3c-0.9-0.6-2.1-0.6-3.1-0.7c-3.3-0.4-6.2,0.7-8.9,2.5c-0.7,0.5-0.8,1.2-0.9,2c0,0.6,0.1,1.1,0.1,1.7
		l0,0v0c0,0,0,0,0,0l0,0l0,0c0-0.6-0.1-1.1-0.1-1.7c0-0.8,0.2-1.5,0.9-2c2.7-1.8,5.6-2.9,8.9-2.5C247.6,22.7,248.7,22.7,249.7,23.3
		c2.7,1.7,4.4,3.9,5.2,6.7C254,27.2,252.4,24.9,249.7,23.3z"/>
	<path class="st0" d="M236.7,44.6c-0.1,2-0.2,3.9-0.1,5.9c0,0.6-0.3,0.8-0.8,0.8c-2.4-0.1-4.8,0.2-7.2-0.1c-0.5-0.1-0.7-0.2-0.9-0.4
		c0.1,0.2,0.4,0.4,0.9,0.4c2.4,0.3,4.8,0.1,7.2,0.1c0.5,0,0.8-0.2,0.8-0.8C236.5,48.5,236.6,46.5,236.7,44.6c0.2-3.9,0-7.9,0.2-11.8
		l0,0c0-0.9,0-1.8,0-2.7c0,0.9,0,1.8,0,2.7C236.7,36.7,236.9,40.6,236.7,44.6z"/>
	<polygon class="st0" points="236.8,28.7 236.8,28.7 236.8,28.7 	"/>
	<path class="st0" d="M263.8,28.3c0.1,0.7,0.2,1.4,0.3,2.2c0.1,1.3,0.4,2.7,0.4,4c0,5.1-2,9.5-5.6,13.2c-1.7,1.8-3.7,3.2-6.1,4
		c-4.2,1.4-8.3,1.3-12.4-0.4c-0.7-0.3-1-0.6-1.1-1.1c0.1,0.5,0.4,0.9,1.1,1.1c4.1,1.7,8.2,1.8,12.4,0.4c2.4-0.8,4.4-2.2,6.1-4
		c3.6-3.7,5.5-8.1,5.6-13.2c0-1.4-0.3-2.7-0.4-4C264,29.8,263.9,29,263.8,28.3z"/>
	<path class="st0" d="M236.5,15.8c0,0.2,0,0.3,0,0.5C236.5,16.1,236.4,16,236.5,15.8c0.1-0.7,0.1-1.2-0.1-1.5
		C236.5,14.6,236.5,15.1,236.5,15.8z"/>
	<path class="st0" d="M236.8,30c0-0.4,0-0.8,0-1.2l0,0l0,0C236.8,29.1,236.8,29.5,236.8,30z"/>
	<path class="st0" d="M227.6,50.6c0,0,0-0.1-0.1-0.1C227.6,50.6,227.6,50.6,227.6,50.6z"/>
	<path class="st0" d="M217.5,35.9c-1.4-3.1-2.5-6.4-3.6-9.6c-0.8-2.1-1.6-4.3-2.2-6.4c-0.5-1.5-1.2-2.9-1.7-4.4
		c-0.1-0.3-0.3-0.6-0.5-0.8c0,0,0,0,0,0c-0.1-0.1-0.2-0.1-0.3-0.2c-0.1,0-0.3-0.1-0.4-0.1c-2.4-0.1-4.8-0.3-7.2-0.2
		c-1,0-1.5,0.3-1.9,1.2c-2.3,5.3-4.6,10.6-6.9,15.9c-2.7,6.1-5.3,12.3-7.4,18.7c-0.3,0.8-0.3,1.2,0,1.3c0.2,0.1,0.6,0.1,1.1,0.1
		c0,0,0.1,0,0.1,0c1.7,0,3.4,0.1,5.1,0c0.8-0.1,1.9,0.3,2.4-0.8c1-2.3,1.9-4.5,2.8-6.8c0.2-0.6,0.5-0.7,1-0.7c3.3,0,6.5,0,9.8,0
		c1,0,1.2-0.2,1-1.1c-0.5-2-1.2-3.9-2-5.8c-0.1-0.3-0.3-0.5-0.5-0.6c-0.2-0.1-0.4-0.1-0.7-0.1c-1.4,0-2.9,0-4.3,0
		c-0.2,0-0.4,0-0.6-0.1c0,0,0,0-0.1,0c0,0-0.1,0-0.1-0.1c-0.2-0.2-0.2-0.6,0-1.1c0.6-1.5,1.4-2.9,2-4.4c0.5-1.3,1.2-2.5,1.7-3.7
		c0.1-0.3,0.4-0.6,0.8-0.6c0.1,0,0.2,0,0.3,0.1c0.2,0.1,0.2,0.4,0.3,0.6c0.3,0.6,0.5,1.1,0.7,1.7c1.6,4.1,3.1,8.2,4.8,12.3
		c1.4,3.3,2.7,6.6,3.8,10c0.2,0.7,0.5,1,0.9,1.2c0.3,0.1,0.6,0.1,1,0.1c2.6-0.1,5.3,0,8,0l0,0c0,0,0,0,0,0c-1-2.6-2.2-4.9-3.1-7.3
		C220.2,41.4,218.8,38.7,217.5,35.9z"/>
	<path class="st0" d="M200.4,35.4C200.4,35.4,200.4,35.4,200.4,35.4C200.4,35.4,200.4,35.4,200.4,35.4z"/>
	<path class="st0" d="M209.1,14.5c0.1,0,0.2,0.1,0.3,0.2C209.3,14.6,209.2,14.6,209.1,14.5z"/>
	<path class="st0" d="M216.4,51.5c-0.4,0-0.7,0-1-0.1C215.7,51.5,216,51.5,216.4,51.5c2.6-0.1,5.3,0,8,0l0,0
		C221.7,51.5,219.1,51.5,216.4,51.5z"/>
	<path class="st0" d="M206.5,36.2c0.8,1.9,1.4,3.9,2,5.8c0.2,0.9,0,1.1-1,1.1c-3.3,0-6.5,0-9.8,0c-0.5,0-0.8,0.1-1,0.7
		c-0.9,2.3-1.8,4.5-2.8,6.8c-0.4,1.1-1.5,0.7-2.4,0.8c-1.7,0.1-3.4,0-5.1,0c0,0-0.1,0-0.1,0c-0.5,0-0.9,0-1.1-0.1
		c0.2,0.1,0.6,0.1,1.1,0.1c0,0,0.1,0,0.1,0c1.7,0,3.4,0.1,5.1,0c0.8-0.1,1.9,0.3,2.4-0.8c1-2.3,1.9-4.5,2.8-6.8
		c0.2-0.6,0.5-0.7,1-0.7c3.3,0,6.5,0,9.8,0c1,0,1.2-0.2,1-1.1C207.9,40.1,207.3,38.1,206.5,36.2c-0.1-0.3-0.3-0.5-0.5-0.6
		C206.3,35.7,206.4,35.9,206.5,36.2z"/>
	<path class="st0" d="M204.8,25.5c-0.4,0-0.7,0.3-0.8,0.6c-0.5,1.3-1.1,2.5-1.7,3.7c-0.6,1.5-1.4,2.9-2,4.4c-0.2,0.5-0.2,0.9,0,1.1
		c-0.2-0.2-0.2-0.6,0-1c0.6-1.5,1.4-2.9,2-4.4c0.5-1.3,1.2-2.5,1.6-3.7C204,25.8,204.4,25.5,204.8,25.5c0.1,0,0.2,0,0.3,0.1
		C205,25.5,204.9,25.5,204.8,25.5z"/>
	<path class="st0" d="M217.5,35.9c-1.4-3.1-2.5-6.4-3.6-9.6c-0.8-2.1-1.6-4.3-2.2-6.4c-0.5-1.5-1.2-2.9-1.7-4.4
		c-0.1-0.3-0.3-0.6-0.5-0.8c0.2,0.2,0.4,0.4,0.5,0.8c0.5,1.5,1.3,2.9,1.7,4.4c0.7,2.2,1.5,4.3,2.2,6.4
		C215,29.5,216.2,32.7,217.5,35.9c1.2,2.8,2.7,5.5,3.8,8.3c0.9,2.4,2.2,4.7,3.1,7.3c0,0,0,0,0,0l0,0c-1-2.6-2.2-4.9-3.2-7.3
		C220.2,41.4,218.8,38.7,217.5,35.9z"/>
	<path class="st0" d="M181.4,49.9c0.7-2.3,1.8-4.5,2.8-7c-0.7,0.3-1.2,0-1.7,0c-3.8,0.1-7.6,0.1-11.4,0.2c-0.8,0-0.9-0.2-0.9-0.8
		c-0.1-1.7,0.2-3.4,0-5.1c-0.1-0.4,0-0.6,0.2-0.8c0.2-0.2,0.5-0.2,0.9-0.2c3.1,0,6.2,0,9.3,0c0.3,0,0.5,0,0.7-0.2
		c0.1-0.1,0.2-0.3,0.2-0.7c-0.1-1.7-0.1-3.5,0-5.2c0-0.8-0.1-0.9-0.8-0.9c-2.9,0-5.8,0-8.8,0c-1,0-1.4-0.5-1.3-1.4
		c0.2-1.6,0.4-3.2,0.4-4.8c0-0.4,0.1-0.6,0.4-0.7c0.1,0,0.2,0,0.3,0c3.1,0.2,6.2-0.3,9.2-0.3c1.1,0,2.2,0,3.2,0c0.2,0,0.4,0,0.4-0.1
		c0.1-0.1,0.1-0.2,0-0.5c-0.8-2.3-1.5-4.5-2.3-6.8c-0.1-0.3-0.2-0.5-0.5-0.5c-0.9,0-1.7-0.2-2.6-0.2c-2,0-4.1,0.2-6.1,0.2
		c-3.5-0.1-6.9,0.1-10.4,0c-0.3,0-0.4,0-0.5,0.1c-0.1,0.1-0.1,0.3-0.1,0.5c0,3.6-0.1,7.2-0.2,10.8c0,2.5-0.1,5,0,7.5
		c0.1,2-0.2,4-0.2,6c0.1,2.3-0.2,4.7-0.3,7c0,1.1,0,2.2-0.3,3.4c-0.3,1.2,0,1.6,1.3,1.5c2.8-0.2,5.6,0.2,8.4,0.1c3-0.1,6,0,8.9,0.1
		c0.5,0,0.9,0,1.2-0.2C181,50.8,181.2,50.5,181.4,49.9z"/>
	<polygon class="st0" points="184.1,42.9 184.1,42.9 184.1,42.9 184.1,42.9 	"/>
	<path class="st0" d="M170.7,23c0,1.6-0.2,3.2-0.4,4.8c-0.1,1,0.3,1.4,1.3,1.4c2.9,0,5.8,0,8.8,0c0.7,0,0.9,0.1,0.8,0.9
		c-0.1,1.7-0.1,3.5,0,5.2c0,0.3,0,0.5-0.2,0.7c0.1-0.1,0.2-0.3,0.2-0.7c-0.1-1.7-0.1-3.5,0-5.2c0-0.8-0.1-0.9-0.8-0.9
		c-2.9,0-5.8,0-8.8,0c-1,0-1.4-0.5-1.3-1.4C170.5,26.2,170.7,24.6,170.7,23c0-0.4,0.1-0.6,0.4-0.7C170.8,22.3,170.7,22.6,170.7,23z"
		/>
	<path class="st0" d="M172.8,14c2,0.1,4.1-0.2,6.1-0.2c0.9,0,1.7,0.2,2.6,0.2c0.3,0,0.4,0.2,0.5,0.5c0.7,2.3,1.5,4.6,2.3,6.8
		c0.1,0.3,0.1,0.4,0,0.5c0.1-0.1,0.1-0.2,0-0.5c-0.8-2.3-1.5-4.6-2.3-6.8c-0.1-0.3-0.2-0.5-0.5-0.5c-0.9,0-1.7-0.2-2.6-0.2
		C176.9,13.9,174.9,14.1,172.8,14c-3.5-0.1-6.9,0.1-10.4,0c-0.3,0-0.4,0-0.5,0.1c0.1-0.1,0.2-0.2,0.5-0.1
		C165.9,14.1,169.4,13.9,172.8,14z"/>
	<path class="st0" d="M170.1,37.1c0.2,1.7-0.1,3.4,0,5.1c0,0.6,0.1,0.8,0.9,0.8c3.8-0.1,7.6-0.1,11.4-0.2c0.5,0,1,0.3,1.7,0
		c0,0,0,0,0,0c-0.7,0.3-1.2,0-1.7,0c-3.8,0.1-7.6,0.1-11.4,0.2c-0.8,0-0.9-0.2-0.9-0.8C170,40.5,170.4,38.8,170.1,37.1
		c-0.1-0.4,0-0.6,0.2-0.8C170.1,36.5,170.1,36.7,170.1,37.1z"/>
	<polygon class="st0" points="184.2,42.9 184.2,42.9 184.2,42.9 	"/>
	<path class="st0" d="M184.1,42.9C184.1,42.9,184.1,42.9,184.1,42.9c-1,2.5-2.1,4.7-2.8,7c-0.2,0.6-0.4,0.9-0.7,1.1
		c0.3-0.2,0.5-0.5,0.7-1.1C182.1,47.6,183.1,45.4,184.1,42.9C184.2,42.9,184.1,42.9,184.1,42.9L184.1,42.9z"/>
	<path class="st0" d="M41.9,3.7c-1.1-0.5-2.3-0.7-3.4-1.2c-1.3-0.7-2.8-0.9-4.2-1.3C32.2,0.5,30,0.1,27,0l0,0
		c-0.8-0.1-2.4,0.3-4,0.3c-0.7,0-1.5,0-2.3,0.2c-2.6,0.9-5.3,1.2-7.6,2.9c-1.2,0.9-2.5,1.8-3.7,2.7c-2.7,2.3-4.5,5.3-6.2,8.3
		c-0.9,1.6-1.7,3.3-2.1,5.1c-0.8,3.3-1.4,6.7-1,10.1c0.2,1.9,0.3,3.7,0.7,5.6c0.5,2.6,1.1,5.1,2.3,7.5c1.2,2.5,2.7,4.7,4.6,6.7
		c0.6,0.7,1.3,1.3,2,1.8c2.3,1.9,4.8,3.5,7.6,4.5c2.9,1,5.8,1.8,8.9,2.1c1.8,0.1,3.5-0.1,5.2-0.2c1.6-0.1,3.1-0.6,4.6-1
		c2-0.6,4.1-1.3,5.7-2.6c0.3-0.2,0.6-0.4,0.6-0.9c-0.1-3.4,0.4-6.7,0-10.1c0-0.3-0.1-0.5-0.2-0.6c-0.1-0.1-0.3,0-0.6,0.1
		c-2.7,1.6-5.6,3-8.7,3.8c-3.4,0.9-6.8,1.1-10.1,0c-2.1-0.7-4-1.7-5.6-3c-1.6-1.3-3-2.9-4-4.9c-0.9-1.7-1.5-3.5-1.9-5.3
		c-0.3-1.3-0.2-2.5-0.4-3.7c-0.3-1.4-0.1-2.7,0.2-4c0.5-2.7,1.3-5.2,2.7-7.6c1.3-2.3,3-4.2,5.3-5.6c2.8-1.6,5.9-2,9-2.2
		c1.6-0.1,3.1-0.2,4.7,0.5c1.4,0.6,3,0.5,4.4,1c1.8,0.6,3.6,1.2,4.9,2.6c0.1,0.1,0.1,0.1,0.2,0.2c0,0,0,0,0,0c0.2,0.1,0.3,0,0.3-0.3
		c0-0.2,0.2-0.5,0.2-0.7c-0.1-2.6,0-5.3,0.2-7.9c0-0.4,0-0.8-0.2-1C42.5,4.1,42.2,3.9,41.9,3.7z"/>
	<path class="st0" d="M42.7,13.3c0,0.3-0.2,0.5-0.2,0.7c0,0.4-0.2,0.5-0.3,0.3c0.2,0.1,0.3,0,0.3-0.3C42.6,13.8,42.7,13.6,42.7,13.3
		c0-2.6,0-5.3,0.2-7.9c0-0.4,0-0.8-0.2-1c0.2,0.3,0.3,0.6,0.2,1C42.7,8,42.7,10.7,42.7,13.3z"/>
	<path class="st0" d="M37.1,11.7c-1.4-0.5-3-0.4-4.4-1c-1.6-0.7-3.1-0.6-4.7-0.5c-3.1,0.1-6.2,0.5-9,2.2c-2.3,1.4-4,3.3-5.3,5.6
		c-1.4,2.4-2.2,4.9-2.7,7.6c-0.2,1.3-0.5,2.6-0.2,4c0.3,1.2,0.1,2.5,0.4,3.7c0.4,1.9,1,3.7,1.9,5.3c1,1.9,2.4,3.6,4,4.9
		c-1.6-1.3-3-2.9-4-4.9c-0.9-1.7-1.5-3.5-1.9-5.3c-0.3-1.3-0.2-2.5-0.4-3.7c-0.3-1.4-0.1-2.7,0.2-4c0.5-2.7,1.3-5.2,2.7-7.6
		c1.3-2.3,3-4.2,5.3-5.6c2.8-1.6,5.9-2,9-2.2c1.6-0.1,3.1-0.2,4.7,0.5C34.1,11.2,35.7,11.2,37.1,11.7c1.8,0.6,3.6,1.2,4.9,2.6
		c0.1,0.1,0.1,0.1,0.2,0.2c-0.1,0-0.1-0.1-0.2-0.2C40.7,12.8,38.8,12.3,37.1,11.7z"/>
	<path class="st0" d="M42.3,53.1c0,0.4-0.3,0.6-0.6,0.9c-1.7,1.3-3.7,2-5.7,2.6c-1.5,0.5-3,0.9-4.6,1c-1.7,0.1-3.5,0.3-5.2,0.2
		c-3.1-0.2-6-1.1-8.9-2.1c-2.8-1-5.3-2.6-7.6-4.5c-0.7-0.6-1.4-1.2-2-1.8c0.6,0.7,1.3,1.3,2,1.9c2.3,1.9,4.8,3.5,7.6,4.5
		c2.9,1,5.8,1.8,8.9,2.1c1.8,0.1,3.5-0.1,5.2-0.2c1.6-0.1,3.1-0.6,4.6-1c2-0.6,4.1-1.3,5.7-2.6C42.1,53.8,42.4,53.6,42.3,53.1
		c-0.1-3.4,0.4-6.7,0-10.1c0-0.3-0.1-0.5-0.2-0.6c0.1,0.1,0.2,0.3,0.2,0.6C42.7,46.4,42.2,49.8,42.3,53.1z"/>
</g>
</svg>
