<svg width="44" height="32" viewBox="0 0 44 32" fill="none" xmlns="http://www.w3.org/2000/svg">
<path d="M14.6097 0.777832C12.0222 0.777832 9.54073 1.80213 7.71111 3.62541C5.88148 5.44868 4.85361 7.92156 4.85361 10.5001V28.0001H0.951172V31.8889H39.9756C41.0106 31.8889 42.0032 31.4792 42.735 30.7499C43.4669 30.0206 43.878 29.0315 43.878 28.0001V10.5001C43.878 9.22331 43.6257 7.95908 43.1354 6.77952C42.6451 5.59997 41.9264 4.5282 41.0205 3.62541C40.1146 2.72261 39.0391 2.00648 37.8554 1.51789C36.6717 1.0293 35.4031 0.777832 34.1219 0.777832H14.6097ZM14.6097 4.66672C16.1622 4.66672 17.6511 5.2813 18.7489 6.37527C19.8466 7.46923 20.4634 8.95296 20.4634 10.5001V28.0001H8.75605V10.5001C8.75605 8.95296 9.37277 7.46923 10.4705 6.37527C11.5683 5.2813 13.0572 4.66672 14.6097 4.66672ZM24.3658 18.2778V6.61117H32.1707V10.5001H28.2682V18.2778H24.3658Z" fill="#FEFEFE"/>
</svg>
