<svg width="44" height="41" viewBox="0 0 44 41" fill="none" xmlns="http://www.w3.org/2000/svg">
<g clip-path="url(#clip0_549_454)">
<path d="M18.798 39.6098C18.7819 39.5454 17.8165 39.0946 17.4143 38.8531C16.9584 38.5793 16.4596 38.3861 16.0467 38.0373C15.9019 37.9138 15.7195 37.8279 15.5532 37.726C15.4245 37.5971 15.2904 37.42 15.0866 37.5113C14.6951 37.6938 14.2661 37.785 13.8746 37.9621C12.1583 38.0587 10.9087 37.2483 9.99693 35.8796C9.46061 35.0746 9.60542 33.722 10.485 33.0887C10.6191 32.9921 10.662 32.9599 10.4689 32.8472C9.54642 32.3212 8.5864 31.8596 7.67465 31.3122C6.8219 30.8023 6.01205 30.2226 5.18611 29.6698C4.38162 29.1277 3.60395 28.5642 2.92819 27.8557C2.55812 27.4693 2.0808 27.1741 1.79654 26.7071C1.49084 26.1919 1.26022 25.639 1.05105 25.0755C0.87943 24.6085 0.616632 24.1792 0.477187 23.6961C0.198299 22.7515 -0.0698628 21.7961 0.0105857 20.7978C0.0695814 20.0572 0.230478 19.3272 0.616632 18.6617C0.916973 18.1411 1.17441 17.5882 1.46939 17.0569C1.52302 16.9603 1.65174 16.912 1.73218 16.8261C2.6493 15.8546 3.77022 15.173 4.96622 14.6202C5.63662 14.3089 6.36066 14.325 7.0847 14.4323C7.34213 14.4699 7.41185 14.4216 7.34213 14.164C7.27241 13.9064 7.1866 13.6541 7.1276 13.3965C6.99352 12.8544 7.19196 12.4465 7.59957 12.0761C8.39333 11.3516 9.35334 10.8793 10.2276 10.2781C10.3724 10.1761 10.3724 10.0903 10.3134 9.93999C9.94866 9.01684 9.62687 8.07758 9.22463 7.17052C8.93501 6.52109 8.71512 5.84482 8.39869 5.20613C8.25924 4.92167 8.23779 4.5889 8.06617 4.31517C7.96963 4.15416 7.87309 3.98777 7.78192 3.82139C7.60493 3.48862 7.69074 3.22026 7.83019 2.90897C8.14125 2.19513 8.59177 1.55107 9.16563 1.07875C9.74486 0.601074 10.3831 0.177065 11.209 0.0375183C12.1583 -0.123498 12.9414 0.193167 13.7619 0.504464C14.3036 1.41152 14.7917 2.33468 15.2261 3.30077C15.816 4.6211 16.4918 5.8985 16.9101 7.2886C16.9638 7.46572 17.0603 7.55696 17.2534 7.44425C17.3285 7.40131 17.4197 7.39058 17.5001 7.36374C18.3421 7.16515 19.1842 6.95047 20.0262 6.76798C20.7073 6.62307 21.3992 6.51036 22.0857 6.40838C22.6381 6.32787 23.2012 6.2742 23.7483 6.16149C23.9574 6.11855 24.1559 6.14539 24.3597 6.12928C25.4484 6.04341 26.5425 6.03268 27.6313 6.07025C28.4572 6.09708 29.2831 6.18832 30.1091 6.24736C30.5381 6.27957 30.9672 6.21516 31.4016 6.30103C32.013 6.42448 32.6352 6.49425 33.2519 6.60697C33.9331 6.73041 34.6142 6.85922 35.2846 7.02561C36.604 7.35301 37.9179 7.70724 39.1408 8.32984C39.2748 8.39961 39.4036 8.49085 39.5323 8.57136C39.7254 8.87729 39.6503 9.19932 39.6127 9.53209C39.5269 10.2674 39.3338 10.9812 39.1622 11.6951C39.1193 11.8722 39.1515 11.9044 39.3124 11.899C39.5269 11.8883 39.7468 11.8883 39.9613 11.8883C40.4172 12.0386 40.8785 12.1727 41.3021 12.4089C41.5542 12.5485 41.8009 12.6826 42.0316 12.849C42.3158 13.2355 42.5947 13.6326 42.895 14.0137C43.1578 14.3411 43.3295 14.7061 43.4689 15.1032C43.6673 15.6668 43.8336 16.2464 43.9087 16.8315C43.9784 17.3736 44.0589 17.9317 43.898 18.4792C43.6298 19.3916 43.2222 20.2396 42.7878 21.0823C42.1495 22.3167 41.4523 23.5244 40.9643 24.834C40.8838 25.0486 40.8838 25.2687 40.916 25.4727C41.0823 26.4817 41.0983 27.4961 41.1359 28.5105C41.1681 29.2458 41.0233 29.9704 40.9804 30.7057C40.9321 31.5054 40.68 32.2461 40.4387 32.9921C40.1383 33.926 39.4626 34.6076 38.8297 35.3107C32.8068 41.5689 25.6093 42.111 18.7926 39.6098H18.798ZM6.15686 20.5134C6.15686 20.2879 6.18904 20.0679 6.28021 19.8532C6.30166 19.7995 6.38748 19.7083 6.31239 19.6439C6.22658 19.5741 6.14077 19.6492 6.07104 19.6976C5.71707 19.9391 5.38455 20.2182 5.21829 20.6207C4.85895 21.5009 4.86432 22.3865 5.21829 23.2721C5.72243 24.528 6.661 25.419 7.70683 26.2187C8.18952 26.5944 8.67758 26.9701 9.18172 27.3619C9.19781 27.1258 9.2139 26.9218 9.21926 26.7232C9.22463 26.063 9.20854 25.4082 9.29435 24.7481C9.34262 24.3724 9.43916 24.002 9.43379 23.621C9.43379 23.4922 9.4177 23.4117 9.25681 23.4278C8.74194 23.4761 8.2807 23.2721 7.84091 23.0574C6.78435 22.5529 6.36066 21.6029 6.15686 20.5134ZM38.0735 13.3321C38.0735 13.214 38.0628 13.0959 38.0735 12.9778C38.111 12.6612 37.9769 12.5162 37.6659 12.4196C37.2529 12.2908 36.8292 12.1781 36.4109 12.0654C35.8692 11.9205 35.3436 11.7165 34.7858 11.6521C34.1798 11.5824 33.5845 11.4428 32.9677 11.3999C32.2865 11.3516 31.6054 11.212 30.9189 11.1315C30.1413 11.0403 29.3582 11.0617 28.5752 11.0081C27.2344 10.9168 25.8828 11.0134 24.542 11.1476C23.4426 11.255 22.3485 11.4482 21.249 11.6038C20.2139 11.7487 19.2163 12.0225 18.2295 12.366C17.4465 12.6397 16.6688 12.9403 15.8858 13.2086C13.9121 13.8795 12.0135 14.6953 10.3187 15.9459C10.2061 16.0318 10.1686 16.0801 10.2919 16.182C10.8068 16.6222 11.091 17.234 11.4236 17.8029C11.5737 18.0606 11.7185 18.3289 11.8043 18.6295C12.0189 19.3809 12.0081 20.1323 11.9116 20.8944C11.8419 21.4419 11.6434 21.8927 11.1768 22.2631C10.7746 22.5797 10.2544 22.8481 10.249 23.519C10.249 24.1309 10.1203 24.7373 10.0774 25.3492C10.013 26.2938 10.131 27.2331 10.2007 28.1724C10.2168 28.3763 10.2758 28.5749 10.4957 28.7037C10.9248 28.956 11.3217 29.2619 11.7507 29.5142C12.9038 30.1904 14.0301 30.8882 14.9526 31.8811C15.5908 32.5681 16.1218 33.2927 16.2558 34.248C16.3738 35.0585 16.347 35.8313 15.7624 36.47C15.623 36.6203 15.6283 36.6901 15.8053 36.7974C16.4328 37.1624 17.0174 37.581 17.6449 37.946C18.8195 38.6276 20.0476 39.1429 21.367 39.4381C22.1715 39.6206 22.976 39.7709 23.7965 39.8728C24.6171 39.9748 25.4323 39.9587 26.2368 39.8943C27.1486 39.8245 28.0764 39.7977 28.9828 39.6259C29.4387 39.5401 29.9106 39.5615 30.3719 39.4649C31.0798 39.3093 31.7395 39.0409 32.3831 38.7028C33.0642 38.3486 33.7668 38.048 34.4318 37.6616C35.29 37.1624 36.0515 36.5291 36.8292 35.9226C37.9287 35.0638 38.9155 34.1031 39.4518 32.7667C39.6932 32.1709 39.9345 31.5859 40.0311 30.9418C40.0793 30.6037 40.1115 30.2656 40.1544 29.9274C40.2349 29.3156 40.3475 28.6983 40.2617 28.0811C40.2027 27.6678 40.2134 27.2599 40.2027 26.8467C40.192 26.53 40.1437 26.4817 39.8487 26.5783C38.5991 26.9808 37.5801 27.7322 36.6951 28.693C36.5932 28.8057 36.561 28.9345 36.5879 29.074C36.6951 29.5732 36.4216 30.3192 36.014 30.6091C35.1666 31.2102 34.2602 31.4732 33.2037 31.2585C32.4474 31.1028 31.9701 30.6037 31.761 29.9811C31.5625 29.3907 31.6751 28.7144 32.249 28.2421C32.6834 27.8825 33.1929 27.7537 33.7346 27.6786C34.1422 27.6195 34.5498 27.6839 34.9574 27.6839C35.2792 27.6839 35.3168 27.6303 35.1398 27.3458C34.9038 26.9701 34.7483 26.5568 34.5713 26.1543C34.3192 25.5961 34.3031 24.9842 34.1744 24.3992C34.0779 23.9645 34.0564 23.5083 34.0511 23.0628C34.0511 22.7569 34.1476 22.4456 34.1637 22.1396C34.2066 21.356 34.3997 20.6207 34.7697 19.9337C34.8824 19.7244 35.0003 19.5204 35.1076 19.3111C35.6761 18.2216 37.0169 17.599 38.2612 18.1303C38.4918 18.2269 38.4918 18.1357 38.4972 17.9586C38.4972 17.3736 38.3631 16.7993 38.2934 16.2196C38.1861 15.2589 38.1271 14.2928 38.0788 13.3267L38.0735 13.3321ZM23.7644 7.07391C23.6678 7.08465 23.5659 7.08465 23.4694 7.10075C22.8526 7.19199 22.2412 7.3047 21.6244 7.37447C21.0935 7.43888 20.5679 7.55159 20.0476 7.65894C19.4094 7.79848 18.7712 7.96487 18.1383 8.13662C16.9155 8.47475 15.6873 8.79141 14.5021 9.26909C13.2256 9.77898 12.0081 10.4016 10.7639 10.9759C9.93794 11.3569 9.23535 11.9581 8.44696 12.4035C8.00181 12.6504 7.93745 12.9134 8.05544 13.4179C8.15734 13.8741 8.43623 14.2767 8.43087 14.7651C8.43087 14.8456 8.47377 14.91 8.54886 14.9154C8.96183 14.9208 9.22463 15.2267 9.53033 15.4253C10.0237 15.7419 10.013 15.7688 10.5118 15.4414C10.603 15.3823 10.6888 15.3179 10.78 15.2535C11.445 14.749 12.1744 14.3518 12.936 14.0298C14.0033 13.579 15.0866 13.1549 16.1807 12.7578C17.7307 12.1888 19.27 11.6092 20.9058 11.3033C22.1447 11.0725 23.3889 10.89 24.6386 10.788C25.7327 10.6968 26.8321 10.6216 27.937 10.6216C29.0579 10.6216 30.1681 10.7934 31.289 10.788C31.5089 10.788 31.7502 10.8202 31.9808 10.8632C32.4582 10.9598 32.9462 11.0242 33.4289 11.0617C34.3299 11.1315 35.1934 11.4052 36.0784 11.5663C36.5128 11.6468 36.9204 11.8614 37.3655 11.9259C37.5425 11.9527 37.7141 11.9903 37.875 12.0654C38.0949 12.1674 38.1754 12.0922 38.2558 11.8561C38.3416 11.5985 38.2826 11.3355 38.347 11.0725C38.4972 10.4821 38.6581 9.89169 38.7492 9.2852C38.7707 9.14028 38.7117 9.08124 38.6098 9.0383C37.9287 8.75921 37.2422 8.49085 36.5342 8.2708C35.5957 7.9756 34.6303 7.76628 33.6649 7.57843C33.0857 7.46572 32.5064 7.32617 31.9218 7.2564C31.0691 7.15442 30.2163 7.07928 29.3636 7.03097C28.4787 6.9773 27.5937 6.95047 26.7088 6.95047C25.7273 6.95047 24.7458 7.01487 23.7644 7.06854V7.07391ZM4.12955 22.0538C4.12955 21.0125 4.38162 20.1967 5.01449 19.4775C5.49181 18.93 6.0925 18.7476 6.75218 18.6778C6.98816 18.6509 7.18123 18.608 7.36358 18.447C7.66929 18.1679 8.02326 17.9908 8.45768 18.0176C8.62395 18.0284 8.83847 18.0069 8.87065 18.1894C8.88674 18.2752 8.6454 18.3343 8.49523 18.3826C8.26997 18.4524 7.99108 18.4309 7.83555 18.6295C7.52448 19.0213 7.23487 19.4346 7.06861 19.9122C6.89162 20.4275 7.09542 20.873 7.3314 21.3292C7.73901 22.1128 8.80093 22.7837 9.89503 22.408C10.5172 22.1933 11.0642 21.823 11.2787 21.2057C11.5952 20.3148 11.5094 19.3916 11.1608 18.5168C10.9194 17.9103 10.485 17.4165 10.1257 16.8798C9.65905 16.1767 8.97256 15.8439 8.2217 15.5809C7.78192 15.4253 7.3314 15.3126 6.87017 15.2481C6.32848 15.1784 5.78143 15.1891 5.27728 15.4038C4.75169 15.6292 4.26363 15.9244 3.77558 16.2196C2.50449 16.9818 1.71073 18.1142 1.19586 19.456C0.772165 20.567 0.836524 21.7103 1.17441 22.8374C1.4533 23.7659 1.88772 24.63 2.26315 25.521C2.74584 26.6642 3.67368 27.4424 4.62297 28.1294C6.28557 29.337 7.93209 30.5822 9.81458 31.4571C10.8282 31.9294 11.74 32.611 12.818 32.9653C13.0862 33.0565 13.3275 33.2229 13.5581 33.3946C13.6654 33.4751 13.6761 33.5825 13.6386 33.6845C13.5903 33.8133 13.4616 33.765 13.3811 33.7435C13.2256 33.6952 13.0754 33.604 12.9253 33.5342C12.2656 33.2283 11.4504 33.1746 10.8765 33.8562C10.8336 33.9099 10.78 33.9582 10.7317 34.0011C10.4743 34.2373 10.4421 34.5862 10.5333 34.8384C10.898 35.8582 11.6488 36.5344 12.6464 36.9209C13.1827 37.1302 13.7137 37.1034 14.2768 36.9209C14.9955 36.6847 15.3816 36.1319 15.7088 35.5308C15.8643 35.2409 15.8321 34.876 15.7839 34.5378C15.682 33.8562 15.3924 33.2605 14.974 32.7237C14.7005 32.3695 14.3358 32.1119 14.0194 31.8006C13.7083 31.5 13.408 31.1887 13.0433 30.9579C12.3353 30.5071 11.5845 30.126 10.9301 29.5947C10.839 29.5195 10.721 29.4873 10.6191 29.4229C10.1793 29.1492 9.69123 28.9721 9.26217 28.6769C8.90283 28.43 8.57031 28.1455 8.23779 27.8718C7.32604 27.1311 6.3982 26.4065 5.59372 25.5371C4.65515 24.5227 4.08665 23.3526 4.13492 22.0484L4.12955 22.0538ZM39.7307 15.0281C39.8863 14.9637 39.9774 15.0388 40.074 15.1086C40.31 15.2911 40.444 15.538 40.5567 15.8063C40.7283 16.2357 40.8624 16.6705 40.9053 17.1267C40.9428 17.5292 40.9321 17.9371 40.798 18.3182C40.6157 18.8281 40.2992 19.2467 39.838 19.5526C39.6288 19.6922 39.5645 19.8264 39.6556 20.1216C39.8648 20.7817 39.9882 21.4741 40.1437 22.1557C40.2241 22.5046 40.3636 22.8427 40.385 23.2077C40.385 23.2775 40.3314 23.3794 40.4387 23.4117C40.5513 23.4439 40.5942 23.3311 40.621 23.256C40.8034 22.7461 41.1359 22.3167 41.3826 21.8444C41.8277 20.9964 42.2729 20.1484 42.6912 19.2843C42.8843 18.8925 43.0559 18.4899 43.0667 18.0284C43.0881 16.9979 42.9433 16.021 42.4874 15.0818C41.9779 14.0244 41.2217 13.2677 40.1383 12.8275C39.8755 12.7202 39.602 12.7041 39.3285 12.7309C38.9906 12.7685 38.7814 13.0369 38.7868 13.3857C38.8029 14.164 38.8887 14.9315 38.953 15.7044C39.0442 16.7832 39.2212 17.8459 39.3714 18.9193C39.3821 19.0106 39.4143 19.0964 39.5055 19.134C39.602 19.1716 39.6664 19.1018 39.7361 19.0481C39.956 18.8764 40.0203 18.6026 40.1705 18.3987C40.5567 17.8834 40.6157 17.3682 40.4655 16.7456C40.3153 16.1284 40.0954 15.5648 39.7307 15.0227V15.0281ZM13.7029 3.99851C13.8906 3.99851 14.0784 3.99851 14.2661 3.99851C14.4377 3.99851 14.5074 3.94484 14.4377 3.74088C14.2232 3.10219 13.9014 2.51716 13.5742 1.93214C13.4401 1.69061 13.3704 1.36858 13.1237 1.23977C12.346 0.821129 11.4826 0.756722 10.6834 1.07875C9.69659 1.48129 8.96719 2.22733 8.55959 3.2471C8.51132 3.36518 8.53277 3.48326 8.60249 3.58523C9.03691 4.23466 9.28899 4.9646 9.56251 5.68918C9.58933 5.75895 9.64296 5.84482 9.70196 5.86629C9.79313 5.8985 9.81458 5.78042 9.85749 5.72138C10.1686 5.26517 10.5654 4.91093 11.0481 4.6372C11.8741 4.16489 12.7697 4.01998 13.7029 4.00388V3.99851ZM14.6576 7.26176C15.0008 7.22419 15.3441 7.17589 15.6873 7.20272C15.9072 7.21883 15.934 7.14905 15.859 6.95047C15.5801 6.22053 15.328 5.48522 14.9633 4.79285C14.8346 4.54596 14.6469 4.42252 14.427 4.42252C13.6976 4.42252 12.9574 4.31517 12.2334 4.53523C11.4289 4.78212 10.662 5.08805 10.2115 5.86093C10.0345 6.16686 9.86285 6.49425 10.0237 6.87533C10.3187 7.57843 10.603 8.28153 10.8872 8.99C10.957 9.16712 11.0428 9.12418 11.1447 9.03294C11.386 8.81288 11.622 8.59819 11.8633 8.37814C12.6517 7.64283 13.6332 7.39594 14.6576 7.26713V7.26176ZM39.779 23.8947C39.7414 23.2453 39.5376 22.628 39.4036 21.9947C39.2212 21.1413 38.9531 20.304 38.7707 19.4507C38.7063 19.1447 38.6527 18.8173 38.2558 18.6939C37.9019 18.5812 37.5425 18.4899 37.1778 18.4309C37.033 18.4094 36.8668 18.4524 36.7595 18.5812C36.6469 18.7207 36.7327 18.8495 36.797 18.9783C37.1081 19.5848 37.3441 20.2235 37.5318 20.8783C37.6391 21.2594 37.6069 21.5707 37.2529 21.8391C36.9311 22.0806 36.6576 22.3812 36.3626 22.6602C36.1052 22.9018 36.1105 22.9125 36.4055 23.1272C36.9257 23.5083 37.4621 23.8625 38.0145 24.2006C38.111 24.2597 38.1861 24.3294 38.1861 24.4583C38.1968 25.1721 38.3041 25.8859 38.1861 26.6051C38.1754 26.6695 38.1807 26.7608 38.2183 26.7984C38.2934 26.8681 38.3685 26.7823 38.4221 26.7447C38.8458 26.4549 39.3285 26.2885 39.8112 26.1275C39.9989 26.063 40.1061 25.9933 40.0901 25.7625C40.0686 25.5371 40.0311 25.3224 39.9935 25.1023C39.9238 24.7051 39.8487 24.308 39.7736 23.9054L39.779 23.8947ZM34.169 28.1079C33.7668 28.0757 33.3753 28.1402 33.0106 28.2904C32.662 28.4407 32.308 28.6071 32.1954 29.0311C32.0345 29.6591 32.2973 30.3514 32.8282 30.7057C32.8819 30.7432 32.9516 30.7647 33.0159 30.7808C33.858 30.9472 34.6893 30.9687 35.4401 30.4802C35.8209 30.2334 36.0676 29.8791 36.1427 29.4068C36.1695 29.219 35.9818 29.117 35.9979 28.956C36.0194 28.7252 35.8746 28.6232 35.7137 28.5159C35.2417 28.1938 34.7215 28.065 34.1637 28.1079H34.169ZM15.2851 7.62673C15.0116 7.64283 14.7327 7.65894 14.4591 7.6804C13.7673 7.73944 13.1291 7.9917 12.5284 8.30837C12.0511 8.56599 11.6703 8.9739 11.3109 9.3818C11.2358 9.46768 11.0481 9.53745 11.2037 9.71457C11.3324 9.85412 11.4611 9.91316 11.6488 9.81655C11.9813 9.65017 12.3192 9.49988 12.6571 9.34423C13.6654 8.88802 14.6576 8.39961 15.7302 8.10441C15.8429 8.07221 15.9555 8.04537 16.0628 7.99707C16.1218 7.97023 16.1861 7.91656 16.17 7.83605C16.1539 7.77701 16.0896 7.75554 16.0359 7.73408C15.7892 7.65357 15.5425 7.61063 15.2851 7.616V7.62673Z" fill="#0E0E0E"/>
<path d="M38.0738 13.332C38.122 14.298 38.181 15.2588 38.2883 16.2249C38.3526 16.8045 38.4921 17.3734 38.4921 17.9638C38.4921 18.1463 38.4921 18.2322 38.2561 18.1356C37.0118 17.6096 35.671 18.2268 35.1025 19.3164C34.9953 19.5257 34.8773 19.7296 34.7646 19.939C34.3946 20.626 34.1961 21.3666 34.1586 22.1449C34.1425 22.4562 34.0406 22.7621 34.046 23.068C34.0513 23.5135 34.0728 23.9697 34.1693 24.4045C34.298 24.9895 34.3195 25.596 34.5662 26.1595C34.7432 26.5621 34.9041 26.9754 35.1347 27.3511C35.3117 27.6355 35.2795 27.6892 34.9523 27.6892C34.5447 27.6892 34.1371 27.6248 33.7295 27.6838C33.1932 27.759 32.6783 27.8824 32.2439 28.2474C31.6754 28.7197 31.5628 29.396 31.7559 29.9864C31.965 30.609 32.4424 31.1081 33.1986 31.2638C34.2498 31.4784 35.1615 31.2154 36.0089 30.6143C36.4165 30.3245 36.69 29.5785 36.5828 29.0793C36.5506 28.9398 36.5828 28.8109 36.69 28.6982C37.5696 27.7375 38.5886 26.9861 39.8436 26.5836C40.1386 26.4869 40.1922 26.5352 40.1976 26.8519C40.2083 27.2652 40.1976 27.6731 40.2566 28.0864C40.3478 28.7036 40.2298 29.3155 40.1493 29.9327C40.1064 30.2708 40.0742 30.609 40.026 30.9471C39.9348 31.5911 39.6881 32.1762 39.4467 32.7719C37.1459 37.2482 31.0747 39.3145 30.3668 39.4702C29.9109 39.5722 27.1006 40.2967 23.7915 39.8781C22.9709 39.7761 22.161 39.6205 21.3619 39.4434C20.0426 39.1482 18.8144 38.6329 17.6398 37.9513C17.0123 37.5863 16.4224 37.1623 15.8002 36.8027C15.6232 36.7007 15.6179 36.6309 15.7573 36.4753C16.3419 35.8312 16.3687 35.0584 16.2507 34.2533C16.1113 33.2926 15.5857 32.5733 14.9475 31.8863C14.025 30.8934 12.8987 30.1957 11.7456 29.5194C11.3166 29.2672 10.9197 28.9612 10.4906 28.709C10.2707 28.5802 10.2117 28.3816 10.1956 28.1776C10.1259 27.2384 10.0079 26.2991 10.0723 25.3545C10.1152 24.7426 10.2386 24.1307 10.2439 23.5243C10.2493 22.8534 10.7695 22.585 11.1718 22.2683C11.6437 21.898 11.8368 21.4471 11.9065 20.8997C12.0031 20.1376 12.0138 19.3861 11.7993 18.6347C11.7134 18.3342 11.5686 18.0658 11.4185 17.8082C11.0859 17.2393 10.8017 16.6328 10.2868 16.1873C10.1635 16.08 10.201 16.0316 10.3136 15.9511C12.0031 14.7006 13.9016 13.8848 15.8807 13.2139C16.6691 12.9455 17.4414 12.6449 18.2244 12.3712C19.2059 12.0277 20.2088 11.754 21.2439 11.6091C22.3434 11.4534 23.4321 11.2602 24.5369 11.1529C25.8778 11.0187 27.2239 10.9221 28.5701 11.0133C29.3531 11.067 30.1362 11.0455 30.9138 11.1368C31.6003 11.2173 32.2815 11.3622 32.9626 11.4051C33.5794 11.4481 34.1747 11.5876 34.7807 11.6574C35.3439 11.7218 35.8695 11.9257 36.4058 12.0707C36.8241 12.1834 37.2425 12.2961 37.6608 12.4249C37.9719 12.5215 38.1059 12.6664 38.0684 12.9831C38.0577 13.1012 38.0684 13.2192 38.0684 13.3373L38.0738 13.332ZM31.7022 32.9222C31.6218 32.9168 31.5467 32.9061 31.4662 32.9007C30.7583 32.8846 30.0557 32.9061 29.3478 32.9759C28.6023 33.0457 27.8568 32.9007 27.1059 32.9222C27.0577 32.9222 27.0148 32.9007 26.9665 32.89C26.5213 32.8149 26.0869 32.6807 25.6525 32.5787C24.4833 32.305 23.4589 31.7361 22.4882 31.0598C22.4077 31.0008 22.3166 30.8988 22.3648 30.7861C22.4024 30.7002 22.5096 30.6787 22.6115 30.668C22.8368 30.6519 23.0567 30.6197 23.2819 30.6036C23.3838 30.5982 23.4589 30.5821 23.475 30.4748C23.4965 30.3567 23.4268 30.3299 23.3249 30.303C23.0031 30.2118 22.692 30.2279 22.3809 30.3299C21.9519 30.464 21.5925 30.7378 21.1956 30.931C21.0133 31.0169 20.8202 31.151 20.7612 31.3711C20.7398 31.4462 20.6915 31.5643 20.7827 31.618C20.8578 31.6609 20.9221 31.5858 20.9865 31.5321C21.142 31.4033 21.3029 31.2691 21.4906 31.1832C21.6891 31.092 21.8124 31.1403 21.8231 31.3765C21.85 32.0152 21.9948 32.6431 22.0752 33.2764C22.2308 34.5377 22.8851 35.5843 23.7485 36.4807C24.4243 37.1838 25.2342 37.6507 26.1888 37.9244C27.1488 38.1982 28.007 37.9566 28.7524 37.4253C29.4443 36.9369 29.9967 36.2713 30.2649 35.4233C30.4472 34.8383 30.6457 34.264 30.6832 33.6414C30.6939 33.4697 30.7047 33.2442 30.946 33.2281C31.1927 33.212 31.4072 33.1101 31.6325 33.051C31.67 33.0188 31.8149 33.0457 31.6969 32.9276L31.7022 32.9222ZM26.5374 30.0937C26.5696 29.9273 26.5053 29.8307 26.457 29.7448C26.3604 29.5731 26.3658 29.4711 26.5428 29.3369C26.9021 29.0632 27.2561 28.7734 27.476 28.3655C27.8461 27.6677 28.1679 26.9593 28.3019 26.1595C28.4253 25.4242 28.6345 24.6943 28.6291 23.9483C28.6237 22.7567 28.3663 21.6135 27.8782 20.5079C27.4545 19.5364 26.8217 18.7958 25.8992 18.3127C25.2234 17.9585 24.5209 17.7545 23.711 17.8189C22.5043 17.9102 21.673 18.4845 21.0508 19.4559C20.8524 19.7619 20.654 20.0678 20.4555 20.3683C20.3322 20.5616 20.1874 20.5777 20.005 20.4435C19.7583 20.2664 19.5223 20.0731 19.2971 19.8692C19.104 19.6921 18.8895 19.5257 18.6857 19.3647C18.5998 19.3003 18.4765 19.2788 18.4121 19.3486C18.321 19.4452 18.4336 19.5311 18.5033 19.5847C19.0074 19.9819 19.3775 20.524 19.9031 20.8943C20.0318 20.9856 20.0908 21.109 20.0265 21.2486C19.9299 21.4686 19.9192 21.7048 19.8602 21.9248C19.7744 22.2361 19.6296 22.3166 19.3239 22.1932C18.8734 22.0161 18.4229 21.8443 17.9723 21.6672C17.8007 21.6028 17.5701 21.372 17.4682 21.576C17.3824 21.7531 17.6774 21.898 17.8597 21.9839C18.3585 22.22 18.8626 22.4562 19.3775 22.6601C19.6189 22.7567 19.7368 22.8909 19.6832 23.1378C19.6242 23.4062 19.6189 23.6692 19.6778 23.9429C19.7368 24.2113 19.5438 24.1737 19.3668 24.1522C18.7178 24.061 18.085 23.8839 17.4414 23.7497C17.3663 23.7336 17.3073 23.7067 17.2698 23.7765C17.2268 23.8517 17.2912 23.9107 17.3395 23.9536C17.4628 24.0717 17.6184 24.1307 17.7739 24.1791C18.3049 24.3508 18.8519 24.4635 19.3882 24.6031C19.6135 24.6621 19.8173 24.7319 19.8227 25.0968C19.8227 25.5155 19.9299 25.9502 20.0908 26.3581C20.2034 26.648 20.3483 26.9217 20.4877 27.2008C20.5789 27.3886 20.6271 27.496 20.3429 27.5228C20.0586 27.5443 19.7744 27.6302 19.5277 27.7751C19.458 27.818 19.3239 27.8824 19.3829 27.9844C19.4472 28.0917 19.5652 28.0595 19.6618 27.9844C19.8924 27.8126 20.1552 27.8073 20.4287 27.7965C21.3726 27.7697 22.2897 27.8878 23.1961 28.1615C23.9792 28.3977 24.7461 28.6821 25.4058 29.1759C25.7812 29.4604 26.1406 29.7609 26.5374 30.0776V30.0937ZM18.5516 30.0722C18.8734 30.0454 19.1683 29.9327 19.399 29.7019C19.533 29.5677 19.6028 29.4121 19.5438 29.1974C19.3453 28.4674 18.5516 28.4567 18.085 28.87C17.9026 29.0364 17.849 29.3208 17.9777 29.5624C18.1011 29.7878 18.1493 30.1366 18.5462 30.0722H18.5516Z" fill="#FAEFB4"/>
<path d="M23.7644 7.07926C24.7459 7.02022 25.722 6.96118 26.7088 6.96118C27.5937 6.96118 28.4787 6.98802 29.3636 7.04169C30.2164 7.09536 31.0745 7.16513 31.9219 7.26711C32.5065 7.33689 33.0857 7.47643 33.6649 7.58914C34.6303 7.777 35.5903 7.98632 36.5343 8.28151C37.2368 8.50157 37.9233 8.76993 38.6098 9.04902C38.7117 9.09196 38.7707 9.151 38.7493 9.29591C38.6581 9.9024 38.4972 10.4928 38.347 11.0832C38.2827 11.3408 38.347 11.6038 38.2559 11.8668C38.1754 12.103 38.1003 12.1781 37.8751 12.0761C37.7088 12.001 37.5426 11.9634 37.3656 11.9366C36.9204 11.8722 36.5128 11.6521 36.0784 11.577C35.1935 11.416 34.33 11.1422 33.4289 11.0725C32.9409 11.0349 32.4582 10.9651 31.9809 10.8739C31.7503 10.8256 31.5089 10.7987 31.289 10.7987C30.1681 10.7987 29.0579 10.627 27.937 10.6323C26.8322 10.6323 25.7327 10.7075 24.6386 10.7987C23.389 10.9007 22.1447 11.0832 20.9058 11.314C19.2754 11.6199 17.7361 12.1996 16.1808 12.7685C15.0867 13.1657 14.0033 13.5897 12.936 14.0405C12.1744 14.3625 11.445 14.7651 10.78 15.2642C10.6942 15.3286 10.603 15.393 10.5118 15.4521C10.0131 15.7741 10.0291 15.7526 9.53036 15.436C9.22466 15.2374 8.96186 14.9315 8.54889 14.9261C8.47381 14.9261 8.4309 14.8563 8.4309 14.7758C8.43626 14.2928 8.16274 13.8849 8.05547 13.4287C7.94285 12.9241 8.0072 12.6611 8.44699 12.4143C9.24075 11.9688 9.93797 11.3676 10.7639 10.9866C12.0082 10.4123 13.231 9.78969 14.5021 9.27981C15.6874 8.8075 16.9155 8.49083 18.1384 8.14733C18.7712 7.97021 19.4094 7.80383 20.0477 7.66965C20.5679 7.55694 21.0935 7.44423 21.6245 7.38519C22.2412 7.31542 22.8526 7.20271 23.4694 7.11146C23.566 7.09536 23.6625 7.09536 23.7644 7.08463V7.07926Z" fill="#F1C745"/>
<path d="M4.12915 22.0537C4.08088 23.358 4.64939 24.528 5.58795 25.5424C6.38708 26.4065 7.32028 27.1311 8.23203 27.8771C8.56991 28.1509 8.89707 28.4299 9.25641 28.6822C9.68547 28.9774 10.1735 29.1599 10.6133 29.4282C10.7152 29.4927 10.8332 29.5249 10.9244 29.6C11.5787 30.1314 12.3295 30.5124 13.0375 30.9633C13.4022 31.1994 13.7025 31.5054 14.0136 31.8059C14.33 32.1118 14.6947 32.3748 14.9683 32.7291C15.3812 33.2658 15.6762 33.8616 15.7781 34.5432C15.8264 34.8813 15.8586 35.2463 15.703 35.5361C15.3759 36.1372 14.9897 36.6901 14.271 36.9262C13.7133 37.1141 13.1769 37.1355 12.6406 36.9262C11.6377 36.5398 10.8922 35.8635 10.5275 34.8437C10.4363 34.5915 10.4685 34.2426 10.7259 34.0065C10.7796 33.9582 10.8278 33.9152 10.8707 33.8616C11.4392 33.1799 12.2545 33.2336 12.9195 33.5395C13.0697 33.6093 13.2145 33.7005 13.3754 33.7488C13.4505 33.7757 13.5845 33.8186 13.6328 33.6898C13.6704 33.5878 13.6596 33.4751 13.5524 33.4C13.3217 33.2282 13.0804 33.0618 12.8122 32.9706C11.7342 32.611 10.8225 31.9347 9.80882 31.4624C7.93169 30.5876 6.27981 29.3424 4.61721 28.1348C3.66792 27.4478 2.74008 26.6695 2.25738 25.5263C1.88196 24.6353 1.44753 23.7712 1.16865 22.8427C0.830763 21.7156 0.766404 20.5724 1.1901 19.4614C1.70497 18.1196 2.49337 16.9871 3.76982 16.225C4.26323 15.9298 4.75129 15.6346 5.27152 15.4091C5.77567 15.1944 6.32272 15.1837 6.8644 15.2535C7.32564 15.3125 7.77615 15.4306 8.21594 15.5863C8.96679 15.8492 9.65329 16.182 10.1199 16.8851C10.4792 17.4218 10.9136 17.9156 11.155 18.5221C11.5036 19.397 11.5894 20.3255 11.273 21.2111C11.0531 21.8283 10.5114 22.1986 9.88927 22.4133C8.79517 22.789 7.73325 22.1181 7.32564 21.3345C7.08966 20.8783 6.88586 20.4328 7.06284 19.9176C7.2291 19.4399 7.52408 19.0266 7.82979 18.6348C7.98532 18.4362 8.26421 18.4577 8.48947 18.3879C8.63427 18.345 8.87562 18.2806 8.86489 18.1947C8.83271 18.0122 8.61818 18.0337 8.45192 18.023C8.0175 17.9961 7.66353 18.1786 7.35782 18.4523C7.17547 18.6134 6.98776 18.6617 6.74641 18.6831C6.08137 18.7529 5.48605 18.9354 5.00872 19.4828C4.38123 20.202 4.12379 21.0179 4.12379 22.0591L4.12915 22.0537Z" fill="#F1C745"/>
<path d="M39.7311 15.0228C40.0958 15.5595 40.3157 16.1284 40.4659 16.7457C40.6161 17.3683 40.5571 17.8835 40.1709 18.3988C40.0154 18.6027 39.9564 18.8764 39.7365 19.0482C39.6614 19.1072 39.6024 19.1716 39.5059 19.1341C39.4201 19.0965 39.3825 19.016 39.3718 18.9194C39.227 17.8513 39.05 16.7832 38.9535 15.7044C38.8891 14.9316 38.7979 14.164 38.7872 13.3858C38.7818 13.0316 38.991 12.7686 39.3289 12.731C39.6024 12.6988 39.8706 12.7203 40.1387 12.8276C41.2275 13.2624 41.9783 14.0245 42.4878 15.0818C42.9437 16.0265 43.0939 17.0033 43.0671 18.0284C43.0563 18.49 42.8794 18.8872 42.6916 19.2844C42.2733 20.1431 41.8282 20.9965 41.383 21.8445C41.1363 22.3168 40.8038 22.7462 40.6214 23.2561C40.5946 23.3312 40.5517 23.4439 40.4391 23.4117C40.3372 23.3795 40.3908 23.2775 40.3855 23.2078C40.364 22.8428 40.2246 22.5047 40.1441 22.1558C39.9832 21.4742 39.8652 20.7872 39.6561 20.1216C39.5649 19.8318 39.6292 19.6923 39.8384 19.5527C40.2996 19.2521 40.6161 18.8335 40.7984 18.3183C40.9325 17.9372 40.9432 17.5293 40.9057 17.1267C40.8628 16.6652 40.7287 16.2304 40.5571 15.8064C40.4498 15.5327 40.3104 15.2912 40.0744 15.1087C39.9778 15.0335 39.8867 14.9638 39.7311 15.0282V15.0228Z" fill="#F1C745"/>
<path d="M13.7026 3.99862C12.7694 4.01472 11.8737 4.15964 11.0478 4.63195C10.5651 4.90568 10.1682 5.26528 9.85714 5.71612C9.81423 5.78053 9.79278 5.89324 9.7016 5.86104C9.64261 5.83957 9.58898 5.75369 9.56216 5.68392C9.28864 4.95935 9.0312 4.22941 8.60214 3.57998C8.53242 3.478 8.51097 3.35992 8.55924 3.24185C8.96684 2.22208 9.69624 1.47604 10.6831 1.0735C11.4768 0.751468 12.3403 0.810507 13.1233 1.23452C13.3701 1.3687 13.4398 1.68536 13.5739 1.92688C13.901 2.51191 14.2228 3.09693 14.4373 3.73563C14.5071 3.93958 14.4373 3.98789 14.2657 3.99325C14.078 3.99325 13.8903 3.99325 13.7026 3.99325V3.99862Z" fill="#F1C745"/>
<path d="M14.6579 7.2672C13.6335 7.40138 12.652 7.64291 11.8636 8.37821C11.6276 8.59827 11.3863 8.81832 11.1449 9.03301C11.043 9.12962 10.9572 9.16719 10.8875 8.99007C10.6033 8.2816 10.319 7.5785 10.024 6.8754C9.86314 6.48896 10.0294 6.16693 10.2117 5.861C10.6623 5.08812 11.4292 4.78219 12.2337 4.5353C12.9524 4.31525 13.6925 4.42796 14.4272 4.42259C14.6418 4.42259 14.8349 4.54604 14.9636 4.79293C15.3283 5.48529 15.5803 6.22597 15.8592 6.95054C15.9343 7.14912 15.9075 7.2189 15.6876 7.2028C15.3444 7.17596 15.0065 7.22427 14.6579 7.26184V7.2672Z" fill="white"/>
<path d="M39.7739 23.9C39.849 24.2971 39.9294 24.6943 39.9938 25.0969C40.0313 25.3169 40.0689 25.537 40.0903 25.757C40.1118 25.9878 39.9991 26.0576 39.8114 26.122C39.3287 26.283 38.8514 26.4494 38.4223 26.7392C38.3687 26.7768 38.2883 26.8627 38.2185 26.7929C38.181 26.7553 38.1756 26.6641 38.1864 26.5997C38.3043 25.8858 38.1971 25.172 38.1864 24.4528C38.1864 24.3294 38.1113 24.2542 38.0147 24.1952C37.4623 23.857 36.926 23.5028 36.4058 23.1217C36.1108 22.907 36.1054 22.8963 36.3629 22.6548C36.6578 22.3811 36.9314 22.0751 37.2532 21.8336C37.6071 21.5706 37.6393 21.2539 37.532 20.8729C37.3443 20.2181 37.1137 19.5794 36.7973 18.9729C36.7276 18.8387 36.6417 18.7099 36.7597 18.5757C36.867 18.4469 37.0279 18.404 37.1781 18.4254C37.5428 18.4791 37.9021 18.5757 38.2561 18.6884C38.6476 18.8119 38.7066 19.1393 38.7709 19.4452C38.9533 20.304 39.2215 21.1359 39.4038 21.9893C39.5379 22.6226 39.7471 23.2398 39.7792 23.8892L39.7739 23.9Z" fill="white"/>
<path d="M34.1691 28.1132C34.7269 28.0703 35.2471 28.1991 35.7191 28.5211C35.88 28.6285 36.0248 28.7305 36.0033 28.9612C35.9872 29.1223 36.1749 29.2296 36.1481 29.4121C36.0784 29.879 35.8317 30.2386 35.4455 30.4855C34.6893 30.9739 33.858 30.9525 33.0214 30.7861C32.957 30.7754 32.8873 30.7485 32.8336 30.711C32.2973 30.3567 32.0399 29.6643 32.2008 29.0364C32.308 28.6124 32.662 28.446 33.016 28.2957C33.3807 28.1401 33.7722 28.081 34.1744 28.1132H34.1691Z" fill="#F1C745"/>
<path d="M15.2849 7.62671C15.5423 7.62671 15.7944 7.66965 16.0358 7.74479C16.0948 7.76089 16.1591 7.78236 16.1698 7.84676C16.1913 7.92727 16.1216 7.98094 16.0626 8.00778C15.9553 8.05608 15.8427 8.08292 15.7301 8.11512C14.6574 8.41032 13.6652 8.89873 12.6569 9.35495C12.319 9.51059 11.9812 9.66088 11.6486 9.82726C11.4609 9.9185 11.3322 9.86483 11.2035 9.72528C11.0479 9.54817 11.2357 9.47839 11.3107 9.39252C11.6701 8.98461 12.0455 8.5767 12.5282 8.31908C13.1289 7.99705 13.7671 7.74479 14.459 7.69112C14.7325 7.66965 15.0114 7.65354 15.2849 7.63744V7.62671Z" fill="#F1C745"/>
<path d="M26.5376 30.0937C26.1407 29.777 25.7814 29.4711 25.406 29.192C24.7409 28.6928 23.9794 28.4138 23.1963 28.1776C22.2953 27.9039 21.3728 27.7858 20.4289 27.8126C20.1554 27.818 19.8872 27.8287 19.6619 28.0005C19.5654 28.0756 19.4421 28.1078 19.3831 28.0005C19.3241 27.8985 19.4581 27.8341 19.5279 27.7912C19.7799 27.6409 20.0588 27.5604 20.3431 27.5389C20.6273 27.5174 20.5791 27.4047 20.4879 27.2169C20.3538 26.9378 20.2036 26.6694 20.091 26.3742C19.9355 25.9663 19.8282 25.5316 19.8228 25.1129C19.8228 24.748 19.6137 24.6782 19.3884 24.6191C18.8521 24.4742 18.305 24.3669 17.7741 24.1951C17.6132 24.1415 17.4577 24.0878 17.3397 23.9697C17.2914 23.9268 17.227 23.8677 17.2699 23.7926C17.3075 23.7228 17.3665 23.7497 17.4416 23.7658C18.0852 23.8999 18.718 24.0771 19.367 24.1683C19.5493 24.1951 19.737 24.2273 19.678 23.959C19.619 23.6853 19.6244 23.4223 19.6834 23.1539C19.737 22.9016 19.6137 22.7728 19.3777 22.6762C18.8628 22.4723 18.3587 22.2361 17.8599 22C17.6775 21.9141 17.3826 21.7692 17.4684 21.592C17.5649 21.3935 17.8009 21.6189 17.9725 21.6833C18.423 21.855 18.8735 22.0322 19.3241 22.2093C19.6298 22.3274 19.7746 22.2522 19.8604 21.9409C19.9194 21.7155 19.9301 21.4793 20.0266 21.2647C20.091 21.1251 20.0266 21.0017 19.9033 20.9104C19.3777 20.5347 19.0076 19.998 18.5035 19.6008C18.4338 19.5418 18.3211 19.4613 18.4123 19.3647C18.4767 19.2949 18.6054 19.3164 18.6858 19.3808C18.895 19.5471 19.1042 19.7082 19.2972 19.8853C19.5225 20.0892 19.7585 20.2825 20.0052 20.4596C20.1875 20.5938 20.3324 20.5723 20.4557 20.3844C20.6541 20.0785 20.8526 19.7779 21.051 19.472C21.6785 18.5005 22.5098 17.9263 23.7112 17.835C24.521 17.776 25.2236 17.9746 25.8994 18.3288C26.8219 18.8118 27.4547 19.5525 27.8784 20.524C28.3611 21.6296 28.6186 22.7728 28.6293 23.9644C28.6293 24.7104 28.4255 25.4403 28.3021 26.1756C28.168 26.9753 27.8462 27.6838 27.4762 28.3816C27.2563 28.7948 26.9023 29.0793 26.543 29.353C26.366 29.4872 26.3553 29.5945 26.4572 29.7609C26.5108 29.8522 26.5752 29.9434 26.5376 30.1098V30.0937ZM23.3358 18.2107C23.561 18.5005 23.7755 18.7367 23.9472 19.0051C24.4513 19.794 24.7195 20.6743 24.9555 21.5706C25.0627 21.9892 25.1003 22.3971 24.6015 22.644C24.3655 22.7567 24.1617 22.9392 23.9472 23.0949C23.7273 23.2559 23.5074 23.4169 23.2982 23.5886C23.2392 23.637 23.0944 23.7067 23.25 23.8087C23.8453 24.2112 24.3119 24.7748 24.9072 25.172C25.1754 25.3545 25.4811 25.4672 25.2075 25.8643C25.1807 25.9019 25.2075 25.9824 25.2075 26.0415C25.1807 26.2722 25.1646 26.5084 25.1217 26.7338C25.0413 27.1578 24.8428 27.5335 24.6551 27.9146C24.6015 28.0219 24.5264 28.1454 24.7034 28.2313C25.1485 28.4352 25.5561 28.6928 25.9208 29.0256C25.9959 29.0954 26.0978 29.1705 26.2105 29.09C26.5215 28.8807 26.8272 28.666 27.0364 28.3493C27.4923 27.6731 27.8033 26.9485 27.9374 26.1381C28.05 25.4672 28.2109 24.8124 28.2431 24.1307C28.2646 23.6477 28.168 23.1807 28.1251 22.7031C28.034 21.6618 27.5727 20.7655 27.09 19.8853C26.7682 19.3003 26.248 18.9085 25.6312 18.6401C24.9072 18.3288 24.1724 18.1248 23.3358 18.2107Z" fill="#0E0E0E"/>
<path d="M31.6377 33.0457C31.4071 33.1101 31.1926 33.2067 30.9512 33.2228C30.7045 33.2389 30.6992 33.4643 30.6884 33.636C30.6455 34.2533 30.4471 34.8329 30.2701 35.418C30.0073 36.266 29.4495 36.9315 28.7577 37.4199C28.0122 37.9513 27.1541 38.1928 26.194 37.9191C25.2394 37.6507 24.4295 37.1784 23.7538 36.4753C22.8903 35.5736 22.236 34.5324 22.0804 33.2711C22 32.6378 21.8606 32.0098 21.8284 31.3711C21.8176 31.1349 21.6943 31.0866 21.4959 31.1779C21.3081 31.2638 21.1472 31.3979 20.9917 31.5267C20.9273 31.5804 20.863 31.6556 20.7879 31.6126C20.6967 31.5589 20.745 31.4462 20.7665 31.3657C20.8254 31.1403 21.0185 31.0115 21.2009 30.9256C21.6031 30.7324 21.9625 30.4587 22.3862 30.3245C22.6972 30.2279 23.0136 30.2118 23.3301 30.2977C23.4266 30.3245 23.5017 30.3513 23.4802 30.4694C23.4588 30.5767 23.3837 30.5929 23.2872 30.5982C23.0619 30.609 22.842 30.6465 22.6168 30.6626C22.5149 30.668 22.4076 30.6948 22.3701 30.7807C22.3218 30.8934 22.4076 30.9954 22.4934 31.0544C23.4642 31.7307 24.4832 32.305 25.6577 32.5733C26.0975 32.6753 26.5266 32.8095 26.9717 32.8846C27.02 32.89 27.0683 32.9168 27.1112 32.9168C27.8567 32.8954 28.6021 33.0457 29.353 32.9705C30.0609 32.9007 30.7635 32.8793 31.4715 32.8954C31.5519 32.8954 31.627 32.9061 31.7075 32.9168C31.686 32.9598 31.6646 32.9974 31.6431 33.0403L31.6377 33.0457ZM26.9824 35.3267C26.8537 35.3267 26.725 35.3106 26.5963 35.3267C26.4408 35.3536 26.2906 35.4019 26.4837 35.6058C26.6017 35.7346 26.6875 35.8956 26.7786 36.0459C26.8162 36.105 26.8376 36.1801 26.7786 36.2338C26.725 36.2821 26.666 36.2445 26.6177 36.2069C26.5051 36.1157 26.3871 36.0191 26.2799 35.9225C25.6095 35.316 24.8371 34.8973 23.9469 34.731C23.7645 34.6988 23.5714 34.7095 23.3891 34.7417C23.1155 34.7954 23.0619 34.9295 23.2228 35.1603C23.5285 35.6004 23.8879 35.9922 24.2579 36.3733C24.9659 37.1086 25.883 37.4414 26.8376 37.5648C27.626 37.6668 28.3501 37.3287 28.9078 36.7222C29.0366 36.5826 29.2886 36.5451 29.3047 36.3196C29.3262 36.0352 29.0151 36.0781 28.8757 35.9439C28.3501 35.4287 27.6636 35.3911 26.9878 35.3213L26.9824 35.3267Z" fill="#0E0E0E"/>
<path d="M18.5562 30.0725C18.1593 30.1369 18.1111 29.788 17.9877 29.5626C17.859 29.3211 17.9126 29.0366 18.095 28.8702C18.5616 28.4569 19.3553 28.4677 19.5538 29.1976C19.6128 29.4069 19.543 29.5679 19.409 29.7021C19.1783 29.9329 18.8834 30.0456 18.5616 30.0725H18.5562ZM18.642 29.6592C18.9853 29.6592 19.2373 29.4928 19.2105 29.2888C19.173 29.0312 18.9638 28.9561 18.7386 28.9453C18.4543 28.9346 18.3309 29.0688 18.3309 29.3479C18.3309 29.584 18.4221 29.7075 18.6474 29.6538L18.642 29.6592Z" fill="#0E0E0E"/>
<path d="M31.6377 33.0458C31.6591 33.0029 31.6806 32.9653 31.7021 32.9224C31.82 33.0351 31.6752 33.0136 31.6377 33.0458Z" fill="#90C8BF"/>
<path d="M23.3352 18.2109C24.1719 18.125 24.9067 18.329 25.6307 18.6403C26.2528 18.9086 26.7677 19.2951 27.0895 19.8854C27.5722 20.771 28.0334 21.662 28.1246 22.7032C28.1675 23.1809 28.2641 23.6479 28.2426 24.1309C28.2104 24.8125 28.0495 25.4727 27.9369 26.1382C27.8028 26.9487 27.4917 27.6732 27.0359 28.3495C26.8213 28.6662 26.5156 28.8809 26.2099 29.0902C26.0919 29.1707 25.99 29.0902 25.9203 29.0258C25.561 28.6876 25.148 28.4354 24.7029 28.2314C24.5259 28.1456 24.601 28.0275 24.6546 27.9148C24.8423 27.5337 25.0407 27.158 25.1212 26.734C25.1641 26.5032 25.1802 26.2724 25.207 26.0416C25.2124 25.9826 25.1802 25.9074 25.207 25.8645C25.4805 25.4673 25.1802 25.3546 24.9067 25.1721C24.3113 24.7696 23.8447 24.2114 23.2494 23.8089C23.0939 23.7015 23.2387 23.6318 23.2977 23.5888C23.5069 23.4171 23.7268 23.256 23.9466 23.095C24.1612 22.9394 24.365 22.7569 24.601 22.6442C25.0997 22.3973 25.0622 21.9894 24.9549 21.5707C24.7243 20.6744 24.4562 19.7888 23.9466 19.0052C23.775 18.7369 23.5605 18.5007 23.3352 18.2109Z" fill="white"/>
<path d="M26.9822 35.3215C27.6579 35.3913 28.3444 35.4342 28.87 35.9441C29.0095 36.0783 29.3205 36.0407 29.2991 36.3198C29.283 36.5452 29.0256 36.5828 28.9022 36.7223C28.3444 37.3342 27.6204 37.667 26.832 37.565C25.8773 37.4415 24.9602 37.1034 24.2523 36.3735C23.8822 35.9924 23.5229 35.5952 23.2172 35.1605C23.0563 34.9297 23.1099 34.7902 23.3834 34.7418C23.5658 34.7096 23.7642 34.6989 23.9412 34.7311C24.8315 34.8975 25.6038 35.3161 26.2742 35.9226C26.3815 36.0192 26.4995 36.1158 26.6121 36.2071C26.655 36.2447 26.714 36.2822 26.773 36.2339C26.8374 36.1749 26.8159 36.1051 26.773 36.0461C26.6765 35.8958 26.596 35.7348 26.478 35.606C26.2849 35.402 26.4351 35.3537 26.5907 35.3269C26.714 35.3054 26.8481 35.3269 26.9768 35.3269L26.9822 35.3215Z" fill="#F1C745"/>
<path d="M18.6367 29.659C18.4115 29.7073 18.3203 29.5838 18.3203 29.3531C18.3203 29.0686 18.4437 28.9344 18.7279 28.9505C18.9532 28.9612 19.1623 29.031 19.1999 29.294C19.2321 29.498 18.9746 29.6644 18.6314 29.6644L18.6367 29.659Z" fill="#FAEFB4"/>
</g>
<defs>
<clipPath id="clip0_549_454">
<rect width="44" height="41" fill="white"/>
</clipPath>
</defs>
</svg>
