<svg width="38" height="40" viewBox="0 0 38 40" fill="none" xmlns="http://www.w3.org/2000/svg">
<g clip-path="url(#clip0_549_416)">
<path d="M37.6806 16.4168C37.6319 15.9038 37.4534 15.5257 36.9935 15.2665C36.4416 14.9587 35.9221 14.5969 35.3811 14.2621C34.0229 13.425 32.5945 12.7716 31.0957 12.2532C30.6574 12.1019 30.2192 11.9291 29.7917 11.7509C29.7376 11.7293 29.5428 11.7509 29.6294 11.5403C29.9648 10.6817 30.0839 9.76362 30.3382 8.87797C30.6087 7.94912 30.8089 6.99867 31.0795 6.06982C31.4312 4.86555 31.8153 3.67749 32.1941 2.48402C32.2861 2.1978 32.2211 1.97099 32.0318 1.74958C30.8306 0.356303 29.3156 0.0376852 27.5841 0.404905C27.4488 0.431907 27.4001 0.502111 27.346 0.610117C26.7346 1.82518 26.1719 3.06185 25.739 4.35252C25.2953 5.6756 24.9707 7.03647 24.619 8.38654C24.4621 8.98598 24.3809 9.60701 24.2943 10.2172C24.2456 10.5575 24.0617 10.6601 23.7208 10.4819C22.8875 10.4711 22.0651 10.3847 21.2426 10.2766C21.194 10.2712 21.1398 10.2658 21.0911 10.2712C20.3932 10.3091 19.6952 10.1956 19.0026 10.2172C18.191 10.2388 17.3739 10.2064 16.5731 10.282C14.3547 10.4981 12.1363 10.7411 9.96656 11.2865C9.75013 11.3405 9.52828 11.3837 9.31185 11.4377C8.53811 11.6969 7.76436 11.9507 6.99603 12.2154C4.76679 12.9822 2.73774 14.1109 0.806085 15.4447C0.546367 15.6229 0.378632 15.8552 0.373222 16.1576C0.3624 16.5896 0.275827 17.0162 0.29206 17.4374C0.335346 18.4527 0.416508 19.468 0.486848 20.4832C0.551778 21.3959 0.692458 22.2869 0.827728 23.1834C1.0658 24.7494 1.42292 26.2885 1.96399 27.7844C2.53213 29.3451 3.22471 30.841 4.23653 32.1695C5.02109 33.2009 5.87059 34.1784 6.85535 35.0262C7.27198 35.388 7.65615 35.7823 8.09983 36.1225C8.53811 36.4627 9.01426 36.7543 9.42007 37.1323C9.75554 37.4455 10.2209 37.5265 10.578 37.7642C11.1569 38.153 11.8116 38.3366 12.4447 38.5688C12.8992 38.7362 13.3591 38.9144 13.8353 39.0386C14.2032 39.1358 14.582 39.2708 14.9553 39.3626C17.8122 40.0161 21.4753 39.7515 24.8516 38.882C25.528 38.6066 26.226 38.4068 26.8861 38.0612C27.7248 37.6238 28.5472 37.1647 29.3156 36.6247C30.1218 36.0577 30.8468 35.3772 31.5719 34.7076C33.6496 32.8013 35.1538 30.5224 36.0953 27.86C36.4091 26.969 36.6526 26.0617 36.8311 25.1491C37.0422 24.0582 37.3235 22.9835 37.4317 21.8657C37.5129 21.007 37.6374 20.1484 37.6915 19.2897C37.751 18.3339 37.8051 17.3726 37.7077 16.406L37.6806 16.4168ZM6.28181 18.4473C6.28181 18.4473 6.28181 18.4149 6.28181 18.3987C6.28181 18.4149 6.28181 18.4311 6.28181 18.4473ZM18.3966 37.1755C19.192 37.1863 19.9819 37.1485 20.7449 36.8785C19.9819 37.1539 19.192 37.1863 18.3912 37.1755C17.1467 37.2025 15.9725 36.9217 14.8363 36.4573C15.9725 36.9163 17.1467 37.2025 18.3912 37.1755H18.3966Z" fill="#0D0D0D"/>
<path d="M18.3912 37.1755C19.192 37.1863 19.9819 37.1539 20.7449 36.8785C19.9819 37.1485 19.192 37.1863 18.3966 37.1755H18.3912ZM18.3912 37.1755C17.1467 37.2025 15.9725 36.9217 14.8363 36.4573C15.9725 36.9163 17.1467 37.2025 18.3912 37.1755ZM37.6806 16.4168C37.6319 15.9038 37.4534 15.5257 36.9935 15.2665C36.4416 14.9587 35.9221 14.5969 35.3811 14.2621C34.0229 13.425 32.5945 12.7716 31.0957 12.2532C30.6574 12.1019 30.2192 11.9291 29.7917 11.7509C29.7376 11.7293 29.5428 11.7509 29.6294 11.5403C29.9648 10.6817 30.0839 9.76362 30.3382 8.87797C30.6087 7.94912 30.8089 6.99867 31.0795 6.06982C31.4312 4.86555 31.8153 3.67749 32.1941 2.48402C32.2861 2.1978 32.2211 1.97099 32.0318 1.74958C30.8306 0.356303 29.3156 0.0376852 27.5841 0.404905C27.4488 0.431907 27.4001 0.502111 27.346 0.610117C26.7346 1.82518 26.1719 3.06185 25.739 4.35252C25.2953 5.6756 24.9707 7.03647 24.619 8.38654C24.4621 8.98598 24.3809 9.60701 24.2943 10.2172C24.2456 10.5575 24.0617 10.6601 23.7208 10.4819C22.8875 10.4711 22.0651 10.3847 21.2426 10.2766C21.194 10.2712 21.1398 10.2658 21.0911 10.2712C20.3932 10.3091 19.6952 10.1956 19.0026 10.2172C18.191 10.2388 17.3739 10.2064 16.5731 10.282C14.3547 10.4981 12.1363 10.7411 9.96656 11.2865C9.75013 11.3405 9.52828 11.3837 9.31185 11.4377C8.53811 11.6969 7.76436 11.9507 6.99603 12.2154C4.76679 12.9822 2.73774 14.1109 0.806085 15.4447C0.546367 15.6229 0.378632 15.8552 0.373222 16.1576C0.3624 16.5896 0.275827 17.0162 0.29206 17.4374C0.335346 18.4527 0.416508 19.468 0.486848 20.4832C0.551778 21.3959 0.692458 22.2869 0.827728 23.1834C1.0658 24.7494 1.42292 26.2885 1.96399 27.7844C2.53213 29.3451 3.22471 30.841 4.23653 32.1695C5.02109 33.2009 5.87059 34.1784 6.85535 35.0262C7.27198 35.388 7.65615 35.7823 8.09983 36.1225C8.53811 36.4627 9.01426 36.7543 9.42007 37.1323C9.75554 37.4455 10.2209 37.5265 10.578 37.7642C11.1569 38.153 11.8116 38.3366 12.4447 38.5688C12.8992 38.7362 13.3591 38.9144 13.8353 39.0386C14.2032 39.1358 14.582 39.2708 14.9553 39.3626C17.8122 40.0161 21.4753 39.7515 24.8516 38.882C25.528 38.6066 26.226 38.4068 26.8861 38.0612C27.7248 37.6238 28.5472 37.1647 29.3156 36.6247C30.1218 36.0577 30.8468 35.3772 31.5719 34.7076C33.6496 32.8013 35.1538 30.5224 36.0953 27.86C36.4091 26.969 36.6526 26.0617 36.8311 25.1491C37.0422 24.0582 37.3235 22.9835 37.4317 21.8657C37.5129 21.007 37.6374 20.1484 37.6915 19.2897C37.751 18.3339 37.8051 17.3726 37.7077 16.406L37.6806 16.4168ZM6.28181 18.4473C6.28181 18.4473 6.28181 18.4149 6.28181 18.3987C6.28181 18.4149 6.28181 18.4311 6.28181 18.4473Z" stroke="#0D0D0D" stroke-miterlimit="10"/>
<path d="M23.7097 10.4875C24.0505 10.6657 24.2345 10.5631 24.2832 10.2228C24.3698 9.6072 24.4509 8.99157 24.6079 8.39214C24.9596 7.04206 25.2842 5.68659 25.7279 4.35811C26.1607 3.06744 26.7235 1.83077 27.3349 0.615708C27.389 0.507702 27.4431 0.437498 27.573 0.410496C29.3044 0.0432762 30.8249 0.367294 32.0206 1.75517C32.21 1.97658 32.2749 2.19799 32.183 2.48961C31.8042 3.68308 31.42 4.87654 31.0683 6.07541C30.7978 7.00426 30.5976 7.95471 30.3271 8.88356C30.0728 9.76381 29.9483 10.6873 29.6182 11.5459C29.5317 11.7619 29.7265 11.7349 29.7806 11.7565C30.208 11.9401 30.6463 12.1075 31.0846 12.2587C32.5834 12.7772 34.0172 13.4306 35.3699 14.2677C35.911 14.5971 36.4304 14.9589 36.9823 15.2721C37.4423 15.5313 37.6208 15.9093 37.6695 16.4224C37.7615 17.3836 37.7128 18.3503 37.6533 19.3061C37.5992 20.1648 37.4747 21.0288 37.3936 21.8821C37.2907 22.9999 37.004 24.0746 36.793 25.1655C36.6144 26.0781 36.3763 26.9854 36.0571 27.8764C35.1102 30.5388 33.6114 32.8177 31.5337 34.724C30.8086 35.3936 30.0836 36.0741 29.2774 36.6411C28.509 37.1811 27.6866 37.6401 26.8479 38.0776C26.1932 38.4232 25.4898 38.623 24.8135 38.8984C21.4425 39.7679 17.7794 40.0325 14.9171 39.379C14.5438 39.2872 14.1704 39.1522 13.7971 39.055C13.3209 38.9308 12.861 38.7526 12.4065 38.5852C11.7734 38.353 11.1187 38.1694 10.5398 37.7806C10.1827 37.5429 9.71735 37.4619 9.38188 37.1487C8.97607 36.7707 8.49992 36.4791 8.06164 36.1389C7.61796 35.7986 7.2392 35.399 6.81716 35.0426C5.8324 34.2002 4.9829 33.2173 4.19834 32.1858C3.18652 30.8574 2.49394 29.3615 1.92581 27.8008C1.38473 26.3103 1.02761 24.7712 0.78954 23.1998C0.65427 22.3033 0.508178 21.4069 0.44866 20.4996C0.378319 19.4843 0.297157 18.4691 0.253871 17.4538C0.237639 17.0326 0.329622 16.6006 0.335033 16.174C0.340444 15.8715 0.508178 15.6393 0.767896 15.4611C2.69955 14.1273 4.73401 12.9986 6.95784 12.2317C7.72618 11.9671 8.49992 11.7133 9.27366 11.4541C9.49009 11.4055 9.71194 11.3623 9.92837 11.3029C12.0981 10.7575 14.3165 10.5091 16.5349 10.2984C17.3412 10.2228 18.1582 10.2552 18.9644 10.2336C19.657 10.212 20.355 10.3254 21.053 10.2876C21.1017 10.2876 21.1558 10.2876 21.2045 10.293C22.0269 10.401 22.8493 10.4875 23.6826 10.4983L23.7097 10.4875ZM37.0419 17.8211C37.0689 17.3188 37.031 16.741 36.9715 16.1578C36.9553 16.0228 36.8958 15.9742 36.793 15.9039C35.9272 15.2883 35.002 14.7861 34.0659 14.2839C33.3192 13.8842 32.5779 13.4738 31.7988 13.166C29.9212 12.4316 28.0004 11.8483 25.9984 11.5243C25.0407 11.3677 24.0776 11.2867 23.1253 11.1193C22.1892 10.9519 21.2261 10.8979 20.2738 10.8871C19.0834 10.8763 17.8931 10.8385 16.6973 10.9303C15.68 11.0113 14.6736 11.1409 13.6672 11.2435C12.3253 11.3839 11.0213 11.6755 9.71194 11.9995C8.80833 12.2209 7.92638 12.5072 7.05524 12.8204C5.69713 13.3118 4.40936 13.9544 3.16488 14.6943C2.51558 15.0777 1.87711 15.4665 1.24405 15.8823C1.13583 15.9526 1.06008 16.0336 1.04926 16.1254C1.01679 16.3954 0.935631 16.66 0.951863 16.9462C1.0222 17.9561 0.924809 18.9605 1.01138 19.9758C1.0709 20.6886 1.13042 21.4069 1.21158 22.1143C1.33062 23.1565 1.57952 24.1826 1.80677 25.2087C2.51017 28.3462 3.91157 31.1274 6.12999 33.4765C6.97408 34.3676 7.85062 35.2316 8.87867 35.9228C9.82015 36.5547 10.8049 37.1271 11.8492 37.5537C12.861 37.9696 13.9107 38.3044 14.9929 38.5366C15.9073 38.7364 16.8271 38.866 17.7524 38.9362C18.6289 39.0064 19.5217 38.9956 20.4091 38.893C21.4912 38.7688 22.5518 38.5906 23.6177 38.3584C24.294 38.2126 24.965 38.0236 25.5872 37.7698C26.4042 37.4349 27.2321 37.0839 27.9896 36.6033C29.0231 35.9444 30.0403 35.2694 30.9222 34.4108C31.6635 33.6871 32.3886 32.9527 33.0216 32.121C34.0551 30.7602 34.8775 29.2913 35.4511 27.6874C36.1491 25.7271 36.5603 23.6966 36.793 21.6391C36.9336 20.4024 37.0527 19.1549 37.031 17.8265L37.0419 17.8211ZM29.5533 10.1418C29.8563 8.96997 30.1485 7.8197 30.4515 6.67484C30.4786 6.57764 30.484 6.51283 30.4028 6.41563C29.4072 5.17356 28.114 4.64433 26.5395 4.80094C26.2527 4.82794 25.9443 4.87114 25.8523 5.25996C25.6088 6.25362 25.3275 7.24187 25.084 8.24093C24.9704 8.70535 24.992 8.71075 25.4682 8.60815C25.5818 8.58655 25.6954 8.55954 25.8036 8.56494C27.2483 8.59735 28.5523 8.97537 29.5533 10.1472V10.1418ZM31.8475 2.2142C31.8529 2.11159 31.8258 2.04139 31.7663 1.98738C31.5228 1.74977 31.301 1.47976 31.0305 1.27454C30.4623 0.83712 29.7914 0.637309 29.088 0.567105C28.6389 0.523903 28.1627 0.507702 27.7461 0.680511C27.5189 0.777717 27.4864 1.13954 27.3728 1.38795C26.9399 2.3384 26.507 3.28345 26.1662 4.27171C26.1391 4.35271 26.0688 4.43372 26.1283 4.50932C26.1932 4.60113 26.2581 4.48772 26.3231 4.47152C26.8966 4.32571 27.4647 4.40132 28.0329 4.51472C28.9798 4.70913 29.7643 5.18976 30.4245 5.8864C30.484 5.9458 30.5218 6.05921 30.6192 6.04841C30.7491 6.03221 30.6842 5.908 30.7112 5.83239C30.9655 5.00615 31.2253 4.1799 31.4796 3.35906C31.604 2.97024 31.7339 2.58142 31.8529 2.2088L31.8475 2.2142ZM26.0255 8.87816C25.7117 8.81336 25.4195 8.93217 25.1273 8.96997C24.9433 8.99157 24.7918 9.09417 24.8026 9.34799C24.8135 9.5694 24.7539 9.79081 24.7215 10.0122C24.6295 10.6603 24.6403 10.6927 25.3275 10.7143C25.3762 10.7143 25.4303 10.7143 25.479 10.7251C26.6585 10.9897 27.8543 11.1787 29.0176 11.5297C29.1313 11.5621 29.2016 11.5999 29.2774 11.4379C29.4992 10.9573 29.4451 10.5253 29.0988 10.1364C28.2764 9.21838 27.1888 8.95917 26.0309 8.87816H26.0255Z" fill="#111110"/>
<path d="M37.0474 17.8212C37.0691 19.1496 36.95 20.3971 36.8094 21.6338C36.5713 23.6913 36.1655 25.7218 35.4675 27.6821C34.8939 29.286 34.0715 30.7549 33.038 32.1158C32.405 32.9474 31.6799 33.6818 30.9387 34.4055C30.0621 35.2641 29.0395 35.9392 28.006 36.598C27.2485 37.0786 26.4206 37.4297 25.6036 37.7645C24.9814 38.0183 24.3104 38.2073 23.6341 38.3531C22.5736 38.5799 21.5076 38.7635 20.4255 38.8877C19.5381 38.9903 18.6453 38.9957 17.7688 38.9309C16.849 38.8607 15.9237 38.7311 15.0093 38.5313C13.9271 38.2937 12.8774 37.9643 11.8656 37.5485C10.8213 37.1164 9.83656 36.5494 8.89509 35.9176C7.86704 35.2263 6.99049 34.3623 6.1464 33.4712C3.92257 31.1275 2.52117 28.3464 1.82318 25.2034C1.59593 24.1773 1.34703 23.1513 1.22799 22.109C1.14683 21.4016 1.09272 20.6833 1.02779 19.9705C0.94122 18.9606 1.0332 17.9508 0.968274 16.9409C0.946631 16.6601 1.0332 16.3955 1.06567 16.1201C1.07649 16.0283 1.15224 15.9473 1.26046 15.8771C1.88811 15.4612 2.53199 15.0724 3.18129 14.689C4.42577 13.9492 5.71354 13.3119 7.07165 12.8151C7.94279 12.4965 8.82474 12.2157 9.72835 11.9943C11.0323 11.6756 12.3418 11.3786 13.6836 11.2382C14.6955 11.1302 15.7019 11.006 16.7137 10.925C17.9095 10.8278 19.0998 10.8656 20.2902 10.8818C21.2425 10.8926 22.2056 10.952 23.1417 11.114C24.094 11.2814 25.0625 11.3678 26.0148 11.519C28.0222 11.843 29.9377 12.4263 31.8152 13.1607C32.5998 13.4631 33.341 13.8736 34.0823 14.2786C35.0184 14.7808 35.9436 15.2884 36.8094 15.8987C36.9068 15.9689 36.9717 16.0175 36.9879 16.1525C37.0474 16.7303 37.0799 17.3081 37.0583 17.8158L37.0474 17.8212ZM6.28708 18.399C6.28708 18.399 6.28708 18.4314 6.28708 18.4476C6.28708 18.6852 6.28167 18.9282 6.27626 19.1658C6.26544 19.1874 6.26544 19.2036 6.27626 19.2145C6.33578 20.0245 6.38989 20.8237 6.60091 21.623C6.76864 22.2548 6.96343 22.8812 7.25562 23.4483C7.67225 24.2475 8.22956 24.9604 8.91673 25.5652C9.86903 26.3968 11.2867 26.7371 12.3634 25.9378C12.5528 25.7974 12.6935 25.819 12.8017 26.0404C12.9856 26.413 13.2886 26.6993 13.6025 26.9369C14.7009 27.7901 15.9832 28.2437 17.3413 28.4004C18.4289 28.53 19.5327 28.557 20.6365 28.4328C21.5239 28.3356 22.3571 28.0655 23.1525 27.7253C23.9696 27.3797 24.7108 26.8721 25.2411 26.1214C25.3818 25.9216 25.4467 25.873 25.701 26.0188C26.4856 26.4778 27.2918 26.6129 28.1737 26.1538C28.7852 25.8406 29.2775 25.4518 29.7375 24.9496C30.1541 24.4905 30.4733 23.9721 30.7817 23.4483C31.1497 22.8218 31.2904 22.109 31.4797 21.4178C31.6475 20.8129 31.734 20.1973 31.7665 19.5817C31.8206 18.4746 31.7503 17.3729 31.4906 16.2875C31.2417 15.2452 30.8413 14.2894 30.0567 13.5387C29.8186 13.3119 29.5914 13.0797 29.2505 12.9447C27.8653 12.3993 26.5559 13.1067 25.7822 13.9816C25.2303 14.608 24.8082 15.3478 24.5052 16.1579C24.1102 17.2217 23.7585 18.2856 23.7585 19.4359C23.7585 19.9003 23.7585 20.3593 23.7585 20.8129C20.5932 19.2144 17.4928 19.2306 14.3546 20.7481C14.3113 20.6995 14.3438 20.6077 14.3492 20.5267C14.3654 19.2793 14.2031 18.048 13.7973 16.8761C13.3482 15.5584 12.8341 14.257 11.6005 13.4307C10.8484 12.9285 10.0314 12.5613 9.11693 12.8529C7.67225 13.3119 7.08247 14.554 6.64961 15.8447C6.37907 16.6547 6.29791 17.5296 6.29791 18.399H6.28708ZM12.3201 29.5668C12.0712 29.5668 11.8927 29.5668 11.7141 29.5668C11.0161 29.5668 10.0476 30.2095 9.79869 30.8629C9.4524 31.7701 9.6039 32.645 10.0584 33.4604C10.5778 34.3785 11.3408 35.0859 12.2119 35.6692C13.5971 36.5926 15.085 37.2784 16.7353 37.5539C17.9149 37.7537 19.089 37.7753 20.274 37.5161C21.3074 37.2892 22.2489 36.8734 23.1363 36.3064C24.0669 35.7178 24.8407 34.9779 25.3277 33.9735C25.6523 33.3092 25.4467 32.5694 24.8407 32.1644C24.0561 31.6405 23.2012 31.6945 22.3571 31.9051C21.5834 32.0942 20.8421 32.402 20.063 32.5964C19.0836 32.8394 18.1692 32.6936 17.3359 32.1914C16.2213 31.5217 15.2798 30.5875 14.084 30.0312C13.4997 29.7612 12.9207 29.475 12.3201 29.5614V29.5668Z" fill="white"/>
<path d="M29.5586 10.1419C28.5576 8.97001 27.259 8.59199 25.809 8.55959C25.6953 8.55959 25.5817 8.58119 25.4735 8.60279C25.0027 8.69999 24.9757 8.69999 25.0893 8.23557C25.3328 7.23651 25.6142 6.25366 25.8576 5.2546C25.955 4.86578 26.2635 4.82798 26.5448 4.79558C28.1194 4.63897 29.4125 5.1682 30.4081 6.41027C30.4893 6.50747 30.4785 6.57228 30.4568 6.66948C30.1592 7.81975 29.8616 8.96461 29.5586 10.1365V10.1419Z" fill="#3783C6"/>
<path d="M31.8529 2.2143C31.7339 2.58152 31.604 2.97035 31.4796 3.36457C31.2199 4.19081 30.9656 5.01166 30.7113 5.8379C30.6896 5.91351 30.7491 6.03771 30.6193 6.05392C30.5219 6.06472 30.484 5.95131 30.4245 5.89191C29.7644 5.19527 28.9798 4.71464 28.0329 4.52023C27.4702 4.40142 26.8967 4.32582 26.3231 4.47703C26.2582 4.49323 26.1932 4.60664 26.1283 4.51483C26.0742 4.43923 26.1391 4.35822 26.1662 4.27722C26.5071 3.28896 26.9399 2.34391 27.3728 1.39346C27.4864 1.14505 27.5189 0.783225 27.7461 0.68602C28.1574 0.51321 28.6389 0.529411 29.088 0.572614C29.7914 0.642817 30.4624 0.842628 31.0305 1.28005C31.301 1.48526 31.5229 1.75528 31.7664 1.99289C31.8259 2.05229 31.8529 2.1171 31.8475 2.2197L31.8529 2.2143Z" fill="white"/>
<path d="M26.0258 8.87812C27.1838 8.95912 28.2713 9.21834 29.0938 10.1364C29.4401 10.5252 29.4942 10.9626 29.2723 11.4379C29.202 11.5945 29.1262 11.5621 29.0126 11.5297C27.8547 11.1786 26.6535 10.995 25.4739 10.725C25.4252 10.7142 25.3711 10.7142 25.3224 10.7142C24.6407 10.6926 24.6299 10.6602 24.7164 10.0122C24.7489 9.79077 24.8084 9.56936 24.7976 9.34794C24.7814 9.08873 24.9329 8.99152 25.1222 8.96992C25.4198 8.93212 25.712 8.81331 26.0204 8.87812H26.0258Z" fill="white"/>
<path d="M6.27059 19.1656C6.27059 18.928 6.276 18.685 6.28141 18.4474C6.28141 18.4474 6.29223 18.4474 6.29223 18.442C6.29223 18.4258 6.29223 18.415 6.28682 18.3988C6.28682 17.5293 6.36798 16.6545 6.63852 15.8444C7.07138 14.5538 7.65575 13.3117 9.10584 12.8527C10.0203 12.5611 10.8373 12.9229 11.5894 13.4305C12.8231 14.2568 13.3371 15.5582 13.7862 16.8759C14.1866 18.0532 14.3489 19.279 14.3381 20.5265C14.3381 20.6075 14.3056 20.6993 14.3435 20.7479C17.4818 19.2304 20.5821 19.2088 23.7474 20.8127C23.7474 20.3591 23.7474 19.9001 23.7474 19.4356C23.7474 18.2854 24.0991 17.2215 24.4941 16.1577C24.7971 15.3476 25.2192 14.6078 25.7711 13.9813C26.5448 13.1065 27.8542 12.3991 29.2394 12.9445C29.5803 13.0795 29.8129 13.3171 30.0456 13.5385C30.8302 14.2892 31.2306 15.245 31.4795 16.2873C31.7392 17.3727 31.8095 18.4798 31.7554 19.5814C31.723 20.1971 31.6364 20.8127 31.4686 21.4175C31.2793 22.1088 31.1386 22.8216 30.7707 23.4481C30.4622 23.9719 30.143 24.4903 29.7264 24.9493C29.2719 25.4516 28.7741 25.8404 28.1627 26.1536C27.2753 26.6126 26.4745 26.4776 25.6899 26.0186C25.4356 25.8728 25.3707 25.9214 25.23 26.1212C24.7052 26.8718 23.9585 27.3741 23.1414 27.7251C22.3406 28.0653 21.5128 28.3353 20.6254 28.4325C19.5216 28.5567 18.4178 28.5297 17.3302 28.4001C15.9721 28.2381 14.6898 27.7845 13.5914 26.9367C13.283 26.6936 12.9746 26.4074 12.7906 26.0402C12.6824 25.8188 12.5363 25.8026 12.3523 25.9376C11.2756 26.7314 9.85794 26.3966 8.90564 25.565C8.21847 24.9655 7.66116 24.2473 7.24453 23.4481C6.95235 22.881 6.75756 22.2546 6.58982 21.6228C6.3788 20.8289 6.3247 20.0243 6.26518 19.2142C6.26518 19.2142 6.276 19.2034 6.276 19.198C6.276 19.1872 6.26518 19.1764 6.25977 19.1656H6.27059ZM18.6126 28.1139C19.9058 28.0113 21.1665 27.9573 22.4056 27.5253C23.5527 27.1311 24.4238 26.4668 25.0569 25.5002C25.4681 24.8737 25.4573 24.1123 25.203 23.4157C24.6565 21.9036 23.5148 20.9909 22.0268 20.5103C20.6687 20.0729 19.2727 19.9433 17.8443 20.1107C16.1723 20.3051 14.6465 20.7803 13.5373 22.1412C13.007 22.7892 12.5796 23.5237 12.6174 24.3715C12.6607 25.3112 13.1693 26.0672 13.9106 26.6396C15.3012 27.7143 16.9407 27.9951 18.6126 28.1085V28.1139ZM10.1339 20.0459C9.86335 20.0027 9.62528 19.9325 9.37097 19.9325C9.18159 19.9325 9.04091 19.8515 9.05715 19.5868C9.08961 19.1062 9.04632 18.6202 9.06797 18.1396C9.10043 17.4105 9.27358 16.7085 9.69562 16.1091C10.1231 15.5096 10.767 15.2126 11.3892 15.461C11.795 15.623 12.0872 15.9524 12.3415 16.2927C12.8339 16.9515 13.1152 17.7075 13.3371 18.4852C13.5752 19.3168 13.6726 20.1647 13.7212 21.0233C13.7212 21.0989 13.6671 21.2231 13.8024 21.2393C13.8998 21.2501 13.9485 21.1583 13.9593 21.0611C13.9864 20.8451 14.0513 20.6237 14.0405 20.4077C13.9647 19.117 13.8024 17.8372 13.3425 16.6221C12.8826 15.4124 12.3307 14.2406 11.1619 13.5439C10.0365 12.8743 8.98681 12.8419 8.03992 13.9165C7.23371 14.8346 6.84954 15.9416 6.69804 17.1243C6.58982 17.9506 6.47079 18.7768 6.59523 19.6246C6.70886 20.3699 6.76297 21.1205 6.99022 21.8496C7.47719 23.3995 8.22929 24.7711 9.6361 25.673C10.5613 26.267 11.3784 26.1752 12.2549 25.6514C12.4335 25.5488 12.4768 25.3814 12.3686 25.1978C12.2712 25.0357 12.3848 24.7171 12.0114 24.7549C11.6002 24.7981 11.2593 24.5767 10.9726 24.3337C10.0419 23.5561 9.64151 22.4652 9.30063 21.3527C9.26817 21.2501 9.30063 21.1421 9.38179 21.0395C9.63069 20.7317 9.86335 20.4077 10.1231 20.0513L10.1339 20.0459ZM24.2561 21.0557C24.3426 19.9109 24.4941 18.8308 24.8891 17.7993C25.203 16.9893 25.5763 16.2171 26.2581 15.6446C26.5448 15.407 26.8695 15.3206 27.232 15.3962C27.9733 15.5474 28.3791 16.0551 28.628 16.7139C28.9635 17.6103 28.931 18.5554 28.9472 19.495C28.9526 19.8407 28.7957 19.9109 28.5144 19.9433C28.3087 19.9649 27.9895 19.8299 27.9246 20.0405C27.8651 20.2187 28.1681 20.3861 28.2817 20.5751C28.4332 20.8181 28.7578 21.0179 28.6875 21.3365C28.5035 22.1196 28.2005 22.8702 27.746 23.5345C27.324 24.1555 26.7883 24.6901 25.9821 24.7387C25.625 24.7603 25.7224 25.0357 25.6196 25.2032C25.5114 25.376 25.5763 25.5164 25.7224 25.6298C26.3717 26.1266 27.0805 26.1644 27.8326 25.9106C28.628 25.6406 29.1745 25.0627 29.6939 24.4363C30.8194 23.0862 31.2198 21.4662 31.3713 19.7921C31.4578 18.8632 31.4254 17.9182 31.2576 16.9731C31.0628 15.8714 30.7598 14.8508 30.0294 13.9921C29.5641 13.4521 28.9959 13.0579 28.2384 13.0795C27.2482 13.1065 26.4691 13.5979 25.9009 14.3432C24.5104 16.1631 23.9855 18.2746 23.9639 20.5319C23.9639 20.7371 24.0018 20.9207 24.2507 21.0611L24.2561 21.0557Z" fill="#111110"/>
<path d="M12.3143 29.5668C12.9149 29.475 13.4938 29.7612 14.0782 30.0366C15.274 30.5929 16.2155 31.5271 17.3301 32.1968C18.1633 32.699 19.0832 32.8448 20.0571 32.6018C20.8363 32.4074 21.5775 32.0995 22.3513 31.9105C23.1954 31.7053 24.0503 31.6513 24.8348 32.1698C25.4463 32.5748 25.6465 33.3146 25.3218 33.9789C24.8348 34.9833 24.0611 35.7177 23.1304 36.3118C22.2431 36.8734 21.307 37.2946 20.2681 37.5214C19.0832 37.7807 17.909 37.7537 16.7295 37.5593C15.0792 37.2838 13.5858 36.598 12.2061 35.6745C11.3349 35.0913 10.5666 34.3893 10.0526 33.4658C9.59264 32.6504 9.44655 31.7755 9.79284 30.8683C10.0417 30.2148 11.0103 29.5668 11.7083 29.5722C11.8868 29.5722 12.0654 29.5722 12.3143 29.5722V29.5668ZM18.3906 37.1812C19.186 37.192 19.976 37.1542 20.7443 36.8842C20.9228 36.8194 20.9499 36.7816 20.9283 36.5764C20.8579 35.8258 19.9868 35.1021 19.1535 35.0913C18.9804 35.0913 18.7369 34.9617 18.6449 35.1831C18.5421 35.4315 18.791 35.5827 18.9533 35.6799C19.213 35.8366 19.1968 36.0742 19.0669 36.2038C18.9371 36.3334 18.7856 36.1174 18.6828 36.004C18.1525 35.4369 17.5681 34.9995 16.7674 34.8321C15.6257 34.5999 14.8032 35.0373 14.2567 35.9338C14.1485 36.1066 14.1756 36.1768 14.3595 36.2632C15.6473 36.841 16.9784 37.219 18.4014 37.1866L18.3906 37.1812Z" fill="#111110"/>
<path d="M6.28178 18.3989C6.28178 18.3989 6.28719 18.4259 6.28719 18.4421C6.28719 18.4421 6.28178 18.4421 6.27637 18.4475C6.27637 18.4313 6.27637 18.4151 6.27637 18.3989H6.28178Z" fill="#D4C34F"/>
<path d="M6.27046 19.1658C6.27046 19.1658 6.28128 19.1874 6.28669 19.1982C6.28669 19.1982 6.28128 19.209 6.27587 19.2144C6.26505 19.2036 6.25964 19.1874 6.27587 19.1658H6.27046Z" fill="#D4C34F"/>
<path d="M18.6127 28.114C16.9408 28.0006 15.3013 27.7198 13.9108 26.6451C13.1695 26.0727 12.6609 25.3167 12.6176 24.377C12.5797 23.5292 13.0071 22.7947 13.5374 22.1467C14.6466 20.7858 16.1725 20.3106 17.8444 20.1162C19.2728 19.9488 20.6688 20.0784 22.0269 20.5158C23.5149 20.9964 24.662 21.9091 25.2031 23.4212C25.452 24.1178 25.4682 24.8846 25.057 25.5057C24.4185 26.4723 23.5474 27.1312 22.4057 27.5308C21.1666 27.9574 19.9059 28.0168 18.6127 28.1194V28.114Z" fill="#3783C6"/>
<path d="M10.1341 20.0459C9.86896 20.3969 9.64171 20.7209 9.39281 21.0341C9.31165 21.1367 9.27918 21.2502 9.31165 21.3474C9.65253 22.4598 10.0529 23.5507 10.9836 24.3283C11.2758 24.5713 11.6112 24.7928 12.0225 24.7495C12.3958 24.7117 12.2822 25.025 12.3796 25.1924C12.4878 25.3814 12.4445 25.5434 12.2659 25.646C11.3894 26.1698 10.567 26.267 9.64712 25.6676C8.24031 24.7603 7.4828 23.3941 7.00124 21.8442C6.77398 21.1205 6.71988 20.3645 6.60625 19.6193C6.47639 18.766 6.60625 17.9398 6.70905 17.1189C6.86056 15.9363 7.24472 14.8238 8.05093 13.9112C8.99782 12.8365 10.0475 12.8689 11.173 13.5385C12.3417 14.2352 12.8936 15.407 13.3535 16.6167C13.8134 17.8318 13.9757 19.1116 14.0515 20.4023C14.0623 20.6183 13.9974 20.8397 13.9703 21.0557C13.9595 21.153 13.9108 21.2448 13.8134 21.234C13.6782 21.2232 13.7377 21.0989 13.7323 21.0179C13.6836 20.1593 13.5862 19.306 13.3481 18.4798C13.1263 17.7022 12.8449 16.9461 12.3525 16.2873C12.0982 15.9471 11.8114 15.6176 11.4002 15.4556C10.778 15.2072 10.1341 15.4988 9.70663 16.1037C9.28459 16.7031 9.11145 17.4051 9.07898 18.1342C9.05734 18.6148 9.10063 19.1008 9.06816 19.5815C9.05193 19.8461 9.19261 19.9271 9.38199 19.9271C9.63629 19.9271 9.87437 20.0027 10.1449 20.0405L10.1341 20.0459Z" fill="white"/>
<path d="M24.256 21.0557C24.0071 20.9153 23.9638 20.7371 23.9692 20.5265C23.9962 18.2692 24.5157 16.1577 25.9062 14.3378C26.4744 13.5979 27.2535 13.1065 28.2437 13.0741C29.0012 13.0525 29.5748 13.4467 30.0347 13.9867C30.7651 14.8454 31.0681 15.866 31.2629 16.9677C31.4307 17.9128 31.4577 18.8578 31.3766 19.7867C31.2251 21.4607 30.8192 23.0808 29.6992 24.4309C29.1798 25.0573 28.6387 25.6352 27.8379 25.9052C27.0858 26.159 26.377 26.1158 25.7277 25.6244C25.5816 25.511 25.5167 25.3706 25.6249 25.1978C25.7277 25.0303 25.6249 24.7603 25.9874 24.7333C26.799 24.6793 27.3293 24.1501 27.7513 23.5291C28.2058 22.8594 28.5088 22.1142 28.6928 21.3311C28.7686 21.0125 28.4439 20.8127 28.287 20.5697C28.1734 20.3861 27.8704 20.2187 27.9299 20.0351C28.0002 19.8245 28.314 19.9595 28.5197 19.9379C28.801 19.9109 28.9579 19.8407 28.9525 19.4896C28.9363 18.55 28.9742 17.6049 28.6333 16.7085C28.3844 16.0497 27.9786 15.5366 27.2373 15.3908C26.8748 15.3152 26.5447 15.4016 26.2634 15.6392C25.5816 16.2117 25.2082 16.9839 24.8944 17.7939C24.494 18.8254 24.3479 19.9055 24.2614 21.0503L24.256 21.0557Z" fill="white"/>
<path d="M18.3909 37.181C16.9679 37.2134 15.6368 36.8408 14.349 36.2576C14.1651 36.1766 14.138 36.1064 14.2462 35.9282C14.7927 35.0371 15.6152 34.5943 16.7568 34.8265C17.5576 34.9885 18.142 35.4313 18.6723 35.9984C18.7805 36.1118 18.9266 36.3278 19.0564 36.1982C19.1863 36.0686 19.2025 35.831 18.9428 35.6743C18.7805 35.5771 18.5316 35.4259 18.6344 35.1775C18.7264 34.9561 18.9753 35.0857 19.143 35.0857C19.9763 35.0965 20.8474 35.8202 20.9177 36.5708C20.9394 36.776 20.9123 36.8138 20.7338 36.8786C19.9708 37.154 19.1809 37.1864 18.3801 37.1756L18.3909 37.181Z" fill="#CF412A"/>
</g>
<defs>
<clipPath id="clip0_549_416">
<rect width="38" height="40" fill="white"/>
</clipPath>
</defs>
</svg>
