<svg width="44" height="29" viewBox="0 0 44 29" fill="none" xmlns="http://www.w3.org/2000/svg">
<g clip-path="url(#clip0_549_360)">
<path d="M6.06364 20.9537C6.06364 20.6642 6.09962 20.3492 6.13559 20.0394C6.18184 19.6279 6.27434 19.2215 6.41309 18.8355C6.69574 18.038 7.08116 17.2963 7.64131 16.6512C7.99076 16.2499 8.37105 15.8842 8.79244 15.5591C8.93634 15.4473 8.93634 15.4524 8.89008 15.2746C8.81814 14.9851 8.75133 14.6955 8.68453 14.406C8.65369 14.2637 8.61772 14.1164 8.60744 13.9742C8.59716 13.837 8.68966 13.7304 8.76675 13.6339C8.89008 13.4866 9.01342 13.3342 9.16759 13.2173C9.33204 13.0853 9.48621 12.943 9.65066 12.816C9.8151 12.689 9.97955 12.5519 10.144 12.4249C10.2982 12.303 10.4472 12.1811 10.6065 12.0693C10.8223 11.9169 11.0279 11.7544 11.2386 11.602C11.2797 11.5715 11.326 11.5359 11.3722 11.5156C11.4544 11.4801 11.4493 11.4496 11.3928 11.3886C11.1153 11.1093 10.8532 10.8146 10.6065 10.5098C10.3496 10.2 10.1286 9.86472 9.92302 9.51931C9.84594 9.38723 9.83566 9.38723 9.71746 9.47867C9.19329 9.90028 8.6023 10.2254 8.00618 10.5352C7.39464 10.8502 6.75741 11.1093 6.10989 11.3328C5.56516 11.5207 5.02043 11.6833 4.45514 11.7849C4.11597 11.8458 3.77166 11.8864 3.42734 11.9372C3.11386 11.983 2.88261 11.8509 2.6565 11.6833C1.90106 11.1042 1.33578 10.3778 0.904101 9.5447C0.693402 9.13833 0.50326 8.72687 0.369646 8.29002C0.266867 7.95476 0.184643 7.6195 0.112697 7.27408C-0.0209167 6.6442 -0.00549973 6.01431 0.00991723 5.38951C0.0201952 5.08981 0.09728 4.79519 0.174365 4.50564C0.205199 4.38881 0.246311 4.27706 0.277145 4.16022C0.313117 4.02307 0.390202 3.92148 0.539233 3.8656C0.945213 3.72845 1.35633 3.62178 1.76231 3.48462C1.90106 3.43891 2.03982 3.39319 2.17857 3.34747C2.35843 3.28652 2.55372 3.24588 2.73358 3.18492C2.934 3.11888 3.13956 3.05793 3.33998 2.99189C3.51984 2.93602 3.70485 2.8903 3.88471 2.83442C4.11083 2.76331 4.33694 2.70743 4.55792 2.63631C4.79431 2.5652 5.03585 2.49916 5.27224 2.41789C5.65766 2.28581 6.04823 2.1893 6.43879 2.06739C6.82935 1.94547 7.21991 1.8388 7.61048 1.70673C7.9959 1.57974 8.3916 1.4883 8.77189 1.35115C8.91578 1.30035 9.06481 1.2648 9.2087 1.20892C9.3269 1.1632 9.46565 1.14796 9.58899 1.10732C10.0618 0.944774 10.55 0.827941 11.0228 0.665391C11.3157 0.563797 11.6189 0.487601 11.9169 0.401246C12.3024 0.284413 12.6929 0.17774 13.0732 0.0558268C13.4843 -0.0813251 13.6848 0.0507471 13.8955 0.355529C14.1473 0.721267 14.3477 1.1124 14.5635 1.49846C14.8205 1.96579 15.1134 2.41281 15.4012 2.8649C15.6992 3.33223 15.9922 3.80972 16.3056 4.2669C16.5163 4.57168 16.727 4.88154 16.9377 5.18124C17.2769 5.66381 17.6007 6.16162 17.9707 6.62388C18.1814 6.8931 18.3972 7.15217 18.6439 7.39091C18.6953 7.44171 18.7415 7.44679 18.8135 7.41631C19.0807 7.30456 19.3479 7.18772 19.6203 7.08105C19.8824 6.97946 20.1445 6.8677 20.4066 6.76103C20.7971 6.59848 21.2031 6.46133 21.5988 6.30894C21.8403 6.21242 22.0921 6.14131 22.3285 6.03971C22.4878 5.97368 22.6523 5.92288 22.8219 5.87208C23.0377 5.80605 23.2484 5.72477 23.4642 5.65365C23.5516 5.62318 23.6338 5.59778 23.7212 5.57238C23.8908 5.52158 24.0552 5.44539 24.2197 5.39967C24.3482 5.36411 24.4818 5.31839 24.6205 5.29808C24.6565 5.293 24.6976 5.28792 24.7233 5.2676C24.7696 5.22188 24.8312 5.23712 24.8723 5.22188C25.0162 5.15584 25.1807 5.16092 25.3246 5.09489C25.5301 5.00345 25.7562 4.97298 25.9669 4.89678C26.0903 4.85614 26.2187 4.82058 26.3421 4.79519C26.6401 4.73423 26.9331 4.62756 27.2311 4.56152C27.6371 4.47008 28.0431 4.34817 28.4491 4.2669C28.7882 4.19578 29.1274 4.11451 29.4666 4.04847C29.7595 3.99259 30.0524 3.92656 30.3402 3.8656C30.6177 3.80972 30.8952 3.77417 31.1727 3.71321C31.3988 3.66241 31.6301 3.62685 31.8614 3.5913C32.0772 3.55574 32.2982 3.5405 32.5089 3.4897C32.7247 3.43891 32.9457 3.43891 33.1564 3.38811C33.3414 3.34239 33.5418 3.34239 33.7319 3.31699C33.9221 3.29159 34.1071 3.25604 34.2972 3.23572C34.4308 3.22048 34.5593 3.20524 34.6929 3.18492C34.9036 3.15952 35.1143 3.16968 35.325 3.13412C35.6796 3.07825 36.0393 3.08333 36.3939 3.03253C36.507 3.01729 36.6252 3.00713 36.7382 3.00205C37.1596 2.99189 37.5759 2.95125 37.9922 2.91062C38.1772 2.89538 38.3622 2.91062 38.542 2.90046C39.2461 2.88522 39.9553 2.85474 40.6593 2.8903C41.1218 2.9157 41.425 3.18492 41.646 3.5659C41.7539 3.75385 41.8618 3.93672 41.9595 4.12974C42.0982 4.39389 42.237 4.65803 42.3552 4.93234C42.5093 5.28284 42.6635 5.63334 42.8074 5.98383C42.8896 6.18194 42.9461 6.38513 43.0335 6.58324C43.09 6.71531 43.1157 6.8677 43.1671 7.00993C43.2596 7.26392 43.3213 7.52298 43.3984 7.78205C43.4652 8.01063 43.5217 8.2443 43.5731 8.48305C43.6245 8.70655 43.6759 8.93514 43.7119 9.16373C43.7632 9.46851 43.8044 9.77329 43.8506 10.0781C43.8969 10.3981 43.9226 10.7232 43.9585 11.0432C43.9842 11.287 43.9894 11.5359 43.9842 11.7849C43.9842 12.2166 43.9894 12.6484 43.9842 13.0751C43.9791 13.3392 43.9431 13.6034 43.9277 13.8624C43.9071 14.1469 43.8506 14.4212 43.8301 14.7006C43.8146 14.8682 43.7684 15.0359 43.7427 15.2035C43.6964 15.5032 43.6348 15.8029 43.5628 16.1026C43.4755 16.4429 43.383 16.7782 43.2802 17.1135C42.9616 18.1751 42.5402 19.1961 42.016 20.1714C41.6768 20.8064 41.2914 21.421 40.8597 22.0052C40.6387 22.3049 40.4023 22.5995 40.1608 22.8891C39.7291 23.4123 39.2666 23.905 38.7733 24.3723C38.4547 24.672 38.1155 24.9463 37.7763 25.2207C37.4217 25.5102 37.0517 25.7845 36.6714 26.0385C35.8441 26.5922 34.9807 27.0798 34.0608 27.476C33.3876 27.7656 32.699 28.0297 31.995 28.2431C31.4759 28.4005 30.9466 28.5225 30.4173 28.6342C30.0113 28.7206 29.6002 28.7612 29.1891 28.8272C28.8139 28.8882 28.4388 28.9085 28.0636 28.9441C27.5652 28.9949 27.0615 28.9999 26.5579 28.9847C26.2599 28.9746 25.9618 28.9695 25.6637 28.9492C25.3965 28.9288 25.1293 28.8831 24.8569 28.8679C24.5434 28.8476 24.2351 28.7917 23.9268 28.746C23.6236 28.7002 23.3255 28.6241 23.0223 28.5682C22.714 28.5072 22.4159 28.4361 22.1178 28.3497C21.8917 28.2837 21.6605 28.2126 21.4395 28.1466C21.1671 28.0653 20.8896 27.9789 20.6224 27.8824C19.9903 27.6538 19.3685 27.3948 18.7672 27.0951C18.3253 26.8766 17.8833 26.6531 17.4619 26.3991C17.3797 26.3534 17.3077 26.3636 17.2358 26.4195C16.7219 26.8106 16.1618 27.1255 15.5605 27.3592C15.1185 27.5319 14.6663 27.6589 14.1987 27.7351C13.6591 27.8215 13.1143 27.8469 12.5747 27.8367C12.2767 27.8316 11.9838 27.7808 11.6908 27.7249C11.2694 27.6437 10.8635 27.5218 10.4626 27.3694C10.1697 27.2576 9.88705 27.1103 9.60954 26.9579C8.97745 26.6125 8.4173 26.1756 7.92396 25.6524C7.44603 25.1445 7.06061 24.5654 6.74713 23.9406C6.56212 23.5748 6.41309 23.1989 6.30518 22.8078C6.22809 22.5132 6.16642 22.2186 6.13045 21.9138C6.09448 21.5988 6.0585 21.2839 6.06364 20.9486V20.9537ZM35.0681 9.27548C35.0989 9.23992 35.0886 9.19928 35.0886 9.15865C35.0527 8.85895 35.0424 8.56432 35.0013 8.26462C34.9653 8.01064 34.9345 7.75665 34.8882 7.50267C34.7854 6.88802 34.6004 6.29878 34.4051 5.71461C34.251 5.24728 34.0454 4.80026 33.845 4.35325C33.7936 4.2415 33.7474 4.18054 33.5932 4.20086C33.2489 4.2415 32.9148 4.30245 32.5705 4.35325C32.108 4.41929 31.6507 4.51072 31.1881 4.592C30.8593 4.65295 30.5252 4.70883 30.2015 4.77487C29.6978 4.88154 29.1994 4.99329 28.7009 5.10505C28.4028 5.17108 28.0996 5.23204 27.8016 5.31331C27.2877 5.45047 26.7738 5.57746 26.265 5.71969C25.8333 5.8416 25.4016 5.9686 24.9648 6.09051C24.5229 6.2175 24.0861 6.36481 23.6493 6.50196C22.9298 6.72547 22.2258 6.99977 21.5114 7.25376C20.9513 7.45187 20.4014 7.68553 19.8464 7.90904C18.6285 8.40685 17.4362 8.96054 16.2697 9.55994C15.8637 9.76821 15.4577 9.96632 15.0723 10.2C15.0055 10.2406 14.9541 10.2711 14.9849 10.3778C15.0774 10.6775 15.1699 10.9823 15.283 11.2769C15.4474 11.6985 15.617 12.1201 15.8174 12.5316C15.9665 12.8313 16.1155 13.131 16.2851 13.4154C16.5112 13.7913 16.7579 14.1571 17.0302 14.5076C17.2769 14.8225 17.5236 15.1425 17.7959 15.4372C19.0087 16.763 20.4425 17.7789 22.1127 18.4647C22.4313 18.5967 22.7602 18.7136 23.0942 18.805C23.4077 18.8964 23.7212 18.9726 24.0501 19.0285C24.3225 19.0742 24.6 19.1199 24.8775 19.1555C25.1036 19.186 25.3348 19.2012 25.5661 19.2063C26.0543 19.2215 26.5374 19.2063 27.0204 19.1555C27.4315 19.1149 27.8324 19.0285 28.2281 18.932C28.3771 18.8964 28.521 18.8456 28.67 18.805C29.0144 18.7085 29.3433 18.5713 29.6721 18.4342C30.0524 18.2716 30.4173 18.0735 30.7667 17.85C31.0443 17.6671 31.3269 17.4944 31.5736 17.2709C31.738 17.1236 31.9282 16.9966 32.0823 16.8341C32.2982 16.6106 32.5397 16.4226 32.7298 16.1737C32.8635 15.9959 33.0125 15.8334 33.1461 15.6607C33.2746 15.488 33.3876 15.2949 33.511 15.1171C33.6908 14.8631 33.8296 14.5939 33.9735 14.3196C34.0454 14.1875 34.1071 14.0504 34.1533 13.9031C34.1842 13.8117 34.2561 13.7202 34.2921 13.6237C34.3589 13.4358 34.4206 13.2427 34.4977 13.0599C34.5953 12.8313 34.6467 12.5925 34.7186 12.3589C34.77 12.1963 34.7854 12.0185 34.8368 11.856C34.8779 11.7239 34.8831 11.5918 34.9088 11.4598C34.9602 11.2108 34.9961 10.9619 35.0116 10.708C35.0167 10.586 35.0475 10.4692 35.0475 10.3524C35.0475 10.2051 35.1092 10.0578 35.0578 9.90536C35.0732 9.90536 35.0835 9.90028 35.0835 9.88504C35.0835 9.8698 35.0732 9.86473 35.0578 9.8698C35.0886 9.83425 35.0938 9.79361 35.0629 9.75297C35.1195 9.73265 35.0938 9.6971 35.0784 9.66662C35.0784 9.59042 35.1041 9.51423 35.0629 9.43803C35.1143 9.38723 35.1092 9.34152 35.0629 9.29072L35.0681 9.27548ZM43.1106 12.8719C43.0489 12.9684 43.013 13.0446 42.9616 13.1107C42.6995 13.4815 42.4014 13.8218 42.0365 14.1012C41.7693 14.3044 41.497 14.4923 41.204 14.6447C40.7826 14.8682 40.3355 15.0359 39.873 15.1425C39.4927 15.2289 39.1073 15.2644 38.7219 15.2898C38.6705 15.2898 38.6294 15.2949 38.5831 15.3203C38.3827 15.4219 38.1669 15.4981 37.9459 15.554C37.6427 15.6353 37.3292 15.6861 37.0106 15.7013C36.5224 15.7267 36.0548 15.681 35.6025 15.493C35.1606 15.3102 34.806 15.0308 34.585 14.5939C34.5542 14.538 34.549 14.472 34.5131 14.4161C34.4771 14.3603 34.4514 14.3806 34.4411 14.4161C34.3486 14.6447 34.2201 14.853 34.0917 15.0613C33.8039 15.5337 33.4801 15.9858 33.1204 16.4074C32.4472 17.1947 31.6609 17.85 30.7667 18.3681C30.1809 18.7085 29.5745 19.0031 28.9219 19.1961C28.7574 19.2469 28.593 19.2977 28.4285 19.3384C28.0791 19.4298 27.7245 19.4958 27.3647 19.5466C26.9999 19.6025 26.635 19.6431 26.2599 19.6482C25.5558 19.6584 24.8621 19.6228 24.1683 19.4958C23.8445 19.4349 23.5208 19.3688 23.2022 19.2876C22.9504 19.2266 22.7037 19.1301 22.457 19.0387C22.0356 18.8863 21.6194 18.7136 21.2134 18.5205C20.2678 18.0684 19.4096 17.4792 18.6079 16.8188C18.4023 16.6512 18.2071 16.4734 18.0221 16.2855C17.0662 15.3254 16.2491 14.2688 15.617 13.07C15.4372 12.7246 15.2573 12.3792 15.1031 12.0236C14.913 11.5664 14.728 11.1042 14.6098 10.6216C14.5738 10.4895 14.5635 10.4844 14.4299 10.5606C13.1811 11.282 11.9838 12.0744 10.8378 12.9481C10.4009 13.2834 9.98469 13.6491 9.55301 13.9945C9.50676 14.0301 9.47593 14.086 9.50676 14.1266C9.56843 14.2129 9.56329 14.3145 9.58385 14.406C9.68149 14.8631 9.80996 15.3102 9.95386 15.7572C10.0669 16.1128 10.1954 16.4633 10.329 16.8138C10.4266 17.0677 10.5294 17.3217 10.6373 17.5706C10.7658 17.8754 10.9148 18.17 11.0639 18.4647C11.1564 18.6526 11.2643 18.8355 11.3722 19.0183C11.5932 19.3942 11.809 19.7752 12.0557 20.1359C12.3281 20.5372 12.6004 20.9334 12.9088 21.3093C13.2582 21.736 13.5974 22.1728 13.9931 22.564C14.3477 22.9094 14.6869 23.265 15.0569 23.5901C15.5656 24.0422 16.1001 24.4587 16.6448 24.8651C16.9018 25.0581 17.1741 25.2308 17.4465 25.3934C17.8576 25.6423 18.279 25.8861 18.7055 26.1096C19.1989 26.3687 19.7077 26.5922 20.2215 26.8055C20.4631 26.9071 20.7149 26.9884 20.9616 27.0849C21.3162 27.2221 21.6862 27.3236 22.051 27.4405C22.3028 27.5218 22.5701 27.5726 22.8322 27.6335C23.0788 27.6894 23.3255 27.7453 23.5773 27.791C23.8086 27.8367 24.0398 27.8723 24.2659 27.918C24.4047 27.9434 24.5434 27.9789 24.6873 27.984C24.934 27.9891 25.1704 28.045 25.4171 28.0551C25.6123 28.0653 25.8076 28.1059 26.0029 28.0958C26.1417 28.0907 26.2804 28.0958 26.4192 28.0958C26.8457 28.1059 27.2722 28.0958 27.6988 28.0805C28.0842 28.0653 28.4696 28.0196 28.8499 27.9891C29.1685 27.9637 29.482 27.918 29.7903 27.8621C30.2837 27.7757 30.777 27.6945 31.255 27.5421C31.5016 27.4659 31.7586 27.4049 32.0052 27.3236C32.2108 27.2576 32.4164 27.1763 32.6271 27.1205C32.7607 27.0849 32.8943 27.029 33.0228 26.9782C33.1461 26.9325 33.2643 26.8716 33.3928 26.8258C33.6035 26.7496 33.809 26.6582 34.0094 26.5617C34.3589 26.3941 34.7186 26.2417 35.0475 26.0283C35.2531 25.8963 35.4843 25.8099 35.6848 25.6727C35.8852 25.5356 36.0907 25.4137 36.286 25.2765C36.5224 25.114 36.7588 24.9413 36.9901 24.7686C37.283 24.5451 37.5553 24.3012 37.8431 24.0676C38.0795 23.8745 38.2954 23.6612 38.5163 23.4478C38.7887 23.1837 39.0354 22.9043 39.2821 22.6198C39.6623 22.183 40.0272 21.7309 40.3458 21.2432C40.6644 20.7607 40.9779 20.273 41.2554 19.7701C41.4507 19.4095 41.6203 19.0336 41.795 18.6628C41.9286 18.3834 42.0468 18.0989 42.1547 17.8094C42.2781 17.4741 42.3809 17.1287 42.4888 16.7833C42.5556 16.575 42.6224 16.3617 42.6686 16.1483C42.7457 15.808 42.8023 15.4676 42.8845 15.1273C42.9461 14.8631 42.9718 14.5939 43.013 14.3298C43.0489 14.0961 43.0695 13.8574 43.0849 13.6186C43.1055 13.3748 43.1312 13.131 43.1209 12.8567L43.1106 12.8719ZM34.7546 4.05355C34.6158 4.07387 34.472 4.06371 34.3383 4.09927C34.2561 4.11959 34.2458 4.14498 34.287 4.22626C34.4668 4.57676 34.6313 4.93742 34.7546 5.31331C34.7752 5.36919 34.77 5.45555 34.8265 5.47079C34.8934 5.48602 34.9088 5.39967 34.9447 5.35395C35.4073 4.75963 35.9057 4.63771 36.5584 4.87646C36.8153 4.97298 37.0415 5.13553 37.247 5.31331C37.7404 5.75017 38.1104 6.27846 38.4084 6.85754C38.4495 6.93374 38.4393 6.98454 38.3879 7.04549C38.1155 7.37059 37.838 7.69569 37.5708 8.02587C37.4628 8.15795 37.3344 8.27478 37.2624 8.43225C37.1956 8.57448 37.2316 8.67608 37.3755 8.74211C37.4885 8.79291 37.6016 8.83863 37.7147 8.88434C38.172 9.06721 38.6243 9.25008 39.0868 9.41263C39.1227 9.42787 39.1536 9.44311 39.1587 9.48883C39.1587 9.56502 39.1741 9.64122 39.1741 9.71741C39.1741 10.073 39.1793 10.4235 39.1073 10.7791C39.0508 11.0483 38.984 11.3124 38.8915 11.5715C38.8658 11.6528 38.7682 11.7239 38.8041 11.8001C38.835 11.8763 38.9532 11.8661 39.0354 11.8966C39.2923 12.0084 39.5184 12.1658 39.7446 12.3335C39.9501 12.4909 40.058 12.6992 40.1454 12.9125C40.2482 13.1513 40.2379 13.4205 40.1762 13.6745C40.1454 13.7964 40.1197 13.9234 40.058 14.0301C39.9244 14.2536 39.7805 14.472 39.5801 14.6498C39.5596 14.6701 39.5544 14.6854 39.5647 14.7057C39.575 14.7311 39.6007 14.7209 39.6212 14.7158C40.1043 14.6092 40.5771 14.4568 41.019 14.2333C41.3479 14.0656 41.6511 13.8574 41.9235 13.6085C42.2061 13.3443 42.4631 13.0599 42.6584 12.7246C42.7406 12.5824 42.8331 12.4452 42.8793 12.2827C42.9256 12.1201 42.977 11.9576 43.0335 11.795C43.0849 11.6426 43.1414 11.4902 43.1311 11.3277C43.1157 11.1143 43.1106 10.8959 43.0798 10.6826C43.0695 10.581 43.0695 10.4844 43.0592 10.3879C43.0335 10.2051 42.9924 10.0273 42.9718 9.84441C42.9307 9.46851 42.8588 9.09261 42.7766 8.72687C42.6686 8.25446 42.5299 7.79221 42.3963 7.32488C42.2575 6.83722 42.0777 6.36481 41.8824 5.90256C41.6357 5.31839 41.3479 4.75455 41.0704 4.18562C40.9265 3.891 40.7107 3.73353 40.3869 3.73353C39.9296 3.73353 39.4722 3.71829 39.0148 3.74877C38.6088 3.77417 38.1977 3.78433 37.7917 3.79956C37.5708 3.80972 37.3498 3.80972 37.1288 3.82496C36.7948 3.85036 36.4556 3.88084 36.1216 3.91132C36.0034 3.92148 35.8852 3.92656 35.767 3.93672C35.4329 3.97227 35.0989 4.01291 34.7649 4.04847L34.7546 4.05355ZM13.2788 24.4384C13.0989 24.4384 12.9139 24.4181 12.7289 24.3825C12.472 24.3317 12.2253 24.2403 11.994 24.1234C11.4442 23.8441 11.0176 23.4326 10.7093 22.8992C10.4626 22.4725 10.3239 22.0103 10.2673 21.5226C10.2314 21.2178 10.2416 20.9131 10.2828 20.6134C10.3341 20.2578 10.4215 19.9124 10.5757 19.5873C10.6065 19.5212 10.6065 19.4603 10.5705 19.3993C10.514 19.3079 10.4626 19.2114 10.4112 19.1199C9.94358 18.2513 9.54788 17.3573 9.24468 16.4226C9.20356 16.2956 9.20356 16.2956 9.09565 16.382C8.67939 16.7274 8.31452 17.1185 8.00618 17.5655C7.64131 18.0989 7.36895 18.6678 7.1788 19.2825C7.05033 19.699 6.95783 20.1206 6.93213 20.5524C6.91158 20.8623 6.91158 21.1772 6.94241 21.4922C6.9681 21.7258 6.99894 21.9595 7.04519 22.1881C7.14283 22.6757 7.30214 23.1481 7.52825 23.5951C7.67728 23.8949 7.82632 24.1996 8.03187 24.4689C8.25285 24.7584 8.46869 25.053 8.74619 25.2918C8.83356 25.368 8.92092 25.4442 9.00314 25.5204C9.13676 25.6524 9.28579 25.7693 9.43482 25.8709C9.65579 26.0182 9.89219 26.1553 10.1286 26.2874C10.4678 26.4753 10.8275 26.6125 11.1975 26.7344C11.4853 26.8309 11.7885 26.8766 12.0865 26.9325C12.2767 26.9681 12.4771 26.9731 12.6724 26.9782C13.0886 26.9935 13.5049 26.9884 13.9212 26.9325C14.25 26.8868 14.5738 26.8004 14.8976 26.6988C15.1699 26.6125 15.4217 26.4906 15.6838 26.3737C15.9716 26.2417 16.244 26.0842 16.5112 25.9166C16.5831 25.8709 16.5677 25.8455 16.5112 25.8048C16.2594 25.6321 16.0076 25.4492 15.7609 25.2714C15.3498 24.9717 14.9541 24.6568 14.5738 24.3165C14.5121 24.2606 14.4556 24.2403 14.3631 24.2707C14.0188 24.3927 13.6642 24.4536 13.2839 24.4384H13.2788ZM7.67728 2.59568C7.64645 2.60584 7.6002 2.61599 7.55909 2.63123C7.20964 2.73791 6.86532 2.84966 6.51587 2.95125C5.99684 3.10365 5.4778 3.26112 4.95876 3.42367C4.71723 3.49986 4.46542 3.55066 4.22389 3.63701C4.1468 3.66749 4.06458 3.69289 4.04916 3.78941C4.00291 4.02815 3.94124 4.2669 3.92582 4.51072C3.89499 4.88662 3.94124 5.25744 3.97208 5.63334C3.98749 5.867 4.03888 6.10067 4.08513 6.32925C4.15194 6.64928 4.23416 6.96422 4.34722 7.27408C4.46542 7.59918 4.57848 7.92428 4.71723 8.23922C4.94334 8.73195 5.20029 9.20944 5.52919 9.6463C5.69878 9.87488 5.88892 10.0832 6.09448 10.2762C6.18184 10.3625 6.2692 10.3829 6.39254 10.3422C6.57754 10.2813 6.75227 10.1949 6.93213 10.1136C7.84173 9.70217 8.71022 9.22468 9.49135 8.59988C9.55301 8.54908 9.56329 8.50845 9.52218 8.44241C9.42454 8.27478 9.3269 8.10207 9.22926 7.93444C9.03912 7.60426 8.94148 7.2436 8.74105 6.9185C8.60744 6.70515 8.5355 6.45117 8.43272 6.22258C8.28882 5.90256 8.19632 5.5673 8.10896 5.23204C8.06271 5.06441 8.01646 4.89678 7.97021 4.72915C7.84173 4.28722 7.80062 3.8402 7.76979 3.38303C7.75437 3.14936 7.74923 2.9157 7.73895 2.68203C7.73895 2.64647 7.75437 2.60076 7.67728 2.60584V2.59568ZM14.7588 3.77417C14.322 3.80972 13.9006 3.88592 13.4895 4.05355C12.287 4.53612 11.3619 5.32855 10.7041 6.43085C10.4266 6.90326 10.2365 7.41123 10.1337 7.9446C10.1183 8.02587 10.1337 8.11223 10.144 8.19858C10.1851 8.46273 10.3444 8.66592 10.4626 8.88942C10.6065 9.16881 10.7966 9.42787 10.9817 9.68186C11.0947 9.83425 11.2026 9.99172 11.3362 10.1238C11.4185 10.2051 11.4801 10.1949 11.5315 10.0933C11.6394 9.8952 11.7371 9.69202 11.8604 9.49899C12.102 9.12817 12.3332 8.74719 12.6261 8.41193C12.9447 8.04619 13.2634 7.68045 13.6334 7.37059C14.0445 7.03025 14.4916 6.73055 14.9798 6.49688C15.4166 6.28862 15.874 6.15146 16.357 6.09559C16.4033 6.09051 16.4701 6.12099 16.4906 6.06511C16.5061 6.01939 16.4598 5.97875 16.429 5.93812C16.1772 5.60794 15.9562 5.26252 15.7198 4.92218C15.4731 4.5666 15.2419 4.20594 15.0106 3.84528C14.9849 3.80464 14.9541 3.77925 14.9027 3.78433C14.8564 3.78433 14.8051 3.78433 14.7537 3.78433L14.7588 3.77417ZM5.67822 10.586C5.58058 10.4337 5.4521 10.3219 5.34418 10.1949C4.81487 9.54978 4.41403 8.82847 4.09541 8.06651C3.9361 7.69061 3.80763 7.30456 3.70485 6.90834C3.62776 6.61372 3.57123 6.31402 3.51984 6.01431C3.49415 5.8416 3.45818 5.66889 3.4479 5.49618C3.44276 5.37427 3.4479 5.25236 3.42734 5.13553C3.38109 4.77995 3.41706 4.42437 3.46332 4.07387C3.46845 4.01799 3.49415 3.93672 3.47873 3.91132C3.43762 3.8656 3.36568 3.91132 3.30915 3.92148C2.81066 4.07387 2.31732 4.23134 1.81884 4.36849C1.59272 4.42945 1.37175 4.51072 1.15077 4.57676C1.07369 4.60216 1.03771 4.64279 1.01716 4.71899C0.929796 5.04409 0.883545 5.37427 0.852711 5.70953C0.816738 6.11591 0.852711 6.52228 0.90924 6.92358C0.970908 7.37059 1.09424 7.80237 1.23813 8.22906C1.31008 8.44241 1.42314 8.6456 1.49508 8.85895C1.57731 9.09261 1.70578 9.30088 1.82398 9.51423C1.9319 9.71233 2.09635 9.88504 2.22996 10.073C2.47663 10.4235 2.76955 10.7334 3.11386 10.9975C3.19095 11.0585 3.26803 11.1042 3.37595 11.094C3.53526 11.0788 3.69457 11.0432 3.85388 11.028C4.08513 11.0077 4.30611 10.9467 4.52709 10.9061C4.69153 10.8705 4.85598 10.8299 5.02043 10.7842C5.23627 10.7283 5.44696 10.6673 5.6628 10.6013L5.67822 10.586ZM36.8821 15.2695C37.1751 15.2797 37.4937 15.2289 37.802 15.1425C38.2337 15.0206 38.6397 14.8428 39.0045 14.5634C39.3591 14.2942 39.6469 13.9945 39.7446 13.5475C39.8062 13.258 39.7446 12.9989 39.5647 12.7754C39.4105 12.5773 39.2101 12.4351 38.9737 12.3436C38.2543 12.0592 37.5245 12.0998 36.7999 12.303C36.4145 12.4097 36.0496 12.5824 35.7207 12.816C35.3918 13.0497 35.1246 13.3189 34.9807 13.6999C34.8934 13.9336 34.8831 14.1622 34.9807 14.3907C35.1349 14.7463 35.4329 14.9597 35.7721 15.0917C36.1113 15.2289 36.4813 15.2746 36.8873 15.2644L36.8821 15.2695ZM14.6252 3.28651C14.6201 3.22556 14.5944 3.17476 14.5635 3.12904C14.1319 2.43821 13.7567 1.71181 13.3816 0.985412C13.3456 0.909216 13.2942 0.899057 13.2274 0.914296C13.1143 0.939694 13.0064 0.975252 12.8985 1.01081C12.5182 1.13272 12.1379 1.25464 11.7474 1.35623C11.624 1.39179 11.5264 1.44766 11.4493 1.55942C11.033 2.1639 10.7196 2.81918 10.4678 3.50494C10.329 3.88592 10.2108 4.27198 10.1337 4.66819C10.0361 5.16092 9.96413 5.66381 9.95386 6.1667C9.95386 6.33941 9.95386 6.50704 9.95386 6.67975C9.95386 6.70007 9.93844 6.73563 9.97955 6.74071C10.0155 6.74071 10.0104 6.71023 10.0207 6.68991C10.0926 6.52228 10.1697 6.35465 10.2622 6.1921C10.6682 5.49618 11.2078 4.90694 11.845 4.41421C12.3589 4.01291 12.9293 3.70305 13.546 3.49478C13.8903 3.37795 14.2449 3.29159 14.6201 3.28651H14.6252ZM17.8628 7.82777C17.8165 7.77189 17.7754 7.72109 17.7343 7.67537C17.6109 7.53314 17.4671 7.40107 17.3643 7.2436C17.2307 7.04549 17.0765 6.85754 16.9429 6.65943C16.9275 6.63404 16.9069 6.60356 16.8761 6.60864C16.7938 6.6188 16.7168 6.58324 16.6345 6.58832C16.4033 6.60356 16.172 6.62896 15.9408 6.67975C15.4526 6.78643 15.0209 7.01501 14.6046 7.27408C14.3939 7.40615 14.1935 7.56362 14.0034 7.73633C13.7824 7.93952 13.546 8.13255 13.3507 8.36113C13.0064 8.76751 12.6364 9.15865 12.3795 9.63614C12.2561 9.8698 12.1174 10.0933 11.994 10.3219C11.8244 10.6318 11.8347 10.6318 12.0763 10.8807C12.1431 10.9518 12.1893 10.9569 12.2767 10.901C12.6364 10.6622 13.0013 10.4235 13.3661 10.1949C14.2603 9.6463 15.1905 9.15865 16.1206 8.67608C16.6911 8.38145 17.2666 8.09699 17.8576 7.83285L17.8628 7.82777ZM10.7761 1.68641C10.7247 1.68641 10.6939 1.68133 10.6682 1.68641C10.293 1.79816 9.92302 1.90992 9.54788 2.02167C9.13162 2.14866 8.71536 2.28581 8.29396 2.39757C8.24257 2.41281 8.21688 2.43821 8.21688 2.489C8.20146 3.03761 8.23229 3.57606 8.34021 4.11451C8.41216 4.47008 8.52522 4.8155 8.628 5.166C8.74106 5.5419 8.86953 5.90764 9.02884 6.26322C9.16245 6.56292 9.29093 6.86262 9.46051 7.15217C9.34232 5.20664 9.76885 3.38811 10.7812 1.68641H10.7761ZM11.1153 21.0705C11.1153 21.3093 11.1255 21.5125 11.1667 21.7157C11.2283 22.0154 11.3208 22.2998 11.4904 22.5538C11.6446 22.7875 11.8142 22.9957 12.0351 23.1685C12.3281 23.397 12.6672 23.524 13.0372 23.5647C13.2274 23.585 13.4175 23.5799 13.6128 23.5647C13.6385 23.5647 13.6745 23.585 13.695 23.5494C13.7105 23.5139 13.6848 23.4885 13.6591 23.4631C13.0321 22.8281 12.4463 22.1627 11.9067 21.4515C11.7936 21.3042 11.6908 21.1518 11.5829 21.0045C11.475 20.8521 11.3671 20.6946 11.2643 20.5372C11.2283 20.4864 11.2078 20.5016 11.1821 20.5372C11.1615 20.5626 11.1512 20.593 11.1461 20.6286C11.1101 20.7861 11.1255 20.9435 11.1204 21.0705H11.1153ZM35.1246 12.7297C35.2582 12.6078 35.4124 12.5163 35.5563 12.4097C35.7773 12.2471 36.0239 12.1354 36.2757 12.0338C36.4042 11.983 36.4042 11.9779 36.3117 11.8864C36.0188 11.602 35.7618 11.287 35.5409 10.9467C35.5306 10.9264 35.5203 10.8959 35.4741 10.9061C35.3918 11.5156 35.2891 12.1252 35.1195 12.7297H35.1246Z" fill="#0D0D0D"/>
<path d="M43.1158 12.8669C43.1261 13.1412 43.0952 13.3851 43.0798 13.6289C43.0644 13.8676 43.0438 14.1013 43.0079 14.34C42.9667 14.6042 42.9411 14.8734 42.8794 15.1376C42.8023 15.4779 42.7458 15.8182 42.6635 16.1586C42.6122 16.3719 42.5505 16.5853 42.4837 16.7935C42.3758 17.139 42.273 17.4793 42.1496 17.8196C42.0417 18.1092 41.9235 18.3936 41.7899 18.673C41.6152 19.0438 41.4456 19.4197 41.2503 19.7804C40.9728 20.2884 40.6593 20.7709 40.3407 21.2535C40.0221 21.7412 39.6572 22.1933 39.277 22.6301C39.0303 22.9146 38.7836 23.199 38.5112 23.4581C38.2903 23.6714 38.0744 23.8848 37.838 24.0778C37.5503 24.3064 37.2779 24.5553 36.985 24.7788C36.7537 24.9515 36.5225 25.1242 36.2809 25.2868C36.0805 25.4239 35.8749 25.5459 35.6797 25.683C35.4792 25.8202 35.248 25.9116 35.0424 26.0386C34.7135 26.2469 34.3538 26.3992 34.0044 26.572C33.8039 26.6685 33.5984 26.7599 33.3877 26.8361C33.2643 26.8818 33.1461 26.9428 33.0177 26.9885C32.8841 27.0393 32.7556 27.0952 32.622 27.1307C32.4113 27.1866 32.2057 27.2679 32.0002 27.3339C31.7483 27.4152 31.4965 27.4711 31.2499 27.5523C30.7719 27.7047 30.2786 27.786 29.7852 27.8724C29.4718 27.9282 29.1583 27.979 28.8448 27.9993C28.4594 28.0247 28.0791 28.0755 27.6937 28.0908C27.2671 28.106 26.8406 28.1162 26.4141 28.106C26.2753 28.106 26.1366 28.1009 25.9978 28.106C25.8025 28.1162 25.6073 28.0755 25.412 28.0654C25.1653 28.0552 24.9289 27.9993 24.6822 27.9943C24.5435 27.9943 24.3996 27.9587 24.2608 27.9282C24.0296 27.8825 23.8035 27.847 23.5722 27.8012C23.3204 27.7504 23.0737 27.6996 22.8271 27.6438C22.565 27.5828 22.3029 27.532 22.0459 27.4507C21.6811 27.3339 21.3111 27.2374 20.9565 27.0952C20.7098 26.9986 20.458 26.9174 20.2165 26.8158C19.7026 26.5974 19.1938 26.3789 18.7005 26.1199C18.2739 25.8913 17.8525 25.6525 17.4414 25.4036C17.169 25.236 16.8967 25.0633 16.6397 24.8753C16.095 24.469 15.5605 24.0524 15.0518 23.6003C14.6818 23.2701 14.3375 22.9196 13.988 22.5742C13.5923 22.1831 13.2531 21.7513 12.9037 21.3195C12.5953 20.9436 12.323 20.5474 12.0506 20.1461C11.8039 19.7804 11.5881 19.4045 11.3671 19.0286C11.2592 18.8457 11.1564 18.6629 11.0588 18.4749C10.9098 18.1803 10.7607 17.8857 10.6322 17.5809C10.5243 17.332 10.4215 17.078 10.3239 16.824C10.1903 16.4735 10.0618 16.123 9.94876 15.7674C9.81001 15.3204 9.68153 14.8734 9.57875 14.4162C9.5582 14.3248 9.56334 14.2232 9.50167 14.1369C9.47084 14.0962 9.50167 14.0403 9.54792 14.0048C9.9796 13.6594 10.3959 13.2936 10.8327 12.9584C11.9735 12.0796 13.176 11.2871 14.4248 10.5709C14.5636 10.4896 14.5738 10.4947 14.6047 10.6319C14.728 11.1144 14.9079 11.5767 15.098 12.0339C15.2471 12.3894 15.4269 12.7349 15.6119 13.0803C16.244 14.2791 17.056 15.3357 18.017 16.2957C18.202 16.4837 18.4024 16.6615 18.6028 16.8291C19.4096 17.4895 20.2627 18.0787 21.2083 18.5308C21.6143 18.7238 22.0254 18.8965 22.4519 19.0489C22.6986 19.1353 22.9453 19.2318 23.1971 19.2978C23.5157 19.374 23.8394 19.4451 24.1632 19.5061C24.857 19.6331 25.5507 19.6686 26.2548 19.6585C26.6248 19.6585 26.9896 19.6128 27.3596 19.5569C27.7194 19.5061 28.074 19.4401 28.4234 19.3486C28.5879 19.308 28.7523 19.2521 28.9168 19.2064C29.5694 19.0083 30.1758 18.7187 30.7617 18.3784C31.661 17.8552 32.4421 17.1999 33.1153 16.4176C33.475 15.996 33.7988 15.5439 34.0866 15.0715C34.2151 14.8632 34.3435 14.655 34.436 14.4264C34.4514 14.3858 34.472 14.3654 34.508 14.4264C34.544 14.4823 34.5542 14.5483 34.5799 14.6042C34.8009 15.036 35.1555 15.3153 35.5974 15.5033C36.0497 15.6912 36.5173 15.737 37.0055 15.7116C37.3241 15.6963 37.6376 15.6455 37.9408 15.5642C38.1567 15.5084 38.3725 15.4373 38.5781 15.3306C38.6243 15.3103 38.6706 15.3052 38.7168 15.3001C39.1022 15.2798 39.4877 15.2442 39.8679 15.1528C40.3356 15.041 40.7827 14.8785 41.1989 14.655C41.4919 14.4975 41.7694 14.3146 42.0315 14.1115C42.3963 13.8321 42.6944 13.4917 42.9565 13.1209C43.0027 13.0549 43.0438 12.9787 43.1055 12.8822L43.1158 12.8669ZM18.017 22.0967C18.0118 22.4777 18.0581 22.8587 18.1866 23.2194C18.3716 23.7172 18.6388 24.1743 19.0037 24.5756C19.7591 25.4036 20.7252 25.8811 21.7787 26.2011C22.1487 26.3129 22.5239 26.3891 22.9041 26.4653C23.3923 26.5567 23.8857 26.6126 24.379 26.6685C24.6874 26.704 25.0009 26.7142 25.3143 26.7142C25.7614 26.7142 26.2137 26.7193 26.6607 26.704C27.0719 26.6888 27.483 26.6634 27.889 26.6177C28.3001 26.572 28.7112 26.5262 29.1172 26.4551C29.5232 26.384 29.924 26.3027 30.3248 26.1961C30.8233 26.0589 31.3064 25.8862 31.774 25.6728C32.0207 25.5611 32.2622 25.4341 32.4884 25.2868C32.6888 25.1598 32.8789 25.0226 33.0639 24.8804C33.5521 24.5096 33.9427 24.0626 34.2664 23.5495C34.2921 23.5089 34.3024 23.4429 34.323 23.4175C34.5131 23.2041 34.5799 22.9349 34.6827 22.686C34.7752 22.4625 34.8163 22.2237 34.8677 21.9901C34.9499 21.6294 34.9397 21.2738 34.8985 20.9182C34.8728 20.71 34.7958 20.517 34.6827 20.3341C34.5542 20.136 34.3898 19.9887 34.1739 19.8921C33.9324 19.7804 33.6652 19.7804 33.4082 19.7398C33.0896 19.694 32.7659 19.7448 32.4472 19.7804C32.2211 19.8058 31.9899 19.8312 31.7689 19.882C31.5736 19.9226 31.3732 19.9328 31.1831 19.9785C30.7308 20.0801 30.2683 20.1512 29.8109 20.2477C29.3639 20.3442 28.9116 20.395 28.4645 20.4865C28.0997 20.5627 27.7194 20.5779 27.3494 20.6185C27.041 20.6541 26.7276 20.6439 26.4192 20.6643C26.1006 20.6795 25.782 20.6693 25.4634 20.649C25.2886 20.6338 25.1139 20.649 24.9392 20.6439C24.7233 20.6389 24.5178 20.5627 24.2968 20.583C24.2814 20.583 24.266 20.583 24.2506 20.583C23.9422 20.5017 23.6236 20.4712 23.3101 20.4103C23.0223 20.3493 22.7294 20.2985 22.4365 20.2426C22.0459 20.1665 21.6605 20.0598 21.2648 20.0242C21.0901 20.009 20.9154 19.9531 20.7304 19.9531C20.6122 19.9531 20.4888 19.9175 20.3706 19.9074C20.201 19.8921 20.0315 19.9175 19.8567 19.9328C19.646 19.948 19.4405 19.9937 19.2503 20.0699C18.7056 20.2934 18.351 20.6947 18.1454 21.2433C18.0375 21.5278 18.0118 21.8174 18.0067 22.1171L18.017 22.0967Z" fill="white"/>
<path d="M35.0729 9.88495C35.1243 10.0323 35.0575 10.1796 35.0627 10.332C35.0627 10.4488 35.037 10.5707 35.0267 10.6875C35.0113 10.9415 34.9753 11.1904 34.9239 11.4393C34.8982 11.5714 34.8879 11.7035 34.852 11.8356C34.8006 11.9981 34.7852 12.1759 34.7338 12.3384C34.6567 12.5721 34.6104 12.8109 34.5128 13.0394C34.4357 13.2223 34.3792 13.4153 34.3072 13.6033C34.2713 13.7049 34.1993 13.7912 34.1685 13.8827C34.1222 14.03 34.0606 14.1671 33.9886 14.2992C33.8396 14.5684 33.7008 14.8427 33.5261 15.0967C33.4028 15.2745 33.2897 15.4625 33.1612 15.6402C33.0328 15.818 32.8786 15.9806 32.745 16.1533C32.56 16.4022 32.3133 16.5902 32.0975 16.8137C31.9433 16.9711 31.7583 17.1032 31.5887 17.2505C31.3369 17.4689 31.0594 17.6467 30.7819 17.8296C30.4324 18.0531 30.0676 18.2512 29.6873 18.4138C29.3584 18.556 29.0295 18.6881 28.6852 18.7846C28.5361 18.8252 28.3923 18.876 28.2432 18.9116C27.8424 19.0081 27.4415 19.0944 27.0356 19.1351C26.5525 19.1859 26.0694 19.2011 25.5812 19.1859C25.35 19.1808 25.1187 19.1656 24.8926 19.1351C24.6151 19.0995 24.3427 19.0538 24.0652 19.0081C23.7415 18.9573 23.4229 18.876 23.1094 18.7846C22.7753 18.6881 22.4464 18.5763 22.1278 18.4442C20.4577 17.7585 19.0187 16.7425 17.8111 15.4167C17.5387 15.1221 17.292 14.8021 17.0454 14.4872C16.773 14.1367 16.5263 13.7709 16.3002 13.395C16.1306 13.1106 15.9816 12.8109 15.8326 12.5112C15.6322 12.1048 15.4626 11.6832 15.2981 11.2565C15.1851 10.9618 15.0977 10.6571 15.0001 10.3574C14.9641 10.2507 15.0155 10.2253 15.0874 10.1796C15.478 9.94591 15.884 9.7478 16.2848 9.53953C17.4514 8.94012 18.6436 8.39152 19.8615 7.88863C20.4114 7.66004 20.9613 7.43145 21.5266 7.23335C22.2409 6.97936 22.9449 6.71014 23.6644 6.48155C24.1012 6.3444 24.538 6.19709 24.98 6.07009C25.4116 5.94818 25.8433 5.81611 26.2801 5.69928C26.7889 5.55705 27.3079 5.43005 27.8167 5.2929C28.1147 5.21163 28.4128 5.15067 28.716 5.08463C29.2145 4.97288 29.7181 4.86113 30.2166 4.75445C30.5455 4.68842 30.8744 4.62746 31.2033 4.57158C31.6606 4.49031 32.1232 4.39887 32.5857 4.33284C32.9248 4.28712 33.264 4.22108 33.6083 4.18045C33.7625 4.16521 33.8087 4.22108 33.8601 4.33284C34.0657 4.77985 34.2661 5.22686 34.4203 5.6942C34.6156 6.28344 34.7954 6.87269 34.9033 7.48225C34.9445 7.73624 34.9753 7.99022 35.0164 8.24421C35.0575 8.53883 35.0678 8.83853 35.1038 9.13823C35.1038 9.17887 35.1192 9.21951 35.0832 9.25507C35.0832 9.30586 35.0832 9.35158 35.0832 9.40238C35.1243 9.47349 35.1038 9.55477 35.0986 9.63096C35.0627 9.65636 35.0781 9.68684 35.0832 9.71732C35.114 9.75796 35.1089 9.79351 35.0781 9.83415C35.0781 9.84431 35.0781 9.85955 35.0781 9.86971L35.0729 9.88495ZM25.2883 16.8492C25.4116 16.8645 25.571 16.8391 25.7148 16.7883C26.3315 16.5749 26.6964 16.1228 26.9174 15.5387C27.0818 15.0916 27.1126 14.6243 27.1332 14.1621C27.1435 13.8674 27.1024 13.5728 27.0715 13.2782C27.0613 13.1664 27.0304 13.0598 27.0253 12.948C27.0201 12.8464 26.9739 12.7804 26.8711 12.7499C26.7735 12.7245 26.6758 12.6991 26.5833 12.6686C26.311 12.5873 26.0386 12.5061 25.7662 12.4299C25.4014 12.3232 25.0262 12.2419 24.6614 12.12C24.4712 12.0591 24.3941 11.866 24.4866 11.6882C24.6305 11.3987 24.8412 11.1447 25.0159 10.8755C25.2575 10.5047 25.5144 10.144 25.7662 9.77827C25.8022 9.7224 25.7971 9.67668 25.7662 9.62588C25.5555 9.31094 25.3448 9.00108 25.0982 8.71154C24.795 8.36104 24.4763 8.02578 24.0858 7.76163C23.7312 7.52289 23.3509 7.3197 22.9295 7.23843C22.6674 7.18763 22.4002 7.19779 22.133 7.2689C21.6756 7.3959 21.3724 7.6956 21.1514 8.08166C21.0075 8.33564 20.9048 8.61502 20.8482 8.90965C20.7917 9.19411 20.766 9.47857 20.7454 9.76304C20.73 9.97638 20.7403 10.1897 20.7711 10.4031C20.7866 10.525 20.7711 10.652 20.7968 10.7637C20.8636 11.0736 20.9099 11.3885 20.987 11.6984C21.1052 12.1708 21.2593 12.628 21.4443 13.0801C21.6037 13.4661 21.7938 13.837 21.9994 14.2027C22.1998 14.5583 22.4516 14.8885 22.7034 15.2136C23.0785 15.6961 23.5154 16.1177 24.0447 16.4327C24.4198 16.6613 24.8155 16.8492 25.3089 16.8441L25.2883 16.8492Z" fill="white"/>
<path d="M34.7543 4.04849C35.0884 4.01293 35.4224 3.97229 35.7564 3.93673C35.8746 3.92657 35.9928 3.92149 36.111 3.91134C36.4451 3.88086 36.7842 3.85038 37.1183 3.82498C37.3393 3.80974 37.5602 3.80974 37.7812 3.79958C38.1872 3.78434 38.5983 3.77926 39.0043 3.74879C39.4617 3.71831 39.919 3.73355 40.3764 3.73355C40.7002 3.73355 40.916 3.89102 41.0599 4.18564C41.3374 4.75457 41.6303 5.31841 41.8718 5.90258C42.0671 6.36991 42.2418 6.84232 42.3857 7.32489C42.5194 7.79223 42.6581 8.25448 42.766 8.72689C42.8534 9.09771 42.9253 9.46853 42.9613 9.84442C42.9819 10.0273 43.023 10.2051 43.0487 10.388C43.0641 10.4845 43.0589 10.5861 43.0692 10.6826C43.0949 10.8959 43.1001 11.1143 43.1206 11.3277C43.136 11.4953 43.0744 11.6426 43.023 11.795C42.9664 11.9576 42.9151 12.1201 42.8688 12.2827C42.8226 12.4401 42.7352 12.5824 42.6478 12.7246C42.4525 13.0548 42.1956 13.3443 41.913 13.6085C41.6457 13.8574 41.3425 14.0657 41.0085 14.2333C40.5614 14.4619 40.0938 14.6092 39.6107 14.7159C39.5901 14.7159 39.5644 14.7311 39.5542 14.7057C39.5439 14.6854 39.5542 14.6651 39.5696 14.6498C39.77 14.472 39.9139 14.2536 40.0475 14.0301C40.1092 13.9234 40.1349 13.7964 40.1657 13.6745C40.2274 13.4155 40.2376 13.1513 40.1349 12.9126C40.0424 12.6992 39.9396 12.4859 39.734 12.3335C39.513 12.1608 39.2869 12.0084 39.0248 11.8966C38.9478 11.8611 38.8296 11.8763 38.7936 11.8001C38.7628 11.7239 38.8553 11.6528 38.881 11.5715C38.9735 11.3125 39.0403 11.0483 39.0968 10.7791C39.1687 10.4235 39.1636 10.073 39.1636 9.71743C39.1636 9.64124 39.1533 9.56504 39.1482 9.48884C39.1482 9.44313 39.1122 9.42789 39.0762 9.41265C38.6137 9.2501 38.1564 9.06723 37.7041 8.88436C37.5911 8.83864 37.478 8.79293 37.3649 8.74213C37.2262 8.67609 37.1902 8.5745 37.2519 8.43227C37.3238 8.2748 37.4523 8.15796 37.5602 8.02589C37.8275 7.69571 38.105 7.37061 38.3773 7.04551C38.4287 6.98455 38.4339 6.93376 38.3979 6.85756C38.0998 6.2734 37.7298 5.75019 37.2365 5.31333C37.0309 5.13046 36.8099 4.96791 36.5479 4.87648C35.8952 4.63773 35.4019 4.76472 34.9342 5.35397C34.8982 5.39969 34.8828 5.48604 34.816 5.4708C34.7595 5.45556 34.7646 5.36921 34.7441 5.31333C34.6207 4.93743 34.4563 4.57678 34.2764 4.22628C34.2353 4.145 34.2456 4.1196 34.3278 4.09928C34.4666 4.06373 34.6053 4.07389 34.7441 4.05357L34.7543 4.04849Z" fill="white"/>
<path d="M13.2792 24.4384C13.6543 24.4536 14.0141 24.3876 14.3584 24.2707C14.4457 24.2402 14.5023 24.2606 14.5691 24.3164C14.9442 24.6568 15.3399 24.9768 15.7562 25.2714C16.0029 25.4492 16.2547 25.6321 16.5065 25.8048C16.563 25.8454 16.5784 25.8708 16.5065 25.9165C16.2393 26.0842 15.9669 26.2416 15.6791 26.3737C15.4222 26.4905 15.1652 26.6125 14.8928 26.6988C14.5742 26.8004 14.2505 26.8868 13.9164 26.9325C13.5053 26.9884 13.0839 26.9934 12.6677 26.9782C12.4724 26.9731 12.2771 26.968 12.0818 26.9325C11.7838 26.8766 11.4806 26.8309 11.1928 26.7344C10.8279 26.6125 10.4682 26.4804 10.1239 26.2874C9.88747 26.1553 9.65108 26.0181 9.4301 25.8708C9.28107 25.7692 9.13204 25.6473 8.99842 25.5203C8.9162 25.4391 8.82884 25.3679 8.74147 25.2917C8.46397 25.0479 8.24813 24.7533 8.02716 24.4688C7.8216 24.1996 7.67257 23.8948 7.52353 23.5951C7.29742 23.1481 7.13811 22.6757 7.04047 22.188C6.99422 21.9595 6.95825 21.7258 6.93769 21.4921C6.90686 21.1772 6.90686 20.8622 6.92741 20.5524C6.95311 20.1206 7.04047 19.699 7.17408 19.2825C7.36423 18.6678 7.64173 18.0989 8.00146 17.5655C8.30466 17.1185 8.67467 16.7274 9.09093 16.3819C9.19884 16.2956 9.19884 16.2956 9.23996 16.4226C9.54316 17.3573 9.944 18.2513 10.4065 19.1199C10.4579 19.2164 10.5093 19.3079 10.5658 19.3993C10.6018 19.4602 10.6069 19.5212 10.571 19.5872C10.4168 19.9123 10.3294 20.2578 10.278 20.6133C10.2318 20.9181 10.2266 21.2229 10.2626 21.5226C10.3191 22.0103 10.4579 22.4674 10.7046 22.8992C11.0129 23.4326 11.4343 23.844 11.9893 24.1234C12.2206 24.2402 12.4621 24.3266 12.7242 24.3825C12.9092 24.4231 13.0942 24.4434 13.2741 24.4384H13.2792Z" fill="white"/>
<path d="M7.67696 2.59561C7.75404 2.59053 7.73863 2.63625 7.73863 2.6718C7.7489 2.90547 7.75404 3.13914 7.76946 3.3728C7.80029 3.8249 7.84654 4.27699 7.96988 4.71892C8.01613 4.88655 8.06238 5.05418 8.10863 5.22181C8.20113 5.55707 8.2885 5.89233 8.43239 6.21235C8.54031 6.44602 8.61225 6.69493 8.74073 6.90827C8.93601 7.23337 9.03879 7.59911 9.22893 7.92421C9.32657 8.09184 9.42421 8.26455 9.52185 8.43218C9.56297 8.49822 9.55269 8.53886 9.49102 8.58965C8.70989 9.21446 7.8414 9.69195 6.9318 10.1034C6.75194 10.1847 6.57721 10.266 6.39221 10.332C6.26888 10.3726 6.18151 10.3523 6.09415 10.266C5.88859 10.0729 5.69845 9.85958 5.52886 9.63607C5.19997 9.19922 4.94302 8.72681 4.7169 8.22899C4.57301 7.91405 4.46509 7.58895 4.34689 7.26385C4.23384 6.95399 4.15161 6.63905 4.08481 6.31903C4.03856 6.09044 3.98717 5.85677 3.97175 5.62311C3.94605 5.25229 3.8998 4.87639 3.9255 4.5005C3.94605 4.25667 4.00258 4.01792 4.04883 3.77918C4.06939 3.68266 4.14647 3.65727 4.22356 3.62679C4.46509 3.54043 4.71176 3.48964 4.95843 3.41344C5.47747 3.25089 5.99137 3.09342 6.51555 2.94103C6.865 2.83943 7.20931 2.72768 7.55876 2.62101C7.59987 2.60577 7.64612 2.59561 7.67696 2.58545V2.59561Z" fill="#CF412A"/>
<path d="M14.7593 3.77408C14.8107 3.77408 14.8569 3.77408 14.9083 3.77408C14.9597 3.77408 14.9905 3.79439 15.0162 3.83503C15.2475 4.20077 15.4839 4.56143 15.7254 4.91193C15.9618 5.25227 16.1879 5.59769 16.4346 5.92787C16.4654 5.96343 16.5117 6.00914 16.4963 6.05486C16.4757 6.11074 16.4089 6.08026 16.3626 6.08534C15.8796 6.14121 15.4222 6.27837 14.9854 6.48663C14.4972 6.7203 14.0501 7.02 13.639 7.36034C13.2638 7.6702 12.9504 8.03594 12.6317 8.40168C12.3388 8.73694 12.1076 9.11792 11.866 9.48874C11.7427 9.67669 11.6451 9.88495 11.5371 10.0831C11.4806 10.1847 11.4241 10.1999 11.3419 10.1135C11.2082 9.98147 11.1003 9.824 10.9873 9.67161C10.7971 9.41762 10.6121 9.15856 10.4682 8.87917C10.35 8.65567 10.1907 8.4474 10.1496 8.18833C10.1393 8.10198 10.1239 8.01562 10.1393 7.93435C10.2473 7.40098 10.4323 6.89301 10.7098 6.4206C11.3676 5.3183 12.2926 4.52587 13.4951 4.0433C13.9011 3.88075 14.3276 3.79947 14.7644 3.76392L14.7593 3.77408Z" fill="#CF412A"/>
<path d="M5.67803 10.5861C5.45705 10.6471 5.24636 10.708 5.03566 10.769C4.87121 10.8147 4.70676 10.8553 4.54232 10.8909C4.32134 10.9366 4.10036 10.9976 3.86911 11.0128C3.7098 11.028 3.55049 11.0636 3.39118 11.0788C3.28326 11.089 3.20618 11.0433 3.12909 10.9823C2.78992 10.7182 2.497 10.4083 2.24519 10.0578C2.11157 9.86986 1.95227 9.70223 1.83921 9.49904C1.72101 9.2857 1.59254 9.07743 1.51031 8.84376C1.43323 8.63042 1.32531 8.43231 1.25336 8.21388C1.10433 7.78719 0.986137 7.35033 0.924469 6.9084C0.86794 6.5071 0.831968 6.10581 0.86794 5.69435C0.893635 5.35909 0.945025 5.02891 1.03239 4.70381C1.05294 4.62761 1.08378 4.58697 1.166 4.56158C1.39212 4.49554 1.61309 4.41427 1.83407 4.35331C2.33255 4.21616 2.83103 4.05869 3.32438 3.9063C3.3809 3.89106 3.45285 3.84534 3.49396 3.89614C3.51452 3.92153 3.48882 4.00281 3.47855 4.05869C3.43229 4.40919 3.39118 4.76476 3.44257 5.12034C3.45799 5.24226 3.45799 5.36417 3.46313 5.481C3.47341 5.65879 3.50424 5.82642 3.53507 5.99913C3.58133 6.29883 3.63785 6.59854 3.72008 6.89316C3.82286 7.28937 3.95133 7.67543 4.11064 8.05133C4.42926 8.81328 4.82496 9.5346 5.35941 10.1797C5.46733 10.3067 5.60095 10.4185 5.69345 10.5709L5.67803 10.5861Z" fill="white"/>
<path d="M36.8822 15.2746C36.4763 15.2899 36.1063 15.2391 35.7671 15.1019C35.4279 14.9648 35.1247 14.7514 34.9757 14.4009C34.878 14.1724 34.8883 13.9438 34.9757 13.7101C35.1196 13.3291 35.3868 13.0548 35.7157 12.8262C36.0446 12.5926 36.4095 12.4249 36.7949 12.3132C37.5195 12.11 38.2492 12.0694 38.9687 12.3538C39.2051 12.4453 39.4055 12.5926 39.5597 12.7856C39.7344 13.0091 39.8063 13.2682 39.7395 13.5577C39.6419 14.0047 39.3541 14.2993 38.9995 14.5737C38.6346 14.853 38.2287 15.0257 37.797 15.1527C37.4886 15.2391 37.17 15.295 36.8771 15.2797L36.8822 15.2746Z" fill="#CF412A"/>
<path d="M14.6251 3.28652C14.2499 3.28652 13.8954 3.37796 13.551 3.49479C12.9292 3.70306 12.3639 4.01292 11.85 4.41422C11.2128 4.90695 10.6732 5.49619 10.2672 6.19211C10.1747 6.34958 10.0976 6.51721 10.0257 6.68992C10.0154 6.71532 10.0257 6.7458 9.98458 6.74072C9.94347 6.74072 9.95889 6.70008 9.95889 6.67976C9.95889 6.50705 9.95889 6.33942 9.95889 6.16671C9.96916 5.65874 10.0411 5.16093 10.1388 4.6682C10.2158 4.27199 10.334 3.88593 10.4728 3.50495C10.7246 2.81919 11.0381 2.16391 11.4543 1.55943C11.5314 1.44767 11.6291 1.38672 11.7524 1.35624C12.1378 1.25464 12.5232 1.13273 12.9035 1.01082C13.0114 0.975261 13.1194 0.944783 13.2324 0.914305C13.2992 0.899066 13.3455 0.914305 13.3866 0.985421C13.7617 1.70674 14.1369 2.43313 14.5686 3.12905C14.5994 3.17477 14.6251 3.22557 14.6302 3.28652H14.6251Z" fill="white"/>
<path d="M17.8631 7.82778C17.267 8.09192 16.6914 8.37639 16.1261 8.67101C15.196 9.15358 14.2658 9.64123 13.3716 10.1898C13.0016 10.4184 12.6419 10.6572 12.2822 10.8959C12.1999 10.9518 12.1537 10.9467 12.0817 10.8756C11.8351 10.6267 11.8299 10.6267 11.9995 10.3168C12.1229 10.0882 12.2616 9.86474 12.385 9.63107C12.6419 9.15358 13.0068 8.76244 13.3562 8.35607C13.5515 8.12748 13.7879 7.93445 14.0089 7.73126C14.1939 7.55855 14.3943 7.40108 14.6101 7.26901C15.0264 7.01503 15.4581 6.78644 15.9463 6.67469C16.1724 6.62389 16.4036 6.59849 16.64 6.58325C16.7223 6.58325 16.7993 6.61881 16.8816 6.60357C16.9175 6.60357 16.933 6.62897 16.9484 6.65437C17.082 6.85248 17.2362 7.04042 17.3698 7.23853C17.4725 7.396 17.6164 7.523 17.7398 7.67031C17.7809 7.71602 17.822 7.76682 17.8682 7.8227L17.8631 7.82778Z" fill="white"/>
<path d="M10.7764 1.6864C9.76919 3.3881 9.33752 5.20663 9.45571 7.15216C9.29127 6.86261 9.15765 6.56291 9.02404 6.26321C8.86473 5.90763 8.73626 5.54189 8.6232 5.16599C8.52042 4.81549 8.4125 4.47008 8.33541 4.1145C8.22236 3.57605 8.19666 3.03252 8.21208 2.48899C8.21208 2.4382 8.24291 2.4128 8.28916 2.39756C8.71056 2.2858 9.12682 2.14865 9.54308 2.02166C9.91822 1.90991 10.2882 1.79815 10.6634 1.6864C10.6891 1.67624 10.7199 1.6864 10.7713 1.6864H10.7764Z" fill="white"/>
<path d="M35.125 12.7348C35.2946 12.1303 35.3974 11.5208 35.4796 10.9112C35.5258 10.901 35.531 10.9315 35.5464 10.9518C35.7674 11.2922 36.0243 11.6071 36.3172 11.8916C36.4149 11.983 36.4149 11.9881 36.2813 12.0389C36.0243 12.1354 35.7777 12.2522 35.5618 12.4148C35.4179 12.5215 35.2638 12.6129 35.1301 12.7348H35.125Z" fill="white"/>
<path d="M35.0732 9.41782C35.0732 9.36702 35.0732 9.3213 35.0732 9.27051C35.1195 9.31623 35.1298 9.36702 35.0732 9.41782Z" fill="#CF412A"/>
<path d="M35.078 9.7326C35.0729 9.70212 35.0575 9.67164 35.0934 9.64624C35.1089 9.67672 35.1346 9.71228 35.078 9.7326Z" fill="#CF412A"/>
<path d="M35.0732 9.88512C35.0732 9.88512 35.0732 9.85972 35.0732 9.84956C35.0887 9.84448 35.0989 9.84956 35.0989 9.8648C35.0989 9.88004 35.0887 9.88512 35.0732 9.88512Z" fill="#CF412A"/>
<path d="M18.0166 22.0915C18.0217 21.7969 18.0526 21.5023 18.1554 21.2178C18.3609 20.6743 18.7155 20.2679 19.2602 20.0444C19.4504 19.9682 19.6508 19.9225 19.8666 19.9072C20.0362 19.8971 20.2058 19.8666 20.3805 19.8818C20.4987 19.892 20.6221 19.9275 20.7403 19.9275C20.9253 19.9275 21.0949 19.9783 21.2747 19.9987C21.6756 20.0342 22.0558 20.1409 22.4464 20.2171C22.7393 20.273 23.0323 20.3238 23.32 20.3847C23.6335 20.4508 23.9521 20.4762 24.2605 20.5574C24.2759 20.5574 24.2913 20.5625 24.3067 20.5574C24.5277 20.5371 24.7333 20.6133 24.9491 20.6184C25.1238 20.6184 25.2985 20.6133 25.4733 20.6235C25.7919 20.6489 26.1105 20.659 26.4291 20.6387C26.7375 20.6235 27.0509 20.6285 27.3593 20.593C27.7293 20.5524 28.1096 20.5371 28.4744 20.4609C28.9215 20.3695 29.3738 20.3136 29.8209 20.2222C30.2782 20.1257 30.7407 20.0596 31.193 19.9529C31.3831 19.9072 31.5887 19.9022 31.7788 19.8564C32.0049 19.8056 32.231 19.7802 32.4572 19.7548C32.7758 19.7193 33.0995 19.6685 33.4181 19.7142C33.6751 19.7548 33.9372 19.7548 34.1838 19.8666C34.3997 19.9631 34.5641 20.1104 34.6926 20.3085C34.8108 20.4863 34.8828 20.6844 34.9084 20.8927C34.9547 21.2483 34.9598 21.6089 34.8776 21.9645C34.8262 22.1982 34.7851 22.442 34.6926 22.6604C34.5898 22.9093 34.523 23.1786 34.3329 23.3919C34.3123 23.4173 34.302 23.4833 34.2764 23.524C33.9526 24.037 33.562 24.484 33.0738 24.8549C32.8888 24.9971 32.6935 25.1342 32.4983 25.2612C32.267 25.4035 32.0306 25.5305 31.7839 25.6473C31.3163 25.8657 30.8332 26.0384 30.3347 26.1705C29.939 26.2772 29.5331 26.3584 29.1271 26.4296C28.7211 26.5007 28.31 26.5413 27.8989 26.5921C27.4878 26.6378 27.0818 26.6632 26.6707 26.6785C26.2236 26.6988 25.7713 26.6937 25.3242 26.6886C25.0108 26.6886 24.6973 26.6785 24.3889 26.6429C23.8956 26.587 23.4023 26.5362 22.9141 26.4397C22.5338 26.3686 22.1535 26.2873 21.7886 26.1756C20.7351 25.8556 19.769 25.3781 19.0136 24.5501C18.6487 24.1539 18.3815 23.6967 18.1965 23.1938C18.0629 22.8382 18.0166 22.4572 18.0269 22.0712L18.0166 22.0915ZM26.0899 26.3737C26.3623 26.4042 26.6398 26.3737 26.9122 26.3737C27.1537 26.3737 27.4004 26.3635 27.6419 26.328C28.125 26.2569 28.6081 26.201 29.0808 26.0841C29.3481 26.0181 29.6153 25.9724 29.8722 25.8657C30.0675 25.7844 30.1446 25.6219 30.0984 25.4238C30.0418 25.1647 29.9236 24.9361 29.7695 24.7228C29.4868 24.3316 29.1374 23.9964 28.7468 23.7018C28.5361 23.5443 28.3254 23.3868 28.0942 23.2649C27.8732 23.1532 27.6573 23.0312 27.4261 22.9398C27.0355 22.7823 26.6398 22.6553 26.2236 22.5944C25.9049 22.5487 25.5863 22.5385 25.2728 22.6096C25.1803 22.6299 25.1084 22.6757 25.0467 22.7468C25.0005 22.8027 25.0056 22.9297 25.0467 22.9855C25.1803 23.1633 25.3756 23.2852 25.5349 23.4376C25.6942 23.59 25.8433 23.7526 25.9718 23.9304C25.9923 23.9558 26.018 23.9913 25.9923 24.0218C25.9666 24.0523 25.9306 24.0319 25.8998 24.0218C25.8484 24.0015 25.8022 23.971 25.7559 23.9354C25.3808 23.6306 25.021 23.3005 24.6305 23.0109C23.8648 22.4522 23.0528 21.9848 22.1432 21.6953C21.8297 21.5937 21.5163 21.5124 21.1874 21.4921C20.9818 21.4819 20.7711 21.4769 20.5655 21.487C20.3908 21.4921 20.2212 21.5073 20.0568 21.5581C19.3836 21.7613 18.9108 22.188 18.6487 22.8331C18.6179 22.9093 18.6127 23.016 18.6487 23.0922C18.7412 23.2751 18.8388 23.4529 18.9416 23.6306C19.0855 23.8745 19.2654 24.0929 19.4401 24.3164C19.5634 24.4688 19.7022 24.6212 19.8769 24.7126C20.0465 24.8041 20.1955 24.9209 20.36 25.0174C20.6169 25.1647 20.879 25.312 21.1565 25.4238C21.5419 25.5863 21.9376 25.7235 22.3385 25.8454C23.2943 26.1349 24.2707 26.2924 25.2626 26.3635C25.5401 26.3838 25.8176 26.3635 26.0951 26.3635L26.0899 26.3737Z" fill="#0D0D0D"/>
<path d="M25.2834 16.8493C24.7952 16.8493 24.3995 16.6614 24.0192 16.4379C23.4899 16.1179 23.0582 15.7013 22.6779 15.2188C22.4261 14.8937 22.1743 14.5635 21.9739 14.2079C21.7683 13.8472 21.573 13.4764 21.4189 13.0853C21.2339 12.6332 21.0797 12.176 20.9615 11.7036C20.8844 11.3937 20.8433 11.0788 20.7714 10.7689C20.7457 10.6521 20.7662 10.5302 20.7457 10.4083C20.7148 10.1949 20.7046 9.98159 20.72 9.76824C20.7457 9.48378 20.7662 9.19424 20.8228 8.91485C20.8793 8.62023 20.9821 8.34085 21.126 8.08686C21.3469 7.7008 21.6501 7.39602 22.1075 7.27411C22.3747 7.20299 22.642 7.18776 22.904 7.24363C23.3254 7.32999 23.7057 7.52809 24.0603 7.76684C24.4509 8.03099 24.7695 8.36117 25.0727 8.71674C25.3194 9.00629 25.5301 9.31615 25.7408 9.63109C25.7716 9.68189 25.7819 9.7276 25.7408 9.78348C25.489 10.1492 25.2371 10.5099 24.9905 10.8807C24.8106 11.1499 24.605 11.4039 24.4612 11.6934C24.3738 11.8712 24.4457 12.0643 24.6359 12.1252C25.0007 12.2471 25.3708 12.3284 25.7408 12.4351C26.0131 12.5164 26.2855 12.5976 26.5579 12.6738C26.6555 12.7043 26.7531 12.7297 26.8456 12.7551C26.9433 12.7856 26.9947 12.8465 26.9998 12.9532C27.005 13.065 27.0358 13.1716 27.0461 13.2834C27.0718 13.578 27.118 13.8726 27.1077 14.1673C27.0872 14.6346 27.0615 15.1019 26.8919 15.5439C26.6761 16.1331 26.3061 16.5852 25.6894 16.7935C25.5455 16.8443 25.3862 16.8697 25.2628 16.8544L25.2834 16.8493Z" fill="#0D0D0D"/>
<path d="M26.0906 26.3789C25.8131 26.3789 25.5356 26.3941 25.258 26.3789C24.2662 26.3078 23.2898 26.1503 22.334 25.8607C21.9331 25.7388 21.5374 25.6017 21.152 25.4391C20.8796 25.3223 20.6175 25.1801 20.3555 25.0328C20.191 24.9362 20.042 24.8143 19.8724 24.728C19.6977 24.6365 19.5589 24.4841 19.4356 24.3318C19.2609 24.1082 19.081 23.8898 18.9371 23.646C18.8343 23.4682 18.7315 23.2904 18.6442 23.1075C18.6031 23.0263 18.6082 22.9247 18.6442 22.8485C18.9063 22.2034 19.379 21.7767 20.0523 21.5735C20.2167 21.5227 20.3914 21.5125 20.561 21.5024C20.7717 21.4922 20.9773 21.4973 21.1828 21.5074C21.5117 21.5278 21.8252 21.609 22.1387 21.7106C23.0483 22.0002 23.8602 22.4675 24.626 23.0263C25.0217 23.3107 25.3762 23.6409 25.7514 23.9508C25.7976 23.9863 25.8439 24.0168 25.8953 24.0371C25.9261 24.0473 25.9672 24.0676 25.9878 24.0371C26.0135 24.0067 25.9878 23.9762 25.9672 23.9457C25.8388 23.7679 25.6897 23.6054 25.5304 23.453C25.3711 23.3006 25.1758 23.1837 25.0422 23.0009C25.0011 22.945 24.9908 22.8129 25.0422 22.7621C25.1039 22.691 25.1758 22.6453 25.2683 22.625C25.5869 22.5539 25.9056 22.5691 26.219 22.6097C26.6353 22.6656 27.031 22.7977 27.4216 22.9552C27.6528 23.0466 27.8687 23.1685 28.0896 23.2803C28.3209 23.4022 28.5316 23.5596 28.7423 23.7171C29.1328 24.0117 29.4823 24.3419 29.7649 24.7381C29.9191 24.9515 30.0373 25.1801 30.0938 25.4391C30.1349 25.6372 30.0579 25.7998 29.8677 25.8811C29.6159 25.9877 29.3435 26.0335 29.0763 26.0995C28.6035 26.2112 28.1205 26.2722 27.6374 26.3433C27.3959 26.3789 27.1543 26.384 26.9077 26.389C26.6353 26.389 26.3578 26.4195 26.0854 26.389L26.0906 26.3789Z" fill="#CF412A"/>
</g>
<defs>
<clipPath id="clip0_549_360">
<rect width="44" height="29" fill="white"/>
</clipPath>
</defs>
</svg>
