<svg width="45" height="52" viewBox="0 0 45 52" fill="none" xmlns="http://www.w3.org/2000/svg">
<g clip-path="url(#clip0_549_497)">
<path d="M5.25658 28.1166C5.09194 27.8755 5.0155 27.7521 4.93318 27.6345C4.22758 26.6584 3.53961 25.6707 2.79873 24.7181C2.43416 24.2478 2.07548 24.3124 1.81676 24.8475C1.6286 25.2356 1.49335 25.6471 1.36399 26.0528C0.623108 28.34 0.0939035 30.6684 0.0174629 33.0732C-0.0236974 34.4255 0.0057028 35.7837 0.129184 37.1302C0.229145 38.1885 0.634868 39.1822 1.41103 39.9642C2.43416 40.9873 3.68661 41.1754 5.0449 40.9167C5.39771 40.852 5.60351 40.9049 5.77991 41.2695C6.76188 43.2568 7.97905 45.0795 9.50786 46.6964C11.5188 48.8131 13.8826 50.3301 16.6698 51.2003C19.1982 51.9882 21.7795 52.141 24.3961 51.9176C26.2131 51.7589 27.9712 51.3414 29.647 50.63C33.3103 49.0718 35.9798 46.4201 37.9908 43.051C38.4318 42.3161 38.8258 41.5576 39.2374 40.8167C40.137 41.0343 41.0308 41.1342 41.9069 40.9049C43.3652 40.5169 44.1355 39.4409 44.5235 38.065C45.0704 36.1424 45.0469 34.1786 44.8469 32.2148C44.6529 30.3333 44.2707 28.487 43.7121 26.682C43.5239 26.0764 43.3358 25.459 43.077 24.8828C42.8418 24.3536 42.4655 24.3124 42.0892 24.7417C41.7482 25.1356 41.4365 25.5531 41.1307 25.9764C40.6015 26.7055 40.09 27.4463 39.5373 28.2283C39.4726 28.0872 39.4314 28.0225 39.4079 27.9579C38.1202 24.5241 36.0386 21.6842 33.1104 19.4735C32.8987 19.3088 32.8634 19.1618 32.9692 18.9149C33.7748 17.0451 34.3099 15.0872 34.3687 13.0587C34.4216 11.2889 34.3511 9.50738 34.1923 7.74347C33.9983 5.59739 33.569 3.48658 32.7693 1.46984C32.5694 0.970068 32.2872 0.505572 32.0461 0.0234375C32.0049 0.0351969 31.9638 0.0469563 31.9226 0.0587157C31.9108 0.182189 31.8814 0.305663 31.8814 0.435016C31.8932 1.15234 31.8932 1.86966 31.9285 2.5811C32.0108 4.40381 31.9755 6.21475 31.6521 8.01982C31.1229 11.0008 29.8646 13.6643 28.1652 16.1397C27.7595 16.7276 27.7654 16.7041 27.0422 16.563C25.9661 16.3513 24.8901 16.1103 23.7964 16.0044C21.9442 15.828 20.1096 16.0515 18.2926 16.4337C17.6341 16.5748 17.1578 16.516 16.8168 15.8163C16.2876 14.7403 15.5996 13.7408 15.0763 12.6589C13.9414 10.3188 13.3181 7.83755 13.324 5.22109C13.324 3.63945 13.324 2.05781 13.324 0.470294C13.324 0.3527 13.3064 0.235106 13.2946 0.0410766C12.2891 1.18762 12.0539 2.55759 11.7364 3.87464C10.5133 8.94881 10.2429 14.0053 12.2421 18.9913C8.96689 21.2903 6.64428 24.2948 5.2213 28.1342L5.25658 28.1166Z" fill="white"/>
<path d="M5.25616 28.1167C6.67913 24.2772 9.00175 21.2727 12.2769 18.9737C10.2777 13.9878 10.5482 8.93123 11.7713 3.85706C12.0888 2.54001 12.3299 1.17004 13.3295 0.0234985C13.3412 0.217528 13.3589 0.335122 13.3589 0.452716C13.3589 2.03435 13.3589 3.61599 13.3589 5.20351C13.353 7.82585 13.9763 10.3012 15.1111 12.6413C15.6344 13.7232 16.3224 14.7227 16.8516 15.7987C17.1927 16.4984 17.6689 16.5572 18.3275 16.4161C20.1386 16.0339 21.979 15.8105 23.8312 15.9869C24.919 16.0927 25.9951 16.3338 27.077 16.5454C27.7944 16.6865 27.7944 16.7101 28.2001 16.1221C29.9053 13.6467 31.1578 10.9832 31.687 8.00224C32.0045 6.20305 32.0457 4.38623 31.9633 2.56353C31.9281 1.8462 31.9281 1.12888 31.9163 0.417438C31.9163 0.293964 31.9398 0.170491 31.9575 0.0411375C31.9986 0.0293781 32.0398 0.0176188 32.0809 0.00585938C32.3279 0.487994 32.6101 0.95249 32.8042 1.45226C33.6039 3.469 34.0331 5.57981 34.2272 7.7259C34.3859 9.4898 34.4565 11.2714 34.4036 13.0411C34.3448 15.0696 33.8097 17.0276 33.0041 18.8973C32.8983 19.1501 32.9335 19.2971 33.1452 19.4559C36.0735 21.6666 38.155 24.5124 39.4428 27.9403C39.4663 28.005 39.5016 28.0696 39.5721 28.2107C40.1248 27.4287 40.6364 26.6879 41.1656 25.9588C41.4714 25.5355 41.7771 25.118 42.1241 24.7241C42.5004 24.289 42.8767 24.3301 43.1119 24.8652C43.3706 25.4473 43.5588 26.0588 43.7469 26.6644C44.3056 28.4695 44.6819 30.3157 44.8818 32.1972C45.0876 34.161 45.1052 36.1248 44.5584 38.0475C44.1644 39.4292 43.3941 40.5052 41.9418 40.8874C41.0656 41.1167 40.1719 41.0167 39.2722 40.7992C38.8606 41.54 38.4608 42.2985 38.0257 43.0334C36.0147 46.4025 33.3393 49.0601 29.6819 50.6124C28.0002 51.3238 26.2479 51.7413 24.431 51.9C21.8144 52.1234 19.2272 51.9706 16.7046 51.1827C13.9175 50.3184 11.5478 48.8014 9.54272 46.6789C8.00802 45.0619 6.79673 43.2392 5.81477 41.2519C5.63248 40.8874 5.42668 40.8344 5.07976 40.8991C3.72147 41.1637 2.46314 40.9697 1.44589 39.9466C0.663845 39.1705 0.264002 38.1709 0.164041 37.1126C0.0346801 35.7661 0.00527991 34.4079 0.0523203 33.0556C0.128761 30.6508 0.657965 28.3225 1.39885 26.0353C1.53409 25.6237 1.66345 25.2121 1.85161 24.8299C2.11034 24.2949 2.46902 24.2302 2.83358 24.7006C3.57447 25.6472 4.25655 26.6409 4.96804 27.6169C5.05036 27.7345 5.13268 27.858 5.29144 28.099L5.25616 28.1167ZM32.6395 19.7322C32.1397 20.4202 31.8516 21.2786 30.9108 21.4079C30.0935 21.5197 29.2762 21.4903 28.5235 21.061C27.0829 20.2261 26.6595 18.8797 27.3357 17.151C24.1782 16.2573 21.0264 16.2044 17.8277 17.0511C18.792 18.3799 18.0864 20.2438 17.1397 20.8082C16.2989 21.3139 15.4051 21.5961 14.4232 21.4256C13.353 21.2374 13.0531 20.2379 12.5121 19.5029C12.4357 19.5441 12.3651 19.5735 12.3063 19.6146C8.11386 22.6721 5.61484 26.7467 4.94452 31.915C4.87396 32.4676 4.69168 32.9027 4.19187 33.1967C3.98019 33.3202 3.79791 33.5142 3.63327 33.7024C2.8865 34.602 2.78066 35.678 3.01586 36.7481C3.23343 37.7476 3.74499 38.6237 4.8622 38.8883C5.32084 39 5.57956 39.2704 5.74421 39.6761C5.93237 40.1289 6.10289 40.5875 6.30281 41.0344C7.87866 44.5563 10.3248 47.2903 13.6764 49.213C17.3279 51.3062 21.2381 51.9765 25.3659 51.2709C29.923 50.4948 33.5804 48.1899 36.3969 44.5386C37.4788 43.1393 38.2961 41.5929 38.8959 39.929C39.0782 39.4233 39.384 39.0882 39.9308 38.9294C40.8775 38.659 41.5478 38.0357 41.7948 37.0597C41.9183 36.5775 41.93 36.0601 41.9477 35.5545C41.9829 34.4315 41.4067 33.5907 40.507 33.0439C40.0072 32.7381 39.8544 32.3677 39.7956 31.8679C39.7779 31.7327 39.7838 31.5974 39.7603 31.4681C39.4134 29.4808 38.8547 27.5699 37.9022 25.7824C36.6203 23.3718 34.8387 21.4021 32.6278 19.7263L32.6395 19.7322ZM32.6748 2.58116C32.5984 2.58704 32.5278 2.59292 32.4514 2.5988C32.4514 3.55131 32.4514 4.50382 32.4514 5.45633C32.4631 7.2908 32.0809 9.05471 31.5047 10.7833C30.7109 13.1587 29.4702 15.2989 28.0061 17.3216C27.7767 17.6449 27.5709 18.0565 27.5415 18.4387C27.4651 19.5323 28.1001 20.426 29.2056 20.7318C30.8638 21.1904 31.2989 20.9434 32.0339 19.644C33.2099 17.5685 33.7156 15.3107 33.8744 12.9647C34.0625 10.2894 33.8156 7.64358 33.2511 5.02124C33.0747 4.20396 32.863 3.39256 32.6631 2.58116H32.6748ZM12.8179 2.71052C12.7709 2.70464 12.7179 2.69288 12.6709 2.687C12.6356 2.7458 12.5886 2.80459 12.5709 2.86927C11.9241 5.19175 11.4361 7.5495 11.4067 9.97194C11.3891 11.4125 11.4655 12.8589 11.5831 14.2994C11.7477 16.3396 12.4239 18.227 13.4647 19.9968C13.9469 20.8141 14.6113 21.0552 15.4933 20.9023C17.6866 20.5319 18.3981 18.6033 17.1162 17.0393C16.3871 16.1515 15.7991 15.1284 15.2522 14.1112C13.7764 11.3654 12.8767 8.4491 12.8179 5.30934C12.8003 4.44503 12.8179 3.58071 12.8179 2.7164V2.71052ZM42.6297 24.9358C42.4769 25.0475 42.4357 25.0651 42.4122 25.0945C41.5772 26.3057 40.7422 27.5169 39.9132 28.734C39.8485 28.834 39.8191 28.9927 39.8367 29.1103C40.0072 30.0276 40.1719 30.9507 40.3894 31.8562C40.4482 32.1031 40.6188 32.3853 40.8246 32.5323C42.0888 33.4378 42.6003 34.6549 42.5063 36.1954C42.4063 37.824 41.6066 38.9353 40.0719 39.4527C39.919 39.5056 39.7544 39.5644 39.6368 39.6644C39.3722 39.8937 39.384 40.2288 39.6427 40.2994C40.4247 40.5228 41.2303 40.611 42.0065 40.3229C43.0531 39.9349 43.6999 39.1352 43.9998 38.0769C44.5525 36.1601 44.5878 34.1845 44.3291 32.2325C44.0939 30.4568 43.6646 28.7105 43.2765 26.9584C43.1295 26.294 42.8591 25.6531 42.6239 24.9358H42.6297ZM2.33378 24.8946C2.19854 25.2415 2.08682 25.4708 2.01626 25.7119C1.25185 28.1225 0.663845 30.5744 0.505084 33.1085C0.405123 34.796 0.399243 36.4835 0.916687 38.1121C1.51645 39.9995 3.20403 40.8815 5.05624 40.3582C5.37964 40.2641 5.43256 40.0936 5.26204 39.8937C5.068 39.6703 4.80928 39.4762 4.5388 39.3586C3.75087 39.0176 3.16287 38.4884 2.78654 37.7241C1.96334 36.0249 2.36318 34.0904 3.82143 32.8263C4.20363 32.4912 4.40944 32.1031 4.49176 31.6151C4.61524 30.886 4.73872 30.1569 4.8916 29.4278C4.99156 28.9516 4.93864 28.5459 4.62112 28.1402C4.09779 27.4581 3.63915 26.7232 3.14523 26.0176C2.90414 25.6648 2.63954 25.3297 2.3279 24.9005L2.33378 24.8946Z" fill="black"/>
<path d="M32.6398 19.7323C34.8507 21.4021 36.6323 23.3777 37.9142 25.7884C38.8668 27.5758 39.4254 29.4926 39.7723 31.4741C39.7958 31.6034 39.7899 31.7386 39.8076 31.8739C39.8664 32.3736 40.0193 32.7441 40.5191 33.0498C41.4246 33.5966 41.9949 34.4374 41.9597 35.5604C41.942 36.0661 41.9303 36.5835 41.8068 37.0656C41.5598 38.0417 40.8895 38.6649 39.9428 38.9354C39.3901 39.0941 39.0902 39.4234 38.9079 39.9349C38.3023 41.593 37.4849 43.1394 36.4089 44.5446C33.5924 48.1959 29.9408 50.5007 25.3779 51.2769C21.2501 51.9824 17.3399 51.3121 13.6884 49.219C10.3368 47.2963 7.88479 44.5623 6.31482 41.0403C6.1149 40.5935 5.94438 40.1348 5.75622 39.6821C5.59157 39.2764 5.33285 39.0059 4.87421 38.8942C3.757 38.6296 3.24544 37.7536 3.02787 36.754C2.79855 35.6839 2.89851 34.6079 3.64528 33.7083C3.80404 33.5143 3.98632 33.3262 4.20388 33.2027C4.70369 32.9087 4.88597 32.4736 4.95653 31.9209C5.62685 26.7585 8.12587 22.6839 12.3183 19.6206C12.3771 19.5794 12.4477 19.55 12.5241 19.5089C13.0651 20.2438 13.365 21.2434 14.4352 21.4315C15.4171 21.6079 16.3109 21.3198 17.1517 20.8142C18.0984 20.2497 18.804 18.38 17.8397 17.0571C21.0326 16.2104 24.1843 16.2633 27.3477 17.157C26.6715 18.8856 27.0949 20.2321 28.5355 21.067C29.2823 21.5021 30.0996 21.5256 30.9228 21.4139C31.8636 21.2904 32.1517 20.4261 32.6516 19.7382L32.6398 19.7323ZM25.3485 36.1014C25.5779 36.2248 25.7307 36.3072 25.8836 36.3895C27.6653 37.3479 29.5116 38.024 31.5931 37.7359C33.61 37.4537 35.2094 36.5188 36.2795 34.7667C37.1086 33.4144 37.2615 31.8856 37.3791 30.3569C37.5438 28.1991 36.8793 26.1471 36.5559 24.0539C36.5206 23.8363 36.3736 23.6893 36.0914 23.8246C35.8268 23.9539 35.5387 24.0304 35.2564 24.1244C33.2513 24.8182 31.5402 25.9177 30.3819 27.7522C29.3999 29.3103 28.3826 30.8508 27.4359 32.4324C26.7068 33.6437 24.8664 33.4085 24.2196 32.603C23.8256 32.1091 23.7374 31.5329 23.661 30.939C23.6433 30.7861 23.4846 30.645 23.3905 30.5039C23.3023 30.6568 23.1259 30.8273 23.1494 30.9625C23.2258 31.4564 23.3317 31.9562 23.4904 32.4266C23.8785 33.579 24.3607 34.6961 24.69 35.8662C24.9899 36.9304 25.2368 38.0299 25.0134 39.1647C24.8134 40.1525 24.4136 40.9698 23.3493 41.2814C22.3203 41.5871 21.4559 41.3167 20.7092 40.5641C19.9565 39.8115 19.9036 38.8531 19.9506 37.9006C20.033 36.2131 20.4563 34.5962 21.0973 33.0263C21.3677 32.3619 21.5147 31.6446 21.6735 30.939C21.7029 30.8155 21.5206 30.6391 21.4324 30.4921C21.3383 30.6391 21.209 30.7685 21.1678 30.9272C21.0796 31.2565 21.0737 31.6034 20.9797 31.9327C20.7562 32.7029 20.1564 33.091 19.4214 33.238C18.6688 33.3908 17.9573 33.285 17.4869 32.5677C17.2164 32.1561 16.9342 31.7504 16.7166 31.3094C15.8993 29.6572 14.8879 28.1344 13.6943 26.735C12.3477 25.1651 10.5132 24.3831 8.59628 23.7775C8.29052 23.6776 8.21996 23.9363 8.17879 24.1656C7.97887 25.2475 7.76719 26.3234 7.59667 27.4053C7.32619 29.1398 7.23799 30.8802 7.64371 32.5971C8.43164 35.9309 10.8307 37.7771 14.2294 37.783C15.6523 37.783 16.9812 37.3537 18.2396 36.7129C18.6982 36.4836 19.1451 36.2307 19.6155 35.972C19.4273 37.5066 19.2627 38.9883 19.8566 40.4876C15.0879 39.9055 10.7131 38.3474 6.40302 36.2542C6.4677 36.5306 6.4971 36.7011 6.54414 36.8657C7.14391 38.7766 7.96123 40.5817 9.07256 42.2515C10.8836 44.9738 13.2709 47.0258 16.3109 48.2606C19.1804 49.4248 22.1615 49.6776 25.2074 49.2719C27.3771 48.9838 29.3881 48.2665 31.1874 47.0082C34.5449 44.6504 36.6617 41.399 37.9142 37.5419C38.073 37.0598 38.1964 36.5659 38.3317 36.0779C34.1392 38.1828 29.882 39.835 25.2074 40.4582C25.7307 38.9942 25.5602 37.5772 25.3427 36.0896L25.3485 36.1014Z" fill="#39332D"/>
<path d="M32.6755 2.58105C32.8696 3.39245 33.0871 4.20385 33.2635 5.02113C33.828 7.63759 34.0691 10.2893 33.8868 12.9646C33.7222 15.3106 33.2165 17.5684 32.0464 19.6439C31.3114 20.9433 30.8762 21.1903 29.2181 20.7317C28.1185 20.4259 27.4776 19.5322 27.554 18.4386C27.5834 18.0564 27.7833 17.6389 28.0185 17.3214C29.4827 15.2988 30.7233 13.1586 31.5172 10.7832C32.0934 9.0546 32.4756 7.29069 32.4638 5.45622C32.458 4.50371 32.4638 3.5512 32.4638 2.59869C32.5403 2.59281 32.6108 2.58693 32.6873 2.58105H32.6755Z" fill="#9F876D"/>
<path d="M12.818 2.71055C12.818 3.57487 12.8063 4.43918 12.818 5.3035C12.8768 8.44325 13.7706 11.3655 15.2524 14.1054C15.7992 15.1226 16.3872 16.1456 17.1163 17.0335C18.4041 18.5975 17.6867 20.526 15.4935 20.8964C14.6114 21.0434 13.947 20.8082 13.4648 19.991C12.4182 18.2212 11.7479 16.3397 11.5832 14.2935C11.4656 12.853 11.3892 11.4066 11.4068 9.96609C11.4362 7.54366 11.9243 5.19178 12.5711 2.86342C12.5887 2.79875 12.6358 2.73995 12.671 2.68115C12.7181 2.68703 12.771 2.69879 12.818 2.70467V2.71055Z" fill="#9F876D"/>
<path d="M42.624 24.9358C42.8592 25.6472 43.1297 26.2881 43.2767 26.9584C43.6648 28.7106 44.0881 30.4568 44.3292 32.2325C44.5879 34.1845 44.5527 36.1542 43.9999 38.0769C43.7001 39.1294 43.0533 39.929 42.0066 40.3229C41.2304 40.6111 40.4249 40.5229 39.6428 40.2994C39.3782 40.223 39.3723 39.8878 39.6369 39.6644C39.7545 39.5645 39.9192 39.5057 40.0721 39.4527C41.6126 38.9353 42.4064 37.8241 42.5064 36.1954C42.6005 34.6549 42.0889 33.4437 40.8247 32.5324C40.6189 32.3854 40.4484 32.1031 40.3896 31.8562C40.172 30.9448 40.0074 30.0276 39.8369 29.1104C39.8133 28.9928 39.8427 28.834 39.9133 28.7341C40.7365 27.517 41.5774 26.3058 42.4123 25.0945C42.4358 25.0593 42.477 25.0416 42.6299 24.9358H42.624Z" fill="#39332D"/>
<path d="M2.33388 24.8946C2.64552 25.3238 2.91012 25.6648 3.1512 26.0117C3.64513 26.7173 4.10377 27.4522 4.62709 28.1343C4.93874 28.5458 4.99754 28.9457 4.89758 29.4219C4.74469 30.1451 4.62121 30.8801 4.49773 31.6092C4.41541 32.0972 4.20961 32.4852 3.82741 32.8204C2.36916 34.0845 1.96931 36.0189 2.79252 37.7182C3.16296 38.4884 3.75685 39.0176 4.54477 39.3527C4.81526 39.4703 5.07398 39.6643 5.26802 39.8878C5.43854 40.0818 5.38562 40.2582 5.06222 40.3523C3.21 40.8814 1.52243 39.9995 0.922664 38.1062C0.40522 36.4775 0.4111 34.7842 0.511061 33.1026C0.663942 30.5685 1.25195 28.1166 2.02223 25.7059C2.09867 25.4649 2.20451 25.2356 2.33976 24.8887L2.33388 24.8946Z" fill="#39332D"/>
<path d="M25.343 36.1013C25.5605 37.5889 25.731 39.0059 25.2077 40.4699C29.8823 39.8408 34.1395 38.1945 38.332 36.0895C38.1909 36.5776 38.0674 37.0714 37.9145 37.5536C36.662 41.4107 34.5452 44.6621 31.1877 47.0199C29.3943 48.2781 27.3774 49.0013 25.2077 49.2836C22.1618 49.6893 19.1748 49.4364 16.3112 48.2723C13.2712 47.0375 10.8839 44.9855 9.07286 42.2632C7.96153 40.5934 7.14421 38.7883 6.54444 36.8774C6.49152 36.7128 6.46212 36.5423 6.40332 36.2659C10.7134 38.365 15.0882 39.9231 19.8569 40.4993C19.263 39 19.4276 37.5183 19.6158 35.9837C19.1395 36.2424 18.6926 36.4952 18.2399 36.7245C16.9815 37.3654 15.6526 37.7946 14.2297 37.7946C10.831 37.7946 8.43782 35.9425 7.64401 32.6088C7.23829 30.886 7.32649 29.1456 7.59697 27.417C7.76749 26.3351 7.97917 25.2591 8.17909 24.1773C8.22025 23.948 8.29082 23.6951 8.59658 23.7892C10.5135 24.3948 12.348 25.1709 13.6946 26.7467C14.8882 28.1402 15.8996 29.6689 16.7169 31.3211C16.9345 31.7621 17.2167 32.1678 17.4872 32.5794C17.9576 33.2967 18.6691 33.4025 19.4217 33.2496C20.1568 33.1027 20.7565 32.7146 20.98 31.9444C21.074 31.621 21.0799 31.2682 21.1681 30.9389C21.2093 30.7802 21.3445 30.6449 21.4327 30.5038C21.515 30.6567 21.6973 30.8272 21.6738 30.9507C21.515 31.6562 21.368 32.3736 21.0976 33.038C20.4566 34.6079 20.0333 36.2248 19.9509 37.9122C19.9039 38.8648 19.9568 39.8231 20.7095 40.5757C21.4621 41.3225 22.3206 41.5929 23.3496 41.2931C24.408 40.9814 24.8137 40.17 25.0137 39.1764C25.2371 38.0416 24.996 36.9421 24.6903 35.8779C24.361 34.7137 23.8788 33.5907 23.4907 32.4382C23.332 31.962 23.2261 31.4681 23.1497 30.9742C23.1262 30.839 23.3026 30.6685 23.3908 30.5156C23.4849 30.6626 23.6377 30.7978 23.6613 30.9507C23.7377 31.5445 23.8259 32.1207 24.2199 32.6146C24.8667 33.426 26.7071 33.6553 27.4362 32.4441C28.3829 30.8625 29.4002 29.322 30.3822 27.7639C31.5405 25.9294 33.2457 24.8299 35.2567 24.1361C35.539 24.0362 35.8271 23.9597 36.0917 23.8363C36.3739 23.701 36.5209 23.848 36.5562 24.0656C36.8796 26.1587 37.544 28.2107 37.3794 30.3686C37.2618 31.8973 37.1089 33.426 36.2798 34.7784C35.2038 36.5364 33.6103 37.4713 31.5934 37.7476C29.5119 38.0357 27.6656 37.3537 25.8839 36.4012C25.731 36.3188 25.5782 36.2365 25.3488 36.1131L25.343 36.1013ZM12.4715 36.0954C12.4715 35.3722 12.4421 34.7607 12.4774 34.1492C12.5303 33.2673 12.8302 32.4559 13.477 31.8326C14.1003 31.2329 15.0058 31.3329 15.4704 32.0619C15.7056 32.4324 15.8643 32.8498 16.0642 33.2614C15.3998 33.5671 14.8 33.8435 14.1709 34.1375C14.8882 34.7666 16.1054 34.8489 16.0525 36.1425C16.8228 36.0719 17.5166 36.0072 18.2163 35.9484C18.2751 35.9484 18.3339 35.9484 18.3927 35.9367C19.4688 35.7309 20.2744 34.6608 20.1215 33.6377C18.2751 34.0963 17.5578 33.7906 16.5817 32.1443C15.9114 31.0154 15.241 29.8923 14.5825 28.7576C14.2885 28.2519 13.8769 27.8815 13.3065 27.8109C12.6126 27.7227 11.907 27.6816 11.2132 27.7169C10.2959 27.758 9.37862 27.8874 8.46722 27.9932C8.17321 28.0285 7.94977 28.1284 7.95565 28.5224C7.97329 29.2809 7.87921 30.0452 7.91449 30.8037C7.98505 32.2442 8.27906 33.6377 9.14342 34.8372C9.39038 35.1782 9.68439 35.6133 10.0431 35.7191C10.7722 35.9425 11.5542 35.9661 12.4656 36.0954H12.4715ZM30.1822 34.1434C30.588 34.3903 30.9349 34.6137 31.2877 34.8195C31.7522 35.09 32.1109 35.4134 31.9404 36.0719C32.5166 36.0249 33.0517 35.9955 33.575 35.9308C34.2042 35.8543 34.8686 35.8367 35.292 35.2429C35.5448 34.896 35.8153 34.5491 36.0094 34.1669C36.9031 32.3971 36.9149 30.4979 36.8032 28.5812C36.7796 28.1931 36.5738 27.9932 36.1799 27.9579C35.9153 27.9344 35.6566 27.8697 35.392 27.8286C34.1219 27.6287 32.8518 27.5228 31.5699 27.7698C31.0584 27.8638 30.7056 28.0814 30.441 28.5283C29.606 29.9159 28.7475 31.2917 27.8949 32.6676C27.2657 33.6789 26.5778 33.9728 25.4076 33.7494C25.1724 33.7024 24.9255 33.7141 24.6491 33.7024C24.7432 34.0258 24.8373 34.2786 24.8961 34.5373C25.0725 35.3605 25.6546 35.7779 26.4072 35.9249C27.0717 36.0543 27.7597 36.0601 28.5064 36.1248C28.4888 35.8191 28.4711 35.5545 28.4594 35.2899C28.4241 34.1845 28.5535 33.1203 29.1767 32.1678C29.4472 31.7503 29.8294 31.5269 30.3116 31.4681C31.2759 31.3446 31.8816 32.3794 31.9639 33.1732C31.9698 33.2496 31.8404 33.3672 31.7463 33.4143C31.2524 33.6553 30.7526 33.8788 30.1822 34.1434ZM22.7734 48.9602C23.2555 48.919 23.673 48.872 24.0905 48.8543C26.0015 48.7603 27.8008 48.237 29.5119 47.3962C29.8059 47.2492 29.9059 47.0846 29.8 46.7318C29.2767 44.9561 28.7828 43.1687 28.283 41.3871C28.0537 40.564 28.0537 40.5699 27.1952 40.6933C25.784 40.8932 24.3786 41.1226 23.1262 41.8752C22.8792 42.0221 22.7675 42.1515 22.7675 42.4514C22.7851 43.8684 22.7734 45.2854 22.7734 46.7083C22.7734 47.4373 22.7734 48.1664 22.7734 48.9661V48.9602ZM22.1618 48.9425C22.1971 48.8543 22.2206 48.8249 22.2206 48.7955C22.203 46.6201 22.1854 44.4446 22.1501 42.2632C22.1501 42.1397 22.0266 41.9692 21.909 41.8987C20.7389 41.1461 19.4217 40.905 18.0693 40.7815C17.8341 40.758 17.7165 40.8344 17.6695 41.0755C17.252 43.151 16.8404 45.2325 16.3876 47.3021C16.3053 47.6902 16.4464 47.7842 16.7287 47.8548C17.8577 48.1488 18.9807 48.478 20.1215 48.725C20.7918 48.8661 21.4974 48.8779 22.1618 48.9425ZM15.782 47.5314C16.2583 45.2325 16.7287 42.9805 17.205 40.6816C15.5409 40.2288 13.9357 39.7937 12.2657 39.3469C11.7659 40.6522 11.2602 41.9339 10.7957 43.2275C10.7428 43.3745 10.8369 43.6508 10.9604 43.7802C12.3304 45.2913 13.918 46.5201 15.7879 47.5314H15.782ZM28.5829 40.4581C29.1944 42.616 29.7941 44.7327 30.3998 46.8788C32.5107 45.5617 34.1336 43.8331 35.4037 41.7576C35.4625 41.6635 35.4449 41.4695 35.3861 41.3636C34.9098 40.5757 34.4276 39.7937 33.9219 39.0235C33.8573 38.9235 33.6279 38.853 33.5045 38.8824C32.8047 39.0764 32.1168 39.294 31.4288 39.5174C30.488 39.8231 29.5472 40.1348 28.5887 40.4464L28.5829 40.4581ZM7.22653 37.2831C7.97329 39.3822 8.9141 41.2578 10.2606 42.9747C10.7428 41.7693 11.1956 40.6287 11.6542 39.488C11.7483 39.2528 11.7248 39.1293 11.4602 39.0176C10.0725 38.4649 8.69654 37.8828 7.22653 37.2772V37.2831ZM13.2889 27.2465C12.7361 26.0941 9.94899 24.5477 8.73182 24.5183C8.51426 25.4826 8.2967 26.4586 8.06737 27.4817C9.84315 27.1759 11.5425 26.9231 13.2947 27.2406L13.2889 27.2465ZM36.0152 24.4183C34.31 25.0063 32.7695 25.6825 31.7287 27.0172C33.3516 27.1348 35.0098 27.2582 36.6914 27.3817C36.468 26.4116 36.2504 25.4473 36.0152 24.4242V24.4183ZM34.2806 38.5355C34.8098 39.3939 35.292 40.1759 35.8153 41.0285C36.5562 39.7408 37.1089 38.4826 37.4852 37.0185C36.3622 37.5536 35.339 38.0357 34.2806 38.5355ZM11.5013 36.6363C12.6303 37.5007 15.5527 37.4242 16.8051 36.6363H11.5013ZM27.9772 36.6187C29.7177 37.4889 32.2285 37.3772 33.1811 36.6187H27.9772Z" fill="black"/>
<path d="M12.4713 36.0955C11.5657 35.9662 10.7778 35.9426 10.0487 35.7192C9.68999 35.6134 9.39599 35.1783 9.14903 34.8373C8.28466 33.6378 7.99066 32.2443 7.9201 30.8038C7.88482 30.0453 7.9789 29.2868 7.96126 28.5225C7.95538 28.1285 8.17882 28.0227 8.47282 27.9933C9.38423 27.8875 10.3015 27.7581 11.2188 27.7169C11.9126 27.6817 12.6241 27.7228 13.3121 27.811C13.8825 27.8816 14.2941 28.252 14.5881 28.7577C15.2466 29.8924 15.917 31.0155 16.5873 32.1444C17.5634 33.7907 18.2807 34.0905 20.1271 33.6378C20.28 34.6609 19.4744 35.731 18.3983 35.9368C18.3395 35.9485 18.2807 35.9426 18.2219 35.9485C17.5281 36.0132 16.8284 36.0779 16.0581 36.1425C16.1169 34.849 14.8938 34.7667 14.1765 34.1376C14.8056 33.8495 15.4113 33.5672 16.0698 33.2615C15.8699 32.8499 15.7112 32.4325 15.476 32.062C15.0114 31.333 14.1059 31.233 13.4826 31.8327C12.8299 32.4619 12.5359 33.2674 12.483 34.1493C12.4419 34.7549 12.4771 35.3664 12.4771 36.0955H12.4713Z" fill="#F1C731"/>
<path d="M30.1825 34.1434C30.7529 33.8788 31.2586 33.6554 31.7466 33.4143C31.8407 33.3673 31.9701 33.2497 31.9642 33.1733C31.8819 32.3795 31.2762 31.3506 30.3119 31.4682C29.8297 31.5269 29.4534 31.7563 29.1771 32.1678C28.5538 33.1203 28.4244 34.1846 28.4597 35.29C28.4656 35.5545 28.4891 35.8132 28.5067 36.1249C27.76 36.0602 27.072 36.0543 26.4075 35.925C25.649 35.778 25.0728 35.3605 24.8964 34.5374C24.8376 34.2786 24.7494 34.0258 24.6494 33.7024C24.9258 33.7201 25.1727 33.7024 25.4079 33.7495C26.5781 33.9729 27.266 33.6789 27.8952 32.6676C28.7478 31.2918 29.6063 29.9159 30.4413 28.5283C30.7059 28.0873 31.0645 27.8698 31.5702 27.7698C32.8521 27.5288 34.1222 27.6287 35.3923 27.8286C35.6569 27.8698 35.9156 27.9403 36.1802 27.958C36.5741 27.9933 36.78 28.1932 36.8035 28.5812C36.9152 30.498 36.9034 32.3971 36.0097 34.1669C35.8156 34.5491 35.5451 34.8901 35.2923 35.2429C34.8689 35.8368 34.2045 35.8544 33.5753 35.9308C33.0461 35.9955 32.5169 36.0249 31.9407 36.0719C32.1112 35.4193 31.7525 35.09 31.288 34.8196C30.9352 34.6138 30.5883 34.3904 30.1825 34.1434Z" fill="#F1C731"/>
<path d="M22.7735 48.9601C22.7735 48.1605 22.7735 47.4314 22.7735 46.7023C22.7735 45.2853 22.7852 43.8683 22.7676 42.4454C22.7676 42.1456 22.8734 42.0162 23.1263 41.8692C24.3846 41.1166 25.784 40.8873 27.1953 40.6874C28.0537 40.5639 28.0479 40.5581 28.2831 41.3812C28.7887 43.1628 29.2768 44.9502 29.8001 46.7258C29.906 47.0786 29.8001 47.2491 29.512 47.3903C27.8009 48.231 26.0075 48.7543 24.0906 48.8484C23.6731 48.8661 23.2615 48.9131 22.7735 48.9543V48.9601Z" fill="white"/>
<path d="M22.1618 48.9485C21.4914 48.8838 20.7917 48.8721 20.1214 48.731C18.9806 48.484 17.8576 48.1606 16.7286 47.8608C16.4463 47.7843 16.3052 47.6903 16.3875 47.3081C16.8462 45.2384 17.2519 43.1629 17.6694 41.0815C17.7164 40.8404 17.834 40.764 18.0692 40.7875C19.4217 40.9169 20.7447 41.1579 21.9089 41.9046C22.0206 41.9811 22.1441 42.1457 22.15 42.2692C22.1853 44.4447 22.2029 46.6202 22.2206 48.8015C22.2206 48.8309 22.2029 48.8544 22.1618 48.9485Z" fill="white"/>
<path d="M15.7762 47.5373C13.9064 46.5319 12.3188 45.2972 10.9487 43.7861C10.8311 43.6567 10.7311 43.3804 10.7841 43.2334C11.2486 41.9398 11.7543 40.664 12.2541 39.3528C13.924 39.8055 15.5293 40.2406 17.1933 40.6875C16.717 42.9806 16.2466 45.2384 15.7703 47.5373H15.7762Z" fill="white"/>
<path d="M28.583 40.4641C29.5474 40.1466 30.4823 39.835 31.4231 39.5351C32.1111 39.3117 32.8049 39.0882 33.4987 38.9001C33.6222 38.8648 33.8457 38.9413 33.9162 39.0412C34.4219 39.8114 34.91 40.5934 35.3804 41.3813C35.4392 41.4813 35.4568 41.6812 35.398 41.7753C34.1279 43.8449 32.505 45.5735 30.3941 46.8965C29.7884 44.7504 29.1887 42.6278 28.5771 40.4759L28.583 40.4641Z" fill="white"/>
<path d="M7.2207 37.2891C8.69071 37.8947 10.0666 38.4709 11.4543 39.0295C11.7189 39.1353 11.7425 39.2646 11.6484 39.4998C11.1897 40.6405 10.737 41.7811 10.2548 42.9865C8.9024 41.2696 7.96747 39.394 7.2207 37.2949V37.2891Z" fill="white"/>
<path d="M13.283 27.2582C11.5367 26.9407 9.83732 27.1935 8.05566 27.4993C8.28499 26.4703 8.50255 25.5002 8.72011 24.5359C9.93728 24.5594 12.7244 26.1058 13.2771 27.2641L13.283 27.2582Z" fill="#39332D"/>
<path d="M36.0092 24.4302C36.2444 25.4533 36.462 26.4175 36.6854 27.3877C34.9978 27.2642 33.3455 27.1407 31.7227 27.0231C32.7634 25.6884 34.304 25.0123 36.0092 24.4243V24.4302Z" fill="#39332D"/>
<path d="M34.2744 38.5472C35.3328 38.0475 36.3501 37.5653 37.479 37.0303C37.1027 38.4943 36.55 39.7467 35.8091 41.0402C35.2858 40.1877 34.8036 39.4057 34.2744 38.5472Z" fill="white"/>
<path d="M11.4951 36.6482H16.7989C15.5465 37.4361 12.6241 37.5125 11.4951 36.6482Z" fill="#39332D"/>
<path d="M27.9717 36.6362H33.1755C32.2288 37.3947 29.7181 37.5064 27.9717 36.6362Z" fill="#39332D"/>
</g>
<defs>
<clipPath id="clip0_549_497">
<rect width="45" height="52" fill="white"/>
</clipPath>
</defs>
</svg>
