<svg width="39" height="32" viewBox="0 0 39 32" fill="none" xmlns="http://www.w3.org/2000/svg">
<path d="M33.6704 20.7142C33.4831 19.4173 32.4782 18.4062 31.1845 18.1048C26.1562 16.9303 24.8958 14.0448 24.6831 10.8442C23.7914 10.6789 22.205 10.5001 19.5123 10.5001C16.8197 10.5001 15.2333 10.6789 14.3416 10.8442C14.1289 14.0448 12.8684 16.9303 7.84015 18.1048C6.54649 18.4081 5.54161 19.4173 5.3543 20.7142L4.38454 27.407C4.04308 29.7637 5.77966 31.8889 8.19527 31.8889H30.8294C33.2431 31.8889 34.9816 29.7637 34.6402 27.407L33.6704 20.7142ZM19.5123 27.0123C16.7904 27.0123 14.5836 24.8345 14.5836 22.1512C14.5836 19.4678 16.7904 17.2901 19.5123 17.2901C22.2343 17.2901 24.4411 19.4678 24.4411 22.1512C24.4411 24.8345 22.2323 27.0123 19.5123 27.0123ZM38.927 8.55561C38.8802 5.63894 31.4304 0.779776 19.5123 0.777832C7.59235 0.779776 0.14259 5.63894 0.0977122 8.55561C0.0528341 11.4723 0.138688 15.2678 5.04405 14.6359C10.7826 13.8951 10.4294 11.8981 10.4294 9.04367C10.4294 7.05255 15.0967 6.57228 19.5123 6.57228C23.928 6.57228 28.5933 7.05255 28.5953 9.04367C28.5953 11.8981 28.2421 13.8951 33.9806 14.6359C38.8841 15.2678 38.9719 11.4723 38.927 8.55561Z" fill="#FEFEFE"/>
</svg>
