<svg width="23" height="23" viewBox="0 0 23 23" fill="none" xmlns="http://www.w3.org/2000/svg">
<path d="M17.1065 14.8928C16.417 14.8928 15.8 15.1664 15.3282 15.595L8.8592 11.8107C8.90457 11.6009 8.94086 11.3912 8.94086 11.1724C8.94086 10.9535 8.90457 10.7438 8.8592 10.534L15.2557 6.78623C15.7456 7.24217 16.3898 7.52485 17.1065 7.52485C18.6127 7.52485 19.8284 6.30293 19.8284 4.78922C19.8284 3.2755 18.6127 2.05359 17.1065 2.05359C15.6004 2.05359 14.3846 3.2755 14.3846 4.78922C14.3846 5.00807 14.4209 5.2178 14.4663 5.42753L8.06985 9.17535C7.57991 8.71941 6.93573 8.43673 6.21896 8.43673C4.71285 8.43673 3.49707 9.65864 3.49707 11.1724C3.49707 12.6861 4.71285 13.908 6.21896 13.908C6.93573 13.908 7.57991 13.6253 8.06985 13.1694L14.5298 16.9628C14.4844 17.1543 14.4572 17.3549 14.4572 17.5555C14.4572 19.0236 15.6458 20.2182 17.1065 20.2182C18.5673 20.2182 19.7558 19.0236 19.7558 17.5555C19.7558 16.0874 18.5673 14.8928 17.1065 14.8928Z" fill="black"/>
</svg>
