<?xml version="1.0" encoding="utf-8"?>
<!-- Generator: Adobe Illustrator 27.5.0, SVG Export Plug-In . SVG Version: 6.00 Build 0)  -->
<svg version="1.1" id="Layer_1" xmlns="http://www.w3.org/2000/svg" xmlns:xlink="http://www.w3.org/1999/xlink" x="0px" y="0px"
	 viewBox="0 0 22.6 22.7" style="enable-background:new 0 0 22.6 22.7;" xml:space="preserve">
<path d="M11.3,0c6.2,0,11.3,5.1,11.3,11.3c0,6.3-5,11.3-11.3,11.3C5,22.7,0,17.6,0,11.3C0,5.1,5,0,11.3,0z M9.2,17.3
	c5,0,7.7-4.2,7.7-7.8V9.2c0.5-0.4,1-0.9,1.4-1.4c-0.5,0.2-1,0.4-1.6,0.4c0.6-0.3,1-0.9,1.2-1.5c-0.5,0.3-1.1,0.5-1.7,0.7
	c-0.5-0.5-1.2-0.9-2-0.9c-1.5,0-2.7,1.2-2.7,2.7c0,0.2,0,0.4,0.1,0.6C9.3,9.7,7.3,8.7,6,7C5.8,7.4,5.6,7.9,5.6,8.4
	c0,0.9,0.5,1.8,1.2,2.3c-0.5,0-0.9-0.1-1.2-0.3v0c0,1.3,0.9,2.4,2.2,2.7c-0.2,0.1-0.5,0.1-0.7,0.1c-0.2,0-0.3,0-0.5,0
	C6.9,14.2,7.9,15,9.1,15c-0.9,0.7-2.1,1.2-3.4,1.2c-0.2,0-0.4,0-0.6,0C6.2,16.9,7.7,17.3,9.2,17.3"/>
</svg>
